<?xml version="1.0" standalone="no"?>
<!DOCTYPE svg PUBLIC "-//W3C//DTD SVG 1.1//EN" "http://www.w3.org/Graphics/SVG/1.1/DTD/svg11.dtd" >
<svg xmlns="http://www.w3.org/2000/svg">
<metadata>Generated by IcoMoon</metadata>
<defs>
<font id="samsungIcon" horiz-adv-x="1024">
<font-face units-per-em="1024" ascent="960" descent="-64" />
<missing-glyph horiz-adv-x="1024" />
<glyph unicode="&#x20;" d="" horiz-adv-x="512" />
<glyph unicode="&#x21;" d="M187.158 513.916l-24.78-130.866h36.074l18.314 118.754h0.732l17.846-118.754h35.958l-24.664 130.868-59.48-0.002zM389.296 513.916l-16.502-100.060h-0.76l-16.472 100.060h-54.594l-2.984-130.868h33.5l0.82 117.642h0.732l22.352-117.642h33.968l22.352 117.642h0.672l0.906-117.642h33.44l-2.954 130.868h-54.476zM79.492 480.242c-0.672 2.634-0.498 5.412-0.176 6.876 0.936 4.184 3.862 8.806 12.23 8.806 7.812 0 12.434-4.74 12.434-11.878v-8.074h33.382v9.158c0 28.526-26.156 32.972-45.114 32.972-4.184 0-8.162-0.292-12.024-0.82l-6.876-1.288c0 0-3.13-0.586-7.754-2.574-4.36-1.902-7.226-3.832-7.226-3.832-6.67-4.564-11.382-11.176-12.932-20.51-0.966-5.852-1.142-11.118 0.292-17.672 5.88-26.77 53.366-34.524 60.24-51.434 1.316-3.16 0.906-7.226 0.322-9.684-1.142-4.33-4.126-8.806-13.048-8.806-8.368 0-13.458 4.71-13.458 11.85v12.698l-35.898-0.002v-10.122c0-29.17 23.464-38.006 48.654-38.006 24.196 0 44.090 8.104 47.28 29.872 1.638 11.352 0.41 18.754-0.118 21.504-5.676 27.414-56.436 35.606-60.21 50.966zM514.692 479.89c-0.614 2.604-0.468 5.384-0.118 6.73 0.936 4.214 3.804 8.718 12.112 8.718 7.782 0 12.258-4.622 12.258-11.674v-7.988h33.12v9.098c0 28.234-25.952 32.592-44.646 32.592-23.552 0-42.862-7.578-46.314-28.702-0.966-5.822-1.112-10.972 0.322-17.496 5.706-26.448 52.78-34.172 59.626-50.936 1.316-3.102 0.906-7.11 0.264-9.538-1.082-4.36-4.096-8.718-12.932-8.718-8.25 0-13.254 4.682-13.254 11.732l-0.030 12.552-35.576 0.002-0.058-10.006c0-28.906 23.288-37.596 48.158-37.596 23.962 0 43.74 7.958 46.87 29.608 1.61 11.206 0.468 18.49-0.118 21.24-5.646 27.094-55.91 35.168-59.684 50.382zM818.79 411.194h-0.702l-30.778 102.722h-49.708v-129.522h32.944l-1.844 106.292h0.732l33.032-106.292h47.602v129.522h-33.090l1.812-102.722zM700.358 513.974h-33.88v-96.842c0.058-1.756 0-3.57-0.292-5.032-0.614-3.19-3.51-9.48-12.844-9.48-9.304 0-12.112 6.29-12.814 9.48-0.264 1.462-0.322 3.276-0.322 5.032v96.842h-33.762v-93.856c-0.118-2.428 0.118-7.372 0.234-8.602 2.34-24.43 22.118-32.358 46.694-32.358 24.634 0 44.354 7.928 46.752 32.358 0.118 1.228 0.352 6.174 0.292 8.602v93.856zM932.63 456.572v-19.104h13.78v-18.988c0.058-1.668-0.058-3.482-0.352-4.974-0.586-3.482-3.95-9.48-13.664-9.48s-13.048 5.998-13.664 9.48c-0.292 1.492-0.352 3.306-0.292 4.974v59.86c0 2.106 0.088 4.418 0.526 6.144 0.76 3.276 3.54 9.568 13.312 9.568 10.24 0 12.786-6.67 13.37-9.568 0.41-1.844 0.41-5.002 0.41-5.002v-7.314h33.762v4.388c0 0 0.118 4.418-0.322 8.602-2.428 24.518-23.23 32.33-46.928 32.33-23.786 0-44.032-7.87-46.986-32.33-0.264-2.166-0.556-6.29-0.556-8.602v-55.092c0-2.458 0.058-4.272 0.438-8.63 2.282-23.786 23.348-32.3 47.104-32.3 6.348 0 12.492 0.614 18.168 1.99 0 0 4.008 0.966 7.988 2.692s7.138 3.804 7.138 3.804c7.49 5.12 12.756 12.756 13.75 23.786 0.38 4.33 0.468 6.174 0.498 8.63v35.108h-47.48z" />
<glyph unicode="&#x22;" d="M1044.924 563.19l-86.19 62.85v-47.838l42.004-30.932 0.232 0.154 20.75 15.128c5.874 4.27 13.66 4.908 20.132 1.604s10.568-9.95 10.568-17.234v-2.318c1.064 6.916-1.448 14.162-7.496 18.586zM79.292 563.19l21.098-15.38 41.906 30.72v47.82l-86.17-63.16c-0.54-0.406-0.812-0.986-1.294-1.43 1.276 1.198 2.744 2.222 4.348 3.034 6.472 3.304 14.238 2.686 20.112-1.604zM671.242 396.664h-241.414c-10.666 0-19.32-8.656-19.32-19.32s8.656-19.32 19.32-19.32h241.412c10.666 0 19.32 8.656 19.32 19.32s-8.654 19.32-19.318 19.32zM803.26 514.154h-505.45c-10.666 0-19.32-8.656-19.32-19.32 0-6.608 3.536-12.172 8.598-15.65 3.11-2.126 6.666-3.67 10.724-3.67h505.45c3.786 0 7.11 1.372 10.086 3.246 5.41 3.42 9.236 9.178 9.236 16.074-0.002 10.664-8.658 19.32-19.324 19.32zM803.26 631.644h-505.45c-10.666 0-19.32-8.656-19.32-19.32s8.656-19.32 19.32-19.32h505.45c10.666 0 19.32 8.656 19.32 19.32s-8.654 19.32-19.32 19.32zM1041.852 564.156c-6.472 3.304-14.258 2.666-20.132-1.604l-62.986-45.906v156.228c0 54.89-44.63 99.54-99.482 99.54h-101.356l-195.952 142.858c-6.782 4.926-15.978 4.946-22.76 0l-195.99-142.838h-101.356c-54.89 0-99.54-44.67-99.54-99.54v-155.612l-63.004 45.908c-5.876 4.29-13.642 4.908-20.134 1.584-1.604-0.812-3.052-1.836-4.348-3.034-0.058-0.058-0.116-0.136-0.194-0.194-3.786-3.594-6.028-8.618-6.028-13.988v-1.912l0.002-556.244c0-10.666 8.656-19.32 19.32-19.32h965.168c10.666 0 19.32 8.656 19.32 19.32l0.002 555.222v2.318c0.018 7.284-4.078 13.91-10.55 17.214zM550.564 875.762l141.738-103.328h-283.494l141.756 103.328zM920.092 488.476l-369.102-269.060-370.050 269.68v183.78c0 33.58 27.32 60.9 60.9 60.9h617.394c33.56 0 60.842-27.32 60.842-60.9l-0.002-184.4z" horiz-adv-x="1100" />
<glyph unicode="&#x24;" d="M944.756 524.312l-422.306 335.406c-13.544 13.568-35.49 13.544-49.012 0l-422.332-335.454c-13.544-13.522-13.592-35.468 0-49.012h88.088v-420.212c0-19.13 15.5-34.63 34.654-34.63h168.052v420.212c0 19.13 15.5 34.654 34.654 34.654h242.712c19.176 0 34.676-15.522 34.676-34.654v-420.212h168.030c19.176 0 34.676 15.5 34.676 34.63l-0.002 420.258h88.088c13.568 13.5 13.59 35.446 0.022 49.014z" horiz-adv-x="1000" />
<glyph unicode="&#x25;" d="M524.488-64l-524.488 512 524.488 512z" horiz-adv-x="524" />
<glyph unicode="&#x26;" d="M0 960l524.488-512-524.488-512z" horiz-adv-x="524" />
<glyph unicode="&#x27;" d="M1024 494.546h-465.454v465.454h-93.092v-465.454h-465.454v-93.092h465.454v-465.454h93.092v465.454h465.454z" />
<glyph unicode="&#x28;" d="M0 494.546h1024v-93.092h-1024z" />
<glyph unicode="&#x29;" d="M512.576 492.416c129.408 0 234.944 104.768 234.944 233.408 0 129.408-105.536 234.176-234.944 234.176-130.624 0-235.776-104.768-235.776-234.176 0-128.576 105.152-233.408 235.776-233.408zM987.264-64v200.896c0 159.488-130.112 289.728-292.096 289.728h-365.952c-161.536 0-292.48-130.24-292.48-289.728v-200.896h950.528z" />
<glyph unicode="&#x2a;" d="M611.67 622.284h22.050v-22.186h-22.050zM546.134 939.52c-205.278 0-371.644-166.434-371.644-371.712 0-142.95 80.828-266.854 199.134-328.978l172.51-282.35 172.236 282.35c118.51 62.122 199.338 186.026 199.338 329.046 0 205.278-166.366 371.644-371.574 371.644zM490.974 734.174h110.25v-31.198h-110.25v31.198zM713.592 449.434c0-28.604-23.348-51.814-51.882-51.814h-231.152c-28.536 0-51.814 23.21-51.814 51.814v191.624c0 4.438 3.618 8.124 8.124 8.124h67.106v53.794l31.198 31.198v-85.060h121.856v85.060l31.266-31.198v-53.862h67.038c4.37 0 8.124-3.686 8.124-8.124v-191.624h0.136zM458.478 622.284h22.12v-22.186h-22.12z" horiz-adv-x="1092" />
<glyph unicode="&#x2b;" d="M957.644 682.848h-891.318c-36.366 0-65.828 29.492-65.828 65.828 0 36.366 29.462 65.828 65.828 65.828h891.318c36.366 0 65.828-29.462 65.828-65.828 0.002-36.338-29.432-65.828-65.828-65.828zM957.644 382.172h-891.318c-36.366 0-65.828 29.492-65.828 65.828 0 36.366 29.462 65.828 65.828 65.828h891.318c36.366 0 65.828-29.462 65.828-65.828 0.002-36.338-29.432-65.828-65.828-65.828zM957.644 81.496h-891.318c-36.366 0-65.828 29.492-65.828 65.828s29.462 65.828 65.828 65.828h891.318c36.366 0 65.828-29.492 65.828-65.828s-29.432-65.828-65.828-65.828z" />
<glyph unicode="&#x2c;" d="M76.774-44.8c-15.386 0-29.85 5.99-40.73 16.87-10.88 10.854-16.87 25.344-16.87 40.73s5.99 29.85 16.87 40.73l394.496 394.496-394.47 394.47c-10.88 10.88-16.87 25.344-16.87 40.73s5.99 29.876 16.87 40.756c10.854 10.828 25.318 16.818 40.704 16.818s29.85-5.99 40.73-16.87l435.226-435.226c10.88-10.854 16.87-25.318 16.87-40.73 0-15.386-5.99-29.85-16.896-40.73l-435.2-435.174c-10.88-10.88-25.344-16.87-40.73-16.87zM76.774 921.6c9.83 0 19.66-3.738 27.162-11.238l435.2-435.226c7.5-7.5 11.238-17.332 11.238-27.162s-3.738-19.66-11.238-27.136l-435.2-435.226c-7.5-7.474-17.332-11.212-27.162-11.212s-19.66 3.738-27.162 11.238c-14.976 15.002-14.976 39.296 0 54.272l408.090 408.090-408.090 408.064c-14.976 15.002-14.976 39.322 0 54.298 7.502 7.5 17.332 11.238 27.162 11.238zM76.774 960c-20.506 0-39.782-7.988-54.272-22.502-14.514-14.49-22.502-33.742-22.502-54.272 0-20.532 7.988-39.808 22.502-54.298l380.954-380.928-380.954-380.954c-14.514-14.49-22.502-33.766-22.502-54.272 0-20.532 7.988-39.808 22.502-54.298 14.49-14.488 33.766-22.476 54.272-22.476s39.808 8.012 54.272 22.502l435.226 435.226c14.49 14.464 22.502 33.766 22.502 54.298s-8.012 39.834-22.528 54.298l-435.2 435.174c-14.464 14.514-33.766 22.502-54.272 22.502z" horiz-adv-x="588" />
<glyph unicode="&#x2d;" d="M511.6 940.8c15.412 0 29.85-5.99 40.73-16.87 10.854-10.83 16.844-25.344 16.844-40.704s-5.964-29.85-16.87-40.73l-394.496-394.496 394.496-394.496c10.906-10.88 16.87-25.344 16.87-40.73s-5.964-29.876-16.87-40.756c-10.88-10.854-25.318-16.844-40.73-16.844-15.386 0-29.85 5.99-40.73 16.87l-435.174 435.226c-10.88 10.854-16.87 25.318-16.87 40.73 0 15.386 5.99 29.85 16.896 40.73l435.174 435.174c10.88 10.88 25.344 16.896 40.73 16.896zM511.6-25.6c-9.83 0-19.66 3.738-27.162 11.212l-435.226 435.2c-7.474 7.502-11.212 17.358-11.212 27.162 0 9.83 3.738 19.66 11.238 27.136l435.2 435.252c7.502 7.474 17.332 11.238 27.162 11.238s19.686-3.738 27.188-11.238c14.976-15.002 14.976-39.296 0-54.272l-408.142-408.116 408.090-408.064c14.976-15.002 14.976-39.322 0-54.298-7.476-7.5-17.306-11.212-27.136-11.212zM511.6-64c20.506 0 39.834 7.988 54.272 22.502 14.516 14.464 22.502 33.766 22.502 54.272s-7.988 39.808-22.502 54.298l-380.928 380.902 380.928 380.954c14.516 14.49 22.502 33.792 22.502 54.272 0 20.532-7.988 39.808-22.502 54.298-14.438 14.49-33.766 22.502-54.272 22.502s-39.808-8.012-54.272-22.502l-435.226-435.226c-14.49-14.464-22.502-33.766-22.502-54.298 0-20.506 8.012-39.808 22.528-54.298l435.2-435.2c14.464-14.514 33.766-22.476 54.272-22.476z" horiz-adv-x="588" />
<glyph unicode="&#x2f;" d="M1555.41 107.996l-110.914-110.914-777.842 777.84 110.914 110.916zM110.762-3.078l-110.892 110.91 666.974 666.974 110.912-110.912z" horiz-adv-x="1582" />
<glyph unicode="&#x30;" d="M1555.41 774.762l-110.914 110.916-777.842-777.842 110.914-110.914zM110.762 885.838l-110.892-110.912 666.974-666.972 110.912 110.91z" horiz-adv-x="1582" />
<glyph unicode="&#x31;" d="M721.070-42.449l71.137 71.137-498.89 498.892-71.14-71.137zM792.312 884.116l-71.134 71.124-427.781-427.783 71.137-71.137z" horiz-adv-x="1022" />
<glyph unicode="&#x32;" d="M316.93-42.449l-71.137 71.137 498.89 498.892 71.14-71.137zM245.688 884.116l71.134 71.124 427.781-427.783-71.137-71.137z" horiz-adv-x="1022" />
<glyph unicode="&#x33;" d="M878.396 101.758c-12.396-12.942-32.898-13.378-45.884-1.002l-692.79 663.224c-12.92 12.398-13.378 32.942-0.98 45.884 12.376 12.964 32.92 13.4 45.884 1.002l692.812-663.268c12.962-12.354 13.354-32.878 0.958-45.84zM848.656 764.154l-648.236-677.168c-12.376-12.964-32.92-13.4-45.884-1.024-12.942 12.354-13.4 32.942-0.98 45.884l648.214 677.19c12.396 12.92 32.898 13.378 45.884 0.98 12.92-12.352 13.422-32.92 1.002-45.862z" horiz-adv-x="1002" />
<glyph unicode="&#x34;" d="M772.202 915.316c-262.562 0-475.418-212.856-475.418-475.418s212.856-475.418 475.418-475.418c262.562 0 475.418 212.856 475.418 475.418s-212.858 475.418-475.418 475.418zM671.082 144.218v591.348l316.326-295.668-316.326-295.68z" horiz-adv-x="1582" />
<glyph unicode="&#x35;" d="M509.132 13.806c-234.99 0-426.154 191.164-426.154 426.12 0 234.974 191.164 426.138 426.154 426.138 234.974 0 426.138-191.164 426.138-426.138 0-234.956-191.164-426.12-426.138-426.12zM509.132 840.466c-220.86 0-400.554-179.678-400.554-400.538s179.694-400.52 400.554-400.52c220.86 0 400.538 179.66 400.538 400.52s-179.678 400.538-400.538 400.538zM508.502 127.18c-2.15 0-4.284 0.512-6.23 1.604l-209.34 116.344c-4.078 2.252-6.588 6.536-6.588 11.196v255.864c0 4.438 2.304 8.55 6.076 10.888 3.754 2.322 8.482 2.526 12.442 0.564l209.356-104.704c4.334-2.168 7.082-6.604 7.082-11.452v-267.502c0-4.522-2.406-8.756-6.314-11.026-1.996-1.194-4.248-1.776-6.484-1.776zM311.944 263.85l183.756-102.11 0.002 237.842-183.756 91.886-0.002-227.618zM508.502 127.198c-2.236 0-4.488 0.564-6.486 1.758-3.908 2.304-6.314 6.502-6.314 11.042v267.468c0 4.864 2.748 9.302 7.082 11.468l209.356 104.704c3.976 1.98 8.704 1.774 12.458-0.564 3.772-2.322 6.058-6.452 6.058-10.888v-255.898c0-4.642-2.508-8.908-6.588-11.196l-209.374-116.276c-1.908-1.106-4.060-1.618-6.192-1.618zM521.302 399.564v-237.842l183.774 102.058v227.67l-183.774-91.886zM508.502 396.562c-1.946 0-3.874 0.444-5.65 1.332l-209.34 102.792c-4.404 2.15-7.186 6.638-7.168 11.52 0.018 4.898 2.834 9.37 7.236 11.486l110.728 53.402c3.396 1.656 7.39 1.724 10.872 0.12 3.464-1.57 6.042-4.626 7.032-8.278 10.82-39.868 47.206-67.704 88.49-67.704 40.584 0 76.818 27.256 88.116 66.27 1.058 3.618 3.652 6.588 7.082 8.124 3.464 1.536 7.442 1.468 10.804-0.17l106.734-51.764c4.438-2.134 7.236-6.604 7.236-11.486 0-4.898-2.764-9.37-7.168-11.52l-209.374-102.792c-1.774-0.872-3.702-1.332-5.63-1.332zM328.396 512.086l180.104-88.456 180.172 88.474-70.366 34.134c-18.414-42.206-60.758-70.588-107.588-70.588-47.668 0-90.232 29.014-108.254 72.158l-74.068-35.722zM510.702 475.648c-64.734 0-117.402 52.668-117.402 117.402 0 64.75 52.668 117.418 117.402 117.418s117.402-52.668 117.402-117.418c0-64.734-52.668-117.402-117.402-117.402zM510.702 684.868c-50.62 0-91.802-41.198-91.802-91.818s41.182-91.802 91.802-91.802 91.802 41.182 91.802 91.802c0 50.62-41.182 91.818-91.802 91.818zM561.408 580.25h-101.41c-7.066 0-12.8 5.734-12.8 12.8s5.734 12.8 12.8 12.8h101.41c7.066 0 12.8-5.734 12.8-12.8s-5.734-12.8-12.8-12.8zM510.702 529.544c-7.066 0-12.8 5.734-12.8 12.8v101.394c0 7.066 5.734 12.8 12.8 12.8s12.8-5.734 12.8-12.8v-101.394c0-7.066-5.734-12.8-12.8-12.8z" />
<glyph unicode="&#x48;" d="M639.318 326.196c-28.842 0-56.456-7.868-80.554-22.358l-56.082 56.064c24.030 45.722 24.030 100.796-0.018 146.466l63.386 63.402c22.306-11.81 47.308-18.108 73.25-18.108h0.018c41.932 0 81.356 16.298 111.018 45.994 61.15 61.132 61.15 160.7-0.018 221.952-29.644 29.644-69.052 45.944-111.002 45.944s-81.356-16.298-110.984-45.944c-49.784-49.784-59.084-124.946-27.904-184.218l-63.368-63.368c-22.306 11.776-47.274 18.074-73.216 18.074-41.966 0-81.39-16.332-110.968-45.96-61.236-61.184-61.27-160.768-0.052-222.038 29.628-29.628 69.052-45.978 111.018-45.978 25.942 0 50.944 6.314 73.234 18.142l59.7-59.716c-26.454-57.958-16.060-128.7 31.522-176.35 29.662-29.594 69.068-45.96 111.002-45.96 41.95 0 81.374 16.366 111.036 45.994 61.132 61.184 61.132 160.75-0.018 221.952-29.644 29.698-69.050 46.014-111 46.014zM640.46 789.248c43.434 0 78.678-35.208 78.678-78.694 0-43.468-35.242-78.728-78.678-78.728-43.502 0-78.728 35.26-78.728 78.728 0 43.486 35.242 78.694 78.728 78.694zM364.050 353.298c-43.502 0-78.746 35.26-78.746 78.728 0 43.452 35.242 78.694 78.746 78.694 43.452 0 78.694-35.242 78.694-78.694s-35.244-78.728-78.694-78.728zM640.46 90.982c-43.502 0-78.728 35.226-78.728 78.712 0 43.468 35.226 78.728 78.728 78.728 43.434 0 78.678-35.26 78.678-78.728 0.018-43.468-35.242-78.712-78.678-78.712z" />
<glyph unicode="&#x49;" d="M795.374 795.546c-77.158 34.508-152.662 31.762-221.832-19.712-24.132-18.022-43.998-41.71-66.27-63.914-22.272 22.272-42.12 45.994-66.202 64.018-69.018 51.61-144.538 54.494-221.764 20.070-90.248-40.226-143.89-126.174-138.478-219.256 2.936-50.108 21.35-94.482 50.296-135.082 41.438-58.164 89.002-111.052 138.292-162.474 36.728-38.246 73.95-76.134 111.872-113.288 40.704-39.766 125.304-118.648 125.304-118.648s84.718 78.678 125.56 118.442c38.008 37.034 75.332 74.872 112.094 113.118 49.408 51.302 97.076 104.124 138.632 162.184 28.996 40.584 47.496 84.94 50.5 134.998 5.562 93.114-47.84 179.146-138.004 219.544z" />
<glyph unicode="&#x4c;" d="M98.338 215.45h806.554v-23.774h-806.554zM98.322 309.486h806.552v-23.772h-806.552zM98.338 403.524h806.554v-23.774h-806.554zM98.338 497.562h806.554v-23.792h-806.554zM98.338 591.598h806.554v-23.772h-806.554zM98.338 685.62h806.554v-23.774h-806.554zM86.442 673.74h23.774v-470.168h-23.774zM176.042 673.74h23.774v-470.168h-23.774zM265.66 673.74h23.774v-470.168h-23.774zM355.294 673.74h23.774v-470.168h-23.774zM444.894 673.74h23.774v-470.168h-23.774zM534.494 673.74h23.79v-470.168h-23.79zM624.128 673.74h23.79v-470.168h-23.79zM713.728 673.74h23.79v-470.168h-23.79zM803.362 673.74h23.774v-470.168h-23.774zM892.996 673.74h23.774v-470.168h-23.774z" />
<glyph unicode="&#x4d;" d="M923.972 184.576h-828.502c-8.346 0-15.086 6.758-15.086 15.070v482.986c0 8.294 6.742 15.070 15.086 15.070h828.502c8.312 0 15.070-6.758 15.070-15.070v-482.986c-0.016-8.312-6.758-15.070-15.070-15.070zM110.54 214.732h798.362v452.83h-798.362v-452.83z" />
<glyph unicode="&#x4e;" d="M296.784 439.896c0-262.562 212.856-475.418 475.418-475.418s475.418 212.856 475.418 475.418c0 262.562-212.856 475.418-475.418 475.418s-475.418-212.86-475.418-475.418zM1067.882 338.776h-591.348l295.668 316.326 295.68-316.326z" horiz-adv-x="1582" />
<glyph unicode="&#x4f;" d="M960.29 556.492l-333.226 12.972-115.85 312.694-115.284-312.9-333.21-13.534 261.956-206.336-90.078-321.074 277.198 185.378 277.538-184.9-90.658 320.904z" />
<glyph unicode="&#x50;" d="M215.092 592.982c-28.006 0.034-50.688-22.698-50.688-50.67l0.034-212.276c0-28.074 22.698-50.706 50.688-50.706 28.024 0 50.722 22.648 50.688 50.706v212.292c-0.018 27.972-22.734 50.688-50.722 50.654zM623.854 783.616l35.362 64.598c1.878 3.362 0.648 7.662-2.782 9.592-3.43 1.826-7.714 0.58-9.54-2.816l-35.738-65.28c-30.088 13.38-63.71 20.89-99.31 20.856-35.516 0.034-69.154-7.442-99.106-20.754l-35.772 65.11c-1.86 3.43-6.126 4.676-9.524 2.798-3.448-1.844-4.694-6.162-2.798-9.54l35.396-64.564c-69.546-35.858-116.532-104.158-116.48-182.562l456.584 0.052c0.052 78.386-46.88 146.534-116.292 182.51zM407.996 683.776c-10.514 0.018-19.080 8.568-19.080 19.114 0 10.514 8.55 19.166 19.098 19.166 10.582 0.018 19.148-8.652 19.166-19.166-0.002-10.546-8.586-19.114-19.184-19.114zM615.902 683.81c-10.548-0.018-19.148 8.534-19.148 19.132 0.034 10.478 8.584 19.148 19.148 19.182 10.514-0.034 19.132-8.704 19.114-19.2 0.018-10.564-8.566-19.114-19.114-19.114zM285.44 583.406l0.086-328.942c-0.018-29.918 24.184-54.084 54.084-54.084l36.83-0.018 0.034-112.316c0-27.956 22.716-50.688 50.654-50.688 28.006 0 50.706 22.75 50.722 50.722l-0.034 112.298h68.438l0.018-112.298c0-27.956 22.732-50.722 50.688-50.67 28.006-0.018 50.706 22.732 50.706 50.722l-0.034 112.264 36.966 0.034c29.832-0.018 54.102 24.184 54.102 54.102l-0.034 328.96-453.226-0.086zM859.528 542.378c0 28.006-22.664 50.706-50.67 50.688-28.006 0.018-50.706-22.698-50.706-50.706l0.068-212.292c0-28.006 22.664-50.67 50.67-50.67s50.67 22.664 50.706 50.722l-0.068 212.258z" />
<glyph unicode="&#x51;" d="M264.43 370.364h471.296v155.256h-471.296v-155.256zM825.77 496.248h-20.94v22.17c0 38.11-30.994 69.12-69.12 69.12h-471.28c-38.11 0-69.12-31.010-69.12-69.12v-140.8c0-38.11 31.010-69.138 69.12-69.138h471.296c38.11 0 69.12 31.010 69.12 69.138v22.136h20.94c10.36 0 18.79 8.43 18.79 18.808v58.948c-0.032 10.324-8.446 18.738-18.806 18.738zM779.23 377.6c0-23.996-19.524-43.538-43.52-43.538h-471.28c-23.996 0-43.52 19.542-43.52 43.538v140.8c0 23.996 19.524 43.52 43.52 43.52h471.296c23.996 0 43.52-19.524 43.52-43.52v-140.8z" />
<glyph unicode="&#x52;" d="M264.43 370.364h255.506v155.256h-255.506v-155.256zM825.77 496.248h-20.94v22.17c0 38.11-30.994 69.12-69.12 69.12h-471.28c-38.11 0-69.12-31.010-69.12-69.12v-140.8c0-38.11 31.010-69.138 69.12-69.138h471.296c38.11 0 69.12 31.010 69.12 69.138v22.136h20.94c10.36 0 18.79 8.43 18.79 18.808v58.948c-0.032 10.324-8.446 18.738-18.806 18.738zM779.23 377.6c0-23.996-19.524-43.538-43.52-43.538h-471.28c-23.996 0-43.52 19.542-43.52 43.538v140.8c0 23.996 19.524 43.52 43.52 43.52h471.296c23.996 0 43.52-19.524 43.52-43.52v-140.8z" />
<glyph unicode="&#x53;" d="M264.43 370.364h370.792v155.256h-370.792v-155.256zM825.77 496.248h-20.94v22.17c0 38.11-30.994 69.12-69.12 69.12h-471.28c-38.11 0-69.12-31.010-69.12-69.12v-140.8c0-38.11 31.010-69.138 69.12-69.138h471.296c38.11 0 69.12 31.010 69.12 69.138v22.136h20.94c10.36 0 18.79 8.43 18.79 18.808v58.948c-0.032 10.324-8.446 18.738-18.806 18.738zM779.23 377.6c0-23.996-19.524-43.538-43.52-43.538h-471.28c-23.996 0-43.52 19.542-43.52 43.538v140.8c0 23.996 19.524 43.52 43.52 43.52h471.296c23.996 0 43.52-19.524 43.52-43.52v-140.8z" />
<glyph unicode="&#x54;" d="M512 786.398c-186.59 0-338.398-151.808-338.398-338.398 0-186.606 151.808-338.398 338.398-338.398s338.398 151.792 338.398 338.398c0 186.59-151.808 338.398-338.398 338.398zM790.34 590.046c12.288-23.962 21.692-49.596 27.46-76.63h-27.46v76.63zM577.894 753.682c27.102-5.836 52.822-15.292 76.834-27.682h-76.834v27.682zM471.688 757.896c13.226 1.724 26.624 2.902 40.294 2.902 13.688 0 27.068-1.178 40.312-2.902v-31.898h-80.606v31.898zM259.226 594.124h80.622v-80.708h-80.622v80.708zM259.226 487.816h80.622v-80.692h-80.622v80.692zM259.226 381.526h80.622v-80.708h-80.622v80.708zM233.626 306.022c-12.1 23.638-21.368 48.896-27.17 75.52h27.17v-75.52zM233.626 407.126h-31.454c-1.758 13.414-2.986 26.982-2.986 40.874 0 13.516 1.144 26.744 2.834 39.816h31.608l-0.002-80.69zM233.626 513.416h-27.426c5.768 27 15.172 52.616 27.426 76.562v-76.562zM339.866 194.56h-10.496c-26.932 19.474-50.586 43.060-70.144 69.94v10.752h80.64v-80.692zM339.866 619.724h-80.64v11.776c19.218 26.386 42.41 49.63 68.778 68.898h11.862v-80.674zM446.088 142.318c-26.316 5.684-51.286 14.796-74.7 26.658h74.7v-26.658zM446.088 194.56h-80.622v80.692h80.622v-80.692zM446.088 300.834h-80.622v80.708h80.622v-80.708zM446.088 407.126h-80.622v80.692h80.622v-80.692zM446.088 513.416h-80.622v80.708h80.622v-80.708zM446.088 619.708h-80.622v80.692h80.622v-80.692zM446.088 725.998h-76.834c24.012 12.39 49.75 21.828 76.834 27.682v-27.682zM552.294 138.104c-13.226-1.724-26.624-2.902-40.312-2.902s-27.068 1.178-40.294 2.902v30.856h80.606v-30.856zM552.312 194.56h-80.622v80.692h80.622v-80.692zM552.312 300.834h-80.622v80.708h80.622v-80.708zM552.312 407.126h-80.622v80.692h80.622v-80.692zM552.312 513.416h-80.622v80.708h80.622v-80.708zM552.312 619.708h-80.622v80.692h80.622v-80.692zM577.894 142.336v26.624h74.684c-23.398-11.844-48.384-20.958-74.684-26.624zM658.534 194.56h-80.64v80.692h80.64v-80.692zM658.534 300.834h-80.64v80.708h80.64v-80.708zM658.534 407.126h-80.64v80.692h80.64v-80.692zM658.534 513.416h-80.64v80.708h80.64v-80.708zM658.534 619.708h-80.64v80.692h80.64v-80.692zM764.74 264.448c-19.558-26.846-43.196-50.432-70.11-69.888h-10.478v80.692h80.606v-10.804zM764.74 300.834h-80.606v80.708h80.606v-80.708zM764.74 407.126h-80.606v80.692h80.606v-80.692zM764.74 513.416h-80.606v80.708h80.606v-80.708zM764.74 619.724h-80.606v80.674h11.844c26.35-19.252 49.528-42.478 68.744-68.864l0.002-11.81zM790.34 305.954v75.588h27.204c-5.82-26.64-15.086-51.95-27.204-75.588zM790.34 407.126v80.692h31.642c1.672-13.074 2.816-26.3 2.816-39.816 0-13.876-1.212-27.444-2.986-40.874l-31.472-0.002z" />
<glyph unicode="&#x55;" d="M512.018 786.398c-186.624 0-338.432-151.808-338.432-338.398 0-186.606 151.808-338.398 338.432-338.398 186.59 0 338.38 151.808 338.38 338.398s-151.792 338.398-338.38 338.398zM330.82 211.252h-22.664c-42.684 36.812-75.366 84.856-93.32 139.588h115.986l-0.002-139.588zM330.82 376.44h-123.034c-5.41 23.040-8.584 46.916-8.584 71.56 0 23.382 2.782 46.098 7.68 68.028h123.956v-139.588zM330.82 541.628h-117.282c17.306 55.022 49.612 103.304 91.852 140.612h25.412l0.002-140.612zM499.2 135.85c-51.832 2.116-100.404 16.742-142.78 41.182v8.618h142.78v-49.8zM499.2 211.252h-142.78v139.588h142.78v-139.588zM499.2 376.422h-142.78v139.606h142.78v-139.606zM499.2 541.628h-142.78v140.612h142.78v-140.612zM499.2 707.84h-142.78v11.128c42.376 24.44 90.948 39.066 142.78 41.182v-52.31zM692.206 682.24h26.402c42.258-37.308 74.548-85.59 91.852-140.612h-118.254v140.612zM666.606 176.418c-42.154-24.082-90.386-38.486-141.806-40.568v49.8h141.806v-9.232zM666.606 211.252h-141.79v139.588h141.79v-139.588zM666.606 376.44h-141.79v139.606h141.79v-139.606zM666.606 541.628h-141.79v140.612h141.79v-140.612zM666.606 707.84h-141.806v52.31c51.422-2.1 99.652-16.486 141.806-40.568v-11.742zM715.844 211.252h-23.654v139.588h116.958c-17.954-54.734-50.62-102.776-93.304-139.588zM692.206 376.44v139.588h124.928c4.882-21.93 7.662-44.646 7.662-68.028 0-24.644-3.174-48.538-8.584-71.56h-124.006z" />
<glyph unicode="&#x56;" d="M512.018 786.398c-186.606 0-338.414-151.808-338.414-338.398 0-186.606 151.808-338.398 338.414-338.398 186.59 0 338.38 151.808 338.38 338.398s-151.792 338.398-338.38 338.398zM635.17 735.454c72.602-31.232 130.986-89.242 162.918-161.468h-162.918v161.468zM384.068 162.868c-68.506 30.856-123.802 85.624-155.512 153.668h155.512v-153.668zM384.068 342.136h-166.042c-11.964 33.11-18.842 68.66-18.842 105.864 0 35.14 6.092 68.83 16.828 100.386h168.038l0.002-206.25zM384.068 573.986h-158.156c31.232 70.622 87.79 127.454 158.156 159.164v-159.164zM609.57 150.988c-30.738-10.12-63.47-15.786-97.554-15.786-35.892 0-70.23 6.366-102.348 17.544v163.788h199.902v-165.546zM609.57 342.136h-199.902v206.25h199.902v-206.25zM609.57 573.986h-199.902v169.268c32.12 11.162 66.474 17.544 102.348 17.544 34.082 0 66.816-5.666 97.554-15.786v-171.026zM635.17 160.546v155.99h160.274c-32.444-69.65-89.55-125.56-160.274-155.99zM635.17 342.136v206.25h172.8c10.752-31.556 16.828-65.246 16.828-100.386 0-37.206-6.86-72.756-18.842-105.864h-170.786z" />
<glyph unicode="&#x58;" d="M776.602-17.066h-529.204c-7.066 0-12.8 5.734-12.8 12.8v907.844c0 7.066 5.734 12.8 12.8 12.8h529.204c7.066 0 12.8-5.734 12.8-12.8v-907.844c0-7.066-5.734-12.8-12.8-12.8zM260.198 8.534h503.604v882.244h-503.604v-882.244z" />
<glyph unicode="&#x59;" d="M726.34-17.066h-428.68c-7.066 0-12.8 5.734-12.8 12.8v735.35c0 7.066 5.734 12.8 12.8 12.8h428.664c7.066 0 12.8-5.734 12.8-12.8v-735.35c0.016-7.066-5.718-12.8-12.784-12.8zM310.46 8.534h403.064v709.75h-403.064v-709.75z" />
<glyph unicode="&#x5a;" d="M840.396 324.232c0-6.162-2.286-11.896-8.892-17.272 7.304-8.636 11.862-19.626 11.862-31.796v-60.502c0-22.596-15.292-42.308-37.24-47.906-0.494-0.136-1.006-0.308-1.502-0.494-41.744-16.024-162.098-27.236-292.624-27.236-130.542 0-250.862 11.196-292.608 27.238-0.494 0.204-1.006 0.358-1.518 0.494-21.93 5.598-37.24 25.292-37.24 47.906v60.502c0 12.168 4.574 23.16 11.862 31.796-6.622 5.358-8.908 11.094-8.908 17.272 0 6.93 2.85 13.33 11.468 19.2-24.746-12.766-41.728-38.57-41.728-68.266v-60.502c0-34.834 23.398-65.194 57.002-74.172 46.456-17.494 164.626-28.774 301.67-28.774 137.046 0 255.232 11.264 301.67 28.774 33.604 8.96 57.020 39.338 57.020 74.172v60.502c0 29.73-17.016 55.534-41.78 68.266 8.636-5.872 11.486-12.272 11.486-19.202zM813.67 342.802c-9.37-3.498-21.794-6.758-36.574-9.762 13.858-2.936 24.338-5.906 30.738-8.806-28.622-12.904-135.458-28.128-295.834-28.128-160.392 0-267.23 15.24-295.834 28.126 6.382 2.902 16.862 5.87 30.754 8.806-14.796 3.004-27.204 6.264-36.574 9.762-3.55 0.938-6.912 2.27-10.222 3.67-1.86-1.006-3.566-1.996-5.068-3.038-8.618-5.87-11.468-12.27-11.468-19.2 0-6.162 2.286-11.896 8.908-17.272 12.168-9.864 39.202-18.364 95.13-25.804 60.040-7.952 139.724-12.356 224.374-12.356s164.334 4.404 224.358 12.374c55.928 7.442 82.962 15.94 95.13 25.804 6.622 5.358 8.892 11.094 8.892 17.272 0 6.93-2.85 13.33-11.502 19.2-1.484 1.042-3.174 2.030-5.018 3.038-3.26-1.418-6.64-2.748-10.19-3.686zM840.396 526.558c0-6.178-2.27-11.93-8.892-17.288 7.304-8.618 11.862-19.626 11.862-31.778v-60.518c0-22.63-15.292-42.308-37.222-47.906-0.512-0.136-1.024-0.308-1.554-0.494-42.358-16.3-159.948-27.24-292.59-27.24-132.66 0-250.248 10.94-292.608 27.238-0.494 0.204-1.024 0.358-1.536 0.494-21.93 5.564-37.24 25.258-37.24 47.906v60.518c0 12.152 4.574 23.16 11.862 31.778-6.622 5.358-8.908 11.11-8.908 17.288 0 6.93 2.85 13.312 11.502 19.2-24.764-12.782-41.762-38.554-41.762-68.266v-60.518c0-31.164 18.79-58.642 46.796-70.502 3.31-1.4 6.674-2.73 10.222-3.67 9.37-3.498 21.778-6.758 36.574-9.762 58.454-11.81 155.684-19.012 265.098-19.012 109.364 0 206.61 7.202 265.096 18.996 14.762 3.004 27.204 6.264 36.574 9.762 3.55 0.938 6.93 2.27 10.222 3.67 28.006 11.862 46.796 39.338 46.796 70.502v60.518c0 29.73-17.016 55.518-41.78 68.284 8.638-5.888 11.488-12.272 11.488-19.2zM813.67 545.11c-9.37-3.532-21.794-6.792-36.574-9.78 13.858-2.902 24.338-5.906 30.702-8.772-28.604-12.902-135.424-28.126-295.8-28.126s-267.212 15.224-295.816 28.126c6.382 2.868 16.844 5.854 30.72 8.772-14.78 2.986-27.204 6.246-36.574 9.78-3.55 0.938-6.912 2.252-10.222 3.652-1.86-0.99-3.55-1.996-5.018-3.004-8.652-5.906-11.502-12.27-11.502-19.2 0-6.178 2.286-11.93 8.908-17.288 12.168-9.848 39.202-18.364 95.13-25.788 60.040-7.954 139.708-12.356 224.376-12.356 84.65 0 164.334 4.386 224.358 12.356 55.928 7.424 82.962 15.958 95.13 25.804 6.638 5.358 8.892 11.094 8.892 17.288 0 6.946-2.85 13.33-11.502 19.218-1.502 1.006-3.174 1.996-5.034 2.986-3.278-1.416-6.624-2.712-10.174-3.668zM210.33 545.092c9.37-3.532 21.778-6.776 36.574-9.78 58.47-11.794 155.716-19.012 265.096-19.012 109.364 0 206.61 7.22 265.096 19.012 14.762 2.986 27.204 6.264 36.574 9.78 3.55 0.956 6.894 2.252 10.206 3.652 28.024 11.878 46.814 39.356 46.814 70.486v60.518c0 29.696-16.982 55.466-41.728 68.25 8.618-5.888 11.452-12.254 11.452-19.182 0-6.178-2.286-11.93-8.892-17.288 7.304-8.618 11.862-19.626 11.862-31.778v-60.518c0-22.596-15.292-42.308-37.222-47.89-0.512-0.12-1.024-0.308-1.554-0.494-41.728-16.028-162.048-27.224-292.608-27.224-130.542 0-250.862 11.196-292.608 27.238-0.494 0.188-1.006 0.358-1.518 0.478-21.93 5.598-37.24 25.292-37.24 47.906v60.518c0 12.152 4.574 23.142 11.862 31.778-6.622 5.358-8.908 11.11-8.908 17.288 0 6.912 2.834 13.278 11.418 19.166-24.712-12.782-41.676-38.536-41.676-68.232v-60.518c0-31.146 18.79-58.606 46.78-70.486 3.308-1.398 6.67-2.712 10.22-3.668zM183.586 728.85c0-6.178 2.286-11.93 8.908-17.288 12.168-9.848 39.202-18.364 95.13-25.788 60.040-7.954 139.708-12.356 224.376-12.356 84.65 0 164.334 4.386 224.358 12.356 55.928 7.424 82.962 15.958 95.13 25.804 6.622 5.358 8.892 11.094 8.892 17.288 0 6.93-2.834 13.294-11.452 19.182-13.226 9.046-40.244 16.964-92.586 23.894-60.008 7.954-139.692 12.34-224.342 12.34-84.668 0-164.334-4.386-224.376-12.356-52.36-6.946-79.378-14.866-92.62-23.91-8.584-5.89-11.418-12.254-11.418-19.166zM807.834 728.85c-28.638-12.902-135.458-28.126-295.834-28.126s-267.212 15.224-295.834 28.126c28.62 12.902 135.458 28.126 295.834 28.126s267.196-15.224 295.834-28.126z" />
<glyph unicode="&#x5b;" d="M750.132-17.066h-476.28c-7.066 0-12.8 5.734-12.8 12.8v817.066c0 7.066 5.734 12.8 12.8 12.8h476.28c7.066 0 12.8-5.734 12.8-12.8v-817.066c0-7.066-5.736-12.8-12.8-12.8zM286.652 8.534h450.68v791.466h-450.68v-791.466z" />
<glyph unicode="&#x5c;" d="M210.33 140.51c9.37-3.532 21.778-6.776 36.574-9.78 58.47-11.776 155.716-18.996 265.096-18.996 109.364 0 206.61 7.22 265.096 18.996 14.762 3.004 27.204 6.264 36.574 9.796 3.55 0.938 6.894 2.236 10.206 3.636 28.024 11.878 46.814 39.372 46.814 70.502v60.536c0 29.696-16.982 55.466-41.728 68.232 8.618-5.888 11.452-12.254 11.452-19.166 0-6.196-2.286-11.93-8.892-17.306 7.304-8.618 11.862-19.61 11.862-31.762v-60.536c0-22.596-15.292-42.308-37.222-47.906-0.512-0.12-1.024-0.308-1.554-0.478-41.728-16.040-162.048-27.252-292.608-27.252-130.542 0-250.862 11.196-292.608 27.256-0.494 0.188-1.006 0.358-1.518 0.478-21.93 5.598-37.24 25.292-37.24 47.906v60.536c0 12.134 4.574 23.126 11.862 31.762-6.622 5.358-8.908 11.094-8.908 17.306 0 6.894 2.834 13.26 11.418 19.166-24.712-12.8-41.676-38.554-41.676-68.232v-60.536c0-31.13 18.79-58.606 46.78-70.502 3.308-1.404 6.67-2.7 10.22-3.656zM183.586 324.266c0-6.196 2.286-11.93 8.908-17.306 12.168-9.848 39.202-18.364 95.13-25.804 60.040-7.954 139.708-12.34 224.376-12.34 84.65 0 164.334 4.386 224.358 12.34 55.928 7.442 82.962 15.974 95.13 25.804 6.622 5.358 8.892 11.094 8.892 17.306 0 6.912-2.834 13.278-11.452 19.166-13.226 9.062-40.244 16.964-92.586 23.894-60.008 7.97-139.692 12.374-224.342 12.374-84.668 0-164.334-4.404-224.376-12.374-52.36-6.93-79.378-14.848-92.62-23.894-8.584-5.904-11.418-12.27-11.418-19.166zM807.834 324.266c-28.638-12.92-135.458-28.126-295.834-28.126s-267.212 15.224-295.834 28.126c28.62 12.902 135.458 28.126 295.834 28.126s267.196-15.222 295.834-28.126z" />
<glyph unicode="&#x5d;" d="M840.396 323.874c0-6.178-2.27-11.93-8.892-17.288 7.304-8.618 11.862-19.626 11.862-31.778v-60.518c0-22.63-15.292-42.308-37.222-47.906-0.512-0.136-1.024-0.308-1.554-0.494-42.36-16.298-159.948-27.238-292.608-27.238s-250.248 10.94-292.608 27.238c-0.494 0.204-1.024 0.358-1.536 0.494-21.93 5.564-37.24 25.258-37.24 47.906v60.518c0 12.152 4.574 23.16 11.862 31.762-6.622 5.358-8.908 11.11-8.908 17.306 0 6.93 2.85 13.294 11.502 19.2-24.764-12.766-41.762-38.536-41.762-68.266v-60.518c0-31.164 18.79-58.642 46.796-70.502 3.31-1.4 6.674-2.73 10.222-3.67 9.37-3.498 21.778-6.758 36.574-9.762 58.436-11.794 155.666-18.996 265.080-18.996 109.364 0 206.61 7.202 265.096 18.996 14.762 3.004 27.204 6.264 36.574 9.762 3.55 0.938 6.93 2.27 10.222 3.67 28.006 11.862 46.796 39.338 46.796 70.502v60.518c0 29.73-17.016 55.518-41.78 68.3 8.674-5.906 11.524-12.306 11.524-19.236zM813.67 342.426c-9.37-3.532-21.794-6.792-36.574-9.796 13.858-2.902 24.338-5.906 30.702-8.772-28.604-12.902-135.424-28.126-295.8-28.126s-267.212 15.24-295.816 28.126c6.382 2.868 16.844 5.87 30.72 8.772-14.78 3.004-27.204 6.246-36.574 9.78-3.55 0.956-6.912 2.252-10.222 3.652-1.86-0.99-3.55-1.98-5.018-3.004-8.652-5.906-11.502-12.27-11.502-19.2 0-6.178 2.286-11.93 8.908-17.306 12.168-9.83 39.202-18.364 95.13-25.788 60.040-7.954 139.708-12.356 224.376-12.356 84.65 0 164.334 4.404 224.358 12.356 55.928 7.424 82.962 15.958 95.13 25.804 6.638 5.342 8.892 11.094 8.892 17.288 0 6.93-2.85 13.33-11.502 19.234-1.502 1.006-3.174 1.996-5.034 2.97-3.278-1.398-6.624-2.696-10.174-3.634zM210.33 342.408c9.37-3.532 21.778-6.776 36.574-9.78 58.47-11.776 155.716-18.996 265.096-18.996 109.364 0 206.61 7.22 265.096 18.996 14.762 3.004 27.204 6.264 36.574 9.796 3.55 0.938 6.894 2.236 10.206 3.636 28.024 11.878 46.814 39.372 46.814 70.502v60.518c0 29.696-16.982 55.466-41.728 68.25 8.618-5.888 11.452-12.254 11.452-19.182 0-6.178-2.286-11.93-8.892-17.288 7.304-8.618 11.862-19.626 11.862-31.778v-60.518c0-22.596-15.292-42.308-37.222-47.906-0.512-0.12-1.024-0.308-1.554-0.478-41.728-16.044-162.048-27.24-292.608-27.24-130.542 0-250.862 11.196-292.608 27.256-0.494 0.188-1.006 0.358-1.518 0.478-21.93 5.598-37.24 25.292-37.24 47.906v60.518c0 12.152 4.574 23.142 11.862 31.778-6.622 5.358-8.908 11.11-8.908 17.288 0 6.912 2.834 13.278 11.418 19.166-24.712-12.782-41.676-38.536-41.676-68.232v-60.518c0-31.13 18.79-58.606 46.78-70.502 3.308-1.416 6.67-2.714 10.22-3.67zM183.586 526.166c0-6.178 2.286-11.93 8.908-17.288 12.168-9.848 39.202-18.364 95.13-25.788 60.040-7.954 139.708-12.356 224.376-12.356 84.65 0 164.334 4.386 224.358 12.356 55.928 7.424 82.962 15.958 95.13 25.804 6.622 5.358 8.892 11.094 8.892 17.288 0 6.93-2.834 13.294-11.452 19.182-13.226 9.046-40.244 16.964-92.586 23.894-60.008 7.954-139.692 12.34-224.342 12.34-84.668 0-164.334-4.386-224.376-12.356-52.36-6.946-79.378-14.866-92.62-23.91-8.584-5.888-11.418-12.254-11.418-19.166zM807.834 526.166c-28.638-12.902-135.458-28.126-295.834-28.126s-267.212 15.224-295.834 28.126c28.62 12.902 135.458 28.126 295.834 28.126s267.196-15.224 295.834-28.126z" />
<glyph unicode="&#x5e;" d="M475.374 457.25h384.888v339.046l-384.888-53.794zM457.762 457.25v282.778l-294.042-41.028v-241.75zM457.762 439.604h-294.042v-242.62l294.042-41.062zM475.374 439.604v-286.14l384.888-53.76v339.9z" />
<glyph unicode="&#x5f;" d="M772.202-35.52c262.562 0 475.418 212.856 475.418 475.418s-212.856 475.418-475.418 475.418c-262.562 0-475.418-212.856-475.418-475.418s212.858-475.418 475.418-475.418zM873.322 735.578v-591.348l-316.326 295.668 316.326 295.68z" horiz-adv-x="1582" />
<glyph unicode="&#x60;" d="M417.076 221.866c-7.066 0-12.8 5.734-12.8 12.8v426.666c0 7.066 5.734 12.8 12.8 12.8s12.8-5.734 12.8-12.8v-426.666c0-7.064-5.736-12.8-12.8-12.8zM606.942 221.866c-7.066 0-12.8 5.734-12.8 12.8v426.666c0 7.066 5.734 12.8 12.8 12.8s12.8-5.734 12.8-12.8v-426.666c0-7.064-5.734-12.8-12.8-12.8z" />
<glyph unicode="&#x61;" d="M316.962 211.644c-2.218 0-4.42 0.564-6.4 1.74-3.96 2.27-6.4 6.502-6.4 11.060v449.4c0 4.574 2.44 8.79 6.4 11.094 3.96 2.27 8.858 2.286 12.782 0l390.076-224.65c3.942-2.286 6.418-6.52 6.418-11.094 0-4.59-2.474-8.806-6.418-11.076l-390.074-224.734c-1.964-1.16-4.182-1.74-6.384-1.74zM329.762 651.724v-405.11l351.608 202.564-351.608 202.546z" />
<glyph unicode="&#x62;" d="M261.7 623.206v-573.9h500.65v573.9h-500.65zM406.682 143.958c0-15.172-12.306-27.46-27.478-27.46-15.224 0-27.444 12.306-27.444 27.46l0.002 384.63c0 15.156 12.236 27.46 27.444 27.46 15.19 0 27.478-12.322 27.478-27.46l-0.002-384.63zM539.46 143.958c0-15.172-12.356-27.46-27.444-27.46-15.156 0-27.494 12.306-27.494 27.46v384.63c0 15.156 12.356 27.46 27.494 27.46 15.104 0 27.444-12.322 27.444-27.46v-384.63zM672.204 143.958c0-15.172-12.27-27.46-27.494-27.46-15.122 0-27.374 12.306-27.374 27.46v384.63c0 15.156 12.27 27.46 27.374 27.46 15.24 0 27.494-12.322 27.494-27.46v-384.63zM698.778 772.062h-373.47c-60.296 0-109.534-36.966-109.534-82.124v-26.282h592.452v26.282c0 45.158-49.288 82.124-109.448 82.124zM576.102 852.582h-128.222c-20.684 0-37.598-16.914-37.598-37.614v-11.998h203.384v11.998c0.018 20.702-16.862 37.614-37.564 37.614z" />
<glyph unicode="&#x63;" d="M836.626 541.934c0 171.572-139.060 310.648-310.63 310.648-171.606 0-310.664-139.076-310.664-310.648 0-38.964 7.15-76.202 20.258-110.574 22.442-58.914 61.474-101.512 109.772-140.442 23.16-18.67 45.056-37.99 65.212-59.922 45.158-49.084 81.766-105.608 111.258-165.256 0.768-1.554 6.826-11.060 5.99-12.902 12.186 26.198 26.898 51.576 41.746 76.306 30.686 51.030 67.328 96.546 110.438 137.626 13.312 12.68 26.948 25.054 40.67 37.324 27.306 24.422 53.35 45.892 72.090 78.114 17.716 30.446 31.454 64.41 38.11 99.054 3.786 19.782 5.75 40.518 5.75 60.672zM525.994 697.804c86.068 0 155.818-69.786 155.818-155.802 0-86.084-69.752-155.852-155.818-155.852s-155.836 69.768-155.836 155.852c0 86.018 69.77 155.802 155.836 155.802z" />
<glyph unicode="&#x64;" d="M926.294 777.66h-828.604c-7.066 0-12.8-5.734-12.8-12.8v-519.732c0-7.066 5.734-12.8 12.8-12.8h351.028v-33.332h-89.6c-5.614 0-10.564-3.652-12.22-9.012l-17.066-55.074c-1.212-3.892-0.494-8.106 1.928-11.384 2.406-3.26 6.23-5.206 10.308-5.206h339.916c4.062 0 7.884 1.928 10.308 5.206 2.424 3.276 3.14 7.492 1.928 11.384l-17.066 55.074c-1.672 5.358-6.622 9.012-12.236 9.012h-89.6v33.332h350.994c7.066 0 12.8 5.734 12.8 12.8l-0.002 519.732c-0.016 7.066-5.752 12.8-12.816 12.8zM562.5 173.398h92.962l9.13-29.474h-305.168l9.13 29.474h92.962c7.066 0 12.8 5.734 12.8 12.8v46.132h75.384v-46.132c0-7.066 5.734-12.8 12.8-12.8zM913.494 257.928h-803.004v494.132h803.004v-494.132zM145.784 278.562h732.45c7.066 0 12.8 5.734 12.8 12.8v427.282c0 7.066-5.734 12.8-12.8 12.8h-732.45c-7.066 0-12.8-5.734-12.8-12.8v-427.282c0-7.066 5.734-12.8 12.8-12.8zM158.584 705.844h706.85v-401.682h-706.85v401.682z" />
<glyph unicode="&#x65;" d="M736 352c-64-64-64-128-128-128s-128 64-192 128-128 128-128 192 64 64 128 128-128 256-192 256-192-192-192-192c0-128 131.6-387.6 256-512s384-256 512-256c0 0 192 128 192 192s-192 256-256 192z" />
<glyph unicode="&#x66;" d="M921.532 714.086l-144.692 169.438c-2.44 2.85-5.99 4.488-9.728 4.488h-510.208c-3.738 0-7.304-1.638-9.728-4.488l-144.674-169.454c-3.242-3.788-3.976-9.13-1.894-13.67s6.638-7.442 11.622-7.442h64.034v-359.116c0-65.228 53.060-118.306 118.272-118.306h80.658c1.45-0.854 2.902-1.69 4.37-2.492l121.514-198.93c2.322-3.822 6.468-6.126 10.922-6.126s8.602 2.322 10.922 6.126l121.548 198.894c1.382 0.768 2.834 1.604 4.438 2.526h80.572c65.228 0 118.306 53.060 118.306 118.306v359.134h64.034c5 0 9.54 2.902 11.622 7.442 2.066 4.54 1.35 9.882-1.91 13.67zM834.97 718.574c-7.066 0-12.8-5.734-12.8-12.8v-371.934c0-51.114-41.592-92.706-92.706-92.706h-84.036c-2.27 0-5.666-1.28-7.612-2.44-2.816-1.638-5.598-3.26-8.448-4.778-2.030-1.058-3.754-2.662-4.95-4.642l-112.418-183.962-112.384 183.978c-1.194 1.962-2.902 3.584-4.95 4.642-3.106 1.638-6.126 3.43-9.524 5.41-1.962 1.144-4.198 1.774-6.486 1.774h-84.122c-51.098 0-92.672 41.592-92.672 92.706l0.002 371.936c0 7.066-5.734 12.8-12.8 12.8h-49.066l122.812 143.854h498.414l122.812-143.838h-49.066zM732.502 784.658h-440.97c-4.71 0-8.534-3.822-8.534-8.534v-440.952c0-4.71 3.822-8.534 8.534-8.534h440.97c4.71 0 8.534 3.822 8.534 8.534l-0.002 440.952c0 4.71-3.822 8.534-8.532 8.534z" />
<glyph unicode="&#x67;" d="M834.748 889.976h-645.512c-7.066 0-12.8-5.734-12.8-12.8v-645.512c0-7.066 5.734-12.8 12.8-12.8l185.548-0.002 126.276-206.694c2.322-3.822 6.468-6.126 10.922-6.126s8.602 2.322 10.922 6.126l126.294 206.694h185.548c7.066 0 12.8 5.734 12.8 12.8l0.002 645.514c0 7.066-5.734 12.8-12.8 12.8zM821.948 244.462h-179.934c-4.472 0-8.602-2.322-10.922-6.126l-119.108-194.952-119.092 194.952c-2.322 3.822-6.468 6.126-10.922 6.126h-179.934v619.914h619.912v-619.914zM291.516 326.604h440.952c4.71 0 8.534 3.822 8.534 8.534l-0.002 440.968c0 4.71-3.822 8.534-8.534 8.534h-440.95c-4.71 0-8.534-3.822-8.534-8.534v-440.968c0-4.728 3.824-8.534 8.534-8.534z" />
<glyph unicode="&#x68;" d="M903.526 528.282l-311.33 311.312c-44.34 44.322-116.172 44.306-160.46-0.018l-311.262-311.328c-44.34-44.306-44.322-116.156 0.018-160.494l311.294-311.348c44.322-44.288 116.19-44.288 160.478 0.018l311.262 311.362c44.34 44.306 44.34 116.174 0 160.496zM576.938 442.198l0.068 73.49h-120.15v-288.956h-80.828l0.002 288.954v80.828h201.046l0.034 73.592 193.262-113.972-193.434-113.936z" />
<glyph unicode="&#x69;" d="M559.066 896c0 0-200.956 0-267.94 0-120.12 0-233.17-91.006-233.17-196.422 0-107.726 81.882-194.666 204.088-194.666 8.498 0 16.756 0.17 24.842 0.752-7.93-15.186-13.602-32.288-13.602-50.042 0-29.938 16.104-54.21 36.468-74.024-15.386 0-30.242-0.448-46.452-0.448-148.782 0.002-263.3-94.758-263.3-193.020 0-96.778 125.542-157.314 274.334-157.314 169.624 0 263.306 96.244 263.306 193.028 0 77.6-22.896 124.072-93.686 174.134-24.216 17.144-70.53 58.836-70.53 83.344 0 28.72 8.196 42.868 51.428 76.646 44.312 34.624 75.672 83.302 75.672 139.916 0 67.406-30.020 133.098-86.372 154.772h84.954l59.96 43.344zM465.48 240.542c2.126-8.972 3.284-18.206 3.284-27.628 0-78.2-50.392-139.31-194.974-139.31-102.842 0-177.116 65.104-177.116 143.3 0 76.642 92.126 140.444 194.964 139.332 24-0.254 46.368-4.116 66.67-10.69 55.826-38.826 95.876-60.762 107.172-105.004zM300.818 532.224c-69.038 2.064-134.636 77.226-146.552 167.86-11.916 90.666 34.37 160.042 103.388 157.99 69.010-2.074 134.638-74.814 146.558-165.458 11.906-90.66-34.39-162.458-103.394-160.392zM832 704v192h-64v-192h-192v-64h192v-192h64v192h192v64z" />
<glyph unicode="&#x6a;" d="M512 899.208c-189.85 0-344.302-154.454-344.302-344.302 0-127.096 69.376-242.91 181.316-303.138l152.046-248.832c2.322-3.822 6.468-6.126 10.922-6.126s8.602 2.322 10.922 6.126l151.964 248.798c111.992 60.212 181.436 176.042 181.436 303.172-0.002 189.85-154.454 344.302-344.304 344.302zM659.814 272.726c-2.048-1.058-3.772-2.68-4.966-4.66l-142.866-233.916-142.95 233.95c-1.212 1.98-2.918 3.584-4.984 4.66-105.318 55.296-170.752 163.396-170.752 282.146 0 175.736 142.968 318.702 318.702 318.702s318.702-142.968 318.702-318.702c0.002-118.75-65.482-226.884-170.886-282.18zM276.856 556.748c0-129.866 105.278-235.144 235.144-235.144s235.144 105.278 235.144 235.144c0 129.866-105.278 235.144-235.144 235.144s-235.144-105.278-235.144-235.144z" />
<glyph unicode="&#x6b;" d="M285.354 528.964c-44.646 0-80.964-36.318-80.964-80.964s36.318-80.964 80.964-80.964 80.964 36.318 80.964 80.964c0 44.646-36.316 80.964-80.964 80.964zM285.354 392.636c-30.532 0-55.364 24.832-55.364 55.364s24.85 55.364 55.364 55.364 55.364-24.832 55.364-55.364-24.832-55.364-55.364-55.364zM512 528.964c-44.646 0-80.964-36.318-80.964-80.964s36.318-80.964 80.964-80.964c44.646 0 80.964 36.318 80.964 80.964s-36.318 80.964-80.964 80.964zM512 392.636c-30.532 0-55.364 24.832-55.364 55.364s24.832 55.364 55.364 55.364 55.364-24.832 55.364-55.364-24.832-55.364-55.364-55.364zM738.628 528.982c-44.646 0-80.964-36.318-80.964-80.982 0-44.646 36.318-80.982 80.964-80.982 44.664 0 80.998 36.334 80.998 80.982 0 44.664-36.334 80.982-80.998 80.982zM738.628 392.618c-30.532 0-55.364 24.85-55.364 55.382 0 30.55 24.832 55.382 55.364 55.382 30.55 0 55.398-24.85 55.398-55.382s-24.848-55.382-55.398-55.382z" />
<glyph unicode="&#x6c;" d="M264.738 856.098l-40.516-40.534 195.038-195.038 40.516 40.534c24.746 24.73 24.78 64.904 0 89.634l-105.386 105.404c-24.73 24.764-64.906 24.764-89.652 0zM725.044 395.81l-40.534-40.55 195.038-195.054 40.568 40.55c24.73 24.746 24.73 64.904 0 89.668l-105.404 105.386c-24.764 24.78-64.888 24.764-89.668 0zM91.528 682.888c-32.154-32.17 62.448-230.962 243.406-411.938 180.974-180.992 379.784-275.558 411.954-243.422 1.092 1.16 6.674 6.708 8.704 8.738l97.74 97.706-195.054 195.040c-33.4-33.348-87.466-33.348-120.832 0.034l-144.452 144.436c-33.332 33.366-33.348 87.416 0 120.798l-195.038 195.020-97.69-97.69c-2.064-2.048-7.594-7.596-8.738-8.722z" />
<glyph unicode="&#x6f;" d="M188.194 686.54c0-18.559 15.045-33.604 33.604-33.604s33.604 15.045 33.604 33.604c0 18.559-15.045 33.604-33.604 33.604s-33.604-15.045-33.604-33.604zM334.336 673.74h501.47c7.066 0 12.8 5.734 12.8 12.8s-5.734 12.8-12.8 12.8h-501.47c-7.066 0-12.8-5.734-12.8-12.8s5.734-12.8 12.8-12.8zM188.194 527.514c0-18.559 15.045-33.604 33.604-33.604s33.604 15.045 33.604 33.604c0 18.559-15.045 33.604-33.604 33.604s-33.604-15.045-33.604-33.604zM835.806 540.314h-501.47c-7.066 0-12.8-5.734-12.8-12.8s5.734-12.8 12.8-12.8h501.47c7.066 0 12.8 5.734 12.8 12.8s-5.734 12.8-12.8 12.8zM188.194 368.504c0-18.559 15.045-33.604 33.604-33.604s33.604 15.045 33.604 33.604c0 18.559-15.045 33.604-33.604 33.604s-33.604-15.045-33.604-33.604zM835.806 381.304h-501.47c-7.066 0-12.8-5.734-12.8-12.8s5.734-12.8 12.8-12.8h501.47c7.066 0 12.8 5.734 12.8 12.8s-5.734 12.8-12.8 12.8zM188.194 209.46c0-18.559 15.045-33.604 33.604-33.604s33.604 15.045 33.604 33.604c0 18.559-15.045 33.604-33.604 33.604s-33.604-15.045-33.604-33.604zM835.806 222.26h-501.47c-7.066 0-12.8-5.734-12.8-12.8s5.734-12.8 12.8-12.8h501.47c7.066 0 12.8 5.734 12.8 12.8s-5.734 12.8-12.8 12.8z" />
<glyph unicode="&#x73;" d="M846.728 591.224c-0.018 4.898-2.834 9.37-7.27 11.486l-156.058 74.838c2.696 12.118 4.232 24.678 4.232 37.614 0 95.522-77.722 173.226-173.226 173.226-95.522 0-173.226-77.704-173.226-173.226 0-12.032 1.246-23.774 3.584-35.124l-160.308-77.346c-0.29-0.136-0.494-0.358-0.75-0.512-0.12-0.068-0.29-0.052-0.41-0.12-0.17-0.102-0.238-0.308-0.392-0.41-1.604-1.092-2.952-2.44-3.908-4.078-0.102-0.204-0.17-0.392-0.274-0.598-0.904-1.758-1.502-3.704-1.502-5.752 0 0 0-0.018 0-0.018s0 0 0-0.018v-392.38c0-4.642 2.508-8.926 6.588-11.178l320.734-178.244c0 0 0 0 0 0v0l0.274-0.154c1.928-1.076 4.078-1.622 6.212-1.622s4.284 0.53 6.212 1.622l0.274 0.154c0 0 0 0 0 0l320.716 178.244c4.062 2.252 6.588 6.536 6.588 11.178v385.778c1.244 1.98 1.91 4.25 1.91 6.64zM514.424 862.788c81.408 0 147.626-66.218 147.626-147.626s-66.218-147.626-147.626-147.626c-81.408 0-147.626 66.218-147.626 147.626-0.002 81.408 66.234 147.626 147.626 147.626zM352.136 655.172c24.474-65.996 87.876-113.238 162.286-113.238 73.506 0 136.312 46.114 161.416 110.848l128.034-61.406-55.092-27.546-237.704-116.088-291.806 143.326 132.866 64.104zM202.854 570.454l295.424-147.746v-380.554l-295.424 164.182v364.118zM523.878 42.172v380.57l237.398 118.716 57.992 28.33v-363.452l-295.39-164.164zM436.684 702.378h64.938l0.002-64.938c0-7.066 5.734-12.8 12.8-12.8 7.082 0 12.8 5.734 12.8 12.8v64.938h64.904c7.066 0 12.8 5.734 12.8 12.8s-5.734 12.8-12.8 12.8h-64.904v64.922c0 7.066-5.734 12.8-12.8 12.8s-12.8-5.734-12.8-12.8v-64.922h-64.938c-7.066 0-12.8-5.734-12.8-12.8s5.734-12.8 12.798-12.8z" />
<glyph unicode="&#x74;" d="M516.3 16.572c-234.172 0-424.704 190.532-424.704 424.738 0 234.222 190.532 424.756 424.704 424.756 234.222 0 424.79-190.532 424.79-424.756 0-234.206-190.566-424.738-424.79-424.738zM516.3 841.268c-220.518 0-399.94-179.422-399.94-399.974 0-220.536 179.422-399.974 399.94-399.974 220.57 0 400.008 179.438 400.008 399.974 0.002 220.552-179.438 399.974-400.008 399.974zM360.892 487.68h-0.598c-28.826 0.342-51.32 23.040-51.234 51.678 0.086 28.382 23.244 51.474 51.626 51.474 28.552-0.102 51.524-23.5 51.438-52.138-0.118-28.128-23.124-51.014-51.232-51.014zM360.806 566.068c-15.122 0-26.914-11.758-26.966-26.794-0.052-14.866 11.708-26.642 26.76-26.828l0.308-12.39v12.39c14.268 0 26.402 12.066 26.436 26.35 0.052 14.984-11.86 27.22-26.538 27.272zM655.122 349.132v0l-324.182 0.034c-4.744 0-9.062 2.696-11.144 6.964-2.066 4.266-1.536 9.336 1.382 13.074l46.456 59.306c2.134 2.73 5.274 4.42 8.722 4.694 3.396 0.274 6.826-0.87 9.37-3.174l22.546-20.566 69.632 81.596c2.27 2.68 5.58 4.266 9.114 4.352 3.448 0.154 6.946-1.332 9.336-3.908l20.088-21.486 52.6 68.182c2.372 3.124 5.906 4.916 10.086 4.812 3.926-0.102 7.594-2.048 9.864-5.29l9.83-14.080c21.59-31.062 43.144-62.156 64.614-93.27 2.492-3.602 3.976-8.294 4.028-12.834 0.102-14.574 0.086-29.166 0.052-43.742l-0.018-12.27c0-3.294-1.314-6.434-3.636-8.772-2.324-2.29-5.464-3.622-8.74-3.622zM356.352 373.93l286.378-0.018c0.034 14.472 0.068 28.928-0.052 43.418-21.094 30.072-42.632 61.132-64.222 92.194l-0.136 0.188-51.2-66.356c-2.218-2.884-5.58-4.626-9.216-4.796-3.532-0.238-7.15 1.262-9.642 3.926l-20.548 21.948-68.95-80.794c-2.168-2.542-5.274-4.114-8.636-4.318-3.294-0.238-6.638 0.956-9.114 3.208l-22.136 20.19-22.526-28.79zM667.818 291.772h-359.030c-34.542 0-62.668 28.126-62.668 62.72l-0.002 230.998c0 34.578 28.126 62.702 62.668 62.702h359.032c34.56 0 62.72-28.126 62.72-62.702v-230.998c0-34.594-28.16-62.72-62.72-62.72zM308.788 623.412c-20.89 0-37.906-16.998-37.906-37.922v-230.998c0-20.924 17.016-37.956 37.906-37.956h359.030c20.924 0 37.94 17.032 37.94 37.956v230.998c0 20.924-17.016 37.922-37.94 37.922h-359.030zM723.9 234.41h-359.048c-34.56 0-62.702 28.126-62.702 62.72 0 6.826 5.546 12.374 12.39 12.374s12.39-5.53 12.39-12.374c0-20.94 16.998-37.94 37.922-37.94h359.048c20.906 0 37.906 16.998 37.906 37.94l-0.002 230.998c0 20.924-16.998 37.94-37.906 37.94-6.844 0-12.408 5.546-12.408 12.374 0 6.844 5.546 12.39 12.408 12.39 34.542 0 62.668-28.126 62.668-62.702l0.002-231c0-34.576-28.126-62.72-62.668-62.72z" />
<glyph unicode="&#x75;" d="M733.866 448c0-122.538-99.328-221.866-221.866-221.866s-221.866 99.328-221.866 221.866 99.328 221.866 221.866 221.866 221.866-99.328 221.866-221.866zM512 4.266c-244.668 0-443.734 199.066-443.734 443.734s199.066 443.734 443.734 443.734 443.734-199.066 443.734-443.734-199.066-443.734-443.734-443.734zM512 857.6c-225.86 0-409.6-183.74-409.6-409.6s183.74-409.6 409.6-409.6 409.6 183.74 409.6 409.6-183.74 409.6-409.6 409.6z" />
<glyph unicode="&#x76;" d="M511.982 447.25l426.684 311.004h-853.332zM512.392 320.17l-426.7 310.972v-493.396h852.6v492.834z" />
<glyph unicode="&#x7a;" d="M381.154 46.576c-3.312 0-6.596 0.918-9.456 2.786l-261.768 167.034c-5.090 3.252-8.148 8.868-8.148 14.878v600.756c0 6.46 3.508 12.348 9.156 15.436 5.618 3.132 12.484 2.846 17.906-0.618l261.722-167.048c5.060-3.222 8.146-8.81 8.146-14.832v-600.802c0-6.43-3.508-12.348-9.156-15.406-2.59-1.476-5.51-2.184-8.402-2.184zM137.006 240.896l226.544-144.58-0.046 559.014-226.498 144.564v-558.998zM904.584 46.576c-3.312 0-6.566 0.918-9.456 2.786l-261.722 167.048c-5.060 3.222-8.146 8.81-8.146 14.832l0.012 600.788c0 6.46 3.508 12.348 9.156 15.436 5.586 3.088 12.468 2.862 17.936-0.588l261.722-167.048c5.060-3.222 8.146-8.81 8.146-14.832v-600.802c0-6.43-3.508-12.348-9.156-15.406-2.65-1.506-5.556-2.214-8.492-2.214zM660.464 240.896l226.544-144.58-0.014 559.014-226.544 144.564 0.014-558.998zM381.154 46.576c-2.922 0-5.812 0.692-8.464 2.168-5.632 3.056-9.156 9.006-9.156 15.406l-0.030 600.848c0 6.008 3.056 11.626 8.146 14.832l261.708 167.048c5.392 3.448 12.288 3.704 17.936 0.588s9.17-9.006 9.17-15.436v-600.786c0-6.008-3.056-11.596-8.146-14.832l-261.708-167.048c-2.906-1.838-6.158-2.788-9.456-2.788zM398.728 655.33v-559.014l226.484 144.58 0.030 558.998-226.514-144.564zM381.124 449.43c-3.238 0-6.566 0.918-9.532 2.816l-261.722 168.63c-8.162 5.254-10.526 16.142-5.242 24.334 5.256 8.176 16.128 10.542 24.336 5.256l261.722-168.598c8.176-5.256 10.542-16.128 5.256-24.336-3.358-5.226-9.066-8.102-14.818-8.102zM381.154 449.476c-5.752 0-11.46 2.846-14.832 8.086-5.286 8.176-2.922 19.050 5.256 24.336l261.708 168.598c8.238 5.3 19.050 2.922 24.336-5.256 5.256-8.176 2.922-19.050-5.286-24.336l-261.708-168.598c-2.924-1.956-6.192-2.83-9.474-2.83zM554.48 157.2c-9.758 0-17.604 7.906-17.604 17.604l-0.044 403.892c0 9.758 7.906 17.604 17.604 17.604s17.604-7.906 17.604-17.604v-403.908c0.014-9.698-7.892-17.588-17.56-17.588zM226.544 551.83c-9.758 0-17.604 7.906-17.604 17.604l0.002 194.214c0 9.758 7.906 17.604 17.604 17.604s17.604-7.906 17.604-17.604v-194.228c-0.002-9.714-7.908-17.59-17.606-17.59zM381.124 146.824c-3.222 0-6.476 0.888-9.426 2.756l-261.738 166.474c-8.192 5.226-10.646 16.112-5.392 24.304 5.226 8.192 16.112 10.602 24.304 5.392l261.722-166.506c8.192-5.226 10.646-16.112 5.392-24.304-3.342-5.256-9.050-8.116-14.862-8.116zM904.554 169.186c-3.178 0-6.37 0.828-9.262 2.62l-261.722 162.484c-8.268 5.12-10.798 15.962-5.648 24.23 5.12 8.268 15.948 10.828 24.23 5.648l261.722-162.484c8.268-5.12 10.798-15.962 5.648-24.23-3.314-5.332-9.080-8.268-14.968-8.268zM807.318 232.132c-9.758 0-17.604 7.906-17.604 17.604l0.016 477.334c0 9.758 7.906 17.604 17.604 17.604s17.604-7.906 17.604-17.604v-477.364c-0.030-9.698-7.906-17.574-17.62-17.574zM381.154 274.1c-5.556 0-11.008 2.62-14.472 7.544-5.556 8.012-3.584 18.974 4.428 24.516l173.328 120.592c8.042 5.556 19.004 3.568 24.516-4.428 5.556-7.982 3.584-18.944-4.398-24.486l-173.358-120.592c-3.056-2.076-6.566-3.146-10.044-3.146z" />
<glyph unicode="&#x7b;" d="M512.018 875.11c-235.896 0-427.11-191.214-427.11-427.094s191.214-427.11 427.11-427.11c235.862 0 427.060 191.232 427.060 427.11s-191.2 427.094-427.060 427.094zM476.98 693.624c0 19.336 15.668 35.004 35.020 35.004s35.020-15.668 35.020-35.004v-342.852c0-19.336-15.668-35.004-35.020-35.004s-35.020 15.668-35.020 35.004v342.852zM512.018 167.372c-21.128 0-38.23 17.1-38.23 38.196 0 21.128 17.1 38.23 38.23 38.23 21.094 0 38.196-17.1 38.196-38.23-0.002-21.094-17.102-38.196-38.196-38.196z" />
<glyph unicode="&#x7c;" d="M830.942 616.738h-104.704v167.442c0 18.842-15.292 34.134-34.134 34.134l-360.226-0.002c-18.842 0-34.134-15.292-34.134-34.134v-167.442h-104.688c-41.062 0-74.326-33.28-74.326-74.308v-253.354c0-41.062 33.262-74.326 74.326-74.326h81.988l-20.258-95.164c-2.15-10.070 0.376-20.566 6.844-28.586 6.486-8.004 16.23-12.646 26.538-12.646h447.642c10.308 0 20.054 4.642 26.538 12.646 6.486 8.022 8.994 18.518 6.844 28.586l-20.276 95.164h82.022c41.028 0 74.308 33.262 74.308 74.326l0.004 253.356c0.018 41.046-33.262 74.308-74.308 74.308zM366.012 750.046h291.96v-133.308h-291.96v133.308zM330.342 146.602l34.918 164.028c0.068 0.358 0.052 0.682 0.12 1.042h293.24c0.068-0.358 0.052-0.682 0.12-1.042l34.918-164.028h-363.316z" />
<glyph unicode="&#x7d;" d="M741.29 448l120.524 249.122c2.15 4.404 1.894 9.524-0.7 13.704-2.612 4.148-7.116 6.622-12.014 6.622h-674.166c-7.8 0-14.148-6.348-14.148-14.148v-510.634c0-7.8 6.348-14.132 14.148-14.132h674.15c4.916 0 9.42 2.492 12.014 6.656 2.56 4.114 2.834 9.352 0.7 13.636l-120.508 249.174zM712.824 441.838l113.716-235.008h-637.442v482.304h637.44l-113.716-234.99c-1.892-3.84-1.892-8.466 0.002-12.306z" />
<glyph unicode="&#xe001;" d="M512.434 952.088c-278.838 0-504.926-226.086-504.926-504.926s226.086-504.926 504.926-504.926 504.926 226.086 504.926 504.926-226.088 504.926-504.926 504.926zM821 385.288h-318.588c-28.672 0-51.882 23.21-51.882 51.882 0 0.156 0.062 0.28 0.062 0.404 0 0.156-0.062 0.28-0.062 0.434l-0.002 318.558c0 28.672 23.21 51.914 51.882 51.914s51.882-23.242 51.882-51.914v-267.544h266.706c28.672 0 51.882-23.21 51.882-51.882s-23.208-51.852-51.88-51.852z" />
<glyph unicode="&#xe002;" d="M84.152 837.12v-778.24l287.694 237.794 281.282-237.794v778.24z" horiz-adv-x="736" />
<glyph unicode="&#xe003;" d="M1014.592 731.744l-90.848 90.848c-12.576 12.576-32.832 12.576-45.408 0l-464.48-490.368-266.24 266.368c-12.704 12.704-33.312 12.704-46.016 0l-92.032-92.096c-12.704-12.672-12.704-33.28 0-46.016l378.656-387.456c7.328-7.36 17.28-9.888 26.848-8.64 9.888-1.472 20.192 1.024 27.776 8.64l571.744 613.28c12.544 12.544 12.544 32.896 0 45.44z" />
<glyph unicode="&#xe004;" d="M994.56 910.72l-54.848 37.76c-30.208 20.864-71.040 12.544-91.328-18.56l-464.192-718.080-236.032 246.208c-24 25.024-62.784 25.024-86.784 0l-43.392-45.248c-24-25.024-24-65.536 0-90.56l370.496-386.24h55.168l569.28 880.512c20.16 31.168 12.032 73.344-18.368 94.208z" />
<glyph unicode="&#xe009;" d="M1247.62 439.896c0 262.562-212.856 475.418-475.418 475.418s-475.418-212.856-475.418-475.418c0-262.562 212.856-475.418 475.418-475.418s475.418 212.858 475.418 475.418zM476.52 541.014h591.348l-295.668-316.326-295.68 316.326z" horiz-adv-x="1582" />
<glyph unicode="&#xe00a;" d="M391.126 954.722c49.089 3.167 98.177 0.528 147.266 1.056 42.227-0.528 84.454 1.584 126.153-1.056 1.056-164.157 0-328.313 0.528-492.47 64.924-1.584 129.847-0.528 194.771 0-100.289-101.344-202.689-200.577-303.505-301.922-8.973-9.501-19.002-18.474-28.503-26.92-111.373 108.734-222.219 218.524-332.008 328.841 64.924-0.528 129.847-1.056 194.771 0 0.528 164.685-0.528 328.313 0.528 492.47zM0 306.012c35.365 0 70.202 0.528 105.567-0.528 1.056-87.621-0.528-175.769 0.528-263.39 281.336 0 562.672 0 844.008 0 1.056 87.621-0.528 175.769 0.528 263.39 34.837 1.056 70.202 0 105.039 0.528v-365.79c-147.794-2.111-295.588-0.528-443.381-1.056-204.272 0.528-408.016-0.528-612.289 0.528v366.318z" />
<glyph unicode="&#xe00e;" d="M369.744 311.948c-0.2-8.594 0.282-17.67 1.566-28.532 0.262-2.228-0.1-4.438-0.824-6.526 9.858-113.684 81.74-190.384 219.216-233.552 98.766-31.062 217.048-37.566 298.848-37.566 68.146 0 123.462 4.518 155.728 9.116-2.37 1.044-4.778 2.068-7.168 3.092-37.486 16.122-84.148 36.202-94.91 72.564-5.060 17.126-1.446 35.258 10.822 53.89 0.562 0.944 1.244 1.808 1.988 2.61 41.362 43.67 63.85 95.814 65.074 150.83 2.45 110.792-82.682 207.29-204.138 247.446-0.24 0.060-0.502 0-0.742 0.060-36.984 12.048-75.414 18.632-114.246 19.516-178.498 3.856-328.082-110.952-331.214-252.948zM86.256 339.316c26.824-3.434 69.37-6.566 124.768-6.566 29.576 0 59.512 0.924 89.188 2.75-0.362 5.964-0.462 11.566-0.342 17.046 3.574 160.968 163.318 286.438 361.814 282.222 35.318-0.824 70.334-5.984 104.348-15.4 0 0.542 0 1.084 0 1.646 0 143.48-146.030 260.216-325.512 260.216-179.522 0-325.552-116.736-325.552-260.216 0-54.974 21.344-107.62 61.722-152.214 0.884-0.984 1.666-2.068 2.248-3.272 11.666-19.236 14.618-36.944 9.296-53.51-11.606-36.122-58.69-55.136-96.558-70.436-1.784-0.78-3.612-1.524-5.42-2.266z" horiz-adv-x="1104" />
<glyph unicode="&#xe013;" d="M855.040 550.912c-3.072 51.2-12.8 102.4-33.28 150.016-39.936 94.72-116.224 173.056-208.896 217.088-51.712 25.088-109.056 36.864-166.4 41.984h-29.184c-80.384-3.584-160.256-26.624-227.84-71.68-89.088-58.88-155.136-152.576-178.176-257.024-6.144-24.064-7.68-48.64-11.264-73.216v-33.28c5.12-99.84 44.544-197.632 114.176-269.824 67.072-71.68 159.744-119.296 257.024-131.072 99.84-13.824 203.776 9.216 288.768 63.488 81.92-83.968 164.352-166.912 246.272-250.88h117.76v118.784c-85.504 76.8-171.008 153.088-256.512 230.4 58.368 74.24 89.6 169.984 87.552 265.216zM687.104 375.296c-41.984-64-108.032-111.104-182.272-129.536-74.752-18.944-156.672-9.728-224.768 27.648-75.776 40.448-133.632 114.176-153.088 198.144-19.456 80.384-2.56 167.936 43.52 235.52 47.616 71.168 125.952 120.32 210.944 132.608 58.88 7.68 120.32 1.024 175.104-24.576 84.48-37.888 150.528-115.712 171.52-206.336 19.968-78.848 4.096-165.376-40.96-233.472z" />
<glyph unicode="&#xe014;" d="M852.318 509.58c23.122 3.444 41.018 22.178 44.206 45.184 1.176 8.46 2.338 16.908 3.514 25.356 4.898 35.456 9.81 70.9 14.72 106.356 2.072 14.964 4.13 29.918 6.202 44.87 1.21 8.728 3.176 17.944 2.514 26.786-2.572 33.384-31.244 48.326-61.010 48.326-122.67 0-245.352 0-368.024 0-63.034 0-126.056 0-189.090 0-14.534 0-29.080 0-43.614 0-5.214 0-3.992 2.526-5.492 8.006-4.002 14.696-6.424 31.966-13.848 45.452-19.142 34.77-60.276 28.066-93.72 28.066-13.672 0-29.324 1.768-42.566-2.292-25.098-7.714-40.83-33.71-36.152-59.496 4.492-24.728 26.67-42.95 51.712-42.95 3.736 0 34.082 1.618 34.584-0.198 4.724-17.28 9.448-34.548 14.162-51.828 18.664-68.318 37.342-136.622 56.006-204.928 2.828-10.356 5.666-20.712 8.494-31.070 2.548-9.332 2.21-9.332-2.094-19.154-24.088-54.958-26.81-121.902 12.194-170.856 20.98-26.334 57.914-51.678 93.022-51.678 13.010 0 26.008 0 39.016 0 65.524 0 131.048 0 196.574 0 69.876 0 139.752 0 209.63 0 18.444 0 36.888 0 55.33 0 32.756 0 62.29 23.074 57.984 58.694-3.864 31.966-31.546 46.034-60.51 46.034-19.956 0-39.912 0-59.858 0-71.006 0-141.998 0-213.004 0-62.988 0-125.964 0-188.952 0-9.762 0-24.064-2.804-33.256 1.374-10.904 4.958-18.536 14.37-20.712 26.228-1.42 7.714-0.85 15.698 0.616 23.354 0.488 2.594 4.072 21.632 6.726 22.040 2.874 0.43 5.748 0.862 8.622 1.28 125.3 18.712 250.6 37.422 375.912 56.122 46.744 6.97 93.442 13.952 140.162 20.922zM309.458 129.722c0-46.882 39.134-86.050 86.028-86.062 46.906-0.012 86.050 39.156 86.050 86.062 0.012 46.882-39.134 86.050-86.028 86.050-46.894 0.012-86.062-39.144-86.050-86.050zM692.248 129.722c-0.024-46.882 39.098-86.062 85.992-86.086 46.942-0.024 86.074 39.156 86.074 86.086 0.034 46.882-39.098 86.062-85.992 86.074-46.93 0.036-86.074-39.144-86.074-86.074-0.024-47.522 0 0.024 0 0z" />
<glyph unicode="&#xe600;" d="M1001.255 564.777c-30.705 133.891-120.3 252.178-239.091 319.626-92.616 53.355-202.346 75.502-308.552 63.422-66.945-8.054-132.884-29.194-191.776-62.918-118.79-67.953-208.386-186.239-239.091-319.626-29.194-118.286-12.081-247.144 45.804-354.358 54.865-102.683 146.474-185.233 254.694-229.024 118.79-48.825 255.701-49.329 374.995-1.51 111.743 43.791 206.373 129.864 261.741 236.574 54.362 105.703 69.965 232.043 41.275 347.814zM792.868 681.051c-48.825-112.247-98.153-224.493-146.474-336.74-4.531-14.093-20.134-17.618-31.711-23.154-127.85-52.852-254.694-107.716-383.048-159.561 53.355 126.844 109.73 252.178 164.092 378.519 4.027 9.060 7.55 18.624 13.087 27.18 11.577 8.054 25.167 12.081 37.751 17.618 100.67 41.778 200.836 84.059 301.506 126.34 22.147 9.060 43.791 20.134 67.449 26.174-5.537-20.134-14.597-38.254-22.651-56.375zM448.074 503.872c19.63-11.577 32.717-30.201 49.329-45.302 28.691-29.194 59.395-55.872 87.079-86.073-49.831-27.684-102.18-49.329-152.515-75.502-32.215-15.101-63.422-32.717-96.643-45.804 7.047 25.167 20.134 47.818 30.705 71.476 27.18 60.402 54.362 120.804 82.046 181.206z" />
<glyph unicode="&#xe601;" d="M981.706 626.738c-38.969 104.437-114.828 194.326-210.433 251.999-88.85 54.037-194.845 78.977-298.762 70.145-141.847-9.873-276.939-84.693-362.151-198.482-69.105-91.447-104.956-207.835-99.24-323.182 3.637-105.995 43.126-210.433 109.633-293.047 90.927-114.309 234.333-186.012 380.857-187.051 85.213-2.598 170.424 18.186 245.764 57.674 99.761 52.479 180.296 139.25 224.981 242.647 52.479 118.985 55.595 258.235 9.352 379.298zM958.325 375.258c-15.588-98.722-66.506-191.208-140.288-258.753-66.506-62.35-153.278-103.397-243.685-115.348-112.231-16.107-229.658 12.471-322.143 77.938-76.899 54.557-137.171 133.014-167.306 222.382-37.929 108.074-31.695 230.176 16.107 334.093 62.87 139.25 199.521 242.126 351.239 260.832 76.379 9.352 154.836 1.038 226.539-27.539 103.917-41.048 191.208-122.102 240.049-222.382 41.048-83.134 54.557-179.258 39.488-271.224zM673.592 557.633h-78.457v41.048c0 8.833-7.274 15.588-15.588 15.588h-136.131c-8.833 0-15.588-6.754-15.588-15.588v-41.048h-77.938c-11.431 0-20.783-9.352-20.783-20.783v-62.87h365.789v62.87c-0.52 11.431-9.873 20.783-21.303 20.783zM448.61 582.572c0 5.716 4.677 10.392 10.392 10.392h105.476c5.716 0 10.392-4.677 10.392-10.392v-25.46h-126.259v25.46zM562.92 449.038v-43.645c0-5.716-4.677-10.392-10.392-10.392h-82.094c-5.716 0-10.392 4.677-10.392 10.392v43.645h-130.936v-151.719c0-11.431 9.352-20.783 20.783-20.783h324.221c11.431 0 20.783 9.352 20.783 20.783v151.719h-131.974zM531.225 424.099h-37.929c-3.117 0-5.195 2.078-5.195 5.195v14.548c0 3.117 2.078 5.195 5.195 5.195h37.929c3.117 0 5.195-2.078 5.195-5.195v-14.548c0-3.117-2.598-5.195-5.195-5.195z" />
<glyph unicode="&#xe602;" d="M981.706 630.894c-38.969 104.437-114.828 194.326-210.433 251.999-88.85 54.037-194.845 78.977-298.762 70.663-141.847-9.873-276.939-85.213-361.632-199.001-69.625-91.447-105.476-207.835-99.761-322.662 3.637-105.995 43.126-210.433 109.633-293.047 90.927-114.309 234.333-186.012 380.857-187.051 85.213-2.598 170.424 18.186 245.764 57.674 99.761 52.479 180.296 139.25 224.981 242.647 52.479 118.465 55.595 257.715 9.352 378.778zM958.325 379.415c-15.588-98.722-66.506-191.208-140.288-258.753-66.506-62.35-153.278-103.397-243.685-115.348-112.231-16.107-229.658 12.471-322.143 77.938-76.899 54.557-137.171 133.014-167.306 222.382-37.929 108.074-32.214 230.696 15.588 334.614 62.87 139.25 199.521 242.126 351.239 260.832 76.379 9.352 154.836 1.038 226.539-27.539 103.917-41.048 191.208-122.102 240.049-222.382 41.567-83.134 55.076-179.776 40.008-271.744zM512 728.576v0c-6.754 0-11.95-5.195-11.95-11.95v-51.438c0-6.754 5.195-11.95 11.95-11.95v0c6.754 0 11.95 5.195 11.95 11.95v51.438c0.52 6.235-5.195 11.95-11.95 11.95zM654.886 676.617v0c-4.677 4.677-12.471 4.677-17.146 0l-36.371-36.371c-4.677-4.677-4.677-12.471 0-17.146v0c4.677-4.677 12.471-4.677 17.146 0l36.371 36.371c4.677 4.677 4.677 12.471 0 17.146zM369.114 676.617v0c-4.677-4.677-4.677-12.471 0-17.146l36.371-36.371c4.677-4.677 12.471-4.677 17.146 0v0c4.677 4.677 4.677 12.471 0 17.146l-36.371 36.371c-4.677 4.677-12.471 4.677-17.146 0zM670.474 452.157c0 57.674-36.371 112.231-87.81 137.171-66.506 34.293-155.876 12.471-198.482-49.361-49.361-65.468-35.851-169.385 31.175-217.706-9.873-8.314-17.146-22.342-9.352-34.812 5.195-10.911 18.705-10.392 29.097-10.911-11.431-6.754-25.979-19.225-18.186-33.772 3.637-13.509 18.705-14.029 29.617-17.666-5.195-3.117-10.392-5.716-15.588-8.833-6.754-14.548-1.559-35.851 17.146-37.411 41.048-1.559 82.094 0 123.142-0.52 13.509-1.038 28.057 9.873 26.499 24.42 2.598 12.989-11.431 17.666-19.745 23.382 11.95 2.078 28.577 4.157 31.175 19.225 5.195 14.548-7.794 25.46-19.745 31.695 10.911 0 24.94 0.52 30.136 12.471 8.833 11.431-1.559 24.42-9.352 33.254 38.969 29.617 62.87 79.497 60.273 129.377zM547.851 409.55l-22.342-22.342v-52.479c0-7.794-6.235-14.548-14.548-14.548s-14.548 6.235-14.548 14.548v51.438l-23.382 23.382c-5.716 5.716-5.716 14.548 0 20.263v0c5.716 5.716 14.548 5.716 20.263 0l16.627-16.627 16.627 16.627c5.716 5.716 14.548 5.716 20.263 0v0c6.754-5.716 6.754-14.548 1.038-20.263z" />
<glyph unicode="&#xe603;" d="M981.706 625.699c-38.969 104.437-114.828 194.326-210.433 251.999-88.85 54.037-194.845 78.977-298.762 70.663-141.847-9.873-276.939-85.213-362.151-199.001-69.625-91.447-105.476-207.835-99.761-322.662 3.637-105.995 43.126-210.433 109.633-293.047 90.927-114.309 234.333-186.012 380.857-187.051 85.213-2.598 170.424 18.186 245.764 57.674 99.761 52.479 180.296 139.25 224.981 242.647 52.479 118.465 55.595 257.715 9.873 378.778zM957.804 374.218c-15.588-98.722-66.506-191.208-140.288-258.753-66.506-62.35-153.278-103.397-243.685-115.348-112.231-16.107-229.658 12.471-322.143 77.938-76.899 54.557-137.171 133.014-167.306 222.382-37.411 108.074-31.695 230.696 16.107 334.614 62.87 139.25 199.521 242.126 351.239 260.832 76.379 9.352 154.836 1.038 226.539-27.539 103.917-41.048 191.208-122.102 240.049-222.382 41.048-83.134 55.076-179.776 39.488-271.744zM697.492 606.474c-44.684 0-88.329 0-133.534 0 0 12.989 0 26.499 0 39.488-12.989 0-26.499 0-39.488 0-0.52 6.754-0.52 14.029-0.52 20.783-3.117 1.559-8.314 4.677-11.431 6.754-3.117-1.559-8.314-5.195-11.431-6.754 0-6.754-0.52-14.029-0.52-20.783h-39.488v-39.488c0 0-88.85 0-134.053 0-13.509 0-24.94-12.989-24.94-27.539 0-82.614 0-165.228 0-247.842 0-14.548 10.911-28.057 25.46-28.057 8.833 0 43.126 0 87.291 0l-33.254-56.635c-4.157-6.754-1.559-15.588 5.195-19.745l4.677-2.598c6.754-4.157 15.588-1.559 19.745 5.195l43.126 73.782c37.929 0 79.497 0 117.427 0l43.126-73.782c4.157-6.754 12.989-9.352 19.745-5.195l4.677 2.598c6.754 4.157 9.352 12.989 5.195 19.745l-33.254 56.635c44.165 0 78.457 0 87.291 0 10.392 0 25.46 12.471 25.46 28.057 0 84.172 0 157.435 0 247.323-1.038 14.548-11.95 28.057-26.499 28.057zM545.254 383.052l-81.575 81.575-78.457-78.977-23.901 23.901 102.359 102.878 81.575-81.575 81.575 79.497 23.382-23.901-104.956-103.397z" />
<glyph unicode="&#xe604;" d="M615.917 625.179c-45.204-6.235-84.172-38.45-103.917-78.977-19.745 40.527-58.713 72.742-103.917 78.977-72.222 8.833-138.21-64.428-126.779-135.093 7.274-40.527 32.734-73.782 58.194-104.956 50.4-57.154 110.152-105.995 172.503-149.64 68.066 48.322 134.053 101.319 186.012 166.787 20.263 26.499 39.488 56.116 44.684 89.888 10.392 70.145-55.076 141.326-126.779 133.014zM449.65 433.971c-5.195-18.186-32.214-22.861-43.126-7.274-11.95 12.471-5.716 33.772 9.352 40.008 19.225 9.873 43.126-13.509 33.772-32.734zM534.861 430.854c-7.794-16.627-32.734-19.225-43.126-3.117-11.95 12.989-3.117 33.772 12.471 39.488 19.745 7.794 42.606-17.666 30.656-36.371zM617.476 426.177c-10.911-15.588-37.929-10.911-43.126 7.274-6.754 13.509 3.637 30.656 17.666 34.293 22.342 6.754 42.086-24.42 25.46-41.567zM981.706 625.699c-38.969 104.437-114.828 194.326-210.433 251.999-88.85 54.037-194.845 78.977-298.762 70.663-141.847-9.873-276.939-85.213-362.151-199.001-69.625-91.447-105.476-207.835-99.761-322.662 3.637-105.995 43.126-210.433 109.633-293.047 90.927-114.309 234.333-186.012 380.857-187.051 85.213-2.598 170.424 18.186 245.764 57.674 99.761 52.479 180.296 139.25 224.981 242.647 52.479 118.465 55.595 257.715 9.873 378.778zM957.804 374.218c-15.588-98.722-66.506-191.208-140.288-258.753-66.506-62.35-153.278-103.397-243.685-115.348-112.231-16.107-229.658 12.471-322.143 77.938-76.899 54.557-137.171 133.014-167.306 222.382-37.411 108.074-31.695 230.696 16.107 334.614 62.87 139.25 199.521 242.126 351.239 260.832 76.379 9.352 154.836 1.038 226.539-27.539 103.917-41.048 191.208-122.102 240.049-222.382 41.048-83.134 55.076-179.776 39.488-271.744z" />
<glyph unicode="&#xe605;" d="M806.128 846.288c-83.824 62.496-187.488 95.232-291.648 97.712h-5.456c-106.144-2.48-212.288-36.704-297.104-102.176-95.728-72.912-163.68-181.536-186-300.080-5.952-26.784-6.944-54.56-9.92-81.84v-24.8c3.472-27.28 3.968-54.56 9.92-80.848 22.816-119.536 91.76-229.152 188.976-302.064 82.832-63.488 186.496-96.72 290.16-100.192h12.4c46.128 2.48 92.256 7.936 136.896 21.824 128.464 38.192 239.072 130.944 299.088 250.976 34.224 65.472 50.096 139.376 54.064 212.784v15.872c-2.48 33.728-4.464 67.952-12.4 100.688-24.304 116.064-93.744 221.712-188.976 292.144zM921.2 301.68c-33.232-93.744-100.688-175.088-186-226.176-75.888-45.632-166.16-67.456-254.448-61.008-99.696 6.944-196.416 49.6-268.336 119.040-65.968 62.496-111.6 145.824-127.472 234.608-19.84 101.184-0.496 208.816 51.088 297.6 70.928 123.504 205.344 207.824 348.192 215.76 89.776 5.952 181.536-17.36 257.92-64.976 91.264-57.040 160.704-148.8 188.976-252.464 24.304-85.312 20.336-178.56-9.92-262.384zM451.488 383.52c-0.496-25.792 19.344-49.6 43.648-56.048 35.712-12.4 77.872 18.352 77.376 56.048 0.496 105.648 0.496 211.792 0 317.44-0.496 38.688-44.144 65.968-79.856 53.568-23.808-7.936-42.656-32.24-41.168-58.032 0-104.656 0-208.816 0-312.976zM488.688 257.536c-22.32-9.424-39.184-32.736-37.696-57.536-1.488-32.24 28.768-61.008 61.008-60.016 33.728-1.488 64.48 31.248 60.512 64.976 0 40.672-47.12 68.944-83.824 52.576z" />
<glyph unicode="&#xe606;" d="M8.651 839.606c195.803 0 391.606 0 586.905 0 0-68.455 0-137.414 0-205.869-27.684 0-55.872 0-83.556 0 0 41.275 0 82.046 0 123.321-139.931 0-279.862 0-419.29 0 0-205.869 0-411.739 0-618.112 139.931 0 279.862 0 419.793 0 0 27.684 0 54.865 0 82.55 0 0.504 83.556 0.504 83.556 0 0-54.865 0-109.73 0-164.595-195.803 0-391.606 0-586.905 0-0.504 260.735-0.504 521.973-0.504 782.708zM721.394 674.507c98.153-82.55 195.803-164.595 293.452-247.144-97.65-82.55-195.803-165.098-293.452-247.144-0.504 41.275 0 82.046 0 123.321-139.427 0-279.359 0-419.29 0 0 82.55 0 165.098 0 247.144 139.427 0 279.359 0 418.786 0 1.006 41.778 0.504 82.55 0.504 123.823z" />
<glyph unicode="&#xe607;" d="M600.85 628.815c31.175-31.175 60.791-61.831 91.447-93.006-32.214 0-49.361 0-79.497 0-9.873 0-11.95 4.157-11.95 12.471 0 30.136 0 54.037 0 80.536zM981.706 625.699c-38.969 104.437-114.828 194.326-210.433 251.999-88.85 54.037-194.845 78.977-298.762 70.663-141.847-9.873-276.939-85.213-362.151-199.001-69.625-91.447-105.476-207.835-99.761-322.662 3.637-105.995 43.126-210.433 109.633-293.047 90.927-114.309 234.333-186.012 380.857-187.051 85.213-2.598 170.424 18.186 245.764 57.674 99.761 52.479 180.296 139.25 224.981 242.647 52.479 118.465 55.595 257.715 9.873 378.778zM957.804 374.218c-15.588-98.722-66.506-191.208-140.288-258.753-66.506-62.35-153.278-103.397-243.685-115.348-112.231-16.107-229.658 12.471-322.143 77.938-76.899 54.557-137.171 133.014-167.306 222.382-37.411 108.074-31.695 230.696 16.107 334.614 62.87 139.25 199.521 242.126 351.239 260.832 76.379 9.352 154.836 1.038 226.539-27.539 103.917-41.048 191.208-122.102 240.049-222.382 41.048-83.134 55.076-179.776 39.488-271.744zM679.306 508.791c-40.008 0-62.35 0-99.24 0-14.029 0-22.342 9.352-22.342 27.539 0 29.617-0.52 62.87 0 94.565-65.988 0-121.583 0-180.296 0-13.509 0-25.979-9.352-25.979-26.499 0-110.671-0.52-218.226 0-327.859 0-15.588 12.989-23.901 26.499-23.901 87.81 0 172.503 0 264.989 0 10.392 0.52 23.382-1.038 31.175 7.794 6.754 6.754 5.195 17.666 5.716 26.499-0.52 73.782 0 148.082-0.52 221.863zM408.083 423.58c0 6.754 5.716 12.471 12.471 12.471h95.604c6.754 0 12.471-5.716 12.471-12.471v-1.038c0-6.754-5.716-12.471-12.471-12.471h-95.604c-6.754 0-12.471 5.716-12.471 12.471v1.038zM619.554 325.378c0-6.754-5.716-12.471-12.471-12.471h-186.531c-6.754 0-12.471 5.716-12.471 12.471v1.038c0 6.754 5.716 12.471 12.471 12.471h186.531c6.754 0 12.471-5.716 12.471-12.471v-1.038zM619.554 373.699c0-6.754-5.716-12.471-12.471-12.471h-186.531c-6.754 0-12.471 5.716-12.471 12.471v1.038c0 6.754 5.716 12.471 12.471 12.471h186.531c6.754 0 12.471-5.716 12.471-12.471v-1.038z" />
<glyph unicode="&#xe608;" d="M981.706 625.699c-38.969 104.437-114.828 194.326-210.433 251.999-88.85 54.037-194.845 78.977-298.762 70.663-141.847-9.873-276.939-85.213-362.151-199.001-69.625-91.447-105.476-207.835-99.761-322.662 3.637-105.995 43.126-210.433 109.633-293.047 90.927-114.309 234.333-186.012 380.857-187.051 85.213-2.598 170.424 18.186 245.764 57.674 99.761 52.479 180.296 139.25 224.981 242.647 52.479 118.465 55.595 257.715 9.873 378.778zM957.804 374.218c-15.588-98.722-66.506-191.208-140.288-258.753-66.506-62.35-153.278-103.397-243.685-115.348-112.231-16.107-229.658 12.471-322.143 77.938-76.899 54.557-137.171 133.014-167.306 222.382-37.411 108.074-31.695 230.696 16.107 334.614 62.87 139.25 199.521 242.126 351.239 260.832 76.379 9.352 154.836 1.038 226.539-27.539 103.917-41.048 191.208-122.102 240.049-222.382 41.048-83.134 55.076-179.776 39.488-271.744zM608.124 307.712h-41.048c6.235 7.274 83.653 95.604 122.622 140.808-55.076 62.35-109.113 125.22-164.19 187.57 0.52-45.723 0-91.967 0.52-137.69 9.873-5.716 19.745-12.989 22.861-24.94 8.833-23.382-11.431-52.479-36.891-50.92-26.499-1.559-48.322 29.097-36.891 53.517 3.117 10.911 12.989 17.666 22.342 22.861 0.52 46.243 0 91.967 0.52 138.21-54.557-62.87-109.633-125.22-164.19-188.090 39.488-45.204 116.387-133.534 122.622-140.808h-42.086c-17.666 0-31.695-14.029-31.695-31.695s14.029-31.695 31.695-31.695h193.805c17.666 0 31.695 14.029 31.695 31.695 0 17.146-14.029 31.175-31.695 31.175z" />
<glyph unicode="&#xe609;" d="M988.168 611.588c-42.281 123.823-134.394 229.024-251.675 286.909-88.086 44.294-189.259 60.905-287.412 48.825-117.28-14.093-228.017-71.979-308.050-159.059-73.992-80.032-120.804-185.233-130.367-294.459-11.577-119.294 21.644-242.111 92.113-339.257 69.965-97.65 175.669-169.125 292.949-196.306 112.247-26.678 233.554-13.591 337.244 37.751 118.79 57.382 212.917 164.092 255.198 288.922 36.242 104.697 36.242 221.473 0 326.674zM572.402 125.857c-41.778 0-84.059 0-125.837 0 0 31.711 0 63.926 0 95.637 41.778 0 84.059 0 125.837 0 0-31.711 0-63.926 0-95.637zM714.849 549.173c-4.027-33.724-23.154-62.918-44.294-89.093-29.194-36.242-68.959-63.422-91.106-104.697-10.067-17.618-9.060-38.758-8.557-58.389-41.275 0-82.046 0-123.321 0 0 29.698-2.517 61.409 10.067 89.093 20.637 47.818 61.409 82.55 97.146 119.797 18.624 21.141 37.751 47.818 33.221 78.019-1.51 21.644-14.597 42.785-35.234 51.341-32.717 14.597-72.482 8.557-101.676-11.074-22.651-14.597-37.751-37.248-53.355-58.891-31.207 20.637-61.912 41.275-93.12 61.912 35.234 54.865 89.093 101.173 154.024 114.261 45.302 9.060 93.12 8.557 137.918-3.523 41.275-11.074 79.026-38.254 98.656-76.509 19.128-33.724 23.154-73.992 19.63-112.247z" />
<glyph unicode="&#xe60a;" d="M203.95 831.552c114.763 71.476 255.701 96.643 389.089 79.529 115.267-15.101 228.52-63.422 311.573-145.972 55.368-54.865 95.637-126.34 107.213-203.857 10.067-66.442-1.006-135.401-30.201-195.299-15.604-33.724-71.979-34.228-88.589-1.006-7.047 13.087 0.504 27.18 5.537 39.765 29.698 65.939 30.201 143.958 2.013 210.4-30.705 74.496-91.61 132.884-162.078 170.635-144.461 76.005-328.686 73.489-469.625-9.060-67.449-39.765-124.831-100.67-150.501-175.669-22.651-63.422-19.63-134.898 7.55-196.306 31.207-72.986 91.61-129.864 160.568-166.609 97.65-52.348 213.419-65.939 321.64-45.302-32.717 25.671-66.442 50.839-99.16 77.013-13.591 9.060-21.141 28.188-12.583 43.288 15.604 28.188 57.885 30.201 80.536 9.564 58.891-45.804 117.784-90.602 176.172-136.408 10.57-7.55 17.618-20.637 14.597-34.228-1.51-11.577-11.074-19.128-19.128-26.174-55.872-46.308-111.24-93.623-167.112-139.931-22.651-19.63-62.918-15.604-78.019 11.577-8.054 14.093-1.51 31.711 10.57 41.275 29.698 25.671 59.899 50.335 89.596 75.502-129.361-19.128-265.768 2.013-380.532 66.442-78.523 44.294-146.978 110.234-184.226 193.286-35.234 77.013-39.261 168.621-10.067 249.661 30.705 87.583 97.146 159.561 175.165 207.883z" />
<glyph unicode="&#xe60b;" d="M406.016 960h33.28c22.016-2.048 44.032-4.608 66.56-7.168-35.84-30.208-66.56-67.584-87.040-110.080-77.312-3.072-153.6-33.792-208.384-88.576-69.12-65.536-103.936-165.888-87.552-260.096 9.728-66.56 43.52-128.512 92.16-174.592 62.464-58.88 150.016-89.6 235.52-82.432 101.376 5.632 196.096 67.584 246.272 155.648 47.616-2.56 95.232 7.168 139.776 24.576-14.848-48.128-39.424-92.16-68.608-133.12 86.016-76.288 171.008-153.088 256.512-229.888v-118.272h-119.296c-80.384 84.992-163.84 166.912-244.736 250.88-86.016-54.272-190.976-77.824-291.84-62.976-77.312 10.24-151.552 42.496-211.968 91.648-72.704 58.368-125.44 141.312-145.92 232.448-5.12 22.528-6.656 46.080-10.752 69.12v46.592c4.608 24.576 6.144 49.664 12.288 73.728 24.576 103.424 91.136 195.584 180.224 252.928 63.488 41.984 138.24 63.488 213.504 69.632zM947.2 785.92c-24.064 73.216-84.48 132.096-157.696 155.648-37.376 11.264-77.312 18.432-116.224 9.728-102.912-13.312-192-98.304-207.872-201.216-12.288-68.608 7.68-141.312 52.224-194.56 52.224-64 137.216-98.304 219.136-88.576 78.848 7.168 152.576 55.296 191.488 123.904 33.792 57.856 39.936 131.072 18.944 195.072zM854.528 676.864h-110.080v-108.032h-68.096v108.032h-108.032v66.56h108.544v107.52h68.096v-107.52h110.080v-66.56z" />
<glyph unicode="&#xe60c;" d="M131.982 960h1192.391c-199.111-154.738-397.084-310.613-596.196-466.489-199.111 154.738-397.084 311.751-596.196 466.489zM38.684 915.627c18.204-10.24 35.271-22.756 51.2-36.409 159.289-125.156 317.44-249.173 476.729-374.329-188.871-146.773-376.604-295.822-566.613-442.596v766.862c4.551 31.858 20.48 60.302 38.684 86.471zM1366.471 879.218c15.929 13.653 32.996 26.169 51.2 36.409 19.342-27.307 35.271-55.751 39.822-89.884v-765.724c-190.009 146.773-377.742 295.822-566.613 443.733 157.013 126.293 316.302 251.449 475.591 375.467zM728.178 379.733c30.72 23.893 61.44 47.787 94.436 69.404 197.973-155.876 397.084-309.476 595.058-465.351-27.307-25.031-60.302-43.236-97.849-46.649h-1186.702c-34.133 5.689-65.991 21.618-92.16 45.511 197.973 153.6 397.084 308.338 595.058 463.076 31.858-20.48 62.578-42.098 92.16-65.991z" horiz-adv-x="1456" />
<glyph unicode="&#xe60d;" d="M665.6 465.946v488.775h-274.474v-488.775h-195.827l332.008-332.008 334.12 332.008zM950.103 305.485v-260.223h-844.536v260.223h-105.567v-366.318h1055.67v366.318z" horiz-adv-x="1056" />
<glyph unicode="&#xe60e;" d="M875.758 960h241.116c25.6 0 50.605-5.358 59.535-13.693 7.74-7.144 10.716-17.265 14.288-26.791v-348.279c-4.763-31.553-45.842-49.414-69.656-26.195-40.484 39.293-79.777 79.777-119.665 119.070-116.093-114.902-230.995-231.591-347.088-346.493-7.144-8.93-22.028-11.312-30.363-2.381-25.6 24.409-50.605 50.009-75.609 75.014-10.716 7.74-9.526 24.409 0.595 32.149 115.498 116.093 230.995 230.995 346.493 347.088-38.698 39.888-79.181 78.586-117.879 119.070-16.074 15.479-14.884 44.056 1.786 58.344 17.86 13.098 67.87 13.693 96.447 13.098zM0 871.888h595.349v-82.753h-511.405v-766.809h767.405v254.809h83.349v-341.135h-934.698v935.888z" horiz-adv-x="1191" />
<glyph unicode="&#xe60f;" d="M288.86 905.489c96.796 46.87 208.876 63.172 314.842 42.794 129.401-23.435 248.103-99.853 323.502-207.347 74.38-104.438 106.985-237.405 88.135-364.259-14.265-102.4-61.134-199.705-131.948-275.104-88.135-95.777-213.97-154.364-343.881-161.497-152.326-9.17-308.728 55.53-409.091 171.686-11.717 12.227-20.378 27.51-33.114 38.718-0.509-44.322 0-88.645-0.509-133.477 0.509-24.454-21.397-46.36-45.851-45.851-24.963-1.528-47.889 21.397-47.889 46.36-1.019 79.475 0 159.459-0.509 239.443 1.019 13.755 0 29.039 8.151 40.756 8.151 13.755 24.454 22.416 40.247 21.397 83.041 0 166.082 0 249.632 0 19.359 2.038 38.718-8.661 46.87-26.492 14.774-27.001-6.113-63.682-36.171-66.229-49.417-1.019-98.834 0-148.251-0.509 40.247-66.738 102.4-119.721 172.704-153.345 88.645-41.775 192.064-50.945 286.312-24.454 92.72 24.963 175.252 83.55 230.273 162.515 49.926 71.323 76.927 158.44 74.89 245.556-1.528 94.249-36.681 187.479-97.305 258.802-62.153 74.89-151.817 126.344-248.103 142.137-98.324 16.812-202.253-3.057-286.312-55.021-74.38-45.341-132.967-114.627-166.591-194.611-9.68-25.982-43.813-38.209-67.248-23.435-20.888 10.699-28.020 38.209-19.359 59.097 46.36 113.608 136.024 208.876 246.575 262.368z" />
<glyph unicode="&#xe610;" d="M320.955 919.244c85.079 34.133 178.818 46.36 269.5 31.077 117.684-17.831 228.235-78.965 305.672-169.138 10.699-11.717 18.85-25.473 30.567-36.171 1.019 44.832 0 89.154 0.509 133.986-0.509 24.454 21.906 46.36 46.36 45.851 24.963 1.019 47.889-21.397 47.889-46.36 0.509-77.946-0.509-156.402 0.509-234.348-1.019-15.284 1.019-32.096-7.642-45.851-8.151-14.265-24.454-22.416-40.756-21.397-84.569 0-169.138 0-253.707 0-24.963-1.528-47.379 22.416-46.36 46.87-0.509 24.454 21.397 46.87 45.851 46.36 47.889 0 95.268 0 143.156 0-81.003 135.005-246.575 211.423-401.958 189.516-99.853-12.227-194.101-63.172-259.821-139.081-55.53-62.153-90.683-140.609-100.362-222.121-11.717-87.116 7.132-177.29 49.926-253.707 46.36-82.531 121.759-148.251 209.895-182.894 81.512-32.096 172.704-37.7 257.274-15.284 122.269 31.077 227.725 122.269 276.123 238.424 7.642 24.963 37.19 40.756 62.153 30.058 24.963-8.661 36.171-39.228 25.982-62.663-32.605-78.456-84.569-148.251-150.798-201.234-84.569-68.776-192.573-108.004-301.087-112.589-110.042-3.566-220.593 29.039-310.257 93.23-102.909 72.852-177.29 183.912-204.291 306.691-25.473 112.589-10.189 232.82 41.266 335.729 54.511 110.042 150.798 199.196 264.406 245.047z" />
<glyph unicode="&#xe611;" d="M995.819 496.152h-265.143v-99.352h265.143v99.352zM996.429 273.676h-526.019v-98.133h526.019v98.133zM496.619 362.057l-491.276 491.276 102.4 102.4 485.79-485.79v-107.886zM333.876 39.010h788.724v648.533h-80.457v98.133h177.371v-844.8h-982.552v542.476l96.914-96.914zM396.048 785.676h127.39v20.114h70.705v75.581h314.514v-75.581h71.924v-145.676h-457.143v27.429h-29.257z" horiz-adv-x="1225" />
<glyph unicode="&#xe612;" d="M647.314 960h33.646c54.857-5.851 108.251-31.451 144.823-73.874 65.829-73.874 68.023-196.023 2.194-270.629-110.446-123.611-220.891-247.954-331.337-371.566-50.469-57.051-147.749-59.246-200.411-4.389-36.571 35.84-49.737 93.623-31.451 141.166 8.777 27.063 29.257 48.274 48.274 68.754 78.263 87.771 155.794 175.543 234.057 262.583 24.869-21.211 49.737-43.154 74.606-65.097-83.383-92.891-166.034-185.783-249.417-278.674-8.777-10.24-18.286-21.943-16.091-36.571 2.194-27.063 35.84-43.886 58.514-27.794 13.897 10.971 24.869 24.869 36.571 38.034 100.206 112.64 200.411 224.549 299.886 337.189 27.063 29.989 33.646 76.069 18.286 113.371-15.36 38.766-54.126 67.291-95.817 70.217-35.84 2.926-72.411-11.703-96.549-39.497-144.091-162.377-287.451-323.291-430.811-484.937-43.154-47.543-58.514-117.76-37.303-178.469 21.211-64.366 80.457-114.103 147.749-123.611 61.44-9.509 127.269 13.166 168.229 59.977 148.48 166.766 296.229 333.531 445.44 500.297 24.869-21.211 49.737-43.154 74.606-64.366v-0.731c-148.48-166.766-296.96-333.531-445.44-500.297-49.737-56.32-122.149-89.966-196.754-94.354h-40.229c-62.903 6.583-125.074 31.451-171.154 75.337-53.394 46.811-85.577 115.566-91.429 185.783v40.96c5.851 59.246 29.257 117.029 68.754 162.377 144.823 162.377 289.646 324.754 434.469 487.131 36.571 41.691 89.966 66.56 144.091 71.68z" horiz-adv-x="944" />
<glyph unicode="&#xe613;" d="M1015.349 839.606c-195.803 0-391.606 0-586.905 0 0-68.455 0-137.414 0-205.869 27.684 0 55.872 0 83.556 0 0 41.275 0 82.046 0 123.321 139.931 0 279.862 0 419.29 0 0-205.869 0-411.739 0-618.112-139.931 0-279.862 0-419.793 0 0 27.684 0 54.865 0 82.55 0 0.504-83.556 0.504-83.556 0 0-54.865 0-109.73 0-164.595 195.803 0 391.606 0 586.905 0 0.504 260.735 0.504 521.973 0.504 782.708zM302.606 674.507c-98.153-82.55-195.803-164.595-293.452-247.144 97.65-82.55 195.803-165.098 293.452-247.144 0.504 41.275 0 82.046 0 123.321 139.427 0 279.359 0 419.29 0 0 82.55 0 165.098 0 247.144-139.427 0-279.359 0-418.786 0-1.006 41.778-0.504 82.55-0.504 123.823z" />
<glyph unicode="&#xe614;" d="M315.242 960h-241.116c-25.6 0-50.605-5.358-59.535-13.693-7.74-7.144-10.716-17.265-14.288-26.791v-348.279c4.763-31.553 45.842-49.414 69.656-26.195 40.484 39.293 79.777 79.777 119.665 119.070 116.093-114.902 230.995-231.591 347.088-346.493 7.144-8.93 22.028-11.312 30.363-2.381 25.6 24.409 50.605 50.009 75.609 75.014 10.716 7.74 9.526 24.409-0.595 32.149-115.498 116.093-230.995 230.995-346.493 347.088 38.698 39.888 79.181 78.586 117.879 119.070 16.074 15.479 14.884 44.056-1.786 58.344-17.86 13.098-67.87 13.693-96.447 13.098zM1191 871.888h-595.349v-82.753h511.405v-766.809h-767.405v254.809h-83.349v-341.135h934.698v935.888z" horiz-adv-x="1191" />
<glyph unicode="&#xe615;" d="M229.181 496.152h265.143v-99.352h-265.143v99.352zM228.571 273.676h526.019v-98.133h-526.019v98.133zM728.381 362.057l491.276 491.276-102.4 102.4-485.79-485.79v-107.886zM891.124 39.010h-788.724v648.533h80.457v98.133h-177.371v-844.8h982.552v542.476l-96.914-96.914zM828.952 785.676h-127.39v20.114h-70.705v75.581h-314.514v-75.581h-71.924v-145.676h457.143v27.429h29.257z" horiz-adv-x="1225" />
<glyph unicode="&#xe616;" d="M995.31 619.641c-195.379 0-751.967 0-825.599 0 24.059 3.875 571.121 69.272 811.389 96.881-7.912 62.489-22.121 128.209-31.487 190.534-38.431-4.844-79.605-8.879-113.513-13.564-272.399-33.909-550.614-67.332-822.531-101.241 11.465-55.223 20.83-117.389 31.971-172.126 0-211.364 0-422.89 0-634.257h949.769c0 210.881-0.485 422.729 0 633.77zM860.16 848.609c25.027-31.971 49.088-64.425 73.309-97.368-48.118-4.36-81.22-8.719-103.663-10.817-24.706 32.777-45.695 62.973-70.077 96.881 27.611 3.39 82.187 8.719 100.433 11.302zM683.187 829.069c24.544-31.971 49.088-63.943 72.338-96.881-11.302-1.939-77.184-9.204-101.727-12.434-23.091 31.971-47.958 63.781-71.369 97.368 34.393 4.198 67.172 7.59 100.759 11.95zM506.54 810.016c23.091-31.003 45.534-64.587 70.886-97.527-33.909-2.423-66.848-5.813-100.759-10.335-25.511 31.003-48.602 63.458-71.853 95.913 22.927 3.39 74.115 10.012 101.727 11.95zM329.247 790.156c23.576-32.455 48.118-63.296 71.208-97.368-32.94-2.746-64.587-8.073-101.241-10.817-24.544 31.971-49.571 67.172-74.598 99.143 83.48 7.105 86.386 7.59 104.635 9.043zM761.341 563.614c36.007-36.169 108.993-110.769 118.035-120.941-47.796 0-93.492 0-142.094 0-39.882 40.367-81.058 79.605-119.488 120.941 48.281 0 96.076 0 143.547 0zM520.427 564.098c41.981-41.336 80.898-79.929 121.426-122.393-53.446 0-93.007 0-142.579 0-38.591 39.075-79.605 79.282-120.457 122.393 48.118 0 94.461 0 141.61 0zM283.549 562.483c33.261-38.753 68.786-81.382 100.759-120.457-47.633 0-92.198 0-143.547 0-28.741 33.425-73.145 87.355-99.79 120.457 54.252 0 95.107 0 142.579 0zM48.933 763.676c42.627 3.553 67.818 6.46 101.241 9.367 21.151-26.966 65.397-86.225 74.276-99.465-25.027-1.939-83.804-7.75-104.955-8.558-22.927 32.295-47.473 63.458-70.562 98.658zM920.229 62.57c-266.427 0-533.499 0-799.924 0 0 113.999 0 228.642 0 342.642 266.427 0 533.499 0 799.924 0-0.485-113.999-0.485-228.157 0-342.642zM463.428 369.203l160.501-122.719-160.501-122.719z" horiz-adv-x="1015" />
<glyph unicode="&#xe617;" d="M19.69 619.641c195.379 0 751.967 0 825.599 0-24.059 3.875-571.121 69.272-811.389 96.881 7.912 62.489 22.121 128.209 31.487 190.534 38.431-4.844 79.605-8.879 113.513-13.564 272.399-33.909 550.614-67.332 822.531-101.241-11.465-55.223-20.83-117.389-31.971-172.126 0-211.364 0-422.89 0-634.257h-949.769c0 210.881 0.485 422.729 0 633.77zM154.84 848.609c-25.027-31.971-49.088-64.425-73.309-97.368 48.118-4.36 81.22-8.719 103.663-10.817 24.706 32.777 45.695 62.973 70.077 96.881-27.611 3.39-82.187 8.719-100.433 11.302zM331.813 829.069c-24.544-31.971-49.088-63.943-72.338-96.881 11.302-1.939 77.184-9.204 101.727-12.434 23.091 31.971 47.958 63.781 71.369 97.368-34.393 4.198-67.172 7.59-100.759 11.95zM508.46 810.016c-23.091-31.003-45.534-64.587-70.886-97.527 33.909-2.423 66.848-5.813 100.759-10.335 25.511 31.003 48.602 63.458 71.853 95.913-22.927 3.39-74.115 10.012-101.727 11.95zM685.753 790.156c-23.576-32.455-48.118-63.296-71.208-97.368 32.94-2.746 64.587-8.073 101.241-10.817 24.544 31.971 49.571 67.172 74.598 99.143-83.48 7.105-86.386 7.59-104.635 9.043zM253.659 563.614c-36.007-36.169-108.993-110.769-118.035-120.941 47.796 0 93.492 0 142.094 0 39.882 40.367 81.058 79.605 119.488 120.941-48.281 0-96.076 0-143.547 0zM494.573 564.098c-41.981-41.336-80.898-79.929-121.426-122.393 53.446 0 93.007 0 142.579 0 38.591 39.075 79.605 79.282 120.457 122.393-48.118 0-94.461 0-141.61 0zM731.451 562.483c-33.261-38.753-68.786-81.382-100.759-120.457 47.633 0 92.198 0 143.547 0 28.741 33.425 73.145 87.355 99.79 120.457-54.252 0-95.107 0-142.579 0zM966.067 763.676c-42.627 3.553-67.818 6.46-101.241 9.367-21.151-26.966-65.397-86.225-74.276-99.465 25.027-1.939 83.804-7.75 104.955-8.558 22.927 32.295 47.473 63.458 70.562 98.658zM94.771 62.57c266.427 0 533.499 0 799.924 0 0 113.999 0 228.642 0 342.642-266.427 0-533.499 0-799.924 0 0.485-113.999 0.485-228.157 0-342.642zM551.572 369.203l-160.501-122.719 160.501-122.719z" horiz-adv-x="1015" />
<glyph unicode="&#xe618;" d="M357.425 855.65c83.87 14.629 173.592-38.522 198.461-120.442 27.307-78.994-13.166-172.617-88.259-208.701-71.68-38.034-167.253-19.505-219.429 42.91-42.423 48.274-53.638 120.93-28.282 179.931 23.893 56.564 78.019 97.524 137.509 106.301zM837.73 483.109c11.703 11.215 24.869 23.893 36.084 33.158 41.935 0 79.97 0 123.855 0-68.754-71.68-141.897-139.459-212.602-210.164-12.678-12.678-25.356-24.869-38.522-36.571 0 35.109-0.975 71.192-16.091 103.863-37.059-34.133-71.192-71.192-107.764-105.813-30.232 28.282-58.027 58.514-86.796 87.771-8.29 7.802-14.141 17.554-29.257 17.554-34.621 0-67.779 0-103.863 0 48.274-55.101 99.962-107.764 149.699-161.89 21.455-22.918 41.935-46.811 64.366-68.754 43.398 41.448 84.846 84.358 128.244 125.318 0-76.069 0-156.526 0-229.181-240.396-0.488-480.792-0.488-721.189 0-0.488 86.309 0 172.13-0.488 258.438-0.975 50.225 19.505 99.962 55.589 134.583 35.109 35.109 84.846 55.101 134.583 55.101 110.69 0.488 221.379 0 332.069 0 33.158 0.488 66.804-5.364 96.061-20.48 39.010-18.53 68.267-52.663 88.747-89.722 37.059 34.621 71.68 71.192 107.276 106.789z" />
<glyph unicode="&#xe619;" d="M35.84 611.584c42.272 123.808 134.4 229.024 251.68 286.912 88.096 44.288 189.248 60.896 287.424 48.832 117.28-14.080 228.032-71.968 308.064-159.072 73.984-80.032 120.8-185.248 130.368-294.464 11.584-119.296-21.632-242.112-92.128-339.264-69.952-97.664-175.68-169.12-292.96-196.32-112.256-26.688-233.568-13.6-337.248 37.76-118.784 57.376-212.928 164.096-255.2 288.928-36.256 104.704-36.256 221.472 0 326.688zM451.584 125.856c41.792 0 84.064 0 125.824 0 0 31.712 0 63.936 0 95.648-41.792 0-84.064 0-125.824 0 0-31.712 0-63.936 0-95.648zM309.152 549.184c4.032-33.728 23.168-62.912 44.288-89.088 29.184-36.256 68.96-63.424 91.104-104.704 10.080-17.632 9.056-38.752 8.544-58.4 41.28 0 82.048 0 123.328 0 0 29.696 2.528 61.408-10.080 89.088-20.64 47.808-61.408 82.56-97.152 119.808-18.624 21.152-37.76 47.808-33.216 78.016 1.504 21.632 14.592 42.784 35.232 51.328 32.704 14.592 72.48 8.544 101.664-11.072 22.656-14.592 37.76-37.248 53.344-58.88 31.2 20.64 61.92 41.28 93.12 61.92-35.232 54.88-89.088 101.184-154.016 114.272-45.312 9.056-93.12 8.544-137.92-3.52-41.28-11.072-79.040-38.24-98.656-76.512-19.136-33.728-23.168-73.984-19.616-112.256z" />
<glyph unicode="&#xe61a;" d="M22.752 564.768c30.72 133.888 120.288 252.192 239.104 319.616 92.608 53.344 202.336 75.488 308.544 63.424 66.944-8.064 132.896-29.184 191.776-62.912 118.784-67.968 208.384-186.24 239.104-319.616 29.184-118.272 12.096-247.136-45.792-354.368-54.88-102.688-146.464-185.248-254.688-229.024-118.784-48.832-255.712-49.344-375.008-1.504-111.744 43.776-206.368 129.856-261.728 236.576-54.368 105.696-69.952 232.032-41.28 347.808zM231.136 681.056c48.832-112.256 98.144-224.48 146.464-336.736 4.544-14.080 20.128-17.632 31.712-23.168 127.84-52.864 254.688-107.712 383.040-159.552-53.344 126.848-109.728 252.192-164.096 378.528-4.032 9.056-7.552 18.624-13.088 27.168-11.584 8.064-25.152 12.096-37.76 17.632-100.672 41.792-200.832 84.064-301.504 126.336-22.144 9.056-43.776 20.128-67.456 26.176 5.536-20.128 14.592-38.24 22.656-56.384zM575.936 503.872c-19.616-11.584-32.704-30.208-49.344-45.312-28.704-29.184-59.392-55.872-87.072-86.080 49.824-27.68 102.176-49.344 152.512-75.488 32.224-15.104 63.424-32.704 96.64-45.792-7.040 25.152-20.128 47.808-30.72 71.488-27.168 60.416-54.368 120.8-82.048 181.216z" />
<glyph unicode="&#xe61b;" d="M617.984 960h-33.28c-22.016-2.048-44.032-4.608-66.56-7.168 35.84-30.208 66.56-67.584 87.040-110.080 77.312-3.072 153.6-33.792 208.384-88.576 69.12-65.536 103.936-165.888 87.552-260.096-9.728-66.56-43.52-128.512-92.16-174.592-62.464-58.88-150.016-89.6-235.52-82.432-101.376 5.632-196.096 67.584-246.272 155.648-47.616-2.56-95.232 7.168-139.776 24.576 14.848-48.128 39.424-92.16 68.608-133.12-86.016-76.288-171.008-153.088-256.512-229.888v-118.272h119.296c80.384 84.992 163.84 166.912 244.736 250.88 86.016-54.272 190.976-77.824 291.84-62.976 77.312 10.24 151.552 42.496 211.968 91.648 72.704 58.368 125.44 141.312 145.92 232.448 5.12 22.528 6.656 46.080 10.752 69.12v46.592c-4.608 24.576-6.144 49.664-12.288 73.728-24.576 103.424-91.136 195.584-180.224 252.928-63.488 41.984-138.24 63.488-213.504 69.632zM76.8 785.92c24.064 73.216 84.48 132.096 157.696 155.648 37.376 11.264 77.312 18.432 116.224 9.728 102.912-13.312 192-98.304 207.872-201.216 12.288-68.608-7.68-141.312-52.224-194.56-52.224-64-137.216-98.304-219.136-88.576-78.848 7.168-152.576 55.296-191.488 123.904-33.792 57.856-39.936 131.072-18.944 195.072zM169.472 676.864h110.080v-108.032h68.096v108.032h108.032v66.56h-108.544v107.52h-68.096v-107.52h-110.080v-66.56z" />
<glyph unicode="&#xe61c;" d="M168.96 550.912c3.072 51.2 12.8 102.4 33.28 150.016 39.936 94.72 116.224 173.056 208.896 217.088 51.712 25.088 109.056 36.864 166.4 41.984h29.184c80.384-3.584 160.256-26.624 227.84-71.68 89.088-58.88 155.136-152.576 178.176-257.024 6.144-24.064 7.68-48.64 11.264-73.216v-33.28c-5.12-99.84-44.544-197.632-114.176-269.824-67.072-71.68-159.744-119.296-257.024-131.072-99.84-13.824-203.776 9.216-288.768 63.488-81.92-83.968-164.352-166.912-246.272-250.88h-117.76v118.784c85.504 76.8 171.008 153.088 256.512 230.4-58.368 74.24-89.6 169.984-87.552 265.216zM336.896 375.296c41.984-64 108.032-111.104 182.272-129.536 74.752-18.944 156.672-9.728 224.768 27.648 75.776 40.448 133.632 114.176 153.088 198.144 19.456 80.384 2.56 167.936-43.52 235.52-47.616 71.168-125.952 120.32-210.944 132.608-58.88 7.68-120.32 1.024-175.104-24.576-84.48-37.888-150.528-115.712-171.52-206.336-19.968-78.848-4.096-165.376 40.96-233.472z" />
<glyph unicode="&#xe61d;" d="M146.176 148.064c0.448-2.016 0.768-4.064 1.632-6.016 0.288-0.672 0.224-1.44 0.64-2.144 0.576-1.184 1.568-1.952 2.24-3.040 1.152-1.696 2.24-3.328 3.744-4.768 1.632-1.568 3.328-2.88 5.12-4.064 0.992-0.64 1.728-1.568 2.816-2.144 0.32-0.16 0.672-0.192 0.928-0.288 0.544-0.448 0.96-0.864 1.632-1.184 0.672-0.384 1.472-0.32 2.176-0.576 1.984-0.8 3.936-1.248 6.016-1.632 1.984-0.352 3.84-0.736 5.824-0.672 1.92 0 3.744 0.384 5.728 0.736 2.112 0.448 4.192 0.864 6.208 1.76 0.672 0.256 1.408 0.192 2.016 0.576l609.76 308.48c15.488 7.744 21.664 26.592 13.888 42.048-4.928 9.792-14.432 15.296-24.544 16.448v0.544h-277.12l0.448 269.184v6.144l-0.512 0.032c-1.184 10.048-6.688 19.36-16.48 24.384-15.456 7.776-34.304 1.568-42.080-13.888l-307.68-610.048c-0.416-0.672-0.416-1.376-0.672-2.016-0.768-2.016-1.216-4.128-1.728-6.304-0.384-1.952-0.736-3.776-0.704-5.664 0-1.952 0.352-3.904 0.704-5.888z" />
<glyph unicode="&#xe61e;" d="M859.072 492.608c-10.624 3.936-22.016 6.4-34.016 6.4h-30.016v170.496h-0.672c0.128-0.992 0.608-1.952 0.64-2.976 0-0.128-0.064-0.288-0.064-0.448-0.128 8.064-3.168 16.096-9.312 22.24l-123.232 123.168c-6.016 6.016-13.856 8.96-21.664 9.184h-397.728c-17.696 0-32-14.336-32-32v-289.664h-29.984c-12 0-23.36-2.464-34.016-6.4-37.312-13.888-64-49.472-64-91.584v-194.368c0-17.696 14.304-32 32-32h96v-106.016c0-17.696 14.304-32 32-32h520c17.696 0 32 14.304 32 32v106.016h96c17.696 0 32 14.304 32 32v194.368c0.064 42.112-26.688 77.696-63.936 91.584zM275.008 756.672h326.656v-94.304c0-17.696 14.304-32 32-32h97.312v-163.328h-455.968v289.632zM731.072 100.64h-456.064v150.368h456v-150.368h0.064zM826.912 356c-24.704 0-44.48 19.424-45.792 43.904v4.832c1.312 24.352 21.056 43.84 45.792 43.84 25.632 0 46.4-20.736 46.4-46.368-0.096-25.44-20.768-46.208-46.4-46.208z" />
</font>
</defs>
</svg>
