<?xml version="1.0" encoding="UTF-8"?>
<svg xmlns="http://www.w3.org/2000/svg" xmlns:xlink="http://www.w3.org/1999/xlink" version="1.2" >
<font id="SamsungOneArabic-400">
<font-face  font-family="SamsungOneArabic" units-per-em="1024" ascent="794" descent="-230" font-style="normal" font-weight="400" font-stretch="normal" cap-height="724" x-height="534" underline-position="-118" underline-thickness="31" />
<missing-glyph  horiz-adv-x="690" d="M592 0 L523 0 L138 0 L98 0 L98 724 L167 724 L592 724 L592 0 Z M523 658 L200 658 L523 124 L523 658 Z M167 66 L490 66 L167 600 L167 66 Z " />
<glyph glyph-name="nonmarkingreturn" unicode="&#xd;" d="" />
<glyph glyph-name="space" unicode="&#x20;" horiz-adv-x="231" d="" />
<glyph glyph-name="A" unicode="A" horiz-adv-x="666" d="M485 198 L180 198 L112 0 L32 0 L291 724 L375 724 L634 0 L553 0 L485 198 Z M462 264 L332 642 L202 264 L462 264 Z " />
<glyph glyph-name="Aacute" unicode="&#xc1;" horiz-adv-x="666" d="M337 781 L271 781 L271 793 L424 926 L519 926 L519 914 L337 781 Z M485 198 L180 198 L112 0 L32 0 L291 724 L375 724 L634 0 L553 0 L485 198 Z M462 264 L332 642 L202 264 L462 264 Z " />
<glyph glyph-name="Abreve" unicode="&#x102;" horiz-adv-x="666" d="M333 785 Q270 785 233 823.5 Q196 862 193 930 L244 930 Q256 847 334 847 Q413 847 425 930 L473 930 Q470 862 433 823.5 Q396 785 333 785 Z M485 198 L180 198 L112 0 L32 0 L291 724 L375 724 L634 0 L553 0 L485 198 Z M462 264 L332 642 L202 264 L462 264 Z " />
<glyph glyph-name="uni1EAE" unicode="&#x1eae;" horiz-adv-x="666" d="M356 894 L308 894 L308 904 L389 1031 L458 1031 L458 1021 L356 894 Z M333 775 Q272 775 235.5 808.5 Q199 842 195 902 L242 902 Q247 867 270.5 848.5 Q294 830 334 830 Q374 830 398 848.5 Q422 867 427 902 L471 902 Q467 842 430.5 808.5 Q394 775 333 775 Z M485 198 L180 198 L112 0 L32 0 L291 724 L375 724 L634 0 L553 0 L485 198 Z M462 264 L332 642 L202 264 L462 264 Z " />
<glyph glyph-name="uni1EB6" unicode="&#x1eb6;" horiz-adv-x="666" d="M333 785 Q270 785 233 823.5 Q196 862 193 930 L244 930 Q256 847 334 847 Q413 847 425 930 L473 930 Q470 862 433 823.5 Q396 785 333 785 Z M553 0 L485 198 L180 198 L112 0 L32 0 L291 724 L375 724 L634 0 L553 0 Z M462 264 L332 642 L202 264 L462 264 Z M334 -97 Q359 -97 372.5 -111 Q386 -125 386 -150 Q386 -176 372.5 -190 Q359 -204 334 -204 Q309 -204 295.5 -190 Q282 -176 282 -151 Q282 -125 295.5 -111 Q309 -97 334 -97 Z " />
<glyph glyph-name="uni1EB0" unicode="&#x1eb0;" horiz-adv-x="666" d="M313 894 L217 1021 L217 1031 L286 1031 L361 904 L361 894 L313 894 Z M333 775 Q272 775 235.5 808.5 Q199 842 195 902 L242 902 Q247 867 270.5 848.5 Q294 830 334 830 Q374 830 398 848.5 Q422 867 427 902 L471 902 Q467 842 430.5 808.5 Q394 775 333 775 Z M485 198 L180 198 L112 0 L32 0 L291 724 L375 724 L634 0 L553 0 L485 198 Z M462 264 L332 642 L202 264 L462 264 Z " />
<glyph glyph-name="uni1EB2" unicode="&#x1eb2;" horiz-adv-x="666" d="M332 1000 Q319 1000 304 995 Q289 990 276 982 L257 1021 Q298 1045 341 1045 Q378 1045 399 1028 Q420 1011 420 981 Q420 958 410 947.5 Q400 937 382 930 Q369 924 364 920 Q359 916 359 908 L361 892 L305 892 Q303 904 303 911 Q303 930 312 938.5 Q321 947 337 954 Q350 960 355.5 965 Q361 970 361 979 Q361 1000 332 1000 Z M333 775 Q272 775 235.5 808.5 Q199 842 195 902 L242 902 Q247 867 270.5 848.5 Q294 830 334 830 Q374 830 398 848.5 Q422 867 427 902 L471 902 Q467 842 430.5 808.5 Q394 775 333 775 Z M485 198 L180 198 L112 0 L32 0 L291 724 L375 724 L634 0 L553 0 L485 198 Z M462 264 L332 642 L202 264 L462 264 Z " />
<glyph glyph-name="uni1EB4" unicode="&#x1eb4;" horiz-adv-x="666" d="M272 993 Q236 993 231 938 L187 938 Q187 989 210.5 1017.5 Q234 1046 275 1046 Q299 1046 314 1038 Q329 1030 349 1013 Q362 1001 371.5 995 Q381 989 394 989 Q430 989 435 1044 L479 1044 Q479 993 455.5 964.5 Q432 936 391 936 Q367 936 352 944 Q337 952 317 969 Q304 981 294.5 987 Q285 993 272 993 Z M334 830 Q374 830 398 848.5 Q422 867 427 902 L471 902 Q467 842 430.5 808.5 Q394 775 333 775 Q272 775 235.5 808.5 Q199 842 195 902 L242 902 Q247 867 270.5 848.5 Q294 830 334 830 Z M485 198 L180 198 L112 0 L32 0 L291 724 L375 724 L634 0 L553 0 L485 198 Z M462 264 L332 642 L202 264 L462 264 Z " />
<glyph glyph-name="uni01CD" unicode="&#x1cd;" horiz-adv-x="666" d="M292 781 L175 914 L175 926 L236 926 L335 832 L433 926 L491 926 L491 914 L374 781 L292 781 Z M485 198 L180 198 L112 0 L32 0 L291 724 L375 724 L634 0 L553 0 L485 198 Z M462 264 L332 642 L202 264 L462 264 Z " />
<glyph glyph-name="Acircumflex" unicode="&#xc2;" horiz-adv-x="666" d="M233 781 L175 781 L175 793 L292 926 L374 926 L491 793 L491 781 L430 781 L332 875 L233 781 Z M485 198 L180 198 L112 0 L32 0 L291 724 L375 724 L634 0 L553 0 L485 198 Z M462 264 L332 642 L202 264 L462 264 Z " />
<glyph glyph-name="uni1EA4" unicode="&#x1ea4;" horiz-adv-x="666" d="M496 884 L448 884 L448 894 L529 1021 L598 1021 L598 1011 L496 884 Z M243 785 L191 785 L191 795 L295 934 L371 934 L475 795 L475 785 L420 785 L332 882 L243 785 Z M485 198 L180 198 L112 0 L32 0 L291 724 L375 724 L634 0 L553 0 L485 198 Z M462 264 L332 642 L202 264 L462 264 Z " />
<glyph glyph-name="uni1EAC" unicode="&#x1eac;" horiz-adv-x="666" d="M233 781 L175 781 L175 793 L292 926 L374 926 L491 793 L491 781 L430 781 L332 875 L233 781 Z M553 0 L485 198 L180 198 L112 0 L32 0 L291 724 L375 724 L634 0 L553 0 Z M462 264 L332 642 L202 264 L462 264 Z M334 -97 Q359 -97 372.5 -111 Q386 -125 386 -150 Q386 -176 372.5 -190 Q359 -204 334 -204 Q309 -204 295.5 -190 Q282 -176 282 -151 Q282 -125 295.5 -111 Q309 -97 334 -97 Z " />
<glyph glyph-name="uni1EA6" unicode="&#x1ea6;" horiz-adv-x="666" d="M173 884 L77 1011 L77 1021 L146 1021 L221 894 L221 884 L173 884 Z M191 795 L295 934 L371 934 L475 795 L475 785 L420 785 L332 882 L243 785 L191 785 L191 795 Z M485 198 L180 198 L112 0 L32 0 L291 724 L375 724 L634 0 L553 0 L485 198 Z M462 264 L332 642 L202 264 L462 264 Z " />
<glyph glyph-name="uni1EA8" unicode="&#x1ea8;" horiz-adv-x="666" d="M472 990 Q459 990 444 985 Q429 980 416 972 L397 1011 Q438 1035 481 1035 Q518 1035 539 1018 Q560 1001 560 971 Q560 948 550 937.5 Q540 927 522 920 Q509 914 504 910 Q499 906 499 898 L501 882 L445 882 Q443 894 443 901 Q443 920 452 928.5 Q461 937 477 944 Q490 950 495.5 955 Q501 960 501 969 Q501 990 472 990 Z M243 785 L191 785 L191 795 L295 934 L371 934 L475 795 L475 785 L420 785 L332 882 L243 785 Z M485 198 L180 198 L112 0 L32 0 L291 724 L375 724 L634 0 L553 0 L485 198 Z M462 264 L332 642 L202 264 L462 264 Z " />
<glyph glyph-name="uni1EAA" unicode="&#x1eaa;" horiz-adv-x="666" d="M272 992 Q236 992 231 937 L187 937 Q187 988 210.5 1016.5 Q234 1045 275 1045 Q299 1045 314 1037 Q329 1029 349 1012 Q362 1000 371.5 994 Q381 988 394 988 Q430 988 435 1043 L479 1043 Q479 992 455.5 963.5 Q432 935 391 935 Q367 935 352 943 Q337 951 317 968 Q304 980 294.5 986 Q285 992 272 992 Z M371 914 L475 785 L475 775 L420 775 L332 864 L243 775 L191 775 L191 785 L295 914 L371 914 Z M485 198 L180 198 L112 0 L32 0 L291 724 L375 724 L634 0 L553 0 L485 198 Z M462 264 L332 642 L202 264 L462 264 Z " />
<glyph glyph-name="Adieresis" unicode="&#xc4;" horiz-adv-x="666" d="M236 800 Q213 800 200 813.5 Q187 827 187 851 Q187 875 200 889 Q213 903 236 903 Q260 903 273 889.5 Q286 876 286 852 Q286 827 273 813.5 Q260 800 236 800 Z M429 800 Q406 800 393 813.5 Q380 827 380 851 Q380 875 393 889 Q406 903 429 903 Q453 903 466 889.5 Q479 876 479 852 Q479 827 466 813.5 Q453 800 429 800 Z M485 198 L180 198 L112 0 L32 0 L291 724 L375 724 L634 0 L553 0 L485 198 Z M462 264 L332 642 L202 264 L462 264 Z " />
<glyph glyph-name="uni1EA0" unicode="&#x1ea0;" horiz-adv-x="666" d="M485 198 L180 198 L112 0 L32 0 L291 724 L375 724 L634 0 L553 0 L485 198 Z M462 264 L332 642 L202 264 L462 264 Z M334 -204 Q309 -204 295.5 -190 Q282 -176 282 -151 Q282 -125 295.5 -111 Q309 -97 334 -97 Q359 -97 372.5 -111 Q386 -125 386 -150 Q386 -176 372.5 -190 Q359 -204 334 -204 Z " />
<glyph glyph-name="Agrave" unicode="&#xc0;" horiz-adv-x="666" d="M328 781 L155 914 L155 926 L250 926 L394 793 L394 781 L328 781 Z M485 198 L180 198 L112 0 L32 0 L291 724 L375 724 L634 0 L553 0 L485 198 Z M462 264 L332 642 L202 264 L462 264 Z " />
<glyph glyph-name="uni1EA2" unicode="&#x1ea2;" horiz-adv-x="666" d="M335 888 Q303 888 265 866 L244 910 Q265 924 291.5 932 Q318 940 345 940 Q386 940 409 922.5 Q432 905 432 874 Q432 850 420.5 840 Q409 830 388 821 Q375 816 368.5 811.5 Q362 807 362 798 L364 781 L302 781 Q300 793 300 803 Q300 821 309.5 829.5 Q319 838 338 846 Q352 852 358.5 856.5 Q365 861 365 870 Q365 888 335 888 Z M485 198 L180 198 L112 0 L32 0 L291 724 L375 724 L634 0 L553 0 L485 198 Z M462 264 L332 642 L202 264 L462 264 Z " />
<glyph glyph-name="Amacron" unicode="&#x100;" horiz-adv-x="666" d="M475 811 L191 811 L191 869 L475 869 L475 811 Z M485 198 L180 198 L112 0 L32 0 L291 724 L375 724 L634 0 L553 0 L485 198 Z M462 264 L332 642 L202 264 L462 264 Z " />
<glyph glyph-name="Aogonek" unicode="&#x104;" horiz-adv-x="666" d="M680 -188 Q660 -202 634 -209.5 Q608 -217 580 -217 Q533 -217 506 -193.5 Q479 -170 479 -128 Q479 -91 501 -57 Q523 -23 563 0 L553 0 L485 198 L180 198 L112 0 L32 0 L291 724 L375 724 L634 0 Q590 -25 567 -54 Q544 -83 544 -115 Q544 -159 592 -159 Q625 -159 659 -141 L680 -188 Z M462 264 L332 642 L202 264 L462 264 Z " />
<glyph glyph-name="Aring" unicode="&#xc5;" horiz-adv-x="666" d="M333 769 Q278 769 247.5 797 Q217 825 217 875 Q217 925 247.5 953 Q278 981 333 981 Q388 981 418.5 953 Q449 925 449 875 Q449 825 418.5 797 Q388 769 333 769 Z M333 936 Q272 936 272 875 Q272 814 333 814 Q394 814 394 875 Q394 936 333 936 Z M485 198 L180 198 L112 0 L32 0 L291 724 L375 724 L634 0 L553 0 L485 198 Z M462 264 L332 642 L202 264 L462 264 Z " />
<glyph glyph-name="Atilde" unicode="&#xc3;" horiz-adv-x="666" d="M261 857 Q226 857 218 792 L170 792 Q172 850 196 883.5 Q220 917 263 917 Q289 917 309 906.5 Q329 896 353 877 Q371 863 382 856.5 Q393 850 405 850 Q440 850 448 915 L496 915 Q494 857 470 823.5 Q446 790 403 790 Q377 790 357 800.5 Q337 811 313 830 Q295 844 284 850.5 Q273 857 261 857 Z M485 198 L180 198 L112 0 L32 0 L291 724 L375 724 L634 0 L553 0 L485 198 Z M462 264 L332 642 L202 264 L462 264 Z " />
<glyph glyph-name="AE" unicode="&#xc6;" horiz-adv-x="898" d="M852 67 L852 0 L438 0 L438 190 L182 190 L80 0 L-2 0 L391 724 L467 724 L840 724 L840 657 L510 657 L510 404 L754 404 L754 336 L510 336 L510 67 L852 67 Z M438 256 L438 670 L217 256 L438 256 Z " />
<glyph glyph-name="B" unicode="B" horiz-adv-x="644" d="M457 382 Q523 365 556.5 320.5 Q590 276 590 204 Q590 108 532.5 54 Q475 0 372 0 L137 0 L98 0 L98 724 L172 724 L336 724 Q437 724 493 672 Q549 620 549 527 Q549 409 457 382 Z M172 657 L172 405 L336 405 Q403 405 437.5 436 Q472 467 472 527 Q472 591 436.5 624 Q401 657 332 657 L172 657 Z M376 67 Q443 67 477.5 102 Q512 137 512 204 Q512 271 476.5 305 Q441 339 372 339 L172 339 L172 67 L376 67 Z " />
<glyph glyph-name="C" unicode="C" horiz-adv-x="599" d="M373 -12 Q273 -12 201.5 31 Q130 74 92 155 Q54 236 54 348 Q54 464 93 552.5 Q132 641 203 689 Q274 737 368 737 Q416 737 463.5 725 Q511 713 551 690 L523 629 Q441 668 366 668 Q256 668 194 585.5 Q132 503 132 355 Q132 209 194.5 133.5 Q257 58 379 58 Q468 58 529 93 L557 33 Q526 11 477 -0.5 Q428 -12 373 -12 Z " />
<glyph glyph-name="Cacute" unicode="&#x106;" horiz-adv-x="599" d="M289 793 L442 926 L537 926 L537 914 L355 781 L289 781 L289 793 Z M373 -12 Q273 -12 201.5 31 Q130 74 92 155 Q54 236 54 348 Q54 464 93 552.5 Q132 641 203 689 Q274 737 368 737 Q416 737 463.5 725 Q511 713 551 690 L523 629 Q441 668 366 668 Q256 668 194 585.5 Q132 503 132 355 Q132 209 194.5 133.5 Q257 58 379 58 Q468 58 529 93 L557 33 Q526 11 477 -0.5 Q428 -12 373 -12 Z " />
<glyph glyph-name="Ccaron" unicode="&#x10c;" horiz-adv-x="599" d="M310 781 L193 914 L193 926 L254 926 L353 832 L451 926 L509 926 L509 914 L392 781 L310 781 Z M557 33 Q526 11 477 -0.5 Q428 -12 373 -12 Q273 -12 201.5 31 Q130 74 92 155 Q54 236 54 348 Q54 464 93 552.5 Q132 641 203 689 Q274 737 368 737 Q416 737 463.5 725 Q511 713 551 690 L523 629 Q441 668 366 668 Q256 668 194 585.5 Q132 503 132 355 Q132 209 194.5 133.5 Q257 58 379 58 Q468 58 529 93 L557 33 Z " />
<glyph glyph-name="Ccedilla" unicode="&#xc7;" horiz-adv-x="599" d="M358 -60 Q407 -60 434 -81 Q461 -102 461 -140 Q461 -181 430.5 -204 Q400 -227 346 -227 Q291 -227 248 -204 L263 -160 Q311 -179 346 -179 Q400 -179 400 -140 Q400 -101 350 -101 Q327 -101 306 -110 L285 -86 L319 -8 Q193 9 123.5 101.5 Q54 194 54 348 Q54 464 93 552.5 Q132 641 203 689 Q274 737 368 737 Q416 737 463.5 725 Q511 713 551 690 L523 629 Q441 668 366 668 Q256 668 194 585.5 Q132 503 132 355 Q132 209 194.5 133.5 Q257 58 379 58 Q468 58 529 93 L557 33 Q526 11 477 -0.5 Q428 -12 373 -12 L371 -12 L338 -62 Q352 -60 358 -60 Z " />
<glyph glyph-name="Ccircumflex" unicode="&#x108;" horiz-adv-x="599" d="M251 781 L193 781 L193 793 L310 926 L392 926 L509 793 L509 781 L448 781 L350 875 L251 781 Z M557 33 Q526 11 477 -0.5 Q428 -12 373 -12 Q273 -12 201.5 31 Q130 74 92 155 Q54 236 54 348 Q54 464 93 552.5 Q132 641 203 689 Q274 737 368 737 Q416 737 463.5 725 Q511 713 551 690 L523 629 Q441 668 366 668 Q256 668 194 585.5 Q132 503 132 355 Q132 209 194.5 133.5 Q257 58 379 58 Q468 58 529 93 L557 33 Z " />
<glyph glyph-name="Cdotaccent" unicode="&#x10a;" horiz-adv-x="599" d="M351 800 Q326 800 312.5 814 Q299 828 299 853 Q299 879 312.5 893 Q326 907 351 907 Q376 907 389.5 893 Q403 879 403 854 Q403 828 389.5 814 Q376 800 351 800 Z M373 -12 Q273 -12 201.5 31 Q130 74 92 155 Q54 236 54 348 Q54 464 93 552.5 Q132 641 203 689 Q274 737 368 737 Q416 737 463.5 725 Q511 713 551 690 L523 629 Q441 668 366 668 Q256 668 194 585.5 Q132 503 132 355 Q132 209 194.5 133.5 Q257 58 379 58 Q468 58 529 93 L557 33 Q526 11 477 -0.5 Q428 -12 373 -12 Z " />
<glyph glyph-name="D" unicode="D" horiz-adv-x="689" d="M291 724 Q453 724 539 632 Q625 540 625 362 Q625 184 538 92 Q451 0 287 0 L98 0 L98 724 L291 724 Z M291 67 Q417 67 482 142 Q547 217 547 362 Q547 508 481 582.5 Q415 657 287 657 L172 657 L172 67 L291 67 Z " />
<glyph glyph-name="Eth" unicode="&#xd0;" horiz-adv-x="688" d="M290 724 Q452 724 538 632 Q624 540 624 362 Q624 184 537 92 Q450 0 286 0 L97 0 L97 334 L29 334 L29 399 L97 399 L97 724 L290 724 Z M290 67 Q416 67 481 142 Q546 217 546 362 Q546 508 480 582.5 Q414 657 286 657 L171 657 L171 399 L362 399 L362 334 L171 334 L171 67 L290 67 Z " />
<glyph glyph-name="Dcaron" unicode="&#x10e;" horiz-adv-x="689" d="M297 781 L180 914 L180 926 L241 926 L340 832 L438 926 L496 926 L496 914 L379 781 L297 781 Z M291 724 Q453 724 539 632 Q625 540 625 362 Q625 184 538 92 Q451 0 287 0 L98 0 L98 724 L291 724 Z M291 67 Q417 67 482 142 Q547 217 547 362 Q547 508 481 582.5 Q415 657 287 657 L172 657 L172 67 L291 67 Z " />
<glyph glyph-name="Dcroat" unicode="&#x110;" horiz-adv-x="688" d="M290 724 Q452 724 538 632 Q624 540 624 362 Q624 184 537 92 Q450 0 286 0 L97 0 L97 334 L29 334 L29 399 L97 399 L97 724 L290 724 Z M290 67 Q416 67 481 142 Q546 217 546 362 Q546 508 480 582.5 Q414 657 286 657 L171 657 L171 399 L362 399 L362 334 L171 334 L171 67 L290 67 Z " />
<glyph glyph-name="uni1E0C" unicode="&#x1e0c;" horiz-adv-x="689" d="M291 724 Q453 724 539 632 Q625 540 625 362 Q625 184 538 92 Q451 0 287 0 L98 0 L98 724 L291 724 Z M291 67 Q417 67 482 142 Q547 217 547 362 Q547 508 481 582.5 Q415 657 287 657 L172 657 L172 67 L291 67 Z M334 -204 Q309 -204 295.5 -190 Q282 -176 282 -151 Q282 -125 295.5 -111 Q309 -97 334 -97 Q359 -97 372.5 -111 Q386 -125 386 -150 Q386 -176 372.5 -190 Q359 -204 334 -204 Z " />
<glyph glyph-name="uni1E0E" unicode="&#x1e0e;" horiz-adv-x="689" d="M291 724 Q453 724 539 632 Q625 540 625 362 Q625 184 538 92 Q451 0 287 0 L98 0 L98 724 L291 724 Z M291 67 Q417 67 482 142 Q547 217 547 362 Q547 508 481 582.5 Q415 657 287 657 L172 657 L172 67 L291 67 Z M192 -108 L476 -108 L476 -166 L192 -166 L192 -108 Z " />
<glyph glyph-name="E" unicode="E" horiz-adv-x="574" d="M528 67 L528 0 L98 0 L98 724 L516 724 L516 657 L172 657 L172 404 L430 404 L430 336 L172 336 L172 67 L528 67 Z " />
<glyph glyph-name="Eacute" unicode="&#xc9;" horiz-adv-x="574" d="M317 781 L251 781 L251 793 L404 926 L499 926 L499 914 L317 781 Z M528 67 L528 0 L98 0 L98 724 L516 724 L516 657 L172 657 L172 404 L430 404 L430 336 L172 336 L172 67 L528 67 Z " />
<glyph glyph-name="Ebreve" unicode="&#x114;" horiz-adv-x="574" d="M313 785 Q250 785 213 823.5 Q176 862 173 930 L224 930 Q236 847 314 847 Q393 847 405 930 L453 930 Q450 862 413 823.5 Q376 785 313 785 Z M528 67 L528 0 L98 0 L98 724 L516 724 L516 657 L172 657 L172 404 L430 404 L430 336 L172 336 L172 67 L528 67 Z " />
<glyph glyph-name="Ecaron" unicode="&#x11a;" horiz-adv-x="574" d="M272 781 L155 914 L155 926 L216 926 L315 832 L413 926 L471 926 L471 914 L354 781 L272 781 Z M528 67 L528 0 L98 0 L98 724 L516 724 L516 657 L172 657 L172 404 L430 404 L430 336 L172 336 L172 67 L528 67 Z " />
<glyph glyph-name="Ecircumflex" unicode="&#xca;" horiz-adv-x="574" d="M213 781 L155 781 L155 793 L272 926 L354 926 L471 793 L471 781 L410 781 L312 875 L213 781 Z M528 67 L528 0 L98 0 L98 724 L516 724 L516 657 L172 657 L172 404 L430 404 L430 336 L172 336 L172 67 L528 67 Z " />
<glyph glyph-name="uni1EBE" unicode="&#x1ebe;" horiz-adv-x="574" d="M578 1021 L578 1011 L476 884 L428 884 L428 894 L509 1021 L578 1021 Z M223 785 L171 785 L171 795 L275 934 L351 934 L455 795 L455 785 L400 785 L312 882 L223 785 Z M172 67 L528 67 L528 0 L98 0 L98 724 L516 724 L516 657 L172 657 L172 404 L430 404 L430 336 L172 336 L172 67 Z " />
<glyph glyph-name="uni1EC6" unicode="&#x1ec6;" horiz-adv-x="574" d="M213 781 L155 781 L155 793 L272 926 L354 926 L471 793 L471 781 L410 781 L312 875 L213 781 Z M528 67 L528 0 L98 0 L98 724 L516 724 L516 657 L172 657 L172 404 L430 404 L430 336 L172 336 L172 67 L528 67 Z M315 -97 Q340 -97 353.5 -111 Q367 -125 367 -150 Q367 -176 353.5 -190 Q340 -204 315 -204 Q290 -204 276.5 -190 Q263 -176 263 -151 Q263 -125 276.5 -111 Q290 -97 315 -97 Z " />
<glyph glyph-name="uni1EC0" unicode="&#x1ec0;" horiz-adv-x="574" d="M153 884 L57 1011 L57 1021 L126 1021 L201 894 L201 884 L153 884 Z M171 795 L275 934 L351 934 L455 795 L455 785 L400 785 L312 882 L223 785 L171 785 L171 795 Z M528 67 L528 0 L98 0 L98 724 L516 724 L516 657 L172 657 L172 404 L430 404 L430 336 L172 336 L172 67 L528 67 Z " />
<glyph glyph-name="uni1EC2" unicode="&#x1ec2;" horiz-adv-x="574" d="M452 990 Q439 990 424 985 Q409 980 396 972 L377 1011 Q418 1035 461 1035 Q498 1035 519 1018 Q540 1001 540 971 Q540 948 530 937.5 Q520 927 502 920 Q489 914 484 910 Q479 906 479 898 L481 882 L425 882 Q423 894 423 901 Q423 920 432 928.5 Q441 937 457 944 Q470 950 475.5 955 Q481 960 481 969 Q481 990 452 990 Z M223 785 L171 785 L171 795 L275 934 L351 934 L455 795 L455 785 L400 785 L312 882 L223 785 Z M172 67 L528 67 L528 0 L98 0 L98 724 L516 724 L516 657 L172 657 L172 404 L430 404 L430 336 L172 336 L172 67 Z " />
<glyph glyph-name="uni1EC4" unicode="&#x1ec4;" horiz-adv-x="574" d="M252 992 Q216 992 211 937 L167 937 Q167 988 190.5 1016.5 Q214 1045 255 1045 Q279 1045 294 1037 Q309 1029 329 1012 Q342 1000 351.5 994 Q361 988 374 988 Q410 988 415 1043 L459 1043 Q459 992 435.5 963.5 Q412 935 371 935 Q347 935 332 943 Q317 951 297 968 Q284 980 274.5 986 Q265 992 252 992 Z M351 914 L455 785 L455 775 L400 775 L312 864 L223 775 L171 775 L171 785 L275 914 L351 914 Z M528 67 L528 0 L98 0 L98 724 L516 724 L516 657 L172 657 L172 404 L430 404 L430 336 L172 336 L172 67 L528 67 Z " />
<glyph glyph-name="Edieresis" unicode="&#xcb;" horiz-adv-x="574" d="M216 800 Q193 800 180 813.5 Q167 827 167 851 Q167 875 180 889 Q193 903 216 903 Q240 903 253 889.5 Q266 876 266 852 Q266 827 253 813.5 Q240 800 216 800 Z M409 800 Q386 800 373 813.5 Q360 827 360 851 Q360 875 373 889 Q386 903 409 903 Q433 903 446 889.5 Q459 876 459 852 Q459 827 446 813.5 Q433 800 409 800 Z M528 67 L528 0 L98 0 L98 724 L516 724 L516 657 L172 657 L172 404 L430 404 L430 336 L172 336 L172 67 L528 67 Z " />
<glyph glyph-name="Edotaccent" unicode="&#x116;" horiz-adv-x="574" d="M313 800 Q288 800 274.5 814 Q261 828 261 853 Q261 879 274.5 893 Q288 907 313 907 Q338 907 351.5 893 Q365 879 365 854 Q365 828 351.5 814 Q338 800 313 800 Z M528 67 L528 0 L98 0 L98 724 L516 724 L516 657 L172 657 L172 404 L430 404 L430 336 L172 336 L172 67 L528 67 Z " />
<glyph glyph-name="uni1EB8" unicode="&#x1eb8;" horiz-adv-x="574" d="M528 67 L528 0 L98 0 L98 724 L516 724 L516 657 L172 657 L172 404 L430 404 L430 336 L172 336 L172 67 L528 67 Z M315 -204 Q290 -204 276.5 -190 Q263 -176 263 -151 Q263 -125 276.5 -111 Q290 -97 315 -97 Q340 -97 353.5 -111 Q367 -125 367 -150 Q367 -176 353.5 -190 Q340 -204 315 -204 Z " />
<glyph glyph-name="Egrave" unicode="&#xc8;" horiz-adv-x="574" d="M308 781 L135 914 L135 926 L230 926 L374 793 L374 781 L308 781 Z M528 67 L528 0 L98 0 L98 724 L516 724 L516 657 L172 657 L172 404 L430 404 L430 336 L172 336 L172 67 L528 67 Z " />
<glyph glyph-name="uni1EBA" unicode="&#x1eba;" horiz-adv-x="574" d="M315 888 Q283 888 245 866 L224 910 Q245 924 271.5 932 Q298 940 325 940 Q366 940 389 922.5 Q412 905 412 874 Q412 850 400.5 840 Q389 830 368 821 Q355 816 348.5 811.5 Q342 807 342 798 L344 781 L282 781 Q280 793 280 803 Q280 821 289.5 829.5 Q299 838 318 846 Q332 852 338.5 856.5 Q345 861 345 870 Q345 888 315 888 Z M528 67 L528 0 L98 0 L98 724 L516 724 L516 657 L172 657 L172 404 L430 404 L430 336 L172 336 L172 67 L528 67 Z " />
<glyph glyph-name="Emacron" unicode="&#x112;" horiz-adv-x="574" d="M455 811 L171 811 L171 869 L455 869 L455 811 Z M528 67 L528 0 L98 0 L98 724 L516 724 L516 657 L172 657 L172 404 L430 404 L430 336 L172 336 L172 67 L528 67 Z " />
<glyph glyph-name="Eogonek" unicode="&#x118;" horiz-adv-x="574" d="M574 -188 Q554 -202 528 -209.5 Q502 -217 474 -217 Q427 -217 400 -193.5 Q373 -170 373 -128 Q373 -91 395 -57 Q417 -23 457 0 L98 0 L98 724 L516 724 L516 657 L172 657 L172 404 L430 404 L430 336 L172 336 L172 67 L528 67 L528 0 Q484 -25 461 -54 Q438 -83 438 -115 Q438 -159 486 -159 Q519 -159 553 -141 L574 -188 Z " />
<glyph glyph-name="uni1EBC" unicode="&#x1ebc;" horiz-adv-x="574" d="M241 857 Q206 857 198 792 L150 792 Q152 850 176 883.5 Q200 917 243 917 Q269 917 289 906.5 Q309 896 333 877 Q351 863 362 856.5 Q373 850 385 850 Q420 850 428 915 L476 915 Q474 857 450 823.5 Q426 790 383 790 Q357 790 337 800.5 Q317 811 293 830 Q275 844 264 850.5 Q253 857 241 857 Z M528 67 L528 0 L98 0 L98 724 L516 724 L516 657 L172 657 L172 404 L430 404 L430 336 L172 336 L172 67 L528 67 Z " />
<glyph glyph-name="F" unicode="F" horiz-adv-x="536" d="M172 657 L172 392 L448 392 L448 324 L172 324 L172 0 L98 0 L98 724 L510 724 L510 657 L172 657 Z " />
<glyph glyph-name="G" unicode="G" horiz-adv-x="668" d="M590 378 L590 36 Q553 13 499.5 0 Q446 -13 387 -13 Q286 -13 213.5 31.5 Q141 76 102.5 160.5 Q64 245 64 362 Q64 479 102.5 563.5 Q141 648 213.5 692.5 Q286 737 387 737 Q439 737 488.5 725 Q538 713 573 692 L550 629 Q465 669 385 669 Q265 669 203.5 591.5 Q142 514 142 362 Q142 210 204 132 Q266 54 387 54 Q453 54 516 74 L516 311 L382 311 L382 378 L590 378 Z " />
<glyph glyph-name="Gbreve" unicode="&#x11e;" horiz-adv-x="668" d="M359 785 Q296 785 259 823.5 Q222 862 219 930 L270 930 Q282 847 360 847 Q439 847 451 930 L499 930 Q496 862 459 823.5 Q422 785 359 785 Z M590 378 L590 36 Q553 13 499.5 0 Q446 -13 387 -13 Q286 -13 213.5 31.5 Q141 76 102.5 160.5 Q64 245 64 362 Q64 479 102.5 563.5 Q141 648 213.5 692.5 Q286 737 387 737 Q439 737 488.5 725 Q538 713 573 692 L550 629 Q465 669 385 669 Q265 669 203.5 591.5 Q142 514 142 362 Q142 210 204 132 Q266 54 387 54 Q453 54 516 74 L516 311 L382 311 L382 378 L590 378 Z " />
<glyph glyph-name="Gcaron" unicode="&#x1e6;" horiz-adv-x="668" d="M318 781 L201 914 L201 926 L262 926 L361 832 L459 926 L517 926 L517 914 L400 781 L318 781 Z M590 378 L590 36 Q553 13 499.5 0 Q446 -13 387 -13 Q286 -13 213.5 31.5 Q141 76 102.5 160.5 Q64 245 64 362 Q64 479 102.5 563.5 Q141 648 213.5 692.5 Q286 737 387 737 Q439 737 488.5 725 Q538 713 573 692 L550 629 Q465 669 385 669 Q265 669 203.5 591.5 Q142 514 142 362 Q142 210 204 132 Q266 54 387 54 Q453 54 516 74 L516 311 L382 311 L382 378 L590 378 Z " />
<glyph glyph-name="Gcircumflex" unicode="&#x11c;" horiz-adv-x="668" d="M259 781 L201 781 L201 793 L318 926 L400 926 L517 793 L517 781 L456 781 L358 875 L259 781 Z M590 378 L590 36 Q553 13 499.5 0 Q446 -13 387 -13 Q286 -13 213.5 31.5 Q141 76 102.5 160.5 Q64 245 64 362 Q64 479 102.5 563.5 Q141 648 213.5 692.5 Q286 737 387 737 Q439 737 488.5 725 Q538 713 573 692 L550 629 Q465 669 385 669 Q265 669 203.5 591.5 Q142 514 142 362 Q142 210 204 132 Q266 54 387 54 Q453 54 516 74 L516 311 L382 311 L382 378 L590 378 Z " />
<glyph glyph-name="Gcommaaccent" unicode="&#x122;" horiz-adv-x="668" d="M590 378 L590 36 Q553 13 499.5 0 Q446 -13 387 -13 Q286 -13 213.5 31.5 Q141 76 102.5 160.5 Q64 245 64 362 Q64 479 102.5 563.5 Q141 648 213.5 692.5 Q286 737 387 737 Q439 737 488.5 725 Q538 713 573 692 L550 629 Q465 669 385 669 Q265 669 203.5 591.5 Q142 514 142 362 Q142 210 204 132 Q266 54 387 54 Q453 54 516 74 L516 311 L382 311 L382 378 L590 378 Z M278 -238 Q304 -209 314.5 -182.5 Q325 -156 325 -116 Q325 -101 323 -83 L395 -83 Q397 -101 397 -115 Q397 -160 376 -195.5 Q355 -231 307 -269 L278 -238 Z " />
<glyph glyph-name="Gdotaccent" unicode="&#x120;" horiz-adv-x="668" d="M359 800 Q334 800 320.5 814 Q307 828 307 853 Q307 879 320.5 893 Q334 907 359 907 Q384 907 397.5 893 Q411 879 411 854 Q411 828 397.5 814 Q384 800 359 800 Z M590 378 L590 36 Q553 13 499.5 0 Q446 -13 387 -13 Q286 -13 213.5 31.5 Q141 76 102.5 160.5 Q64 245 64 362 Q64 479 102.5 563.5 Q141 648 213.5 692.5 Q286 737 387 737 Q439 737 488.5 725 Q538 713 573 692 L550 629 Q465 669 385 669 Q265 669 203.5 591.5 Q142 514 142 362 Q142 210 204 132 Q266 54 387 54 Q453 54 516 74 L516 311 L382 311 L382 378 L590 378 Z " />
<glyph glyph-name="uni1E20" unicode="&#x1e20;" horiz-adv-x="668" d="M501 811 L217 811 L217 869 L501 869 L501 811 Z M590 378 L590 36 Q553 13 499.5 0 Q446 -13 387 -13 Q286 -13 213.5 31.5 Q141 76 102.5 160.5 Q64 245 64 362 Q64 479 102.5 563.5 Q141 648 213.5 692.5 Q286 737 387 737 Q439 737 488.5 725 Q538 713 573 692 L550 629 Q465 669 385 669 Q265 669 203.5 591.5 Q142 514 142 362 Q142 210 204 132 Q266 54 387 54 Q453 54 516 74 L516 311 L382 311 L382 378 L590 378 Z " />
<glyph glyph-name="H" unicode="H" horiz-adv-x="700" d="M602 724 L602 0 L528 0 L528 334 L172 334 L172 0 L98 0 L98 724 L172 724 L172 401 L528 401 L528 724 L602 724 Z " />
<glyph glyph-name="Hbar" unicode="&#x126;" horiz-adv-x="700" d="M671 530 L602 530 L602 0 L528 0 L528 334 L172 334 L172 0 L98 0 L98 530 L29 530 L29 592 L98 592 L98 724 L172 724 L172 592 L528 592 L528 724 L602 724 L602 592 L671 592 L671 530 Z M528 530 L172 530 L172 401 L528 401 L528 530 Z " />
<glyph glyph-name="uni1E2A" unicode="&#x1e2a;" horiz-adv-x="700" d="M602 724 L602 0 L528 0 L528 334 L172 334 L172 0 L98 0 L98 724 L172 724 L172 401 L528 401 L528 724 L602 724 Z M350 -222 Q287 -222 250 -183.5 Q213 -145 210 -77 L261 -77 Q273 -160 351 -160 Q430 -160 442 -77 L490 -77 Q487 -145 450 -183.5 Q413 -222 350 -222 Z " />
<glyph glyph-name="Hcircumflex" unicode="&#x124;" horiz-adv-x="700" d="M250 781 L192 781 L192 793 L309 926 L391 926 L508 793 L508 781 L447 781 L349 875 L250 781 Z M602 724 L602 0 L528 0 L528 334 L172 334 L172 0 L98 0 L98 724 L172 724 L172 401 L528 401 L528 724 L602 724 Z " />
<glyph glyph-name="uni1E24" unicode="&#x1e24;" horiz-adv-x="700" d="M602 724 L602 0 L528 0 L528 334 L172 334 L172 0 L98 0 L98 724 L172 724 L172 401 L528 401 L528 724 L602 724 Z M350 -204 Q325 -204 311.5 -190 Q298 -176 298 -151 Q298 -125 311.5 -111 Q325 -97 350 -97 Q375 -97 388.5 -111 Q402 -125 402 -150 Q402 -176 388.5 -190 Q375 -204 350 -204 Z " />
<glyph glyph-name="I" unicode="I" horiz-adv-x="274" d="M100 724 L174 724 L174 0 L100 0 L100 724 Z " />
<glyph glyph-name="IJ" unicode="&#x132;" horiz-adv-x="641" d="M98 724 L172 724 L172 0 L98 0 L98 724 Z M381 -13 Q348 -13 312.5 -5 Q277 3 249 17 L274 81 Q334 55 381 55 Q433 55 460 86.5 Q487 118 487 180 L487 724 L561 724 L561 180 Q561 89 513.5 38 Q466 -13 381 -13 Z " />
<glyph glyph-name="Iacute" unicode="&#xcd;" horiz-adv-x="274" d="M75 793 L228 926 L323 926 L323 914 L141 781 L75 781 L75 793 Z M100 724 L174 724 L174 0 L100 0 L100 724 Z " />
<glyph glyph-name="uni01CF" unicode="&#x1cf;" horiz-adv-x="274" d="M295 926 L295 914 L178 781 L96 781 L-21 914 L-21 926 L40 926 L139 832 L237 926 L295 926 Z M100 724 L174 724 L174 0 L100 0 L100 724 Z " />
<glyph glyph-name="Icircumflex" unicode="&#xce;" horiz-adv-x="274" d="M295 793 L295 781 L234 781 L136 875 L37 781 L-21 781 L-21 793 L96 926 L178 926 L295 793 Z M100 724 L174 724 L174 0 L100 0 L100 724 Z " />
<glyph glyph-name="Idieresis" unicode="&#xcf;" horiz-adv-x="274" d="M40 800 Q17 800 4 813.5 Q-9 827 -9 851 Q-9 875 4 889 Q17 903 40 903 Q64 903 77 889.5 Q90 876 90 852 Q90 827 77 813.5 Q64 800 40 800 Z M233 800 Q210 800 197 813.5 Q184 827 184 851 Q184 875 197 889 Q210 903 233 903 Q257 903 270 889.5 Q283 876 283 852 Q283 827 270 813.5 Q257 800 233 800 Z M100 724 L174 724 L174 0 L100 0 L100 724 Z " />
<glyph glyph-name="Idot" unicode="&#x130;" horiz-adv-x="274" d="M137 800 Q112 800 98.5 814 Q85 828 85 853 Q85 879 98.5 893 Q112 907 137 907 Q162 907 175.5 893 Q189 879 189 854 Q189 828 175.5 814 Q162 800 137 800 Z M100 724 L174 724 L174 0 L100 0 L100 724 Z " />
<glyph glyph-name="uni1ECA" unicode="&#x1eca;" horiz-adv-x="274" d="M100 724 L174 724 L174 0 L100 0 L100 724 Z M137 -204 Q112 -204 98.5 -190 Q85 -176 85 -151 Q85 -125 98.5 -111 Q112 -97 137 -97 Q162 -97 175.5 -111 Q189 -125 189 -150 Q189 -176 175.5 -190 Q162 -204 137 -204 Z " />
<glyph glyph-name="Igrave" unicode="&#xcc;" horiz-adv-x="274" d="M-41 914 L-41 926 L54 926 L198 793 L198 781 L132 781 L-41 914 Z M100 724 L174 724 L174 0 L100 0 L100 724 Z " />
<glyph glyph-name="uni1EC8" unicode="&#x1ec8;" horiz-adv-x="274" d="M106 781 Q104 793 104 803 Q104 821 113.5 829.5 Q123 838 142 846 Q156 852 162.5 856.5 Q169 861 169 870 Q169 888 139 888 Q107 888 69 866 L48 910 Q69 924 95.5 932 Q122 940 149 940 Q190 940 213 922.5 Q236 905 236 874 Q236 850 224.5 840 Q213 830 192 821 Q179 816 172.5 811.5 Q166 807 166 798 L168 781 L106 781 Z M100 724 L174 724 L174 0 L100 0 L100 724 Z " />
<glyph glyph-name="Imacron" unicode="&#x12a;" horiz-adv-x="274" d="M-5 869 L279 869 L279 811 L-5 811 L-5 869 Z M100 724 L174 724 L174 0 L100 0 L100 724 Z " />
<glyph glyph-name="Iogonek" unicode="&#x12e;" horiz-adv-x="274" d="M241 -188 Q221 -202 195 -209.5 Q169 -217 141 -217 Q94 -217 67 -193 Q40 -169 40 -128 Q40 -94 58 -60 Q76 -26 108 0 L100 0 L100 724 L174 724 L174 0 Q105 -58 105 -115 Q105 -159 153 -159 Q186 -159 220 -141 L241 -188 Z " />
<glyph glyph-name="Itilde" unicode="&#x128;" horiz-adv-x="274" d="M195 790 Q171 790 155.5 800 Q140 810 121 830 Q107 845 98 851.5 Q89 858 76 858 Q59 858 49.5 842 Q40 826 38 792 L-9 792 Q-9 851 14 884 Q37 917 79 917 Q103 917 118.5 907 Q134 897 153 877 Q167 862 176 855.5 Q185 849 198 849 Q215 849 224.5 865 Q234 881 236 915 L283 915 Q283 856 260 823 Q237 790 195 790 Z M100 724 L174 724 L174 0 L100 0 L100 724 Z " />
<glyph glyph-name="J" unicode="J" horiz-adv-x="452" d="M163 -13 Q117 -13 77 -1.5 Q37 10 10 31 L39 92 Q98 55 163 55 Q224 55 254.5 86.5 Q285 118 285 180 L285 724 L359 724 L359 180 Q359 88 307.5 37.5 Q256 -13 163 -13 Z " />
<glyph glyph-name="Jcircumflex" unicode="&#x134;" horiz-adv-x="452" d="M480 793 L480 781 L419 781 L321 875 L222 781 L164 781 L164 793 L281 926 L363 926 L480 793 Z M285 724 L359 724 L359 180 Q359 88 307.5 37.5 Q256 -13 163 -13 Q117 -13 77 -1.5 Q37 10 10 31 L39 92 Q98 55 163 55 Q224 55 254.5 86.5 Q285 118 285 180 L285 724 Z " />
<glyph glyph-name="K" unicode="K" horiz-adv-x="616" d="M267 334 L172 221 L172 0 L98 0 L98 724 L172 724 L172 317 L504 724 L595 724 L316 393 L610 0 L519 0 L267 334 Z " />
<glyph glyph-name="Kcommaaccent" unicode="&#x136;" horiz-adv-x="616" d="M267 334 L172 221 L172 0 L98 0 L98 724 L172 724 L172 317 L504 724 L595 724 L316 393 L610 0 L519 0 L267 334 Z M255 -238 Q281 -209 291.5 -182.5 Q302 -156 302 -116 Q302 -101 300 -83 L372 -83 Q374 -101 374 -115 Q374 -160 353 -195.5 Q332 -231 284 -269 L255 -238 Z " />
<glyph glyph-name="L" unicode="L" horiz-adv-x="527" d="M497 68 L497 0 L98 0 L98 724 L172 724 L172 68 L497 68 Z " />
<glyph glyph-name="Lacute" unicode="&#x139;" horiz-adv-x="527" d="M158 781 L92 781 L92 793 L245 926 L340 926 L340 914 L158 781 Z M497 68 L497 0 L98 0 L98 724 L172 724 L172 68 L497 68 Z " />
<glyph glyph-name="Lcaron" unicode="&#x13d;" horiz-adv-x="527" d="M342 560 L297 560 L297 770 L369 770 L369 760 L342 560 Z M497 68 L497 0 L98 0 L98 724 L172 724 L172 68 L497 68 Z " />
<glyph glyph-name="Lcommaaccent" unicode="&#x13b;" horiz-adv-x="527" d="M497 68 L497 0 L98 0 L98 724 L172 724 L172 68 L497 68 Z M219 -238 Q245 -209 255.5 -182.5 Q266 -156 266 -116 Q266 -101 264 -83 L336 -83 Q338 -101 338 -115 Q338 -160 317 -195.5 Q296 -231 248 -269 L219 -238 Z " />
<glyph glyph-name="Ldot" unicode="&#x13f;" horiz-adv-x="527" d="M497 68 L497 0 L98 0 L98 724 L172 724 L172 68 L497 68 Z M392 337 Q367 337 353.5 351 Q340 365 340 390 Q340 416 353.5 430 Q367 444 392 444 Q417 444 430.5 430 Q444 416 444 391 Q444 365 430.5 351 Q417 337 392 337 Z " />
<glyph glyph-name="uni1E36" unicode="&#x1e36;" horiz-adv-x="527" d="M497 68 L497 0 L98 0 L98 724 L172 724 L172 68 L497 68 Z M300 -204 Q275 -204 261.5 -190 Q248 -176 248 -151 Q248 -125 261.5 -111 Q275 -97 300 -97 Q325 -97 338.5 -111 Q352 -125 352 -150 Q352 -176 338.5 -190 Q325 -204 300 -204 Z " />
<glyph glyph-name="uni1E38" unicode="&#x1e38;" horiz-adv-x="527" d="M298 811 L14 811 L14 869 L298 869 L298 811 Z M497 68 L497 0 L98 0 L98 724 L172 724 L172 68 L497 68 Z M300 -97 Q325 -97 338.5 -111 Q352 -125 352 -150 Q352 -176 338.5 -190 Q325 -204 300 -204 Q275 -204 261.5 -190 Q248 -176 248 -151 Q248 -125 261.5 -111 Q275 -97 300 -97 Z " />
<glyph glyph-name="uni1E3A" unicode="&#x1e3a;" horiz-adv-x="527" d="M497 68 L497 0 L98 0 L98 724 L172 724 L172 68 L497 68 Z M158 -108 L442 -108 L442 -166 L158 -166 L158 -108 Z " />
<glyph glyph-name="Lslash" unicode="&#x141;" horiz-adv-x="531" d="M501 68 L501 0 L102 0 L102 267 L48 233 L38 233 L38 299 L102 336 L102 724 L176 724 L176 379 L398 514 L408 514 L408 448 L176 312 L176 68 L501 68 Z " />
<glyph glyph-name="M" unicode="M" horiz-adv-x="843" d="M745 724 L745 0 L673 0 L673 607 L460 151 L382 151 L169 607 L169 0 L98 0 L98 724 L187 724 L422 224 L655 724 L745 724 Z " />
<glyph glyph-name="uni1E42" unicode="&#x1e42;" horiz-adv-x="843" d="M745 724 L745 0 L673 0 L673 607 L460 151 L382 151 L169 607 L169 0 L98 0 L98 724 L187 724 L422 224 L655 724 L745 724 Z M421 -204 Q396 -204 382.5 -190 Q369 -176 369 -151 Q369 -125 382.5 -111 Q396 -97 421 -97 Q446 -97 459.5 -111 Q473 -125 473 -150 Q473 -176 459.5 -190 Q446 -204 421 -204 Z " />
<glyph glyph-name="N" unicode="N" horiz-adv-x="722" d="M624 724 L624 0 L555 0 L170 598 L170 0 L98 0 L98 724 L167 724 L552 127 L552 724 L624 724 Z " />
<glyph glyph-name="Nacute" unicode="&#x143;" horiz-adv-x="722" d="M365 781 L299 781 L299 793 L452 926 L547 926 L547 914 L365 781 Z M624 724 L624 0 L555 0 L170 598 L170 0 L98 0 L98 724 L167 724 L552 127 L552 724 L624 724 Z " />
<glyph glyph-name="Ncaron" unicode="&#x147;" horiz-adv-x="722" d="M320 781 L203 914 L203 926 L264 926 L363 832 L461 926 L519 926 L519 914 L402 781 L320 781 Z M624 724 L624 0 L555 0 L170 598 L170 0 L98 0 L98 724 L167 724 L552 127 L552 724 L624 724 Z " />
<glyph glyph-name="Ncommaaccent" unicode="&#x145;" horiz-adv-x="722" d="M624 724 L624 0 L555 0 L170 598 L170 0 L98 0 L98 724 L167 724 L552 127 L552 724 L624 724 Z M280 -238 Q306 -209 316.5 -182.5 Q327 -156 327 -116 Q327 -101 325 -83 L397 -83 Q399 -101 399 -115 Q399 -160 378 -195.5 Q357 -231 309 -269 L280 -238 Z " />
<glyph glyph-name="uni1E44" unicode="&#x1e44;" horiz-adv-x="722" d="M361 800 Q336 800 322.5 814 Q309 828 309 853 Q309 879 322.5 893 Q336 907 361 907 Q386 907 399.5 893 Q413 879 413 854 Q413 828 399.5 814 Q386 800 361 800 Z M624 724 L624 0 L555 0 L170 598 L170 0 L98 0 L98 724 L167 724 L552 127 L552 724 L624 724 Z " />
<glyph glyph-name="uni1E46" unicode="&#x1e46;" horiz-adv-x="722" d="M624 724 L624 0 L555 0 L170 598 L170 0 L98 0 L98 724 L167 724 L552 127 L552 724 L624 724 Z M361 -204 Q336 -204 322.5 -190 Q309 -176 309 -151 Q309 -125 322.5 -111 Q336 -97 361 -97 Q386 -97 399.5 -111 Q413 -125 413 -150 Q413 -176 399.5 -190 Q386 -204 361 -204 Z " />
<glyph glyph-name="uni1E48" unicode="&#x1e48;" horiz-adv-x="722" d="M624 724 L624 0 L555 0 L170 598 L170 0 L98 0 L98 724 L167 724 L552 127 L552 724 L624 724 Z M219 -108 L503 -108 L503 -166 L219 -166 L219 -108 Z " />
<glyph glyph-name="Ntilde" unicode="&#xd1;" horiz-adv-x="722" d="M289 857 Q254 857 246 792 L198 792 Q200 850 224 883.5 Q248 917 291 917 Q317 917 337 906.5 Q357 896 381 877 Q399 863 410 856.5 Q421 850 433 850 Q468 850 476 915 L524 915 Q522 857 498 823.5 Q474 790 431 790 Q405 790 385 800.5 Q365 811 341 830 Q323 844 312 850.5 Q301 857 289 857 Z M624 724 L624 0 L555 0 L170 598 L170 0 L98 0 L98 724 L167 724 L552 127 L552 724 L624 724 Z " />
<glyph glyph-name="O" unicode="O" horiz-adv-x="712" d="M356 -13 Q214 -13 139 82.5 Q64 178 64 362 Q64 546 139 641.5 Q214 737 356 737 Q498 737 573 641.5 Q648 546 648 362 Q648 178 573 82.5 Q498 -13 356 -13 Z M356 54 Q462 54 516 132 Q570 210 570 362 Q570 514 516 592 Q462 670 356 670 Q250 670 196 592 Q142 514 142 362 Q142 210 196 132 Q250 54 356 54 Z " />
<glyph glyph-name="Oacute" unicode="&#xd3;" horiz-adv-x="712" d="M294 793 L447 926 L542 926 L542 914 L360 781 L294 781 L294 793 Z M356 -13 Q214 -13 139 82.5 Q64 178 64 362 Q64 546 139 641.5 Q214 737 356 737 Q498 737 573 641.5 Q648 546 648 362 Q648 178 573 82.5 Q498 -13 356 -13 Z M356 54 Q462 54 516 132 Q570 210 570 362 Q570 514 516 592 Q462 670 356 670 Q250 670 196 592 Q142 514 142 362 Q142 210 196 132 Q250 54 356 54 Z " />
<glyph glyph-name="uni01D1" unicode="&#x1d1;" horiz-adv-x="712" d="M315 781 L198 914 L198 926 L259 926 L358 832 L456 926 L514 926 L514 914 L397 781 L315 781 Z M356 737 Q498 737 573 641.5 Q648 546 648 362 Q648 178 573 82.5 Q498 -13 356 -13 Q214 -13 139 82.5 Q64 178 64 362 Q64 546 139 641.5 Q214 737 356 737 Z M356 54 Q462 54 516 132 Q570 210 570 362 Q570 514 516 592 Q462 670 356 670 Q250 670 196 592 Q142 514 142 362 Q142 210 196 132 Q250 54 356 54 Z " />
<glyph glyph-name="Ocircumflex" unicode="&#xd4;" horiz-adv-x="712" d="M256 781 L198 781 L198 793 L315 926 L397 926 L514 793 L514 781 L453 781 L355 875 L256 781 Z M356 737 Q498 737 573 641.5 Q648 546 648 362 Q648 178 573 82.5 Q498 -13 356 -13 Q214 -13 139 82.5 Q64 178 64 362 Q64 546 139 641.5 Q214 737 356 737 Z M356 54 Q462 54 516 132 Q570 210 570 362 Q570 514 516 592 Q462 670 356 670 Q250 670 196 592 Q142 514 142 362 Q142 210 196 132 Q250 54 356 54 Z " />
<glyph glyph-name="uni1ED0" unicode="&#x1ed0;" horiz-adv-x="712" d="M519 884 L471 884 L471 894 L552 1021 L621 1021 L621 1011 L519 884 Z M266 785 L214 785 L214 795 L318 934 L394 934 L498 795 L498 785 L443 785 L355 882 L266 785 Z M356 737 Q498 737 573 641.5 Q648 546 648 362 Q648 178 573 82.5 Q498 -13 356 -13 Q214 -13 139 82.5 Q64 178 64 362 Q64 546 139 641.5 Q214 737 356 737 Z M356 54 Q462 54 516 132 Q570 210 570 362 Q570 514 516 592 Q462 670 356 670 Q250 670 196 592 Q142 514 142 362 Q142 210 196 132 Q250 54 356 54 Z " />
<glyph glyph-name="uni1ED8" unicode="&#x1ed8;" horiz-adv-x="712" d="M256 781 L198 781 L198 793 L315 926 L397 926 L514 793 L514 781 L453 781 L355 875 L256 781 Z M356 737 Q498 737 573 641.5 Q648 546 648 362 Q648 178 573 82.5 Q498 -13 356 -13 Q214 -13 139 82.5 Q64 178 64 362 Q64 546 139 641.5 Q214 737 356 737 Z M356 54 Q462 54 516 132 Q570 210 570 362 Q570 514 516 592 Q462 670 356 670 Q250 670 196 592 Q142 514 142 362 Q142 210 196 132 Q250 54 356 54 Z M356 -97 Q381 -97 394.5 -111 Q408 -125 408 -150 Q408 -176 394.5 -190 Q381 -204 356 -204 Q331 -204 317.5 -190 Q304 -176 304 -151 Q304 -125 317.5 -111 Q331 -97 356 -97 Z " />
<glyph glyph-name="uni1ED2" unicode="&#x1ed2;" horiz-adv-x="712" d="M196 884 L100 1011 L100 1021 L169 1021 L244 894 L244 884 L196 884 Z M214 795 L318 934 L394 934 L498 795 L498 785 L443 785 L355 882 L266 785 L214 785 L214 795 Z M356 737 Q498 737 573 641.5 Q648 546 648 362 Q648 178 573 82.5 Q498 -13 356 -13 Q214 -13 139 82.5 Q64 178 64 362 Q64 546 139 641.5 Q214 737 356 737 Z M356 54 Q462 54 516 132 Q570 210 570 362 Q570 514 516 592 Q462 670 356 670 Q250 670 196 592 Q142 514 142 362 Q142 210 196 132 Q250 54 356 54 Z " />
<glyph glyph-name="uni1ED4" unicode="&#x1ed4;" horiz-adv-x="712" d="M495 990 Q482 990 467 985 Q452 980 439 972 L420 1011 Q461 1035 504 1035 Q541 1035 562 1018 Q583 1001 583 971 Q583 948 573 937.5 Q563 927 545 920 Q532 914 527 910 Q522 906 522 898 L524 882 L468 882 Q466 894 466 901 Q466 920 475 928.5 Q484 937 500 944 Q513 950 518.5 955 Q524 960 524 969 Q524 990 495 990 Z M266 785 L214 785 L214 795 L318 934 L394 934 L498 795 L498 785 L443 785 L355 882 L266 785 Z M356 737 Q498 737 573 641.5 Q648 546 648 362 Q648 178 573 82.5 Q498 -13 356 -13 Q214 -13 139 82.5 Q64 178 64 362 Q64 546 139 641.5 Q214 737 356 737 Z M356 54 Q462 54 516 132 Q570 210 570 362 Q570 514 516 592 Q462 670 356 670 Q250 670 196 592 Q142 514 142 362 Q142 210 196 132 Q250 54 356 54 Z " />
<glyph glyph-name="uni1ED6" unicode="&#x1ed6;" horiz-adv-x="712" d="M295 992 Q259 992 254 937 L210 937 Q210 988 233.5 1016.5 Q257 1045 298 1045 Q322 1045 337 1037 Q352 1029 372 1012 Q385 1000 394.5 994 Q404 988 417 988 Q453 988 458 1043 L502 1043 Q502 992 478.5 963.5 Q455 935 414 935 Q390 935 375 943 Q360 951 340 968 Q327 980 317.5 986 Q308 992 295 992 Z M394 914 L498 785 L498 775 L443 775 L355 864 L266 775 L214 775 L214 785 L318 914 L394 914 Z M356 737 Q498 737 573 641.5 Q648 546 648 362 Q648 178 573 82.5 Q498 -13 356 -13 Q214 -13 139 82.5 Q64 178 64 362 Q64 546 139 641.5 Q214 737 356 737 Z M356 54 Q462 54 516 132 Q570 210 570 362 Q570 514 516 592 Q462 670 356 670 Q250 670 196 592 Q142 514 142 362 Q142 210 196 132 Q250 54 356 54 Z " />
<glyph glyph-name="Odieresis" unicode="&#xd6;" horiz-adv-x="712" d="M259 800 Q236 800 223 813.5 Q210 827 210 851 Q210 875 223 889 Q236 903 259 903 Q283 903 296 889.5 Q309 876 309 852 Q309 827 296 813.5 Q283 800 259 800 Z M452 800 Q429 800 416 813.5 Q403 827 403 851 Q403 875 416 889 Q429 903 452 903 Q476 903 489 889.5 Q502 876 502 852 Q502 827 489 813.5 Q476 800 452 800 Z M356 -13 Q214 -13 139 82.5 Q64 178 64 362 Q64 546 139 641.5 Q214 737 356 737 Q498 737 573 641.5 Q648 546 648 362 Q648 178 573 82.5 Q498 -13 356 -13 Z M356 54 Q462 54 516 132 Q570 210 570 362 Q570 514 516 592 Q462 670 356 670 Q250 670 196 592 Q142 514 142 362 Q142 210 196 132 Q250 54 356 54 Z " />
<glyph glyph-name="uni1ECC" unicode="&#x1ecc;" horiz-adv-x="712" d="M356 -13 Q214 -13 139 82.5 Q64 178 64 362 Q64 546 139 641.5 Q214 737 356 737 Q498 737 573 641.5 Q648 546 648 362 Q648 178 573 82.5 Q498 -13 356 -13 Z M356 54 Q462 54 516 132 Q570 210 570 362 Q570 514 516 592 Q462 670 356 670 Q250 670 196 592 Q142 514 142 362 Q142 210 196 132 Q250 54 356 54 Z M356 -204 Q331 -204 317.5 -190 Q304 -176 304 -151 Q304 -125 317.5 -111 Q331 -97 356 -97 Q381 -97 394.5 -111 Q408 -125 408 -150 Q408 -176 394.5 -190 Q381 -204 356 -204 Z " />
<glyph glyph-name="Ograve" unicode="&#xd2;" horiz-adv-x="712" d="M178 914 L178 926 L273 926 L417 793 L417 781 L351 781 L178 914 Z M356 -13 Q214 -13 139 82.5 Q64 178 64 362 Q64 546 139 641.5 Q214 737 356 737 Q498 737 573 641.5 Q648 546 648 362 Q648 178 573 82.5 Q498 -13 356 -13 Z M356 54 Q462 54 516 132 Q570 210 570 362 Q570 514 516 592 Q462 670 356 670 Q250 670 196 592 Q142 514 142 362 Q142 210 196 132 Q250 54 356 54 Z " />
<glyph glyph-name="uni1ECE" unicode="&#x1ece;" horiz-adv-x="712" d="M325 781 Q323 793 323 803 Q323 821 332.5 829.5 Q342 838 361 846 Q375 852 381.5 856.5 Q388 861 388 870 Q388 888 358 888 Q326 888 288 866 L267 910 Q288 924 314.5 932 Q341 940 368 940 Q409 940 432 922.5 Q455 905 455 874 Q455 850 443.5 840 Q432 830 411 821 Q398 816 391.5 811.5 Q385 807 385 798 L387 781 L325 781 Z M356 -13 Q214 -13 139 82.5 Q64 178 64 362 Q64 546 139 641.5 Q214 737 356 737 Q498 737 573 641.5 Q648 546 648 362 Q648 178 573 82.5 Q498 -13 356 -13 Z M356 54 Q462 54 516 132 Q570 210 570 362 Q570 514 516 592 Q462 670 356 670 Q250 670 196 592 Q142 514 142 362 Q142 210 196 132 Q250 54 356 54 Z " />
<glyph glyph-name="Ohorn" unicode="&#x1a0;" horiz-adv-x="712" d="M692 804 Q692 739 657.5 705.5 Q623 672 547 668 Q648 573 648 362 Q648 179 572.5 83 Q497 -13 356 -13 Q214 -13 139 82.5 Q64 178 64 362 Q64 546 139 641.5 Q214 737 356 737 Q383 737 401 734 Q419 731 442 725 Q446 724 467.5 719 Q489 714 522 714 Q577 714 600 735.5 Q623 757 623 802 Q623 827 618 863 L687 863 Q692 833 692 804 Z M570 362 Q570 513 515.5 591.5 Q461 670 356 670 Q250 670 196 592 Q142 514 142 362 Q142 210 196 132 Q250 54 356 54 Q461 54 515.5 132.5 Q570 211 570 362 Z " />
<glyph glyph-name="uni1EDA" unicode="&#x1eda;" horiz-adv-x="712" d="M360 781 L294 781 L294 793 L447 926 L542 926 L542 914 L360 781 Z M692 804 Q692 739 657.5 705.5 Q623 672 547 668 Q648 573 648 362 Q648 179 572.5 83 Q497 -13 356 -13 Q214 -13 139 82.5 Q64 178 64 362 Q64 546 139 641.5 Q214 737 356 737 Q383 737 401 734 Q419 731 442 725 Q446 724 467.5 719 Q489 714 522 714 Q577 714 600 735.5 Q623 757 623 802 Q623 827 618 863 L687 863 Q692 833 692 804 Z M570 362 Q570 513 515.5 591.5 Q461 670 356 670 Q250 670 196 592 Q142 514 142 362 Q142 210 196 132 Q250 54 356 54 Q461 54 515.5 132.5 Q570 211 570 362 Z " />
<glyph glyph-name="uni1EE2" unicode="&#x1ee2;" horiz-adv-x="712" d="M692 804 Q692 739 657.5 705.5 Q623 672 547 668 Q648 573 648 362 Q648 179 572.5 83 Q497 -13 356 -13 Q214 -13 139 82.5 Q64 178 64 362 Q64 546 139 641.5 Q214 737 356 737 Q383 737 401 734 Q419 731 442 725 Q446 724 467.5 719 Q489 714 522 714 Q577 714 600 735.5 Q623 757 623 802 Q623 827 618 863 L687 863 Q692 833 692 804 Z M570 362 Q570 513 515.5 591.5 Q461 670 356 670 Q250 670 196 592 Q142 514 142 362 Q142 210 196 132 Q250 54 356 54 Q461 54 515.5 132.5 Q570 211 570 362 Z M356 -204 Q331 -204 317.5 -190 Q304 -176 304 -151 Q304 -125 317.5 -111 Q331 -97 356 -97 Q381 -97 394.5 -111 Q408 -125 408 -150 Q408 -176 394.5 -190 Q381 -204 356 -204 Z " />
<glyph glyph-name="uni1EDC" unicode="&#x1edc;" horiz-adv-x="712" d="M351 781 L178 914 L178 926 L273 926 L417 793 L417 781 L351 781 Z M692 804 Q692 739 657.5 705.5 Q623 672 547 668 Q648 573 648 362 Q648 179 572.5 83 Q497 -13 356 -13 Q214 -13 139 82.5 Q64 178 64 362 Q64 546 139 641.5 Q214 737 356 737 Q383 737 401 734 Q419 731 442 725 Q446 724 467.5 719 Q489 714 522 714 Q577 714 600 735.5 Q623 757 623 802 Q623 827 618 863 L687 863 Q692 833 692 804 Z M570 362 Q570 513 515.5 591.5 Q461 670 356 670 Q250 670 196 592 Q142 514 142 362 Q142 210 196 132 Q250 54 356 54 Q461 54 515.5 132.5 Q570 211 570 362 Z " />
<glyph glyph-name="uni1EDE" unicode="&#x1ede;" horiz-adv-x="712" d="M358 888 Q326 888 288 866 L267 910 Q288 924 314.5 932 Q341 940 368 940 Q409 940 432 922.5 Q455 905 455 874 Q455 850 443.5 840 Q432 830 411 821 Q398 816 391.5 811.5 Q385 807 385 798 L387 781 L325 781 Q323 793 323 803 Q323 821 332.5 829.5 Q342 838 361 846 Q375 852 381.5 856.5 Q388 861 388 870 Q388 888 358 888 Z M692 804 Q692 739 657.5 705.5 Q623 672 547 668 Q648 573 648 362 Q648 179 572.5 83 Q497 -13 356 -13 Q214 -13 139 82.5 Q64 178 64 362 Q64 546 139 641.5 Q214 737 356 737 Q383 737 401 734 Q419 731 442 725 Q446 724 467.5 719 Q489 714 522 714 Q577 714 600 735.5 Q623 757 623 802 Q623 827 618 863 L687 863 Q692 833 692 804 Z M570 362 Q570 513 515.5 591.5 Q461 670 356 670 Q250 670 196 592 Q142 514 142 362 Q142 210 196 132 Q250 54 356 54 Q461 54 515.5 132.5 Q570 211 570 362 Z " />
<glyph glyph-name="uni1EE0" unicode="&#x1ee0;" horiz-adv-x="712" d="M284 857 Q249 857 241 792 L193 792 Q195 850 219 883.5 Q243 917 286 917 Q312 917 332 906.5 Q352 896 376 877 Q394 863 405 856.5 Q416 850 428 850 Q463 850 471 915 L519 915 Q517 857 493 823.5 Q469 790 426 790 Q400 790 380 800.5 Q360 811 336 830 Q318 844 307 850.5 Q296 857 284 857 Z M692 804 Q692 739 657.5 705.5 Q623 672 547 668 Q648 573 648 362 Q648 179 572.5 83 Q497 -13 356 -13 Q214 -13 139 82.5 Q64 178 64 362 Q64 546 139 641.5 Q214 737 356 737 Q383 737 401 734 Q419 731 442 725 Q446 724 467.5 719 Q489 714 522 714 Q577 714 600 735.5 Q623 757 623 802 Q623 827 618 863 L687 863 Q692 833 692 804 Z M570 362 Q570 513 515.5 591.5 Q461 670 356 670 Q250 670 196 592 Q142 514 142 362 Q142 210 196 132 Q250 54 356 54 Q461 54 515.5 132.5 Q570 211 570 362 Z " />
<glyph glyph-name="Ohungarumlaut" unicode="&#x150;" horiz-adv-x="712" d="M230 793 L331 926 L414 926 L414 914 L284 781 L230 781 L230 793 Z M386 793 L486 926 L569 926 L569 914 L440 781 L386 781 L386 793 Z M356 -13 Q214 -13 139 82.5 Q64 178 64 362 Q64 546 139 641.5 Q214 737 356 737 Q498 737 573 641.5 Q648 546 648 362 Q648 178 573 82.5 Q498 -13 356 -13 Z M356 54 Q462 54 516 132 Q570 210 570 362 Q570 514 516 592 Q462 670 356 670 Q250 670 196 592 Q142 514 142 362 Q142 210 196 132 Q250 54 356 54 Z " />
<glyph glyph-name="Omacron" unicode="&#x14c;" horiz-adv-x="712" d="M214 869 L498 869 L498 811 L214 811 L214 869 Z M356 -13 Q214 -13 139 82.5 Q64 178 64 362 Q64 546 139 641.5 Q214 737 356 737 Q498 737 573 641.5 Q648 546 648 362 Q648 178 573 82.5 Q498 -13 356 -13 Z M356 54 Q462 54 516 132 Q570 210 570 362 Q570 514 516 592 Q462 670 356 670 Q250 670 196 592 Q142 514 142 362 Q142 210 196 132 Q250 54 356 54 Z " />
<glyph glyph-name="Oslash" unicode="&#xd8;" horiz-adv-x="712" d="M678 722 L592 614 Q648 520 648 362 Q648 178 573 82.5 Q498 -13 356 -13 Q231 -13 157 62 L102 -10 L34 -10 L34 2 L120 110 Q64 204 64 362 Q64 546 139 641.5 Q214 737 356 737 Q481 737 555 662 L610 734 L678 734 L678 722 Z M356 672 Q249 672 194.5 593.5 Q140 515 140 362 Q140 241 169 171 L512 607 Q459 672 356 672 Z M356 52 Q463 52 517.5 130.5 Q572 209 572 362 Q572 483 543 553 L200 117 Q253 52 356 52 Z " />
<glyph glyph-name="Otilde" unicode="&#xd5;" horiz-adv-x="712" d="M426 790 Q400 790 380 800.5 Q360 811 336 830 Q318 844 307 850.5 Q296 857 284 857 Q249 857 241 792 L193 792 Q195 850 219 883.5 Q243 917 286 917 Q312 917 332 906.5 Q352 896 376 877 Q394 863 405 856.5 Q416 850 428 850 Q463 850 471 915 L519 915 Q517 857 493 823.5 Q469 790 426 790 Z M356 -13 Q214 -13 139 82.5 Q64 178 64 362 Q64 546 139 641.5 Q214 737 356 737 Q498 737 573 641.5 Q648 546 648 362 Q648 178 573 82.5 Q498 -13 356 -13 Z M356 54 Q462 54 516 132 Q570 210 570 362 Q570 514 516 592 Q462 670 356 670 Q250 670 196 592 Q142 514 142 362 Q142 210 196 132 Q250 54 356 54 Z " />
<glyph glyph-name="OE" unicode="&#x152;" horiz-adv-x="960" d="M914 67 L914 0 L500 0 L356 0 Q215 0 139.5 92.5 Q64 185 64 362 Q64 539 139.5 631.5 Q215 724 356 724 L537 724 L902 724 L902 657 L572 657 L572 404 L816 404 L816 336 L572 336 L572 67 L914 67 Z M500 67 L500 657 L356 657 Q251 657 196.5 582 Q142 507 142 362 Q142 217 196.5 142 Q251 67 356 67 L500 67 Z " />
<glyph glyph-name="P" unicode="P" horiz-adv-x="595" d="M345 724 Q451 724 510 663.5 Q569 603 569 494 Q569 385 508.5 323.5 Q448 262 341 262 L172 262 L172 0 L98 0 L98 724 L172 724 L345 724 Z M345 329 Q417 329 454 371 Q491 413 491 494 Q491 574 453 615.5 Q415 657 341 657 L172 657 L172 329 L345 329 Z " />
<glyph glyph-name="Thorn" unicode="&#xde;" horiz-adv-x="613" d="M340 597 Q446 597 505 537.5 Q564 478 564 371 Q564 263 504.5 203 Q445 143 338 143 L172 143 L172 0 L98 0 L98 724 L172 724 L172 597 L340 597 Z M340 210 Q412 210 449 251 Q486 292 486 371 Q486 449 448.5 489.5 Q411 530 338 530 L172 530 L172 210 L340 210 Z " />
<glyph glyph-name="Q" unicode="Q" horiz-adv-x="712" d="M606 -152 L470 7 Q418 -13 356 -13 Q214 -13 139 82.5 Q64 178 64 362 Q64 546 139 641.5 Q214 737 356 737 Q498 737 573 641.5 Q648 546 648 362 Q648 247 618 166.5 Q588 86 531 41 L658 -98 L606 -152 Z M142 362 Q142 210 196 132 Q250 54 356 54 Q462 54 516 132 Q570 210 570 362 Q570 514 516 592 Q462 670 356 670 Q250 670 196 592 Q142 514 142 362 Z " />
<glyph glyph-name="R" unicode="R" horiz-adv-x="631" d="M319 281 L172 281 L172 0 L98 0 L98 724 L172 724 L336 724 Q440 724 499 665.5 Q558 607 558 503 Q558 417 516.5 361 Q475 305 400 288 L591 0 L500 0 L319 281 Z M172 348 L336 348 Q407 348 443.5 387 Q480 426 480 503 Q480 579 442.5 618 Q405 657 332 657 L172 657 L172 348 Z " />
<glyph glyph-name="Racute" unicode="&#x154;" horiz-adv-x="631" d="M320 781 L254 781 L254 793 L407 926 L502 926 L502 914 L320 781 Z M319 281 L172 281 L172 0 L98 0 L98 724 L172 724 L336 724 Q440 724 499 665.5 Q558 607 558 503 Q558 417 516.5 361 Q475 305 400 288 L591 0 L500 0 L319 281 Z M172 348 L336 348 Q407 348 443.5 387 Q480 426 480 503 Q480 579 442.5 618 Q405 657 332 657 L172 657 L172 348 Z " />
<glyph glyph-name="Rcaron" unicode="&#x158;" horiz-adv-x="631" d="M275 781 L158 914 L158 926 L219 926 L318 832 L416 926 L474 926 L474 914 L357 781 L275 781 Z M319 281 L172 281 L172 0 L98 0 L98 724 L172 724 L336 724 Q440 724 499 665.5 Q558 607 558 503 Q558 417 516.5 361 Q475 305 400 288 L591 0 L500 0 L319 281 Z M172 348 L336 348 Q407 348 443.5 387 Q480 426 480 503 Q480 579 442.5 618 Q405 657 332 657 L172 657 L172 348 Z " />
<glyph glyph-name="Rcommaaccent" unicode="&#x156;" horiz-adv-x="631" d="M319 281 L172 281 L172 0 L98 0 L98 724 L172 724 L336 724 Q440 724 499 665.5 Q558 607 558 503 Q558 417 516.5 361 Q475 305 400 288 L591 0 L500 0 L319 281 Z M172 348 L336 348 Q407 348 443.5 387 Q480 426 480 503 Q480 579 442.5 618 Q405 657 332 657 L172 657 L172 348 Z M254 -238 Q280 -209 290.5 -182.5 Q301 -156 301 -116 Q301 -101 299 -83 L371 -83 Q373 -101 373 -115 Q373 -160 352 -195.5 Q331 -231 283 -269 L254 -238 Z " />
<glyph glyph-name="uni1E5A" unicode="&#x1e5a;" horiz-adv-x="631" d="M319 281 L172 281 L172 0 L98 0 L98 724 L172 724 L336 724 Q440 724 499 665.5 Q558 607 558 503 Q558 417 516.5 361 Q475 305 400 288 L591 0 L500 0 L319 281 Z M172 348 L336 348 Q407 348 443.5 387 Q480 426 480 503 Q480 579 442.5 618 Q405 657 332 657 L172 657 L172 348 Z M335 -204 Q310 -204 296.5 -190 Q283 -176 283 -151 Q283 -125 296.5 -111 Q310 -97 335 -97 Q360 -97 373.5 -111 Q387 -125 387 -150 Q387 -176 373.5 -190 Q360 -204 335 -204 Z " />
<glyph glyph-name="uni1E5C" unicode="&#x1e5c;" horiz-adv-x="631" d="M458 811 L174 811 L174 869 L458 869 L458 811 Z M591 0 L500 0 L319 281 L172 281 L172 0 L98 0 L98 724 L172 724 L336 724 Q440 724 499 665.5 Q558 607 558 503 Q558 417 516.5 361 Q475 305 400 288 L591 0 Z M172 348 L336 348 Q407 348 443.5 387 Q480 426 480 503 Q480 579 442.5 618 Q405 657 332 657 L172 657 L172 348 Z M335 -97 Q360 -97 373.5 -111 Q387 -125 387 -150 Q387 -176 373.5 -190 Q360 -204 335 -204 Q310 -204 296.5 -190 Q283 -176 283 -151 Q283 -125 296.5 -111 Q310 -97 335 -97 Z " />
<glyph glyph-name="uni1E5E" unicode="&#x1e5e;" horiz-adv-x="631" d="M319 281 L172 281 L172 0 L98 0 L98 724 L172 724 L336 724 Q440 724 499 665.5 Q558 607 558 503 Q558 417 516.5 361 Q475 305 400 288 L591 0 L500 0 L319 281 Z M172 348 L336 348 Q407 348 443.5 387 Q480 426 480 503 Q480 579 442.5 618 Q405 657 332 657 L172 657 L172 348 Z M193 -108 L477 -108 L477 -166 L193 -166 L193 -108 Z " />
<glyph glyph-name="S" unicode="S" horiz-adv-x="560" d="M267 -12 Q208 -12 149.5 3 Q91 18 46 45 L73 110 Q166 56 267 56 Q344 56 387 90.5 Q430 125 430 185 Q430 236 401.5 267.5 Q373 299 314 315 L232 338 Q140 364 96.5 412 Q53 460 53 537 Q53 628 114.5 682 Q176 736 280 736 Q332 736 386.5 724.5 Q441 713 486 692 L460 627 Q358 668 278 668 Q208 668 168.5 635.5 Q129 603 129 547 Q129 496 157.5 464.5 Q186 433 245 417 L327 394 Q419 368 462.5 320 Q506 272 506 195 Q506 133 476.5 86 Q447 39 393 13.5 Q339 -12 267 -12 Z " />
<glyph glyph-name="Sacute" unicode="&#x15a;" horiz-adv-x="560" d="M206 793 L359 926 L454 926 L454 914 L272 781 L206 781 L206 793 Z M267 -12 Q208 -12 149.5 3 Q91 18 46 45 L73 110 Q166 56 267 56 Q344 56 387 90.5 Q430 125 430 185 Q430 236 401.5 267.5 Q373 299 314 315 L232 338 Q140 364 96.5 412 Q53 460 53 537 Q53 628 114.5 682 Q176 736 280 736 Q332 736 386.5 724.5 Q441 713 486 692 L460 627 Q358 668 278 668 Q208 668 168.5 635.5 Q129 603 129 547 Q129 496 157.5 464.5 Q186 433 245 417 L327 394 Q419 368 462.5 320 Q506 272 506 195 Q506 133 476.5 86 Q447 39 393 13.5 Q339 -12 267 -12 Z " />
<glyph glyph-name="Scaron" unicode="&#x160;" horiz-adv-x="560" d="M227 781 L110 914 L110 926 L171 926 L270 832 L368 926 L426 926 L426 914 L309 781 L227 781 Z M327 394 Q419 368 462.5 320 Q506 272 506 195 Q506 133 476.5 86 Q447 39 393 13.5 Q339 -12 267 -12 Q208 -12 149.5 3 Q91 18 46 45 L73 110 Q166 56 267 56 Q344 56 387 90.5 Q430 125 430 185 Q430 236 401.5 267.5 Q373 299 314 315 L232 338 Q140 364 96.5 412 Q53 460 53 537 Q53 628 114.5 682 Q176 736 280 736 Q332 736 386.5 724.5 Q441 713 486 692 L460 627 Q358 668 278 668 Q208 668 168.5 635.5 Q129 603 129 547 Q129 496 157.5 464.5 Q186 433 245 417 L327 394 Z " />
<glyph glyph-name="Scedilla" unicode="&#x15e;" horiz-adv-x="560" d="M506 195 Q506 107 449.5 52 Q393 -3 297 -11 L263 -62 Q277 -60 283 -60 Q332 -60 359 -81 Q386 -102 386 -140 Q386 -181 355.5 -204 Q325 -227 271 -227 Q216 -227 173 -204 L188 -160 Q236 -179 271 -179 Q325 -179 325 -140 Q325 -101 275 -101 Q252 -101 231 -110 L210 -86 L242 -11 Q189 -8 137.5 6.5 Q86 21 46 45 L73 110 Q166 56 267 56 Q344 56 387 90.5 Q430 125 430 185 Q430 236 401.5 267.5 Q373 299 314 315 L232 338 Q140 364 96.5 412 Q53 460 53 537 Q53 628 114.5 682 Q176 736 280 736 Q332 736 386.5 724.5 Q441 713 486 692 L460 627 Q358 668 278 668 Q208 668 168.5 635.5 Q129 603 129 547 Q129 496 157.5 464.5 Q186 433 245 417 L327 394 Q419 368 462.5 320 Q506 272 506 195 Z " />
<glyph glyph-name="Scircumflex" unicode="&#x15c;" horiz-adv-x="560" d="M168 781 L110 781 L110 793 L227 926 L309 926 L426 793 L426 781 L365 781 L267 875 L168 781 Z M327 394 Q419 368 462.5 320 Q506 272 506 195 Q506 133 476.5 86 Q447 39 393 13.5 Q339 -12 267 -12 Q208 -12 149.5 3 Q91 18 46 45 L73 110 Q166 56 267 56 Q344 56 387 90.5 Q430 125 430 185 Q430 236 401.5 267.5 Q373 299 314 315 L232 338 Q140 364 96.5 412 Q53 460 53 537 Q53 628 114.5 682 Q176 736 280 736 Q332 736 386.5 724.5 Q441 713 486 692 L460 627 Q358 668 278 668 Q208 668 168.5 635.5 Q129 603 129 547 Q129 496 157.5 464.5 Q186 433 245 417 L327 394 Z " />
<glyph glyph-name="Scommaaccent" unicode="&#x218;" horiz-adv-x="560" d="M267 -12 Q208 -12 149.5 3 Q91 18 46 45 L73 110 Q166 56 267 56 Q344 56 387 90.5 Q430 125 430 185 Q430 236 401.5 267.5 Q373 299 314 315 L232 338 Q140 364 96.5 412 Q53 460 53 537 Q53 628 114.5 682 Q176 736 280 736 Q332 736 386.5 724.5 Q441 713 486 692 L460 627 Q358 668 278 668 Q208 668 168.5 635.5 Q129 603 129 547 Q129 496 157.5 464.5 Q186 433 245 417 L327 394 Q419 368 462.5 320 Q506 272 506 195 Q506 133 476.5 86 Q447 39 393 13.5 Q339 -12 267 -12 Z M195 -238 Q221 -209 231.5 -182.5 Q242 -156 242 -116 Q242 -101 240 -83 L312 -83 Q314 -101 314 -115 Q314 -160 293 -195.5 Q272 -231 224 -269 L195 -238 Z " />
<glyph glyph-name="uni1E60" unicode="&#x1e60;" horiz-adv-x="560" d="M268 800 Q243 800 229.5 814 Q216 828 216 853 Q216 879 229.5 893 Q243 907 268 907 Q293 907 306.5 893 Q320 879 320 854 Q320 828 306.5 814 Q293 800 268 800 Z M267 -12 Q208 -12 149.5 3 Q91 18 46 45 L73 110 Q166 56 267 56 Q344 56 387 90.5 Q430 125 430 185 Q430 236 401.5 267.5 Q373 299 314 315 L232 338 Q140 364 96.5 412 Q53 460 53 537 Q53 628 114.5 682 Q176 736 280 736 Q332 736 386.5 724.5 Q441 713 486 692 L460 627 Q358 668 278 668 Q208 668 168.5 635.5 Q129 603 129 547 Q129 496 157.5 464.5 Q186 433 245 417 L327 394 Q419 368 462.5 320 Q506 272 506 195 Q506 133 476.5 86 Q447 39 393 13.5 Q339 -12 267 -12 Z " />
<glyph glyph-name="uni1E62" unicode="&#x1e62;" horiz-adv-x="560" d="M267 -12 Q208 -12 149.5 3 Q91 18 46 45 L73 110 Q166 56 267 56 Q344 56 387 90.5 Q430 125 430 185 Q430 236 401.5 267.5 Q373 299 314 315 L232 338 Q140 364 96.5 412 Q53 460 53 537 Q53 628 114.5 682 Q176 736 280 736 Q332 736 386.5 724.5 Q441 713 486 692 L460 627 Q358 668 278 668 Q208 668 168.5 635.5 Q129 603 129 547 Q129 496 157.5 464.5 Q186 433 245 417 L327 394 Q419 368 462.5 320 Q506 272 506 195 Q506 133 476.5 86 Q447 39 393 13.5 Q339 -12 267 -12 Z M276 -204 Q251 -204 237.5 -190 Q224 -176 224 -151 Q224 -125 237.5 -111 Q251 -97 276 -97 Q301 -97 314.5 -111 Q328 -125 328 -150 Q328 -176 314.5 -190 Q301 -204 276 -204 Z " />
<glyph glyph-name="uni1E9E" unicode="&#x1e9e;" horiz-adv-x="671" d="M387 395 Q501 382 564 326 Q627 270 627 181 Q627 92 564.5 42.5 Q502 -7 390 -7 Q312 -7 247 13 L265 80 Q340 60 395 60 Q472 60 512 90.5 Q552 121 552 180 Q552 254 487.5 295.5 Q423 337 298 343 L298 407 Q378 444 416 486.5 Q454 529 454 581 Q454 630 421.5 655 Q389 680 326 680 Q246 680 205 640.5 Q164 601 164 525 L164 0 L90 0 L90 525 Q90 630 153 688.5 Q216 747 329 747 Q423 747 474.5 705 Q526 663 526 588 Q526 527 490.5 478 Q455 429 387 395 Z " />
<glyph glyph-name="uni018F" unicode="&#x18f;" horiz-adv-x="685" d="M309 736 Q460 736 540.5 640.5 Q621 545 621 361 Q621 178 547.5 83 Q474 -12 336 -12 Q251 -12 186 28 Q121 68 85 147 Q49 226 49 339 Q49 365 53 389 L546 389 Q540 518 477 590 Q414 662 307 662 Q214 662 119 609 L88 673 Q131 703 189 719.5 Q247 736 309 736 Z M338 58 Q434 58 486.5 125 Q539 192 546 323 L125 323 Q126 198 182 128 Q238 58 338 58 Z " />
<glyph glyph-name="T" unicode="T" horiz-adv-x="526" d="M494 656 L300 656 L300 0 L226 0 L226 656 L32 656 L32 724 L300 724 L494 724 L494 656 Z " />
<glyph glyph-name="Tcaron" unicode="&#x164;" horiz-adv-x="526" d="M222 781 L105 914 L105 926 L166 926 L265 832 L363 926 L421 926 L421 914 L304 781 L222 781 Z M494 656 L300 656 L300 0 L226 0 L226 656 L32 656 L32 724 L300 724 L494 724 L494 656 Z " />
<glyph glyph-name="uni0162" unicode="&#x162;" horiz-adv-x="526" d="M291 0 L250 -62 Q264 -60 270 -60 Q319 -60 346 -81 Q373 -102 373 -140 Q373 -181 342.5 -204 Q312 -227 258 -227 Q203 -227 160 -204 L175 -160 Q223 -179 258 -179 Q312 -179 312 -140 Q312 -101 262 -101 Q239 -101 218 -110 L197 -86 L234 0 L226 0 L226 656 L32 656 L32 724 L300 724 L494 724 L494 656 L300 656 L300 0 L291 0 Z " />
<glyph glyph-name="uni021A" unicode="&#x21a;" horiz-adv-x="526" d="M494 656 L300 656 L300 0 L226 0 L226 656 L32 656 L32 724 L300 724 L494 724 L494 656 Z M182 -238 Q208 -209 218.5 -182.5 Q229 -156 229 -116 Q229 -101 227 -83 L299 -83 Q301 -101 301 -115 Q301 -160 280 -195.5 Q259 -231 211 -269 L182 -238 Z " />
<glyph glyph-name="uni1E6C" unicode="&#x1e6c;" horiz-adv-x="526" d="M494 656 L300 656 L300 0 L226 0 L226 656 L32 656 L32 724 L300 724 L494 724 L494 656 Z M263 -204 Q238 -204 224.5 -190 Q211 -176 211 -151 Q211 -125 224.5 -111 Q238 -97 263 -97 Q288 -97 301.5 -111 Q315 -125 315 -150 Q315 -176 301.5 -190 Q288 -204 263 -204 Z " />
<glyph glyph-name="uni1E6E" unicode="&#x1e6e;" horiz-adv-x="526" d="M494 656 L300 656 L300 0 L226 0 L226 656 L32 656 L32 724 L300 724 L494 724 L494 656 Z M121 -108 L405 -108 L405 -166 L121 -166 L121 -108 Z " />
<glyph glyph-name="U" unicode="U" horiz-adv-x="684" d="M341 -13 Q224 -13 158.5 58.5 Q93 130 93 257 L93 724 L167 724 L167 257 Q167 157 211.5 105.5 Q256 54 342 54 Q428 54 472.5 105.5 Q517 157 517 257 L517 724 L591 724 L591 257 Q591 130 525 58.5 Q459 -13 341 -13 Z " />
<glyph glyph-name="Uacute" unicode="&#xda;" horiz-adv-x="684" d="M280 793 L433 926 L528 926 L528 914 L346 781 L280 781 L280 793 Z M341 -13 Q224 -13 158.5 58.5 Q93 130 93 257 L93 724 L167 724 L167 257 Q167 157 211.5 105.5 Q256 54 342 54 Q428 54 472.5 105.5 Q517 157 517 257 L517 724 L591 724 L591 257 Q591 130 525 58.5 Q459 -13 341 -13 Z " />
<glyph glyph-name="Ubreve" unicode="&#x16c;" horiz-adv-x="684" d="M342 785 Q279 785 242 823.5 Q205 862 202 930 L253 930 Q265 847 343 847 Q422 847 434 930 L482 930 Q479 862 442 823.5 Q405 785 342 785 Z M341 -13 Q224 -13 158.5 58.5 Q93 130 93 257 L93 724 L167 724 L167 257 Q167 157 211.5 105.5 Q256 54 342 54 Q428 54 472.5 105.5 Q517 157 517 257 L517 724 L591 724 L591 257 Q591 130 525 58.5 Q459 -13 341 -13 Z " />
<glyph glyph-name="uni01D3" unicode="&#x1d3;" horiz-adv-x="684" d="M301 781 L184 914 L184 926 L245 926 L344 832 L442 926 L500 926 L500 914 L383 781 L301 781 Z M591 724 L591 257 Q591 130 525 58.5 Q459 -13 341 -13 Q224 -13 158.5 58.5 Q93 130 93 257 L93 724 L167 724 L167 257 Q167 157 211.5 105.5 Q256 54 342 54 Q428 54 472.5 105.5 Q517 157 517 257 L517 724 L591 724 Z " />
<glyph glyph-name="Ucircumflex" unicode="&#xdb;" horiz-adv-x="684" d="M242 781 L184 781 L184 793 L301 926 L383 926 L500 793 L500 781 L439 781 L341 875 L242 781 Z M591 724 L591 257 Q591 130 525 58.5 Q459 -13 341 -13 Q224 -13 158.5 58.5 Q93 130 93 257 L93 724 L167 724 L167 257 Q167 157 211.5 105.5 Q256 54 342 54 Q428 54 472.5 105.5 Q517 157 517 257 L517 724 L591 724 Z " />
<glyph glyph-name="Udieresis" unicode="&#xdc;" horiz-adv-x="684" d="M245 800 Q222 800 209 813.5 Q196 827 196 851 Q196 875 209 889 Q222 903 245 903 Q269 903 282 889.5 Q295 876 295 852 Q295 827 282 813.5 Q269 800 245 800 Z M438 800 Q415 800 402 813.5 Q389 827 389 851 Q389 875 402 889 Q415 903 438 903 Q462 903 475 889.5 Q488 876 488 852 Q488 827 475 813.5 Q462 800 438 800 Z M341 -13 Q224 -13 158.5 58.5 Q93 130 93 257 L93 724 L167 724 L167 257 Q167 157 211.5 105.5 Q256 54 342 54 Q428 54 472.5 105.5 Q517 157 517 257 L517 724 L591 724 L591 257 Q591 130 525 58.5 Q459 -13 341 -13 Z " />
<glyph glyph-name="uni01D7" unicode="&#x1d7;" horiz-adv-x="684" d="M317 912 L398 1039 L467 1039 L467 1029 L365 902 L317 902 L317 912 Z M251 779 Q229 779 216 792 Q203 805 203 828 Q203 852 215.5 865 Q228 878 251 878 Q274 878 286.5 865 Q299 852 299 829 Q299 806 286 792.5 Q273 779 251 779 Z M433 779 Q411 779 398 792 Q385 805 385 828 Q385 852 397.5 865 Q410 878 433 878 Q456 878 468.5 865 Q481 852 481 829 Q481 806 468 792.5 Q455 779 433 779 Z M341 -13 Q224 -13 158.5 58.5 Q93 130 93 257 L93 724 L167 724 L167 257 Q167 157 211.5 105.5 Q256 54 342 54 Q428 54 472.5 105.5 Q517 157 517 257 L517 724 L591 724 L591 257 Q591 130 525 58.5 Q459 -13 341 -13 Z " />
<glyph glyph-name="uni01D9" unicode="&#x1d9;" horiz-adv-x="684" d="M304 904 L200 1033 L200 1043 L255 1043 L344 954 L432 1043 L484 1043 L484 1033 L380 904 L304 904 Z M203 828 Q203 852 215.5 865 Q228 878 251 878 Q274 878 286.5 865 Q299 852 299 829 Q299 806 286 792.5 Q273 779 251 779 Q229 779 216 792 Q203 805 203 828 Z M385 828 Q385 852 397.5 865 Q410 878 433 878 Q456 878 468.5 865 Q481 852 481 829 Q481 806 468 792.5 Q455 779 433 779 Q411 779 398 792 Q385 805 385 828 Z M591 724 L591 257 Q591 130 525 58.5 Q459 -13 341 -13 Q224 -13 158.5 58.5 Q93 130 93 257 L93 724 L167 724 L167 257 Q167 157 211.5 105.5 Q256 54 342 54 Q428 54 472.5 105.5 Q517 157 517 257 L517 724 L591 724 Z " />
<glyph glyph-name="uni01DB" unicode="&#x1db;" horiz-adv-x="684" d="M226 1029 L226 1039 L295 1039 L370 912 L370 902 L322 902 L226 1029 Z M251 779 Q229 779 216 792 Q203 805 203 828 Q203 852 215.5 865 Q228 878 251 878 Q274 878 286.5 865 Q299 852 299 829 Q299 806 286 792.5 Q273 779 251 779 Z M433 779 Q411 779 398 792 Q385 805 385 828 Q385 852 397.5 865 Q410 878 433 878 Q456 878 468.5 865 Q481 852 481 829 Q481 806 468 792.5 Q455 779 433 779 Z M341 -13 Q224 -13 158.5 58.5 Q93 130 93 257 L93 724 L167 724 L167 257 Q167 157 211.5 105.5 Q256 54 342 54 Q428 54 472.5 105.5 Q517 157 517 257 L517 724 L591 724 L591 257 Q591 130 525 58.5 Q459 -13 341 -13 Z " />
<glyph glyph-name="uni01D5" unicode="&#x1d5;" horiz-adv-x="684" d="M200 983 L484 983 L484 929 L200 929 L200 983 Z M251 779 Q229 779 216 792 Q203 805 203 828 Q203 852 215.5 865 Q228 878 251 878 Q274 878 286.5 865 Q299 852 299 829 Q299 806 286 792.5 Q273 779 251 779 Z M433 779 Q411 779 398 792 Q385 805 385 828 Q385 852 397.5 865 Q410 878 433 878 Q456 878 468.5 865 Q481 852 481 829 Q481 806 468 792.5 Q455 779 433 779 Z M341 -13 Q224 -13 158.5 58.5 Q93 130 93 257 L93 724 L167 724 L167 257 Q167 157 211.5 105.5 Q256 54 342 54 Q428 54 472.5 105.5 Q517 157 517 257 L517 724 L591 724 L591 257 Q591 130 525 58.5 Q459 -13 341 -13 Z " />
<glyph glyph-name="uni1EE4" unicode="&#x1ee4;" horiz-adv-x="684" d="M341 -13 Q224 -13 158.5 58.5 Q93 130 93 257 L93 724 L167 724 L167 257 Q167 157 211.5 105.5 Q256 54 342 54 Q428 54 472.5 105.5 Q517 157 517 257 L517 724 L591 724 L591 257 Q591 130 525 58.5 Q459 -13 341 -13 Z M342 -204 Q317 -204 303.5 -190 Q290 -176 290 -151 Q290 -125 303.5 -111 Q317 -97 342 -97 Q367 -97 380.5 -111 Q394 -125 394 -150 Q394 -176 380.5 -190 Q367 -204 342 -204 Z " />
<glyph glyph-name="Ugrave" unicode="&#xd9;" horiz-adv-x="684" d="M164 914 L164 926 L259 926 L403 793 L403 781 L337 781 L164 914 Z M341 -13 Q224 -13 158.5 58.5 Q93 130 93 257 L93 724 L167 724 L167 257 Q167 157 211.5 105.5 Q256 54 342 54 Q428 54 472.5 105.5 Q517 157 517 257 L517 724 L591 724 L591 257 Q591 130 525 58.5 Q459 -13 341 -13 Z " />
<glyph glyph-name="uni1EE6" unicode="&#x1ee6;" horiz-adv-x="684" d="M311 781 Q309 793 309 803 Q309 821 318.5 829.5 Q328 838 347 846 Q361 852 367.5 856.5 Q374 861 374 870 Q374 888 344 888 Q312 888 274 866 L253 910 Q274 924 300.5 932 Q327 940 354 940 Q395 940 418 922.5 Q441 905 441 874 Q441 850 429.5 840 Q418 830 397 821 Q384 816 377.5 811.5 Q371 807 371 798 L373 781 L311 781 Z M341 -13 Q224 -13 158.5 58.5 Q93 130 93 257 L93 724 L167 724 L167 257 Q167 157 211.5 105.5 Q256 54 342 54 Q428 54 472.5 105.5 Q517 157 517 257 L517 724 L591 724 L591 257 Q591 130 525 58.5 Q459 -13 341 -13 Z " />
<glyph glyph-name="Uhorn" unicode="&#x1af;" horiz-adv-x="684" d="M712 804 Q712 745 683.5 715 Q655 685 591 678 L591 257 Q591 130 525 58.5 Q459 -13 341 -13 Q224 -13 158.5 58.5 Q93 130 93 257 L93 724 L167 724 L167 257 Q167 157 211.5 105.5 Q256 54 342 54 Q428 54 472.5 105.5 Q517 157 517 257 L517 724 L542 724 Q598 724 620.5 741.5 Q643 759 643 802 Q643 827 638 863 L707 863 Q712 833 712 804 Z " />
<glyph glyph-name="uni1EE8" unicode="&#x1ee8;" horiz-adv-x="684" d="M346 781 L280 781 L280 793 L433 926 L528 926 L528 914 L346 781 Z M712 804 Q712 745 683.5 715 Q655 685 591 678 L591 257 Q591 130 525 58.5 Q459 -13 341 -13 Q224 -13 158.5 58.5 Q93 130 93 257 L93 724 L167 724 L167 257 Q167 157 211.5 105.5 Q256 54 342 54 Q428 54 472.5 105.5 Q517 157 517 257 L517 724 L542 724 Q598 724 620.5 741.5 Q643 759 643 802 Q643 827 638 863 L707 863 Q712 833 712 804 Z " />
<glyph glyph-name="uni1EF0" unicode="&#x1ef0;" horiz-adv-x="684" d="M712 804 Q712 745 683.5 715 Q655 685 591 678 L591 257 Q591 130 525 58.5 Q459 -13 341 -13 Q224 -13 158.5 58.5 Q93 130 93 257 L93 724 L167 724 L167 257 Q167 157 211.5 105.5 Q256 54 342 54 Q428 54 472.5 105.5 Q517 157 517 257 L517 724 L542 724 Q598 724 620.5 741.5 Q643 759 643 802 Q643 827 638 863 L707 863 Q712 833 712 804 Z M342 -204 Q317 -204 303.5 -190 Q290 -176 290 -151 Q290 -125 303.5 -111 Q317 -97 342 -97 Q367 -97 380.5 -111 Q394 -125 394 -150 Q394 -176 380.5 -190 Q367 -204 342 -204 Z " />
<glyph glyph-name="uni1EEA" unicode="&#x1eea;" horiz-adv-x="684" d="M337 781 L164 914 L164 926 L259 926 L403 793 L403 781 L337 781 Z M712 804 Q712 745 683.5 715 Q655 685 591 678 L591 257 Q591 130 525 58.5 Q459 -13 341 -13 Q224 -13 158.5 58.5 Q93 130 93 257 L93 724 L167 724 L167 257 Q167 157 211.5 105.5 Q256 54 342 54 Q428 54 472.5 105.5 Q517 157 517 257 L517 724 L542 724 Q598 724 620.5 741.5 Q643 759 643 802 Q643 827 638 863 L707 863 Q712 833 712 804 Z " />
<glyph glyph-name="uni1EEC" unicode="&#x1eec;" horiz-adv-x="684" d="M344 888 Q312 888 274 866 L253 910 Q274 924 300.5 932 Q327 940 354 940 Q395 940 418 922.5 Q441 905 441 874 Q441 850 429.5 840 Q418 830 397 821 Q384 816 377.5 811.5 Q371 807 371 798 L373 781 L311 781 Q309 793 309 803 Q309 821 318.5 829.5 Q328 838 347 846 Q361 852 367.5 856.5 Q374 861 374 870 Q374 888 344 888 Z M712 804 Q712 745 683.5 715 Q655 685 591 678 L591 257 Q591 130 525 58.5 Q459 -13 341 -13 Q224 -13 158.5 58.5 Q93 130 93 257 L93 724 L167 724 L167 257 Q167 157 211.5 105.5 Q256 54 342 54 Q428 54 472.5 105.5 Q517 157 517 257 L517 724 L542 724 Q598 724 620.5 741.5 Q643 759 643 802 Q643 827 638 863 L707 863 Q712 833 712 804 Z " />
<glyph glyph-name="uni1EEE" unicode="&#x1eee;" horiz-adv-x="684" d="M270 857 Q235 857 227 792 L179 792 Q181 850 205 883.5 Q229 917 272 917 Q298 917 318 906.5 Q338 896 362 877 Q380 863 391 856.5 Q402 850 414 850 Q449 850 457 915 L505 915 Q503 857 479 823.5 Q455 790 412 790 Q386 790 366 800.5 Q346 811 322 830 Q304 844 293 850.5 Q282 857 270 857 Z M712 804 Q712 745 683.5 715 Q655 685 591 678 L591 257 Q591 130 525 58.5 Q459 -13 341 -13 Q224 -13 158.5 58.5 Q93 130 93 257 L93 724 L167 724 L167 257 Q167 157 211.5 105.5 Q256 54 342 54 Q428 54 472.5 105.5 Q517 157 517 257 L517 724 L542 724 Q598 724 620.5 741.5 Q643 759 643 802 Q643 827 638 863 L707 863 Q712 833 712 804 Z " />
<glyph glyph-name="Uhungarumlaut" unicode="&#x170;" horiz-adv-x="684" d="M216 793 L317 926 L400 926 L400 914 L270 781 L216 781 L216 793 Z M372 793 L472 926 L555 926 L555 914 L426 781 L372 781 L372 793 Z M341 -13 Q224 -13 158.5 58.5 Q93 130 93 257 L93 724 L167 724 L167 257 Q167 157 211.5 105.5 Q256 54 342 54 Q428 54 472.5 105.5 Q517 157 517 257 L517 724 L591 724 L591 257 Q591 130 525 58.5 Q459 -13 341 -13 Z " />
<glyph glyph-name="Umacron" unicode="&#x16a;" horiz-adv-x="684" d="M200 869 L484 869 L484 811 L200 811 L200 869 Z M341 -13 Q224 -13 158.5 58.5 Q93 130 93 257 L93 724 L167 724 L167 257 Q167 157 211.5 105.5 Q256 54 342 54 Q428 54 472.5 105.5 Q517 157 517 257 L517 724 L591 724 L591 257 Q591 130 525 58.5 Q459 -13 341 -13 Z " />
<glyph glyph-name="Uogonek" unicode="&#x172;" horiz-adv-x="684" d="M464 9 Q428 -20 407.5 -53 Q387 -86 387 -115 Q387 -159 435 -159 Q468 -159 502 -141 L523 -188 Q503 -202 477 -209.5 Q451 -217 423 -217 Q376 -217 349 -193 Q322 -169 322 -128 Q322 -65 379 -10 Q361 -13 341 -13 Q224 -13 158.5 58.5 Q93 130 93 257 L93 724 L167 724 L167 257 Q167 157 211 105.5 Q255 54 341 54 Q427 54 472 105.5 Q517 157 517 257 L517 724 L591 724 L591 257 Q591 180 567 127 Q543 74 492 32 L464 9 Z " />
<glyph glyph-name="Uring" unicode="&#x16e;" horiz-adv-x="684" d="M342 769 Q287 769 256.5 797 Q226 825 226 875 Q226 925 256.5 953 Q287 981 342 981 Q397 981 427.5 953 Q458 925 458 875 Q458 825 427.5 797 Q397 769 342 769 Z M342 814 Q403 814 403 875 Q403 936 342 936 Q281 936 281 875 Q281 814 342 814 Z M341 -13 Q224 -13 158.5 58.5 Q93 130 93 257 L93 724 L167 724 L167 257 Q167 157 211.5 105.5 Q256 54 342 54 Q428 54 472.5 105.5 Q517 157 517 257 L517 724 L591 724 L591 257 Q591 130 525 58.5 Q459 -13 341 -13 Z " />
<glyph glyph-name="Utilde" unicode="&#x168;" horiz-adv-x="684" d="M412 790 Q386 790 366 800.5 Q346 811 322 830 Q304 844 293 850.5 Q282 857 270 857 Q235 857 227 792 L179 792 Q181 850 205 883.5 Q229 917 272 917 Q298 917 318 906.5 Q338 896 362 877 Q380 863 391 856.5 Q402 850 414 850 Q449 850 457 915 L505 915 Q503 857 479 823.5 Q455 790 412 790 Z M341 -13 Q224 -13 158.5 58.5 Q93 130 93 257 L93 724 L167 724 L167 257 Q167 157 211.5 105.5 Q256 54 342 54 Q428 54 472.5 105.5 Q517 157 517 257 L517 724 L591 724 L591 257 Q591 130 525 58.5 Q459 -13 341 -13 Z " />
<glyph glyph-name="V" unicode="V" horiz-adv-x="630" d="M594 724 L357 0 L273 0 L36 724 L117 724 L316 86 L514 724 L594 724 Z " />
<glyph glyph-name="W" unicode="W" horiz-adv-x="894" d="M856 724 L670 0 L586 0 L446 607 L307 0 L223 0 L38 724 L117 724 L266 91 L406 723 L488 723 L630 93 L778 724 L856 724 Z " />
<glyph glyph-name="Wacute" unicode="&#x1e82;" horiz-adv-x="894" d="M451 781 L385 781 L385 793 L538 926 L633 926 L633 914 L451 781 Z M856 724 L670 0 L586 0 L446 607 L307 0 L223 0 L38 724 L117 724 L266 91 L406 723 L488 723 L630 93 L778 724 L856 724 Z " />
<glyph glyph-name="Wcircumflex" unicode="&#x174;" horiz-adv-x="894" d="M347 781 L289 781 L289 793 L406 926 L488 926 L605 793 L605 781 L544 781 L446 875 L347 781 Z M856 724 L670 0 L586 0 L446 607 L307 0 L223 0 L38 724 L117 724 L266 91 L406 723 L488 723 L630 93 L778 724 L856 724 Z " />
<glyph glyph-name="Wdieresis" unicode="&#x1e84;" horiz-adv-x="894" d="M350 800 Q327 800 314 813.5 Q301 827 301 851 Q301 875 314 889 Q327 903 350 903 Q374 903 387 889.5 Q400 876 400 852 Q400 827 387 813.5 Q374 800 350 800 Z M543 800 Q520 800 507 813.5 Q494 827 494 851 Q494 875 507 889 Q520 903 543 903 Q567 903 580 889.5 Q593 876 593 852 Q593 827 580 813.5 Q567 800 543 800 Z M856 724 L670 0 L586 0 L446 607 L307 0 L223 0 L38 724 L117 724 L266 91 L406 723 L488 723 L630 93 L778 724 L856 724 Z " />
<glyph glyph-name="Wgrave" unicode="&#x1e80;" horiz-adv-x="894" d="M442 781 L269 914 L269 926 L364 926 L508 793 L508 781 L442 781 Z M856 724 L670 0 L586 0 L446 607 L307 0 L223 0 L38 724 L117 724 L266 91 L406 723 L488 723 L630 93 L778 724 L856 724 Z " />
<glyph glyph-name="X" unicode="X" horiz-adv-x="606" d="M484 0 L302 306 L120 0 L33 0 L261 365 L40 724 L129 724 L305 428 L484 724 L571 724 L346 369 L573 0 L484 0 Z " />
<glyph glyph-name="Y" unicode="Y" horiz-adv-x="586" d="M558 724 L329 260 L329 0 L255 0 L255 260 L28 724 L111 724 L294 347 L476 724 L558 724 Z " />
<glyph glyph-name="Yacute" unicode="&#xdd;" horiz-adv-x="586" d="M296 781 L230 781 L230 793 L383 926 L478 926 L478 914 L296 781 Z M558 724 L329 260 L329 0 L255 0 L255 260 L28 724 L111 724 L294 347 L476 724 L558 724 Z " />
<glyph glyph-name="Ycircumflex" unicode="&#x176;" horiz-adv-x="586" d="M192 781 L134 781 L134 793 L251 926 L333 926 L450 793 L450 781 L389 781 L291 875 L192 781 Z M558 724 L329 260 L329 0 L255 0 L255 260 L28 724 L111 724 L294 347 L476 724 L558 724 Z " />
<glyph glyph-name="Ydieresis" unicode="&#x178;" horiz-adv-x="586" d="M195 800 Q172 800 159 813.5 Q146 827 146 851 Q146 875 159 889 Q172 903 195 903 Q219 903 232 889.5 Q245 876 245 852 Q245 827 232 813.5 Q219 800 195 800 Z M388 800 Q365 800 352 813.5 Q339 827 339 851 Q339 875 352 889 Q365 903 388 903 Q412 903 425 889.5 Q438 876 438 852 Q438 827 425 813.5 Q412 800 388 800 Z M558 724 L329 260 L329 0 L255 0 L255 260 L28 724 L111 724 L294 347 L476 724 L558 724 Z " />
<glyph glyph-name="uni1E8E" unicode="&#x1e8e;" horiz-adv-x="586" d="M292 800 Q267 800 253.5 814 Q240 828 240 853 Q240 879 253.5 893 Q267 907 292 907 Q317 907 330.5 893 Q344 879 344 854 Q344 828 330.5 814 Q317 800 292 800 Z M558 724 L329 260 L329 0 L255 0 L255 260 L28 724 L111 724 L294 347 L476 724 L558 724 Z " />
<glyph glyph-name="uni1EF4" unicode="&#x1ef4;" horiz-adv-x="586" d="M558 724 L329 260 L329 0 L255 0 L255 260 L28 724 L111 724 L294 347 L476 724 L558 724 Z M292 -204 Q267 -204 253.5 -190 Q240 -176 240 -151 Q240 -125 253.5 -111 Q267 -97 292 -97 Q317 -97 330.5 -111 Q344 -125 344 -150 Q344 -176 330.5 -190 Q317 -204 292 -204 Z " />
<glyph glyph-name="Ygrave" unicode="&#x1ef2;" horiz-adv-x="586" d="M287 781 L114 914 L114 926 L209 926 L353 793 L353 781 L287 781 Z M558 724 L329 260 L329 0 L255 0 L255 260 L28 724 L111 724 L294 347 L476 724 L558 724 Z " />
<glyph glyph-name="uni1EF6" unicode="&#x1ef6;" horiz-adv-x="586" d="M294 888 Q262 888 224 866 L203 910 Q224 924 250.5 932 Q277 940 304 940 Q345 940 368 922.5 Q391 905 391 874 Q391 850 379.5 840 Q368 830 347 821 Q334 816 327.5 811.5 Q321 807 321 798 L323 781 L261 781 Q259 793 259 803 Q259 821 268.5 829.5 Q278 838 297 846 Q311 852 317.5 856.5 Q324 861 324 870 Q324 888 294 888 Z M558 724 L329 260 L329 0 L255 0 L255 260 L28 724 L111 724 L294 347 L476 724 L558 724 Z " />
<glyph glyph-name="uni1EF8" unicode="&#x1ef8;" horiz-adv-x="586" d="M220 857 Q185 857 177 792 L129 792 Q131 850 155 883.5 Q179 917 222 917 Q248 917 268 906.5 Q288 896 312 877 Q330 863 341 856.5 Q352 850 364 850 Q399 850 407 915 L455 915 Q453 857 429 823.5 Q405 790 362 790 Q336 790 316 800.5 Q296 811 272 830 Q254 844 243 850.5 Q232 857 220 857 Z M558 724 L329 260 L329 0 L255 0 L255 260 L28 724 L111 724 L294 347 L476 724 L558 724 Z " />
<glyph glyph-name="Z" unicode="Z" horiz-adv-x="551" d="M503 66 L503 0 L46 0 L46 67 L415 658 L58 658 L58 724 L499 724 L499 658 L130 66 L503 66 Z " />
<glyph glyph-name="Zacute" unicode="&#x179;" horiz-adv-x="551" d="M278 781 L212 781 L212 793 L365 926 L460 926 L460 914 L278 781 Z M503 66 L503 0 L46 0 L46 67 L415 658 L58 658 L58 724 L499 724 L499 658 L130 66 L503 66 Z " />
<glyph glyph-name="Zcaron" unicode="&#x17d;" horiz-adv-x="551" d="M233 781 L116 914 L116 926 L177 926 L276 832 L374 926 L432 926 L432 914 L315 781 L233 781 Z M503 66 L503 0 L46 0 L46 67 L415 658 L58 658 L58 724 L499 724 L499 658 L130 66 L503 66 Z " />
<glyph glyph-name="Zdotaccent" unicode="&#x17b;" horiz-adv-x="551" d="M274 800 Q249 800 235.5 814 Q222 828 222 853 Q222 879 235.5 893 Q249 907 274 907 Q299 907 312.5 893 Q326 879 326 854 Q326 828 312.5 814 Q299 800 274 800 Z M503 66 L503 0 L46 0 L46 67 L415 658 L58 658 L58 724 L499 724 L499 658 L130 66 L503 66 Z " />
<glyph glyph-name="uni1E92" unicode="&#x1e92;" horiz-adv-x="551" d="M503 66 L503 0 L46 0 L46 67 L415 658 L58 658 L58 724 L499 724 L499 658 L130 66 L503 66 Z M278 -204 Q253 -204 239.5 -190 Q226 -176 226 -151 Q226 -125 239.5 -111 Q253 -97 278 -97 Q303 -97 316.5 -111 Q330 -125 330 -150 Q330 -176 316.5 -190 Q303 -204 278 -204 Z " />
<glyph glyph-name="a" unicode="a" horiz-adv-x="528" d="M250 547 Q336 547 388.5 504 Q441 461 441 378 L441 0 L374 0 L374 65 Q322 -11 213 -11 Q134 -11 89.5 31 Q45 73 45 148 Q45 243 124 288.5 Q203 334 369 335 L369 372 Q369 424 336.5 451.5 Q304 479 242 479 Q177 479 116 450 L97 511 Q168 547 250 547 Z M229 55 Q272 55 306 71 Q340 87 369 120 L369 275 Q240 274 179 244.5 Q118 215 118 153 Q118 105 146 80 Q174 55 229 55 Z " />
<glyph glyph-name="aacute" unicode="&#xe1;" horiz-adv-x="528" d="M250 547 Q336 547 388.5 504 Q441 461 441 378 L441 0 L374 0 L374 65 Q322 -11 213 -11 Q134 -11 89.5 31 Q45 73 45 148 Q45 243 124 288.5 Q203 334 369 335 L369 372 Q369 424 336.5 451.5 Q304 479 242 479 Q177 479 116 450 L97 511 Q168 547 250 547 Z M229 55 Q272 55 306 71 Q340 87 369 120 L369 275 Q240 274 179 244.5 Q118 215 118 153 Q118 105 146 80 Q174 55 229 55 Z M202 625 L305 784 L390 784 L390 774 L258 615 L202 615 L202 625 Z " />
<glyph glyph-name="abreve" unicode="&#x103;" horiz-adv-x="528" d="M250 547 Q336 547 388.5 504 Q441 461 441 378 L441 0 L374 0 L374 65 Q322 -11 213 -11 Q134 -11 89.5 31 Q45 73 45 148 Q45 243 124 288.5 Q203 334 369 335 L369 372 Q369 424 336.5 451.5 Q304 479 242 479 Q177 479 116 450 L97 511 Q168 547 250 547 Z M229 55 Q272 55 306 71 Q340 87 369 120 L369 275 Q240 274 179 244.5 Q118 215 118 153 Q118 105 146 80 Q174 55 229 55 Z M252 615 Q189 615 152 653.5 Q115 692 112 760 L163 760 Q175 677 253 677 Q332 677 344 760 L392 760 Q389 692 352 653.5 Q315 615 252 615 Z " />
<glyph glyph-name="uni1EAF" unicode="&#x1eaf;" horiz-adv-x="528" d="M275 742 L227 742 L227 752 L308 879 L377 879 L377 869 L275 742 Z M252 615 Q190 615 153.5 651 Q117 687 114 752 L161 752 Q166 712 189.5 691 Q213 670 253 670 Q294 670 317.5 691 Q341 712 346 752 L390 752 Q387 687 350.5 651 Q314 615 252 615 Z M250 547 Q336 547 388.5 504 Q441 461 441 378 L441 0 L374 0 L374 65 Q322 -11 213 -11 Q134 -11 89.5 31 Q45 73 45 148 Q45 243 124 288.5 Q203 334 369 335 L369 372 Q369 424 336.5 451.5 Q304 479 242 479 Q177 479 116 450 L97 511 Q168 547 250 547 Z M229 55 Q272 55 306 71 Q340 87 369 120 L369 275 Q240 274 179 244.5 Q118 215 118 153 Q118 105 146 80 Q174 55 229 55 Z " />
<glyph glyph-name="uni1EB7" unicode="&#x1eb7;" horiz-adv-x="528" d="M250 547 Q336 547 388.5 504 Q441 461 441 378 L441 0 L374 0 L374 65 Q322 -11 213 -11 Q134 -11 89.5 31 Q45 73 45 148 Q45 243 124 288.5 Q203 334 369 335 L369 372 Q369 424 336.5 451.5 Q304 479 242 479 Q177 479 116 450 L97 511 Q168 547 250 547 Z M229 55 Q272 55 306 71 Q340 87 369 120 L369 275 Q240 274 179 244.5 Q118 215 118 153 Q118 105 146 80 Q174 55 229 55 Z M242 -204 Q217 -204 203.5 -190 Q190 -176 190 -151 Q190 -125 203.5 -111 Q217 -97 242 -97 Q267 -97 280.5 -111 Q294 -125 294 -150 Q294 -176 280.5 -190 Q267 -204 242 -204 Z M252 615 Q189 615 152 653.5 Q115 692 112 760 L163 760 Q175 677 253 677 Q332 677 344 760 L392 760 Q389 692 352 653.5 Q315 615 252 615 Z " />
<glyph glyph-name="uni1EB1" unicode="&#x1eb1;" horiz-adv-x="528" d="M232 742 L136 869 L136 879 L205 879 L280 752 L280 742 L232 742 Z M252 615 Q190 615 153.5 651 Q117 687 114 752 L161 752 Q166 712 189.5 691 Q213 670 253 670 Q294 670 317.5 691 Q341 712 346 752 L390 752 Q387 687 350.5 651 Q314 615 252 615 Z M250 547 Q336 547 388.5 504 Q441 461 441 378 L441 0 L374 0 L374 65 Q322 -11 213 -11 Q134 -11 89.5 31 Q45 73 45 148 Q45 243 124 288.5 Q203 334 369 335 L369 372 Q369 424 336.5 451.5 Q304 479 242 479 Q177 479 116 450 L97 511 Q168 547 250 547 Z M229 55 Q272 55 306 71 Q340 87 369 120 L369 275 Q240 274 179 244.5 Q118 215 118 153 Q118 105 146 80 Q174 55 229 55 Z " />
<glyph glyph-name="uni1EB3" unicode="&#x1eb3;" horiz-adv-x="528" d="M251 858 Q237 858 221 853 Q205 848 192 840 L173 880 Q215 905 260 905 Q299 905 320.5 887.5 Q342 870 342 838 Q342 815 331 804 Q320 793 302 786 Q290 780 284.5 775.5 Q279 771 279 763 L281 744 L223 744 Q221 756 221 766 Q221 785 230 794 Q239 803 256 810 Q268 816 274.5 821.5 Q281 827 281 837 Q281 858 251 858 Z M252 615 Q190 615 153.5 651 Q117 687 114 752 L161 752 Q166 712 189.5 691 Q213 670 253 670 Q294 670 317.5 691 Q341 712 346 752 L390 752 Q387 687 350.5 651 Q314 615 252 615 Z M250 547 Q336 547 388.5 504 Q441 461 441 378 L441 0 L374 0 L374 65 Q322 -11 213 -11 Q134 -11 89.5 31 Q45 73 45 148 Q45 243 124 288.5 Q203 334 369 335 L369 372 Q369 424 336.5 451.5 Q304 479 242 479 Q177 479 116 450 L97 511 Q168 547 250 547 Z M229 55 Q272 55 306 71 Q340 87 369 120 L369 275 Q240 274 179 244.5 Q118 215 118 153 Q118 105 146 80 Q174 55 229 55 Z " />
<glyph glyph-name="uni1EB5" unicode="&#x1eb5;" horiz-adv-x="528" d="M191 862 Q155 862 150 803 L106 803 Q106 856 129.5 885.5 Q153 915 194 915 Q218 915 233.5 906 Q249 897 268 879 Q282 866 291 860 Q300 854 313 854 Q349 854 354 913 L398 913 Q398 861 374.5 831 Q351 801 310 801 Q286 801 270.5 810 Q255 819 236 837 Q222 850 213 856 Q204 862 191 862 Z M253 670 Q294 670 317.5 691 Q341 712 346 752 L390 752 Q387 687 350.5 651 Q314 615 252 615 Q190 615 153.5 651 Q117 687 114 752 L161 752 Q166 712 189.5 691 Q213 670 253 670 Z M250 547 Q336 547 388.5 504 Q441 461 441 378 L441 0 L374 0 L374 65 Q322 -11 213 -11 Q134 -11 89.5 31 Q45 73 45 148 Q45 243 124 288.5 Q203 334 369 335 L369 372 Q369 424 336.5 451.5 Q304 479 242 479 Q177 479 116 450 L97 511 Q168 547 250 547 Z M229 55 Q272 55 306 71 Q340 87 369 120 L369 275 Q240 274 179 244.5 Q118 215 118 153 Q118 105 146 80 Q174 55 229 55 Z " />
<glyph glyph-name="uni01CE" unicode="&#x1ce;" horiz-adv-x="528" d="M250 547 Q336 547 388.5 504 Q441 461 441 378 L441 0 L374 0 L374 65 Q322 -11 213 -11 Q134 -11 89.5 31 Q45 73 45 148 Q45 243 124 288.5 Q203 334 369 335 L369 372 Q369 424 336.5 451.5 Q304 479 242 479 Q177 479 116 450 L97 511 Q168 547 250 547 Z M229 55 Q272 55 306 71 Q340 87 369 120 L369 275 Q240 274 179 244.5 Q118 215 118 153 Q118 105 146 80 Q174 55 229 55 Z M392 784 L392 774 L290 615 L214 615 L112 774 L112 784 L167 784 L253 671 L340 784 L392 784 Z " />
<glyph glyph-name="acircumflex" unicode="&#xe2;" horiz-adv-x="528" d="M250 547 Q336 547 388.5 504 Q441 461 441 378 L441 0 L374 0 L374 65 Q322 -11 213 -11 Q134 -11 89.5 31 Q45 73 45 148 Q45 243 124 288.5 Q203 334 369 335 L369 372 Q369 424 336.5 451.5 Q304 479 242 479 Q177 479 116 450 L97 511 Q168 547 250 547 Z M229 55 Q272 55 306 71 Q340 87 369 120 L369 275 Q240 274 179 244.5 Q118 215 118 153 Q118 105 146 80 Q174 55 229 55 Z M392 625 L392 615 L337 615 L250 728 L164 615 L112 615 L112 625 L214 784 L290 784 L392 625 Z " />
<glyph glyph-name="uni1EA5" unicode="&#x1ea5;" horiz-adv-x="528" d="M517 851 L517 841 L415 714 L367 714 L367 724 L448 851 L517 851 Z M162 615 L110 615 L110 625 L214 764 L290 764 L394 625 L394 615 L339 615 L251 712 L162 615 Z M250 547 Q336 547 388.5 504 Q441 461 441 378 L441 0 L374 0 L374 65 Q322 -11 213 -11 Q134 -11 89.5 31 Q45 73 45 148 Q45 243 124 288.5 Q203 334 369 335 L369 372 Q369 424 336.5 451.5 Q304 479 242 479 Q177 479 116 450 L97 511 Q168 547 250 547 Z M229 55 Q272 55 306 71 Q340 87 369 120 L369 275 Q240 274 179 244.5 Q118 215 118 153 Q118 105 146 80 Q174 55 229 55 Z " />
<glyph glyph-name="uni1EAD" unicode="&#x1ead;" horiz-adv-x="528" d="M250 547 Q336 547 388.5 504 Q441 461 441 378 L441 0 L374 0 L374 65 Q322 -11 213 -11 Q134 -11 89.5 31 Q45 73 45 148 Q45 243 124 288.5 Q203 334 369 335 L369 372 Q369 424 336.5 451.5 Q304 479 242 479 Q177 479 116 450 L97 511 Q168 547 250 547 Z M229 55 Q272 55 306 71 Q340 87 369 120 L369 275 Q240 274 179 244.5 Q118 215 118 153 Q118 105 146 80 Q174 55 229 55 Z M242 -204 Q217 -204 203.5 -190 Q190 -176 190 -151 Q190 -125 203.5 -111 Q217 -97 242 -97 Q267 -97 280.5 -111 Q294 -125 294 -150 Q294 -176 280.5 -190 Q267 -204 242 -204 Z M392 625 L392 615 L337 615 L250 728 L164 615 L112 615 L112 625 L214 784 L290 784 L392 625 Z " />
<glyph glyph-name="uni1EA7" unicode="&#x1ea7;" horiz-adv-x="528" d="M92 714 L-4 841 L-4 851 L65 851 L140 724 L140 714 L92 714 Z M110 625 L214 764 L290 764 L394 625 L394 615 L339 615 L251 712 L162 615 L110 615 L110 625 Z M250 547 Q336 547 388.5 504 Q441 461 441 378 L441 0 L374 0 L374 65 Q322 -11 213 -11 Q134 -11 89.5 31 Q45 73 45 148 Q45 243 124 288.5 Q203 334 369 335 L369 372 Q369 424 336.5 451.5 Q304 479 242 479 Q177 479 116 450 L97 511 Q168 547 250 547 Z M229 55 Q272 55 306 71 Q340 87 369 120 L369 275 Q240 274 179 244.5 Q118 215 118 153 Q118 105 146 80 Q174 55 229 55 Z " />
<glyph glyph-name="uni1EA9" unicode="&#x1ea9;" horiz-adv-x="528" d="M400 877 Q439 877 460.5 859.5 Q482 842 482 810 Q482 787 471 776 Q460 765 442 758 Q430 752 424.5 747.5 Q419 743 419 735 L421 716 L363 716 Q361 728 361 738 Q361 757 370 766 Q379 775 396 782 Q408 788 414.5 793.5 Q421 799 421 809 Q421 830 391 830 Q377 830 361 825 Q345 820 332 812 L313 852 Q355 877 400 877 Z M162 615 L110 615 L110 625 L214 764 L290 764 L394 625 L394 615 L339 615 L251 712 L162 615 Z M250 547 Q336 547 388.5 504 Q441 461 441 378 L441 0 L374 0 L374 65 Q322 -11 213 -11 Q134 -11 89.5 31 Q45 73 45 148 Q45 243 124 288.5 Q203 334 369 335 L369 372 Q369 424 336.5 451.5 Q304 479 242 479 Q177 479 116 450 L97 511 Q168 547 250 547 Z M229 55 Q272 55 306 71 Q340 87 369 120 L369 275 Q240 274 179 244.5 Q118 215 118 153 Q118 105 146 80 Q174 55 229 55 Z " />
<glyph glyph-name="uni1EAB" unicode="&#x1eab;" horiz-adv-x="528" d="M191 864 Q155 864 150 805 L106 805 Q106 858 129.5 887.5 Q153 917 194 917 Q218 917 233.5 908 Q249 899 268 881 Q282 868 291 862 Q300 856 313 856 Q349 856 354 915 L398 915 Q398 863 374.5 833 Q351 803 310 803 Q286 803 270.5 812 Q255 821 236 839 Q222 852 213 858 Q204 864 191 864 Z M290 764 L394 625 L394 615 L339 615 L251 712 L162 615 L110 615 L110 625 L214 764 L290 764 Z M250 547 Q336 547 388.5 504 Q441 461 441 378 L441 0 L374 0 L374 65 Q322 -11 213 -11 Q134 -11 89.5 31 Q45 73 45 148 Q45 243 124 288.5 Q203 334 369 335 L369 372 Q369 424 336.5 451.5 Q304 479 242 479 Q177 479 116 450 L97 511 Q168 547 250 547 Z M229 55 Q272 55 306 71 Q340 87 369 120 L369 275 Q240 274 179 244.5 Q118 215 118 153 Q118 105 146 80 Q174 55 229 55 Z " />
<glyph glyph-name="adieresis" unicode="&#xe4;" horiz-adv-x="528" d="M250 547 Q336 547 388.5 504 Q441 461 441 378 L441 0 L374 0 L374 65 Q322 -11 213 -11 Q134 -11 89.5 31 Q45 73 45 148 Q45 243 124 288.5 Q203 334 369 335 L369 372 Q369 424 336.5 451.5 Q304 479 242 479 Q177 479 116 450 L97 511 Q168 547 250 547 Z M229 55 Q272 55 306 71 Q340 87 369 120 L369 275 Q240 274 179 244.5 Q118 215 118 153 Q118 105 146 80 Q174 55 229 55 Z M159 630 Q136 630 123 643.5 Q110 657 110 681 Q110 705 123 719 Q136 733 159 733 Q183 733 196 719.5 Q209 706 209 682 Q209 657 196 643.5 Q183 630 159 630 Z M344 630 Q321 630 308 643.5 Q295 657 295 681 Q295 705 308 719 Q321 733 344 733 Q368 733 381 719.5 Q394 706 394 682 Q394 657 381 643.5 Q368 630 344 630 Z " />
<glyph glyph-name="uni1EA1" unicode="&#x1ea1;" horiz-adv-x="528" d="M250 547 Q336 547 388.5 504 Q441 461 441 378 L441 0 L374 0 L374 65 Q322 -11 213 -11 Q134 -11 89.5 31 Q45 73 45 148 Q45 243 124 288.5 Q203 334 369 335 L369 372 Q369 424 336.5 451.5 Q304 479 242 479 Q177 479 116 450 L97 511 Q168 547 250 547 Z M229 55 Q272 55 306 71 Q340 87 369 120 L369 275 Q240 274 179 244.5 Q118 215 118 153 Q118 105 146 80 Q174 55 229 55 Z M242 -204 Q217 -204 203.5 -190 Q190 -176 190 -151 Q190 -125 203.5 -111 Q217 -97 242 -97 Q267 -97 280.5 -111 Q294 -125 294 -150 Q294 -176 280.5 -190 Q267 -204 242 -204 Z " />
<glyph glyph-name="agrave" unicode="&#xe0;" horiz-adv-x="528" d="M250 547 Q336 547 388.5 504 Q441 461 441 378 L441 0 L374 0 L374 65 Q322 -11 213 -11 Q134 -11 89.5 31 Q45 73 45 148 Q45 243 124 288.5 Q203 334 369 335 L369 372 Q369 424 336.5 451.5 Q304 479 242 479 Q177 479 116 450 L97 511 Q168 547 250 547 Z M229 55 Q272 55 306 71 Q340 87 369 120 L369 275 Q240 274 179 244.5 Q118 215 118 153 Q118 105 146 80 Q174 55 229 55 Z M126 774 L126 784 L211 784 L306 625 L306 615 L250 615 L126 774 Z " />
<glyph glyph-name="uni1EA3" unicode="&#x1ea3;" horiz-adv-x="528" d="M250 547 Q336 547 388.5 504 Q441 461 441 378 L441 0 L374 0 L374 65 Q322 -11 213 -11 Q134 -11 89.5 31 Q45 73 45 148 Q45 243 124 288.5 Q203 334 369 335 L369 372 Q369 424 336.5 451.5 Q304 479 242 479 Q177 479 116 450 L97 511 Q168 547 250 547 Z M229 55 Q272 55 306 71 Q340 87 369 120 L369 275 Q240 274 179 244.5 Q118 215 118 153 Q118 105 146 80 Q174 55 229 55 Z M222 615 Q220 627 220 638 Q220 661 229 672.5 Q238 684 256 695 Q268 701 274 707.5 Q280 714 280 725 Q280 748 250 748 Q219 748 189 728 L169 771 Q187 783 211.5 790.5 Q236 798 260 798 Q299 798 321 779.5 Q343 761 343 729 Q343 707 334 695.5 Q325 684 308 673 Q294 664 287 656.5 Q280 649 280 635 Q280 627 282 615 L222 615 Z " />
<glyph glyph-name="uni0251" unicode="&#x251;" horiz-adv-x="572" d="M478 534 L478 0 L411 0 L411 68 Q356 -13 256 -13 Q162 -13 109.5 62 Q57 137 57 270 Q57 401 112.5 474 Q168 547 268 547 Q310 547 345.5 531 Q381 515 406 485 L406 534 L478 534 Z M274 57 Q313 57 345 72.5 Q377 88 406 122 L406 419 Q380 448 344 464.5 Q308 481 268 481 Q201 481 166.5 427.5 Q132 374 132 270 Q132 165 168 111 Q204 57 274 57 Z " />
<glyph glyph-name="amacron" unicode="&#x101;" horiz-adv-x="528" d="M250 547 Q336 547 388.5 504 Q441 461 441 378 L441 0 L374 0 L374 65 Q322 -11 213 -11 Q134 -11 89.5 31 Q45 73 45 148 Q45 243 124 288.5 Q203 334 369 335 L369 372 Q369 424 336.5 451.5 Q304 479 242 479 Q177 479 116 450 L97 511 Q168 547 250 547 Z M229 55 Q272 55 306 71 Q340 87 369 120 L369 275 Q240 274 179 244.5 Q118 215 118 153 Q118 105 146 80 Q174 55 229 55 Z M110 699 L394 699 L394 641 L110 641 L110 699 Z " />
<glyph glyph-name="aogonek" unicode="&#x105;" horiz-adv-x="528" d="M487 -188 Q467 -202 441 -209.5 Q415 -217 387 -217 Q340 -217 313 -193.5 Q286 -170 286 -128 Q286 -90 309.5 -55.5 Q333 -21 375 3 L375 67 Q344 27 304 8 Q264 -11 213 -11 Q134 -11 89.5 31 Q45 73 45 148 Q45 243 124 288.5 Q203 334 369 335 L369 372 Q369 424 336.5 451.5 Q304 479 242 479 Q177 479 116 450 L97 511 Q168 547 250 547 Q336 547 388.5 504 Q441 461 441 378 L441 0 Q397 -25 374 -54 Q351 -83 351 -115 Q351 -159 399 -159 Q432 -159 466 -141 L487 -188 Z M229 55 Q272 55 306 71 Q340 87 369 120 L369 275 Q240 274 179 244.5 Q118 215 118 153 Q118 105 146 80 Q174 55 229 55 Z " />
<glyph glyph-name="aring" unicode="&#xe5;" horiz-adv-x="528" d="M250 547 Q336 547 388.5 504 Q441 461 441 378 L441 0 L374 0 L374 65 Q322 -11 213 -11 Q134 -11 89.5 31 Q45 73 45 148 Q45 243 124 288.5 Q203 334 369 335 L369 372 Q369 424 336.5 451.5 Q304 479 242 479 Q177 479 116 450 L97 511 Q168 547 250 547 Z M229 55 Q272 55 306 71 Q340 87 369 120 L369 275 Q240 274 179 244.5 Q118 215 118 153 Q118 105 146 80 Q174 55 229 55 Z M252 604 Q198 604 167.5 632 Q137 660 137 710 Q137 760 167.5 788 Q198 816 252 816 Q306 816 336.5 788 Q367 760 367 710 Q367 660 336.5 632 Q306 604 252 604 Z M252 648 Q313 648 313 710 Q313 772 252 772 Q191 772 191 710 Q191 648 252 648 Z " />
<glyph glyph-name="atilde" unicode="&#xe3;" horiz-adv-x="528" d="M250 547 Q336 547 388.5 504 Q441 461 441 378 L441 0 L374 0 L374 65 Q322 -11 213 -11 Q134 -11 89.5 31 Q45 73 45 148 Q45 243 124 288.5 Q203 334 369 335 L369 372 Q369 424 336.5 451.5 Q304 479 242 479 Q177 479 116 450 L97 511 Q168 547 250 547 Z M229 55 Q272 55 306 71 Q340 87 369 120 L369 275 Q240 274 179 244.5 Q118 215 118 153 Q118 105 146 80 Q174 55 229 55 Z M322 620 Q296 620 276 630.5 Q256 641 232 660 Q214 674 203 680.5 Q192 687 180 687 Q145 687 137 622 L89 622 Q91 680 115 713.5 Q139 747 182 747 Q208 747 228 736.5 Q248 726 272 707 Q290 693 301 686.5 Q312 680 324 680 Q359 680 367 745 L415 745 Q413 687 389 653.5 Q365 620 322 620 Z " />
<glyph glyph-name="ae" unicode="&#xe6;" horiz-adv-x="828" d="M777 290 Q777 265 774 248 L428 248 Q432 153 473.5 104.5 Q515 56 591 56 Q661 56 724 98 L751 40 Q721 15 677.5 1.5 Q634 -12 587 -12 Q525 -12 477.5 13 Q430 38 400 86 Q359 36 312 12.5 Q265 -11 208 -11 Q131 -11 88 31 Q45 73 45 148 Q45 240 121.5 283.5 Q198 327 359 328 L359 372 Q359 425 328 452 Q297 479 237 479 Q174 479 116 450 L97 511 Q136 531 175 539 Q214 547 245 547 Q304 547 345.5 524 Q387 501 406 458 Q431 500 473 523.5 Q515 547 569 547 Q667 547 722 479 Q777 411 777 290 Z M567 482 Q506 482 471.5 438 Q437 394 430 309 L704 309 Q703 391 667 436.5 Q631 482 567 482 Z M224 55 Q268 55 305 76 Q342 97 375 141 Q357 195 357 267 L357 268 Q235 267 176.5 239 Q118 211 118 153 Q118 105 145 80 Q172 55 224 55 Z " />
<glyph glyph-name="b" unicode="b" horiz-adv-x="574" d="M316 547 Q411 547 464 472 Q517 397 517 263 Q517 133 460.5 60 Q404 -13 304 -13 Q261 -13 224 4.5 Q187 22 161 54 L161 0 L94 0 L94 493 L94 770 L166 770 L166 473 Q220 547 316 547 Z M304 53 Q372 53 407 106 Q442 159 442 263 Q442 369 405.5 423 Q369 477 298 477 Q259 477 227 461.5 Q195 446 166 412 L166 115 Q192 86 228 69.5 Q264 53 304 53 Z " />
<glyph glyph-name="c" unicode="c" horiz-adv-x="479" d="M290 -12 Q178 -12 115.5 62 Q53 136 53 269 Q53 352 82 415 Q111 478 163.5 512.5 Q216 547 285 547 Q323 547 363 535.5 Q403 524 436 504 L408 445 Q343 480 283 480 Q210 480 169 426 Q128 372 128 275 Q128 167 170.5 111.5 Q213 56 296 56 Q358 56 415 90 L442 32 Q414 11 374 -0.5 Q334 -12 290 -12 Z " />
<glyph glyph-name="cacute" unicode="&#x107;" horiz-adv-x="479" d="M290 -12 Q178 -12 115.5 62 Q53 136 53 269 Q53 352 82 415 Q111 478 163.5 512.5 Q216 547 285 547 Q323 547 363 535.5 Q403 524 436 504 L408 445 Q343 480 283 480 Q210 480 169 426 Q128 372 128 275 Q128 167 170.5 111.5 Q213 56 296 56 Q358 56 415 90 L442 32 Q414 11 374 -0.5 Q334 -12 290 -12 Z M214 625 L317 784 L402 784 L402 774 L270 615 L214 615 L214 625 Z " />
<glyph glyph-name="ccaron" unicode="&#x10d;" horiz-adv-x="479" d="M290 -12 Q178 -12 115.5 62 Q53 136 53 269 Q53 352 82 415 Q111 478 163.5 512.5 Q216 547 285 547 Q323 547 363 535.5 Q403 524 436 504 L408 445 Q343 480 283 480 Q210 480 169 426 Q128 372 128 275 Q128 167 170.5 111.5 Q213 56 296 56 Q358 56 415 90 L442 32 Q414 11 374 -0.5 Q334 -12 290 -12 Z M404 784 L404 774 L302 615 L226 615 L124 774 L124 784 L179 784 L265 671 L352 784 L404 784 Z " />
<glyph glyph-name="ccedilla" unicode="&#xe7;" horiz-adv-x="479" d="M272 -60 Q321 -60 348 -81 Q375 -102 375 -140 Q375 -181 344.5 -204 Q314 -227 260 -227 Q205 -227 162 -204 L177 -160 Q225 -179 260 -179 Q314 -179 314 -140 Q314 -101 264 -101 Q241 -101 220 -110 L199 -86 L234 -6 Q148 11 100.5 82.5 Q53 154 53 269 Q53 352 82 415 Q111 478 163.5 512.5 Q216 547 285 547 Q323 547 363 535.5 Q403 524 436 504 L408 445 Q343 480 283 480 Q210 480 169 426 Q128 372 128 275 Q128 167 170.5 111.5 Q213 56 296 56 Q358 56 415 90 L442 32 Q414 11 374 -0.5 Q334 -12 290 -12 L285 -12 L252 -62 Q266 -60 272 -60 Z " />
<glyph glyph-name="ccircumflex" unicode="&#x109;" horiz-adv-x="479" d="M290 -12 Q178 -12 115.5 62 Q53 136 53 269 Q53 352 82 415 Q111 478 163.5 512.5 Q216 547 285 547 Q323 547 363 535.5 Q403 524 436 504 L408 445 Q343 480 283 480 Q210 480 169 426 Q128 372 128 275 Q128 167 170.5 111.5 Q213 56 296 56 Q358 56 415 90 L442 32 Q414 11 374 -0.5 Q334 -12 290 -12 Z M404 625 L404 615 L349 615 L262 728 L176 615 L124 615 L124 625 L226 784 L302 784 L404 625 Z " />
<glyph glyph-name="cdotaccent" unicode="&#x10b;" horiz-adv-x="479" d="M290 -12 Q178 -12 115.5 62 Q53 136 53 269 Q53 352 82 415 Q111 478 163.5 512.5 Q216 547 285 547 Q323 547 363 535.5 Q403 524 436 504 L408 445 Q343 480 283 480 Q210 480 169 426 Q128 372 128 275 Q128 167 170.5 111.5 Q213 56 296 56 Q358 56 415 90 L442 32 Q414 11 374 -0.5 Q334 -12 290 -12 Z M264 630 Q239 630 225.5 644 Q212 658 212 683 Q212 709 225.5 723 Q239 737 264 737 Q289 737 302.5 723 Q316 709 316 684 Q316 658 302.5 644 Q289 630 264 630 Z " />
<glyph glyph-name="d" unicode="d" horiz-adv-x="574" d="M480 770 L480 41 L480 0 L413 0 L413 68 Q386 28 346.5 7.5 Q307 -13 258 -13 Q163 -13 110 62 Q57 137 57 271 Q57 401 113.5 474 Q170 547 270 547 Q311 547 346.5 531 Q382 515 408 486 L408 770 L480 770 Z M276 57 Q315 57 347 72.5 Q379 88 408 122 L408 419 Q382 448 346 464.5 Q310 481 270 481 Q202 481 167 428 Q132 375 132 271 Q132 165 168.5 111 Q205 57 276 57 Z " />
<glyph glyph-name="eth" unicode="&#xf0;" horiz-adv-x="555" d="M337 680 Q419 614 458.5 517 Q498 420 498 286 Q498 139 440.5 63 Q383 -13 275 -13 Q167 -13 109.5 56 Q52 125 52 258 Q52 390 107.5 458.5 Q163 527 266 527 Q315 527 353.5 504.5 Q392 482 414 441 Q380 568 281 647 L160 570 L133 614 L239 676 Q198 701 152 717 L124 727 L143 780 L171 770 Q244 743 294 711 L393 773 L420 729 L337 680 Z M275 52 Q348 52 386 104.5 Q424 157 424 258 Q424 355 384.5 409.5 Q345 464 275 464 Q202 464 164.5 411.5 Q127 359 127 258 Q127 157 164.5 104.5 Q202 52 275 52 Z " />
<glyph glyph-name="dcaron" unicode="&#x10f;" horiz-adv-x="574" d="M408 770 L480 770 L480 41 L480 0 L413 0 L413 68 Q386 28 346.5 7.5 Q307 -13 258 -13 Q163 -13 110 62 Q57 137 57 271 Q57 401 113.5 474 Q170 547 270 547 Q311 547 346.5 531 Q382 515 408 486 L408 770 Z M630 770 L630 760 L603 560 L558 560 L558 770 L630 770 Z M276 57 Q315 57 347 72.5 Q379 88 408 122 L408 419 Q382 448 346 464.5 Q310 481 270 481 Q202 481 167 428 Q132 375 132 271 Q132 165 168.5 111 Q205 57 276 57 Z " />
<glyph glyph-name="dslash" unicode="&#x111;" horiz-adv-x="576" d="M550 622 L482 622 L482 0 L415 0 L415 68 Q388 28 348.5 7.5 Q309 -13 260 -13 Q164 -13 110.5 59.5 Q57 132 57 262 Q57 388 114 458.5 Q171 529 272 529 Q313 529 348.5 513 Q384 497 410 468 L410 622 L180 622 L180 675 L410 675 L410 770 L482 770 L482 675 L550 675 L550 622 Z M278 57 Q317 57 349 72.5 Q381 88 410 122 L410 401 Q385 430 348 446.5 Q311 463 272 463 Q203 463 167.5 412 Q132 361 132 262 Q132 161 169 109 Q206 57 278 57 Z " />
<glyph glyph-name="uni1E0D" unicode="&#x1e0d;" horiz-adv-x="574" d="M480 770 L480 41 L480 0 L413 0 L413 68 Q386 28 346.5 7.5 Q307 -13 258 -13 Q163 -13 110 62 Q57 137 57 271 Q57 401 113.5 474 Q170 547 270 547 Q311 547 346.5 531 Q382 515 408 486 L408 770 L480 770 Z M276 57 Q315 57 347 72.5 Q379 88 408 122 L408 419 Q382 448 346 464.5 Q310 481 270 481 Q202 481 167 428 Q132 375 132 271 Q132 165 168.5 111 Q205 57 276 57 Z M288 -204 Q263 -204 249.5 -190 Q236 -176 236 -151 Q236 -125 249.5 -111 Q263 -97 288 -97 Q313 -97 326.5 -111 Q340 -125 340 -150 Q340 -176 326.5 -190 Q313 -204 288 -204 Z " />
<glyph glyph-name="uni1E0F" unicode="&#x1e0f;" horiz-adv-x="574" d="M480 770 L480 41 L480 0 L413 0 L413 68 Q386 28 346.5 7.5 Q307 -13 258 -13 Q163 -13 110 62 Q57 137 57 271 Q57 401 113.5 474 Q170 547 270 547 Q311 547 346.5 531 Q382 515 408 486 L408 770 L480 770 Z M276 57 Q315 57 347 72.5 Q379 88 408 122 L408 419 Q382 448 346 464.5 Q310 481 270 481 Q202 481 167 428 Q132 375 132 271 Q132 165 168.5 111 Q205 57 276 57 Z M146 -108 L430 -108 L430 -166 L146 -166 L146 -108 Z " />
<glyph glyph-name="e" unicode="e" horiz-adv-x="538" d="M487 290 Q487 266 484 248 L128 248 Q132 153 174.5 104.5 Q217 56 296 56 Q371 56 434 98 L462 40 Q431 15 386.5 1.5 Q342 -12 292 -12 Q180 -12 117.5 62 Q55 136 55 267 Q55 399 113 473 Q171 547 274 547 Q375 547 431 479 Q487 411 487 290 Z M272 482 Q208 482 172.5 438.5 Q137 395 130 309 L414 309 Q413 391 375.5 436.5 Q338 482 272 482 Z " />
<glyph glyph-name="eacute" unicode="&#xe9;" horiz-adv-x="538" d="M487 290 Q487 266 484 248 L128 248 Q132 153 174.5 104.5 Q217 56 296 56 Q371 56 434 98 L462 40 Q431 15 386.5 1.5 Q342 -12 292 -12 Q180 -12 117.5 62 Q55 136 55 267 Q55 399 113 473 Q171 547 274 547 Q375 547 431 479 Q487 411 487 290 Z M272 482 Q208 482 172.5 438.5 Q137 395 130 309 L414 309 Q413 391 375.5 436.5 Q338 482 272 482 Z M224 625 L327 784 L412 784 L412 774 L280 615 L224 615 L224 625 Z " />
<glyph glyph-name="ebreve" unicode="&#x115;" horiz-adv-x="538" d="M487 290 Q487 266 484 248 L128 248 Q132 153 174.5 104.5 Q217 56 296 56 Q371 56 434 98 L462 40 Q431 15 386.5 1.5 Q342 -12 292 -12 Q180 -12 117.5 62 Q55 136 55 267 Q55 399 113 473 Q171 547 274 547 Q375 547 431 479 Q487 411 487 290 Z M272 482 Q208 482 172.5 438.5 Q137 395 130 309 L414 309 Q413 391 375.5 436.5 Q338 482 272 482 Z M274 615 Q211 615 174 653.5 Q137 692 134 760 L185 760 Q197 677 275 677 Q354 677 366 760 L414 760 Q411 692 374 653.5 Q337 615 274 615 Z " />
<glyph glyph-name="ecaron" unicode="&#x11b;" horiz-adv-x="538" d="M487 290 Q487 266 484 248 L128 248 Q132 153 174.5 104.5 Q217 56 296 56 Q371 56 434 98 L462 40 Q431 15 386.5 1.5 Q342 -12 292 -12 Q180 -12 117.5 62 Q55 136 55 267 Q55 399 113 473 Q171 547 274 547 Q375 547 431 479 Q487 411 487 290 Z M272 482 Q208 482 172.5 438.5 Q137 395 130 309 L414 309 Q413 391 375.5 436.5 Q338 482 272 482 Z M414 784 L414 774 L312 615 L236 615 L134 774 L134 784 L189 784 L275 671 L362 784 L414 784 Z " />
<glyph glyph-name="ecircumflex" unicode="&#xea;" horiz-adv-x="538" d="M487 290 Q487 266 484 248 L128 248 Q132 153 174.5 104.5 Q217 56 296 56 Q371 56 434 98 L462 40 Q431 15 386.5 1.5 Q342 -12 292 -12 Q180 -12 117.5 62 Q55 136 55 267 Q55 399 113 473 Q171 547 274 547 Q375 547 431 479 Q487 411 487 290 Z M272 482 Q208 482 172.5 438.5 Q137 395 130 309 L414 309 Q413 391 375.5 436.5 Q338 482 272 482 Z M414 625 L414 615 L359 615 L272 728 L186 615 L134 615 L134 625 L236 784 L312 784 L414 625 Z " />
<glyph glyph-name="uni1EBF" unicode="&#x1ebf;" horiz-adv-x="538" d="M539 851 L539 841 L437 714 L389 714 L389 724 L470 851 L539 851 Z M184 615 L132 615 L132 625 L236 764 L312 764 L416 625 L416 615 L361 615 L273 712 L184 615 Z M274 547 Q375 547 431 479 Q487 411 487 290 Q487 266 484 248 L128 248 Q132 153 174.5 104.5 Q217 56 296 56 Q371 56 434 98 L462 40 Q431 15 386.5 1.5 Q342 -12 292 -12 Q180 -12 117.5 62 Q55 136 55 267 Q55 399 113 473 Q171 547 274 547 Z M272 482 Q208 482 172.5 438.5 Q137 395 130 309 L414 309 Q413 391 375.5 436.5 Q338 482 272 482 Z " />
<glyph glyph-name="uni1EC7" unicode="&#x1ec7;" horiz-adv-x="538" d="M487 290 Q487 266 484 248 L128 248 Q132 153 174.5 104.5 Q217 56 296 56 Q371 56 434 98 L462 40 Q431 15 386.5 1.5 Q342 -12 292 -12 Q180 -12 117.5 62 Q55 136 55 267 Q55 399 113 473 Q171 547 274 547 Q375 547 431 479 Q487 411 487 290 Z M272 482 Q208 482 172.5 438.5 Q137 395 130 309 L414 309 Q413 391 375.5 436.5 Q338 482 272 482 Z M276 -204 Q251 -204 237.5 -190 Q224 -176 224 -151 Q224 -125 237.5 -111 Q251 -97 276 -97 Q301 -97 314.5 -111 Q328 -125 328 -150 Q328 -176 314.5 -190 Q301 -204 276 -204 Z M414 625 L414 615 L359 615 L272 728 L186 615 L134 615 L134 625 L236 784 L312 784 L414 625 Z " />
<glyph glyph-name="uni1EC1" unicode="&#x1ec1;" horiz-adv-x="538" d="M114 714 L18 841 L18 851 L87 851 L162 724 L162 714 L114 714 Z M132 625 L236 764 L312 764 L416 625 L416 615 L361 615 L273 712 L184 615 L132 615 L132 625 Z M487 290 Q487 266 484 248 L128 248 Q132 153 174.5 104.5 Q217 56 296 56 Q371 56 434 98 L462 40 Q431 15 386.5 1.5 Q342 -12 292 -12 Q180 -12 117.5 62 Q55 136 55 267 Q55 399 113 473 Q171 547 274 547 Q375 547 431 479 Q487 411 487 290 Z M272 482 Q208 482 172.5 438.5 Q137 395 130 309 L414 309 Q413 391 375.5 436.5 Q338 482 272 482 Z " />
<glyph glyph-name="uni1EC3" unicode="&#x1ec3;" horiz-adv-x="538" d="M422 877 Q461 877 482.5 859.5 Q504 842 504 810 Q504 787 493 776 Q482 765 464 758 Q452 752 446.5 747.5 Q441 743 441 735 L443 716 L385 716 Q383 728 383 738 Q383 757 392 766 Q401 775 418 782 Q430 788 436.5 793.5 Q443 799 443 809 Q443 830 413 830 Q399 830 383 825 Q367 820 354 812 L335 852 Q377 877 422 877 Z M184 615 L132 615 L132 625 L236 764 L312 764 L416 625 L416 615 L361 615 L273 712 L184 615 Z M274 547 Q375 547 431 479 Q487 411 487 290 Q487 266 484 248 L128 248 Q132 153 174.5 104.5 Q217 56 296 56 Q371 56 434 98 L462 40 Q431 15 386.5 1.5 Q342 -12 292 -12 Q180 -12 117.5 62 Q55 136 55 267 Q55 399 113 473 Q171 547 274 547 Z M272 482 Q208 482 172.5 438.5 Q137 395 130 309 L414 309 Q413 391 375.5 436.5 Q338 482 272 482 Z " />
<glyph glyph-name="uni1EC5" unicode="&#x1ec5;" horiz-adv-x="538" d="M213 864 Q177 864 172 805 L128 805 Q128 858 151.5 887.5 Q175 917 216 917 Q240 917 255.5 908 Q271 899 290 881 Q304 868 313 862 Q322 856 335 856 Q371 856 376 915 L420 915 Q420 863 396.5 833 Q373 803 332 803 Q308 803 292.5 812 Q277 821 258 839 Q244 852 235 858 Q226 864 213 864 Z M312 764 L416 625 L416 615 L361 615 L273 712 L184 615 L132 615 L132 625 L236 764 L312 764 Z M487 290 Q487 266 484 248 L128 248 Q132 153 174.5 104.5 Q217 56 296 56 Q371 56 434 98 L462 40 Q431 15 386.5 1.5 Q342 -12 292 -12 Q180 -12 117.5 62 Q55 136 55 267 Q55 399 113 473 Q171 547 274 547 Q375 547 431 479 Q487 411 487 290 Z M272 482 Q208 482 172.5 438.5 Q137 395 130 309 L414 309 Q413 391 375.5 436.5 Q338 482 272 482 Z " />
<glyph glyph-name="edieresis" unicode="&#xeb;" horiz-adv-x="538" d="M181 630 Q158 630 145 643.5 Q132 657 132 681 Q132 705 145 719 Q158 733 181 733 Q205 733 218 719.5 Q231 706 231 682 Q231 657 218 643.5 Q205 630 181 630 Z M366 630 Q343 630 330 643.5 Q317 657 317 681 Q317 705 330 719 Q343 733 366 733 Q390 733 403 719.5 Q416 706 416 682 Q416 657 403 643.5 Q390 630 366 630 Z M487 290 Q487 266 484 248 L128 248 Q132 153 174.5 104.5 Q217 56 296 56 Q371 56 434 98 L462 40 Q431 15 386.5 1.5 Q342 -12 292 -12 Q180 -12 117.5 62 Q55 136 55 267 Q55 399 113 473 Q171 547 274 547 Q375 547 431 479 Q487 411 487 290 Z M272 482 Q208 482 172.5 438.5 Q137 395 130 309 L414 309 Q413 391 375.5 436.5 Q338 482 272 482 Z " />
<glyph glyph-name="edotaccent" unicode="&#x117;" horiz-adv-x="538" d="M487 290 Q487 266 484 248 L128 248 Q132 153 174.5 104.5 Q217 56 296 56 Q371 56 434 98 L462 40 Q431 15 386.5 1.5 Q342 -12 292 -12 Q180 -12 117.5 62 Q55 136 55 267 Q55 399 113 473 Q171 547 274 547 Q375 547 431 479 Q487 411 487 290 Z M272 482 Q208 482 172.5 438.5 Q137 395 130 309 L414 309 Q413 391 375.5 436.5 Q338 482 272 482 Z M274 630 Q249 630 235.5 644 Q222 658 222 683 Q222 709 235.5 723 Q249 737 274 737 Q299 737 312.5 723 Q326 709 326 684 Q326 658 312.5 644 Q299 630 274 630 Z " />
<glyph glyph-name="uni1EB9" unicode="&#x1eb9;" horiz-adv-x="538" d="M487 290 Q487 266 484 248 L128 248 Q132 153 174.5 104.5 Q217 56 296 56 Q371 56 434 98 L462 40 Q431 15 386.5 1.5 Q342 -12 292 -12 Q180 -12 117.5 62 Q55 136 55 267 Q55 399 113 473 Q171 547 274 547 Q375 547 431 479 Q487 411 487 290 Z M272 482 Q208 482 172.5 438.5 Q137 395 130 309 L414 309 Q413 391 375.5 436.5 Q338 482 272 482 Z M276 -204 Q251 -204 237.5 -190 Q224 -176 224 -151 Q224 -125 237.5 -111 Q251 -97 276 -97 Q301 -97 314.5 -111 Q328 -125 328 -150 Q328 -176 314.5 -190 Q301 -204 276 -204 Z " />
<glyph glyph-name="egrave" unicode="&#xe8;" horiz-adv-x="538" d="M487 290 Q487 266 484 248 L128 248 Q132 153 174.5 104.5 Q217 56 296 56 Q371 56 434 98 L462 40 Q431 15 386.5 1.5 Q342 -12 292 -12 Q180 -12 117.5 62 Q55 136 55 267 Q55 399 113 473 Q171 547 274 547 Q375 547 431 479 Q487 411 487 290 Z M272 482 Q208 482 172.5 438.5 Q137 395 130 309 L414 309 Q413 391 375.5 436.5 Q338 482 272 482 Z M148 774 L148 784 L233 784 L328 625 L328 615 L272 615 L148 774 Z " />
<glyph glyph-name="uni1EBB" unicode="&#x1ebb;" horiz-adv-x="538" d="M487 290 Q487 266 484 248 L128 248 Q132 153 174.5 104.5 Q217 56 296 56 Q371 56 434 98 L462 40 Q431 15 386.5 1.5 Q342 -12 292 -12 Q180 -12 117.5 62 Q55 136 55 267 Q55 399 113 473 Q171 547 274 547 Q375 547 431 479 Q487 411 487 290 Z M272 482 Q208 482 172.5 438.5 Q137 395 130 309 L414 309 Q413 391 375.5 436.5 Q338 482 272 482 Z M244 615 Q242 627 242 638 Q242 661 251 672.5 Q260 684 278 695 Q290 701 296 707.5 Q302 714 302 725 Q302 748 272 748 Q241 748 211 728 L191 771 Q209 783 233.5 790.5 Q258 798 282 798 Q321 798 343 779.5 Q365 761 365 729 Q365 707 356 695.5 Q347 684 330 673 Q316 664 309 656.5 Q302 649 302 635 Q302 627 304 615 L244 615 Z " />
<glyph glyph-name="emacron" unicode="&#x113;" horiz-adv-x="538" d="M487 290 Q487 266 484 248 L128 248 Q132 153 174.5 104.5 Q217 56 296 56 Q371 56 434 98 L462 40 Q431 15 386.5 1.5 Q342 -12 292 -12 Q180 -12 117.5 62 Q55 136 55 267 Q55 399 113 473 Q171 547 274 547 Q375 547 431 479 Q487 411 487 290 Z M272 482 Q208 482 172.5 438.5 Q137 395 130 309 L414 309 Q413 391 375.5 436.5 Q338 482 272 482 Z M132 699 L416 699 L416 641 L132 641 L132 699 Z " />
<glyph glyph-name="eogonek" unicode="&#x119;" horiz-adv-x="538" d="M487 290 Q487 266 484 248 L128 248 Q132 153 174.5 104.5 Q217 56 296 56 Q371 56 434 98 L462 40 Q452 32 426 18 Q377 -10 349.5 -45 Q322 -80 322 -115 Q322 -159 370 -159 Q403 -159 437 -141 L458 -188 Q438 -202 412 -209.5 Q386 -217 358 -217 Q311 -217 284 -193.5 Q257 -170 257 -128 Q257 -96 274 -65.5 Q291 -35 322 -10 Q300 -12 292 -12 Q180 -12 117.5 61.5 Q55 135 55 267 Q55 399 113 473 Q171 547 274 547 Q375 547 431 479 Q487 411 487 290 Z M272 482 Q208 482 172.5 438.5 Q137 395 130 309 L414 309 Q413 391 375.5 436.5 Q338 482 272 482 Z " />
<glyph glyph-name="uni1EBD" unicode="&#x1ebd;" horiz-adv-x="538" d="M487 290 Q487 266 484 248 L128 248 Q132 153 174.5 104.5 Q217 56 296 56 Q371 56 434 98 L462 40 Q431 15 386.5 1.5 Q342 -12 292 -12 Q180 -12 117.5 62 Q55 136 55 267 Q55 399 113 473 Q171 547 274 547 Q375 547 431 479 Q487 411 487 290 Z M272 482 Q208 482 172.5 438.5 Q137 395 130 309 L414 309 Q413 391 375.5 436.5 Q338 482 272 482 Z M344 620 Q318 620 298 630.5 Q278 641 254 660 Q236 674 225 680.5 Q214 687 202 687 Q167 687 159 622 L111 622 Q113 680 137 713.5 Q161 747 204 747 Q230 747 250 736.5 Q270 726 294 707 Q312 693 323 686.5 Q334 680 346 680 Q381 680 389 745 L437 745 Q435 687 411 653.5 Q387 620 344 620 Z " />
<glyph glyph-name="f" unicode="f" horiz-adv-x="361" d="M114 473 L21 473 L21 534 L114 534 L114 602 Q114 684 161.5 729.5 Q209 775 294 775 Q325 775 345 770 L345 706 Q315 710 294 710 Q241 710 213.5 682.5 Q186 655 186 602 L186 534 L326 534 L326 473 L186 473 L186 0 L114 0 L114 473 Z " />
<glyph glyph-name="g" unicode="g" horiz-adv-x="577" d="M483 534 L483 -4 Q483 -106 422 -163 Q361 -220 252 -220 Q212 -220 173.5 -212 Q135 -204 108 -190 L130 -125 Q186 -153 252 -153 Q330 -153 370.5 -115 Q411 -77 411 -4 L411 91 Q357 17 260 17 Q165 17 111 88 Q57 159 57 286 Q57 409 114 478 Q171 547 272 547 Q316 547 353 529 Q390 511 416 478 L416 534 L483 534 Z M279 87 Q318 87 350 102.5 Q382 118 411 152 L411 419 Q384 449 348 465 Q312 481 272 481 Q203 481 167.5 432 Q132 383 132 286 Q132 188 169 137.5 Q206 87 279 87 Z " />
<glyph glyph-name="gbreve" unicode="&#x11f;" horiz-adv-x="577" d="M483 534 L483 -4 Q483 -106 422 -163 Q361 -220 252 -220 Q212 -220 173.5 -212 Q135 -204 108 -190 L130 -125 Q186 -153 252 -153 Q330 -153 370.5 -115 Q411 -77 411 -4 L411 91 Q357 17 260 17 Q165 17 111 88 Q57 159 57 286 Q57 409 114 478 Q171 547 272 547 Q316 547 353 529 Q390 511 416 478 L416 534 L483 534 Z M279 87 Q318 87 350 102.5 Q382 118 411 152 L411 419 Q384 449 348 465 Q312 481 272 481 Q203 481 167.5 432 Q132 383 132 286 Q132 188 169 137.5 Q206 87 279 87 Z M285 615 Q222 615 185 653.5 Q148 692 145 760 L196 760 Q208 677 286 677 Q365 677 377 760 L425 760 Q422 692 385 653.5 Q348 615 285 615 Z " />
<glyph glyph-name="gcaron" unicode="&#x1e7;" horiz-adv-x="577" d="M483 534 L483 -4 Q483 -106 422 -163 Q361 -220 252 -220 Q212 -220 173.5 -212 Q135 -204 108 -190 L130 -125 Q186 -153 252 -153 Q330 -153 370.5 -115 Q411 -77 411 -4 L411 91 Q357 17 260 17 Q165 17 111 88 Q57 159 57 286 Q57 409 114 478 Q171 547 272 547 Q316 547 353 529 Q390 511 416 478 L416 534 L483 534 Z M279 87 Q318 87 350 102.5 Q382 118 411 152 L411 419 Q384 449 348 465 Q312 481 272 481 Q203 481 167.5 432 Q132 383 132 286 Q132 188 169 137.5 Q206 87 279 87 Z M425 784 L425 774 L323 615 L247 615 L145 774 L145 784 L200 784 L286 671 L373 784 L425 784 Z " />
<glyph glyph-name="gcircumflex" unicode="&#x11d;" horiz-adv-x="577" d="M483 534 L483 -4 Q483 -106 422 -163 Q361 -220 252 -220 Q212 -220 173.5 -212 Q135 -204 108 -190 L130 -125 Q186 -153 252 -153 Q330 -153 370.5 -115 Q411 -77 411 -4 L411 91 Q357 17 260 17 Q165 17 111 88 Q57 159 57 286 Q57 409 114 478 Q171 547 272 547 Q316 547 353 529 Q390 511 416 478 L416 534 L483 534 Z M279 87 Q318 87 350 102.5 Q382 118 411 152 L411 419 Q384 449 348 465 Q312 481 272 481 Q203 481 167.5 432 Q132 383 132 286 Q132 188 169 137.5 Q206 87 279 87 Z M425 625 L425 615 L370 615 L283 728 L197 615 L145 615 L145 625 L247 784 L323 784 L425 625 Z " />
<glyph glyph-name="gcommaaccent" unicode="&#x123;" horiz-adv-x="577" d="M483 534 L483 -4 Q483 -106 422 -163 Q361 -220 252 -220 Q212 -220 173.5 -212 Q135 -204 108 -190 L130 -125 Q186 -153 252 -153 Q330 -153 370.5 -115 Q411 -77 411 -4 L411 91 Q357 17 260 17 Q165 17 111 88 Q57 159 57 286 Q57 409 114 478 Q171 547 272 547 Q316 547 353 529 Q390 511 416 478 L416 534 L483 534 Z M279 87 Q318 87 350 102.5 Q382 118 411 152 L411 419 Q384 449 348 465 Q312 481 272 481 Q203 481 167.5 432 Q132 383 132 286 Q132 188 169 137.5 Q206 87 279 87 Z M364 772 Q338 743 327.5 716.5 Q317 690 317 650 Q317 635 319 617 L247 617 Q245 635 245 649 Q245 694 266 729.5 Q287 765 335 803 L364 772 Z " />
<glyph glyph-name="gdotaccent" unicode="&#x121;" horiz-adv-x="577" d="M483 534 L483 -4 Q483 -106 422 -163 Q361 -220 252 -220 Q212 -220 173.5 -212 Q135 -204 108 -190 L130 -125 Q186 -153 252 -153 Q330 -153 370.5 -115 Q411 -77 411 -4 L411 91 Q357 17 260 17 Q165 17 111 88 Q57 159 57 286 Q57 409 114 478 Q171 547 272 547 Q316 547 353 529 Q390 511 416 478 L416 534 L483 534 Z M279 87 Q318 87 350 102.5 Q382 118 411 152 L411 419 Q384 449 348 465 Q312 481 272 481 Q203 481 167.5 432 Q132 383 132 286 Q132 188 169 137.5 Q206 87 279 87 Z M285 630 Q260 630 246.5 644 Q233 658 233 683 Q233 709 246.5 723 Q260 737 285 737 Q310 737 323.5 723 Q337 709 337 684 Q337 658 323.5 644 Q310 630 285 630 Z " />
<glyph glyph-name="uni1E21" unicode="&#x1e21;" horiz-adv-x="577" d="M483 534 L483 -4 Q483 -106 422 -163 Q361 -220 252 -220 Q212 -220 173.5 -212 Q135 -204 108 -190 L130 -125 Q186 -153 252 -153 Q330 -153 370.5 -115 Q411 -77 411 -4 L411 91 Q357 17 260 17 Q165 17 111 88 Q57 159 57 286 Q57 409 114 478 Q171 547 272 547 Q316 547 353 529 Q390 511 416 478 L416 534 L483 534 Z M279 87 Q318 87 350 102.5 Q382 118 411 152 L411 419 Q384 449 348 465 Q312 481 272 481 Q203 481 167.5 432 Q132 383 132 286 Q132 188 169 137.5 Q206 87 279 87 Z M143 699 L427 699 L427 641 L143 641 L143 699 Z " />
<glyph glyph-name="uni0261" unicode="&#x261;" horiz-adv-x="577" d="M483 534 L483 -4 Q483 -106 422 -163 Q361 -220 252 -220 Q212 -220 173.5 -212 Q135 -204 108 -190 L130 -125 Q186 -153 252 -153 Q330 -153 370.5 -115 Q411 -77 411 -4 L411 91 Q357 17 260 17 Q165 17 111 88 Q57 159 57 286 Q57 409 114 478 Q171 547 272 547 Q316 547 353 529 Q390 511 416 478 L416 534 L483 534 Z M279 87 Q318 87 350 102.5 Q382 118 411 152 L411 419 Q384 449 348 465 Q312 481 272 481 Q203 481 167.5 432 Q132 383 132 286 Q132 188 169 137.5 Q206 87 279 87 Z " />
<glyph glyph-name="h" unicode="h" horiz-adv-x="582" d="M326 547 Q405 547 449 502.5 Q493 458 493 378 L493 0 L421 0 L421 373 Q421 477 307 477 Q228 477 166 424 L166 0 L94 0 L94 770 L166 770 L166 482 Q233 547 326 547 Z " />
<glyph glyph-name="hbar" unicode="&#x127;" horiz-adv-x="584" d="M327 529 Q406 529 450.5 484.5 Q495 440 495 360 L495 0 L423 0 L423 355 Q423 459 308 459 Q267 459 232.5 446 Q198 433 166 406 L166 0 L94 0 L94 622 L26 622 L26 675 L94 675 L94 770 L166 770 L166 675 L396 675 L396 622 L166 622 L166 464 Q233 529 327 529 Z " />
<glyph glyph-name="uni1E2B" unicode="&#x1e2b;" horiz-adv-x="582" d="M326 547 Q405 547 449 502.5 Q493 458 493 378 L493 0 L421 0 L421 373 Q421 477 307 477 Q228 477 166 424 L166 0 L94 0 L94 770 L166 770 L166 482 Q233 547 326 547 Z M295 -222 Q232 -222 195 -183.5 Q158 -145 155 -77 L206 -77 Q218 -160 296 -160 Q375 -160 387 -77 L435 -77 Q432 -145 395 -183.5 Q358 -222 295 -222 Z " />
<glyph glyph-name="hcircumflex" unicode="&#x125;" horiz-adv-x="582" d="M129 921 L30 827 L-28 827 L-28 839 L89 972 L171 972 L288 839 L288 827 L227 827 L129 921 Z M326 547 Q405 547 449 502.5 Q493 458 493 378 L493 0 L421 0 L421 373 Q421 477 307 477 Q228 477 166 424 L166 0 L94 0 L94 770 L166 770 L166 482 Q233 547 326 547 Z " />
<glyph glyph-name="uni1E25" unicode="&#x1e25;" horiz-adv-x="582" d="M326 547 Q405 547 449 502.5 Q493 458 493 378 L493 0 L421 0 L421 373 Q421 477 307 477 Q228 477 166 424 L166 0 L94 0 L94 770 L166 770 L166 482 Q233 547 326 547 Z M295 -204 Q270 -204 256.5 -190 Q243 -176 243 -151 Q243 -125 256.5 -111 Q270 -97 295 -97 Q320 -97 333.5 -111 Q347 -125 347 -150 Q347 -176 333.5 -190 Q320 -204 295 -204 Z " />
<glyph glyph-name="i" unicode="i" horiz-adv-x="264" d="M96 534 L168 534 L168 0 L96 0 L96 534 Z M132 630 Q107 630 93.5 644 Q80 658 80 683 Q80 709 93.5 723 Q107 737 132 737 Q157 737 170.5 723 Q184 709 184 684 Q184 658 170.5 644 Q157 630 132 630 Z " />
<glyph glyph-name="dotlessi" unicode="&#x131;" horiz-adv-x="264" d="M96 534 L168 534 L168 0 L96 0 L96 534 Z " />
<glyph glyph-name="iacute" unicode="&#xed;" horiz-adv-x="264" d="M96 534 L168 534 L168 0 L96 0 L96 534 Z M82 625 L185 784 L270 784 L270 774 L138 615 L82 615 L82 625 Z " />
<glyph glyph-name="uni01D0" unicode="&#x1d0;" horiz-adv-x="264" d="M96 534 L168 534 L168 0 L96 0 L96 534 Z M272 784 L272 774 L170 615 L94 615 L-8 774 L-8 784 L47 784 L133 671 L220 784 L272 784 Z " />
<glyph glyph-name="icircumflex" unicode="&#xee;" horiz-adv-x="264" d="M96 534 L168 534 L168 0 L96 0 L96 534 Z M272 625 L272 615 L217 615 L130 728 L44 615 L-8 615 L-8 625 L94 784 L170 784 L272 625 Z " />
<glyph glyph-name="idieresis" unicode="&#xef;" horiz-adv-x="264" d="M51 630 Q28 630 15 643.5 Q2 657 2 681 Q2 705 15 719 Q28 733 51 733 Q74 733 87 719 Q100 705 100 682 Q100 657 87 643.5 Q74 630 51 630 Z M213 630 Q190 630 177 643.5 Q164 657 164 681 Q164 705 177 719 Q190 733 213 733 Q236 733 249 719 Q262 705 262 682 Q262 657 249 643.5 Q236 630 213 630 Z M96 534 L168 534 L168 0 L96 0 L96 534 Z " />
<glyph glyph-name="uni1ECB" unicode="&#x1ecb;" horiz-adv-x="264" d="M96 534 L168 534 L168 0 L96 0 L96 534 Z M132 630 Q107 630 93.5 644 Q80 658 80 683 Q80 709 93.5 723 Q107 737 132 737 Q157 737 170.5 723 Q184 709 184 684 Q184 658 170.5 644 Q157 630 132 630 Z M132 -204 Q107 -204 93.5 -190 Q80 -176 80 -151 Q80 -125 93.5 -111 Q107 -97 132 -97 Q157 -97 170.5 -111 Q184 -125 184 -150 Q184 -176 170.5 -190 Q157 -204 132 -204 Z " />
<glyph glyph-name="igrave" unicode="&#xec;" horiz-adv-x="264" d="M96 534 L168 534 L168 0 L96 0 L96 534 Z M6 774 L6 784 L91 784 L186 625 L186 615 L130 615 L6 774 Z " />
<glyph glyph-name="uni1EC9" unicode="&#x1ec9;" horiz-adv-x="264" d="M96 534 L168 534 L168 0 L96 0 L96 534 Z M102 615 Q100 627 100 638 Q100 661 109 672.5 Q118 684 136 695 Q148 701 154 707.5 Q160 714 160 725 Q160 748 130 748 Q99 748 69 728 L49 771 Q67 783 91.5 790.5 Q116 798 140 798 Q179 798 201 779.5 Q223 761 223 729 Q223 707 214 695.5 Q205 684 188 673 Q174 664 167 656.5 Q160 649 160 635 Q160 627 162 615 L102 615 Z " />
<glyph glyph-name="ij" unicode="&#x133;" horiz-adv-x="528" d="M96 534 L168 534 L168 0 L96 0 L96 534 Z M132 630 Q107 630 93.5 644 Q80 658 80 683 Q80 709 93.5 723 Q107 737 132 737 Q157 737 170.5 723 Q184 709 184 684 Q184 658 170.5 644 Q157 630 132 630 Z M223 -159 Q277 -140 306 -117.5 Q335 -95 347.5 -61.5 Q360 -28 360 26 L360 534 L432 534 L432 26 Q432 -46 415.5 -90 Q399 -134 360 -164.5 Q321 -195 248 -220 L223 -159 Z M396 630 Q371 630 357.5 644 Q344 658 344 683 Q344 709 357.5 723 Q371 737 396 737 Q421 737 434.5 723 Q448 709 448 684 Q448 658 434.5 644 Q421 630 396 630 Z " />
<glyph glyph-name="imacron" unicode="&#x12b;" horiz-adv-x="264" d="M20 699 L244 699 L244 641 L20 641 L20 699 Z M96 534 L168 534 L168 0 L96 0 L96 534 Z " />
<glyph glyph-name="iogonek" unicode="&#x12f;" horiz-adv-x="264" d="M132 630 Q107 630 93.5 644 Q80 658 80 683 Q80 709 93.5 723 Q107 737 132 737 Q157 737 170.5 723 Q184 709 184 684 Q184 658 170.5 644 Q157 630 132 630 Z M235 -188 Q215 -202 189 -209.5 Q163 -217 135 -217 Q88 -217 61 -193 Q34 -169 34 -128 Q34 -94 52 -60 Q70 -26 102 0 L96 0 L96 534 L168 534 L168 0 Q99 -58 99 -115 Q99 -159 147 -159 Q180 -159 214 -141 L235 -188 Z " />
<glyph glyph-name="itilde" unicode="&#x129;" horiz-adv-x="264" d="M190 620 Q166 620 150.5 630 Q135 640 116 660 Q102 675 93 681.5 Q84 688 71 688 Q54 688 44.5 672 Q35 656 33 622 L-14 622 Q-14 681 9 714 Q32 747 74 747 Q98 747 113.5 737 Q129 727 148 707 Q162 692 171 685.5 Q180 679 193 679 Q210 679 219.5 695 Q229 711 231 745 L278 745 Q278 686 255 653 Q232 620 190 620 Z M96 534 L168 534 L168 0 L96 0 L96 534 Z " />
<glyph glyph-name="j" unicode="j" horiz-adv-x="264" d="M-41 -159 Q13 -140 42 -117.5 Q71 -95 83.5 -61.5 Q96 -28 96 26 L96 534 L168 534 L168 26 Q168 -46 151.5 -90 Q135 -134 96 -164.5 Q57 -195 -16 -220 L-41 -159 Z M132 630 Q107 630 93.5 644 Q80 658 80 683 Q80 709 93.5 723 Q107 737 132 737 Q157 737 170.5 723 Q184 709 184 684 Q184 658 170.5 644 Q157 630 132 630 Z " />
<glyph glyph-name="uni0237" unicode="&#x237;" horiz-adv-x="264" d="M-41 -159 Q13 -140 42 -117.5 Q71 -95 83.5 -61.5 Q96 -28 96 26 L96 534 L168 534 L168 26 Q168 -46 151.5 -90 Q135 -134 96 -164.5 Q57 -195 -16 -220 L-41 -159 Z " />
<glyph glyph-name="jcircumflex" unicode="&#x135;" horiz-adv-x="264" d="M-41 -159 Q13 -140 42 -117.5 Q71 -95 83.5 -61.5 Q96 -28 96 26 L96 534 L168 534 L168 26 Q168 -46 151.5 -90 Q135 -134 96 -164.5 Q57 -195 -16 -220 L-41 -159 Z M272 625 L272 615 L217 615 L130 728 L44 615 L-8 615 L-8 625 L94 784 L170 784 L272 625 Z " />
<glyph glyph-name="k" unicode="k" horiz-adv-x="535" d="M244 253 L166 167 L166 0 L94 0 L94 770 L166 770 L166 256 L407 534 L496 534 L294 309 L507 0 L418 0 L244 253 Z " />
<glyph glyph-name="kcommaaccent" unicode="&#x137;" horiz-adv-x="535" d="M244 253 L166 167 L166 0 L94 0 L94 770 L166 770 L166 256 L407 534 L496 534 L294 309 L507 0 L418 0 L244 253 Z M206 -238 Q232 -209 242.5 -182.5 Q253 -156 253 -116 Q253 -101 251 -83 L323 -83 Q325 -101 325 -115 Q325 -160 304 -195.5 Q283 -231 235 -269 L206 -238 Z " />
<glyph glyph-name="kgreenlandic" unicode="&#x138;" horiz-adv-x="535" d="M244 253 L166 167 L166 0 L94 0 L94 534 L166 534 L166 256 L407 534 L496 534 L294 309 L507 0 L418 0 L244 253 Z " />
<glyph glyph-name="l" unicode="l" horiz-adv-x="304" d="M204 -6 Q92 -6 92 109 L92 770 L164 770 L164 112 Q164 84 177 71.5 Q190 59 219 59 Q236 59 259 63 L266 2 Q236 -6 204 -6 Z " />
<glyph glyph-name="lacute" unicode="&#x13a;" horiz-adv-x="304" d="M66 839 L219 972 L314 972 L314 960 L132 827 L66 827 L66 839 Z M204 -6 Q92 -6 92 109 L92 770 L164 770 L164 112 Q164 84 177 71.5 Q190 59 219 59 Q236 59 259 63 L266 2 Q236 -6 204 -6 Z " />
<glyph glyph-name="lcaron" unicode="&#x13e;" horiz-adv-x="306" d="M204 -6 Q92 -6 92 109 L92 770 L164 770 L164 112 Q164 84 177 71.5 Q190 59 219 59 Q236 59 259 63 L266 2 Q236 -6 204 -6 Z M251 770 L323 770 L323 760 L296 560 L251 560 L251 770 Z " />
<glyph glyph-name="lcommaaccent" unicode="&#x13c;" horiz-adv-x="304" d="M204 -6 Q92 -6 92 109 L92 770 L164 770 L164 112 Q164 84 177 71.5 Q190 59 219 59 Q236 59 259 63 L266 2 Q236 -6 204 -6 Z M93 -238 Q119 -209 129.5 -182.5 Q140 -156 140 -116 Q140 -101 138 -83 L210 -83 Q212 -101 212 -115 Q212 -160 191 -195.5 Q170 -231 122 -269 L93 -238 Z " />
<glyph glyph-name="ldot" unicode="&#x140;" horiz-adv-x="373" d="M204 -6 Q92 -6 92 109 L92 770 L164 770 L164 112 Q164 84 177 71.5 Q190 59 219 59 Q236 59 259 63 L266 2 Q236 -6 204 -6 Z M314 335 Q289 335 275.5 349 Q262 363 262 388 Q262 414 275.5 428 Q289 442 314 442 Q339 442 352.5 428 Q366 414 366 389 Q366 363 352.5 349 Q339 335 314 335 Z " />
<glyph glyph-name="uni1E37" unicode="&#x1e37;" horiz-adv-x="304" d="M204 -6 Q92 -6 92 109 L92 770 L164 770 L164 112 Q164 84 177 71.5 Q190 59 219 59 Q236 59 259 63 L266 2 Q236 -6 204 -6 Z M174 -204 Q149 -204 135.5 -190 Q122 -176 122 -151 Q122 -125 135.5 -111 Q149 -97 174 -97 Q199 -97 212.5 -111 Q226 -125 226 -150 Q226 -176 212.5 -190 Q199 -204 174 -204 Z " />
<glyph glyph-name="uni1E39" unicode="&#x1e39;" horiz-adv-x="304" d="M16 915 L240 915 L240 857 L16 857 L16 915 Z M204 -6 Q92 -6 92 109 L92 770 L164 770 L164 112 Q164 84 177 71.5 Q190 59 219 59 Q236 59 259 63 L266 2 Q236 -6 204 -6 Z M174 -204 Q149 -204 135.5 -190 Q122 -176 122 -151 Q122 -125 135.5 -111 Q149 -97 174 -97 Q199 -97 212.5 -111 Q226 -125 226 -150 Q226 -176 212.5 -190 Q199 -204 174 -204 Z " />
<glyph glyph-name="uni1E3B" unicode="&#x1e3b;" horiz-adv-x="304" d="M204 -6 Q92 -6 92 109 L92 770 L164 770 L164 112 Q164 84 177 71.5 Q190 59 219 59 Q236 59 259 63 L266 2 Q236 -6 204 -6 Z M62 -100 L286 -100 L286 -158 L62 -158 L62 -100 Z " />
<glyph glyph-name="lslash" unicode="&#x142;" horiz-adv-x="342" d="M188 396 L188 112 Q188 84 201 71.5 Q214 59 243 59 Q260 59 283 63 L290 2 Q260 -6 228 -6 Q116 -6 116 109 L116 346 L40 291 L30 291 L30 355 L116 414 L116 770 L188 770 L188 464 L285 534 L295 534 L295 470 L188 396 Z " />
<glyph glyph-name="m" unicode="m" horiz-adv-x="883" d="M635 547 Q710 547 752 502.5 Q794 458 794 378 L794 0 L722 0 L722 373 Q722 424 695 450.5 Q668 477 616 477 Q543 477 477 421 Q481 404 481 378 L481 0 L409 0 L409 373 Q409 424 381.5 450.5 Q354 477 302 477 Q264 477 231 464 Q198 451 166 424 L166 0 L94 0 L94 534 L161 534 L161 477 Q228 547 321 547 Q372 547 409 525.5 Q446 504 464 465 Q535 547 635 547 Z " />
<glyph glyph-name="uni1E43" unicode="&#x1e43;" horiz-adv-x="883" d="M635 547 Q710 547 752 502.5 Q794 458 794 378 L794 0 L722 0 L722 373 Q722 424 695 450.5 Q668 477 616 477 Q543 477 477 421 Q481 404 481 378 L481 0 L409 0 L409 373 Q409 424 381.5 450.5 Q354 477 302 477 Q264 477 231 464 Q198 451 166 424 L166 0 L94 0 L94 534 L161 534 L161 477 Q228 547 321 547 Q372 547 409 525.5 Q446 504 464 465 Q535 547 635 547 Z M444 -204 Q419 -204 405.5 -190 Q392 -176 392 -151 Q392 -125 405.5 -111 Q419 -97 444 -97 Q469 -97 482.5 -111 Q496 -125 496 -150 Q496 -176 482.5 -190 Q469 -204 444 -204 Z " />
<glyph glyph-name="n" unicode="n" horiz-adv-x="580" d="M325 547 Q403 547 447 502 Q491 457 491 378 L491 0 L419 0 L419 373 Q419 424 390 450.5 Q361 477 306 477 Q266 477 232 464.5 Q198 452 166 424 L166 0 L94 0 L94 534 L161 534 L161 477 Q228 547 325 547 Z " />
<glyph glyph-name="nacute" unicode="&#x144;" horiz-adv-x="580" d="M325 547 Q403 547 447 502 Q491 457 491 378 L491 0 L419 0 L419 373 Q419 424 390 450.5 Q361 477 306 477 Q266 477 232 464.5 Q198 452 166 424 L166 0 L94 0 L94 534 L161 534 L161 477 Q228 547 325 547 Z M243 625 L346 784 L431 784 L431 774 L299 615 L243 615 L243 625 Z " />
<glyph glyph-name="napostrophe" unicode="&#x149;" horiz-adv-x="580" d="M325 547 Q403 547 447 502 Q491 457 491 378 L491 0 L419 0 L419 373 Q419 424 390 450.5 Q361 477 306 477 Q266 477 232 464.5 Q198 452 166 424 L166 0 L94 0 L94 534 L161 534 L161 477 Q228 547 325 547 Z M-54 581 Q-22 615 -8 649.5 Q6 684 6 729 Q6 748 4 770 L74 770 Q76 748 76 730 Q76 679 51.5 635.5 Q27 592 -26 551 L-54 581 Z " />
<glyph glyph-name="ncaron" unicode="&#x148;" horiz-adv-x="580" d="M325 547 Q403 547 447 502 Q491 457 491 378 L491 0 L419 0 L419 373 Q419 424 390 450.5 Q361 477 306 477 Q266 477 232 464.5 Q198 452 166 424 L166 0 L94 0 L94 534 L161 534 L161 477 Q228 547 325 547 Z M433 784 L433 774 L331 615 L255 615 L153 774 L153 784 L208 784 L294 671 L381 784 L433 784 Z " />
<glyph glyph-name="ncommaaccent" unicode="&#x146;" horiz-adv-x="580" d="M325 547 Q403 547 447 502 Q491 457 491 378 L491 0 L419 0 L419 373 Q419 424 390 450.5 Q361 477 306 477 Q266 477 232 464.5 Q198 452 166 424 L166 0 L94 0 L94 534 L161 534 L161 477 Q228 547 325 547 Z M213 -238 Q239 -209 249.5 -182.5 Q260 -156 260 -116 Q260 -101 258 -83 L330 -83 Q332 -101 332 -115 Q332 -160 311 -195.5 Q290 -231 242 -269 L213 -238 Z " />
<glyph glyph-name="uni1E45" unicode="&#x1e45;" horiz-adv-x="580" d="M325 547 Q403 547 447 502 Q491 457 491 378 L491 0 L419 0 L419 373 Q419 424 390 450.5 Q361 477 306 477 Q266 477 232 464.5 Q198 452 166 424 L166 0 L94 0 L94 534 L161 534 L161 477 Q228 547 325 547 Z M293 630 Q268 630 254.5 644 Q241 658 241 683 Q241 709 254.5 723 Q268 737 293 737 Q318 737 331.5 723 Q345 709 345 684 Q345 658 331.5 644 Q318 630 293 630 Z " />
<glyph glyph-name="uni1E47" unicode="&#x1e47;" horiz-adv-x="580" d="M325 547 Q403 547 447 502 Q491 457 491 378 L491 0 L419 0 L419 373 Q419 424 390 450.5 Q361 477 306 477 Q266 477 232 464.5 Q198 452 166 424 L166 0 L94 0 L94 534 L161 534 L161 477 Q228 547 325 547 Z M294 -204 Q269 -204 255.5 -190 Q242 -176 242 -151 Q242 -125 255.5 -111 Q269 -97 294 -97 Q319 -97 332.5 -111 Q346 -125 346 -150 Q346 -176 332.5 -190 Q319 -204 294 -204 Z " />
<glyph glyph-name="uni1E49" unicode="&#x1e49;" horiz-adv-x="580" d="M325 547 Q403 547 447 502 Q491 457 491 378 L491 0 L419 0 L419 373 Q419 424 390 450.5 Q361 477 306 477 Q266 477 232 464.5 Q198 452 166 424 L166 0 L94 0 L94 534 L161 534 L161 477 Q228 547 325 547 Z M152 -108 L436 -108 L436 -166 L152 -166 L152 -108 Z " />
<glyph glyph-name="ntilde" unicode="&#xf1;" horiz-adv-x="580" d="M325 547 Q403 547 447 502 Q491 457 491 378 L491 0 L419 0 L419 373 Q419 424 390 450.5 Q361 477 306 477 Q266 477 232 464.5 Q198 452 166 424 L166 0 L94 0 L94 534 L161 534 L161 477 Q228 547 325 547 Z M363 620 Q337 620 317 630.5 Q297 641 273 660 Q255 674 244 680.5 Q233 687 221 687 Q186 687 178 622 L130 622 Q132 680 156 713.5 Q180 747 223 747 Q249 747 269 736.5 Q289 726 313 707 Q331 693 342 686.5 Q353 680 365 680 Q400 680 408 745 L456 745 Q454 687 430 653.5 Q406 620 363 620 Z " />
<glyph glyph-name="o" unicode="o" horiz-adv-x="555" d="M277 -13 Q171 -13 114 58.5 Q57 130 57 267 Q57 404 114 475.5 Q171 547 278 547 Q384 547 441 475.5 Q498 404 498 267 Q498 130 441 58.5 Q384 -13 277 -13 Z M277 52 Q349 52 386 106.5 Q423 161 423 267 Q423 373 386 427.5 Q349 482 278 482 Q206 482 169 427.5 Q132 373 132 267 Q132 161 169 106.5 Q206 52 277 52 Z " />
<glyph glyph-name="oacute" unicode="&#xf3;" horiz-adv-x="555" d="M277 -13 Q171 -13 114 58.5 Q57 130 57 267 Q57 404 114 475.5 Q171 547 278 547 Q384 547 441 475.5 Q498 404 498 267 Q498 130 441 58.5 Q384 -13 277 -13 Z M277 52 Q349 52 386 106.5 Q423 161 423 267 Q423 373 386 427.5 Q349 482 278 482 Q206 482 169 427.5 Q132 373 132 267 Q132 161 169 106.5 Q206 52 277 52 Z M228 625 L331 784 L416 784 L416 774 L284 615 L228 615 L228 625 Z " />
<glyph glyph-name="uni01D2" unicode="&#x1d2;" horiz-adv-x="555" d="M277 -13 Q171 -13 114 58.5 Q57 130 57 267 Q57 404 114 475.5 Q171 547 278 547 Q384 547 441 475.5 Q498 404 498 267 Q498 130 441 58.5 Q384 -13 277 -13 Z M277 52 Q349 52 386 106.5 Q423 161 423 267 Q423 373 386 427.5 Q349 482 278 482 Q206 482 169 427.5 Q132 373 132 267 Q132 161 169 106.5 Q206 52 277 52 Z M418 784 L418 774 L316 615 L240 615 L138 774 L138 784 L193 784 L279 671 L366 784 L418 784 Z " />
<glyph glyph-name="ocircumflex" unicode="&#xf4;" horiz-adv-x="555" d="M277 -13 Q171 -13 114 58.5 Q57 130 57 267 Q57 404 114 475.5 Q171 547 278 547 Q384 547 441 475.5 Q498 404 498 267 Q498 130 441 58.5 Q384 -13 277 -13 Z M277 52 Q349 52 386 106.5 Q423 161 423 267 Q423 373 386 427.5 Q349 482 278 482 Q206 482 169 427.5 Q132 373 132 267 Q132 161 169 106.5 Q206 52 277 52 Z M418 625 L418 615 L363 615 L276 728 L190 615 L138 615 L138 625 L240 784 L316 784 L418 625 Z " />
<glyph glyph-name="uni1ED1" unicode="&#x1ed1;" horiz-adv-x="555" d="M543 851 L543 841 L441 714 L393 714 L393 724 L474 851 L543 851 Z M188 615 L136 615 L136 625 L240 764 L316 764 L420 625 L420 615 L365 615 L277 712 L188 615 Z M278 547 Q384 547 441 475.5 Q498 404 498 267 Q498 130 441 58.5 Q384 -13 277 -13 Q171 -13 114 58.5 Q57 130 57 267 Q57 404 114 475.5 Q171 547 278 547 Z M277 52 Q349 52 386 106.5 Q423 161 423 267 Q423 373 386 427.5 Q349 482 278 482 Q206 482 169 427.5 Q132 373 132 267 Q132 161 169 106.5 Q206 52 277 52 Z " />
<glyph glyph-name="uni1ED9" unicode="&#x1ed9;" horiz-adv-x="555" d="M277 -13 Q171 -13 114 58.5 Q57 130 57 267 Q57 404 114 475.5 Q171 547 278 547 Q384 547 441 475.5 Q498 404 498 267 Q498 130 441 58.5 Q384 -13 277 -13 Z M277 52 Q349 52 386 106.5 Q423 161 423 267 Q423 373 386 427.5 Q349 482 278 482 Q206 482 169 427.5 Q132 373 132 267 Q132 161 169 106.5 Q206 52 277 52 Z M279 -204 Q254 -204 240.5 -190 Q227 -176 227 -151 Q227 -125 240.5 -111 Q254 -97 279 -97 Q304 -97 317.5 -111 Q331 -125 331 -150 Q331 -176 317.5 -190 Q304 -204 279 -204 Z M418 625 L418 615 L363 615 L276 728 L190 615 L138 615 L138 625 L240 784 L316 784 L418 625 Z " />
<glyph glyph-name="uni1ED3" unicode="&#x1ed3;" horiz-adv-x="555" d="M118 714 L22 841 L22 851 L91 851 L166 724 L166 714 L118 714 Z M136 625 L240 764 L316 764 L420 625 L420 615 L365 615 L277 712 L188 615 L136 615 L136 625 Z M278 547 Q384 547 441 475.5 Q498 404 498 267 Q498 130 441 58.5 Q384 -13 277 -13 Q171 -13 114 58.5 Q57 130 57 267 Q57 404 114 475.5 Q171 547 278 547 Z M277 52 Q349 52 386 106.5 Q423 161 423 267 Q423 373 386 427.5 Q349 482 278 482 Q206 482 169 427.5 Q132 373 132 267 Q132 161 169 106.5 Q206 52 277 52 Z " />
<glyph glyph-name="uni1ED5" unicode="&#x1ed5;" horiz-adv-x="555" d="M417 830 Q403 830 387 825 Q371 820 358 812 L339 852 Q381 877 426 877 Q465 877 486.5 859.5 Q508 842 508 810 Q508 787 497 776 Q486 765 468 758 Q456 752 450.5 747.5 Q445 743 445 735 L447 716 L389 716 Q387 728 387 738 Q387 757 396 766 Q405 775 422 782 Q434 788 440.5 793.5 Q447 799 447 809 Q447 830 417 830 Z M188 615 L136 615 L136 625 L240 764 L316 764 L420 625 L420 615 L365 615 L277 712 L188 615 Z M278 547 Q384 547 441 475.5 Q498 404 498 267 Q498 130 441 58.5 Q384 -13 277 -13 Q171 -13 114 58.5 Q57 130 57 267 Q57 404 114 475.5 Q171 547 278 547 Z M277 52 Q349 52 386 106.5 Q423 161 423 267 Q423 373 386 427.5 Q349 482 278 482 Q206 482 169 427.5 Q132 373 132 267 Q132 161 169 106.5 Q206 52 277 52 Z " />
<glyph glyph-name="uni1ED7" unicode="&#x1ed7;" horiz-adv-x="555" d="M217 864 Q181 864 176 805 L132 805 Q132 858 155.5 887.5 Q179 917 220 917 Q244 917 259.5 908 Q275 899 294 881 Q308 868 317 862 Q326 856 339 856 Q375 856 380 915 L424 915 Q424 863 400.5 833 Q377 803 336 803 Q312 803 296.5 812 Q281 821 262 839 Q248 852 239 858 Q230 864 217 864 Z M316 764 L420 625 L420 615 L365 615 L277 712 L188 615 L136 615 L136 625 L240 764 L316 764 Z M278 547 Q384 547 441 475.5 Q498 404 498 267 Q498 130 441 58.5 Q384 -13 277 -13 Q171 -13 114 58.5 Q57 130 57 267 Q57 404 114 475.5 Q171 547 278 547 Z M277 52 Q349 52 386 106.5 Q423 161 423 267 Q423 373 386 427.5 Q349 482 278 482 Q206 482 169 427.5 Q132 373 132 267 Q132 161 169 106.5 Q206 52 277 52 Z " />
<glyph glyph-name="odieresis" unicode="&#xf6;" horiz-adv-x="555" d="M185 630 Q162 630 149 643.5 Q136 657 136 681 Q136 705 149 719 Q162 733 185 733 Q209 733 222 719.5 Q235 706 235 682 Q235 657 222 643.5 Q209 630 185 630 Z M370 630 Q347 630 334 643.5 Q321 657 321 681 Q321 705 334 719 Q347 733 370 733 Q394 733 407 719.5 Q420 706 420 682 Q420 657 407 643.5 Q394 630 370 630 Z M277 -13 Q171 -13 114 58.5 Q57 130 57 267 Q57 404 114 475.5 Q171 547 278 547 Q384 547 441 475.5 Q498 404 498 267 Q498 130 441 58.5 Q384 -13 277 -13 Z M277 52 Q349 52 386 106.5 Q423 161 423 267 Q423 373 386 427.5 Q349 482 278 482 Q206 482 169 427.5 Q132 373 132 267 Q132 161 169 106.5 Q206 52 277 52 Z " />
<glyph glyph-name="uni1ECD" unicode="&#x1ecd;" horiz-adv-x="555" d="M277 -13 Q171 -13 114 58.5 Q57 130 57 267 Q57 404 114 475.5 Q171 547 278 547 Q384 547 441 475.5 Q498 404 498 267 Q498 130 441 58.5 Q384 -13 277 -13 Z M277 52 Q349 52 386 106.5 Q423 161 423 267 Q423 373 386 427.5 Q349 482 278 482 Q206 482 169 427.5 Q132 373 132 267 Q132 161 169 106.5 Q206 52 277 52 Z M279 -204 Q254 -204 240.5 -190 Q227 -176 227 -151 Q227 -125 240.5 -111 Q254 -97 279 -97 Q304 -97 317.5 -111 Q331 -125 331 -150 Q331 -176 317.5 -190 Q304 -204 279 -204 Z " />
<glyph glyph-name="ograve" unicode="&#xf2;" horiz-adv-x="555" d="M277 -13 Q171 -13 114 58.5 Q57 130 57 267 Q57 404 114 475.5 Q171 547 278 547 Q384 547 441 475.5 Q498 404 498 267 Q498 130 441 58.5 Q384 -13 277 -13 Z M277 52 Q349 52 386 106.5 Q423 161 423 267 Q423 373 386 427.5 Q349 482 278 482 Q206 482 169 427.5 Q132 373 132 267 Q132 161 169 106.5 Q206 52 277 52 Z M152 774 L152 784 L237 784 L332 625 L332 615 L276 615 L152 774 Z " />
<glyph glyph-name="uni1ECF" unicode="&#x1ecf;" horiz-adv-x="555" d="M277 -13 Q171 -13 114 58.5 Q57 130 57 267 Q57 404 114 475.5 Q171 547 278 547 Q384 547 441 475.5 Q498 404 498 267 Q498 130 441 58.5 Q384 -13 277 -13 Z M277 52 Q349 52 386 106.5 Q423 161 423 267 Q423 373 386 427.5 Q349 482 278 482 Q206 482 169 427.5 Q132 373 132 267 Q132 161 169 106.5 Q206 52 277 52 Z M248 615 Q246 627 246 638 Q246 661 255 672.5 Q264 684 282 695 Q294 701 300 707.5 Q306 714 306 725 Q306 748 276 748 Q245 748 215 728 L195 771 Q213 783 237.5 790.5 Q262 798 286 798 Q325 798 347 779.5 Q369 761 369 729 Q369 707 360 695.5 Q351 684 334 673 Q320 664 313 656.5 Q306 649 306 635 Q306 627 308 615 L248 615 Z " />
<glyph glyph-name="ohorn" unicode="&#x1a1;" horiz-adv-x="565" d="M563 614 Q563 553 530.5 522.5 Q498 492 429 487 Q498 418 498 267 Q498 130 441 58.5 Q384 -13 278 -13 Q171 -13 114 58.5 Q57 130 57 267 Q57 404 114 475.5 Q171 547 278 547 Q304 547 338 541 Q366 534 397 534 Q453 534 475.5 551.5 Q498 569 498 612 Q498 637 493 673 L558 673 Q563 643 563 614 Z M278 52 Q349 52 386 106.5 Q423 161 423 267 Q423 373 386 427.5 Q349 482 278 482 Q206 482 169 427.5 Q132 373 132 267 Q132 161 169 106.5 Q206 52 278 52 Z " />
<glyph glyph-name="uni1EDB" unicode="&#x1edb;" horiz-adv-x="565" d="M563 614 Q563 553 530.5 522.5 Q498 492 429 487 Q498 418 498 267 Q498 130 441 58.5 Q384 -13 278 -13 Q171 -13 114 58.5 Q57 130 57 267 Q57 404 114 475.5 Q171 547 278 547 Q304 547 338 541 Q366 534 397 534 Q453 534 475.5 551.5 Q498 569 498 612 Q498 637 493 673 L558 673 Q563 643 563 614 Z M278 52 Q349 52 386 106.5 Q423 161 423 267 Q423 373 386 427.5 Q349 482 278 482 Q206 482 169 427.5 Q132 373 132 267 Q132 161 169 106.5 Q206 52 278 52 Z M228 625 L331 784 L416 784 L416 774 L284 615 L228 615 L228 625 Z " />
<glyph glyph-name="uni1EE3" unicode="&#x1ee3;" horiz-adv-x="565" d="M563 614 Q563 553 530.5 522.5 Q498 492 429 487 Q498 418 498 267 Q498 130 441 58.5 Q384 -13 278 -13 Q171 -13 114 58.5 Q57 130 57 267 Q57 404 114 475.5 Q171 547 278 547 Q304 547 338 541 Q366 534 397 534 Q453 534 475.5 551.5 Q498 569 498 612 Q498 637 493 673 L558 673 Q563 643 563 614 Z M278 52 Q349 52 386 106.5 Q423 161 423 267 Q423 373 386 427.5 Q349 482 278 482 Q206 482 169 427.5 Q132 373 132 267 Q132 161 169 106.5 Q206 52 278 52 Z M279 -204 Q254 -204 240.5 -190 Q227 -176 227 -151 Q227 -125 240.5 -111 Q254 -97 279 -97 Q304 -97 317.5 -111 Q331 -125 331 -150 Q331 -176 317.5 -190 Q304 -204 279 -204 Z " />
<glyph glyph-name="uni1EDD" unicode="&#x1edd;" horiz-adv-x="565" d="M563 614 Q563 553 530.5 522.5 Q498 492 429 487 Q498 418 498 267 Q498 130 441 58.5 Q384 -13 278 -13 Q171 -13 114 58.5 Q57 130 57 267 Q57 404 114 475.5 Q171 547 278 547 Q304 547 338 541 Q366 534 397 534 Q453 534 475.5 551.5 Q498 569 498 612 Q498 637 493 673 L558 673 Q563 643 563 614 Z M278 52 Q349 52 386 106.5 Q423 161 423 267 Q423 373 386 427.5 Q349 482 278 482 Q206 482 169 427.5 Q132 373 132 267 Q132 161 169 106.5 Q206 52 278 52 Z M152 774 L152 784 L237 784 L332 625 L332 615 L276 615 L152 774 Z " />
<glyph glyph-name="uni1EDF" unicode="&#x1edf;" horiz-adv-x="565" d="M563 614 Q563 553 530.5 522.5 Q498 492 429 487 Q498 418 498 267 Q498 130 441 58.5 Q384 -13 278 -13 Q171 -13 114 58.5 Q57 130 57 267 Q57 404 114 475.5 Q171 547 278 547 Q304 547 338 541 Q366 534 397 534 Q453 534 475.5 551.5 Q498 569 498 612 Q498 637 493 673 L558 673 Q563 643 563 614 Z M278 52 Q349 52 386 106.5 Q423 161 423 267 Q423 373 386 427.5 Q349 482 278 482 Q206 482 169 427.5 Q132 373 132 267 Q132 161 169 106.5 Q206 52 278 52 Z M248 615 Q246 627 246 638 Q246 661 255 672.5 Q264 684 282 695 Q294 701 300 707.5 Q306 714 306 725 Q306 748 276 748 Q245 748 215 728 L195 771 Q213 783 237.5 790.5 Q262 798 286 798 Q325 798 347 779.5 Q369 761 369 729 Q369 707 360 695.5 Q351 684 334 673 Q320 664 313 656.5 Q306 649 306 635 Q306 627 308 615 L248 615 Z " />
<glyph glyph-name="uni1EE1" unicode="&#x1ee1;" horiz-adv-x="565" d="M563 614 Q563 553 530.5 522.5 Q498 492 429 487 Q498 418 498 267 Q498 130 441 58.5 Q384 -13 278 -13 Q171 -13 114 58.5 Q57 130 57 267 Q57 404 114 475.5 Q171 547 278 547 Q304 547 338 541 Q366 534 397 534 Q453 534 475.5 551.5 Q498 569 498 612 Q498 637 493 673 L558 673 Q563 643 563 614 Z M278 52 Q349 52 386 106.5 Q423 161 423 267 Q423 373 386 427.5 Q349 482 278 482 Q206 482 169 427.5 Q132 373 132 267 Q132 161 169 106.5 Q206 52 278 52 Z M348 620 Q322 620 302 630.5 Q282 641 258 660 Q240 674 229 680.5 Q218 687 206 687 Q171 687 163 622 L115 622 Q117 680 141 713.5 Q165 747 208 747 Q234 747 254 736.5 Q274 726 298 707 Q316 693 327 686.5 Q338 680 350 680 Q385 680 393 745 L441 745 Q439 687 415 653.5 Q391 620 348 620 Z " />
<glyph glyph-name="ohungarumlaut" unicode="&#x151;" horiz-adv-x="555" d="M277 -13 Q171 -13 114 58.5 Q57 130 57 267 Q57 404 114 475.5 Q171 547 278 547 Q384 547 441 475.5 Q498 404 498 267 Q498 130 441 58.5 Q384 -13 277 -13 Z M277 52 Q349 52 386 106.5 Q423 161 423 267 Q423 373 386 427.5 Q349 482 278 482 Q206 482 169 427.5 Q132 373 132 267 Q132 161 169 106.5 Q206 52 277 52 Z M171 625 L233 784 L310 784 L310 774 L219 615 L171 615 L171 625 Z M312 625 L374 784 L451 784 L451 774 L360 615 L312 615 L312 625 Z " />
<glyph glyph-name="omacron" unicode="&#x14d;" horiz-adv-x="555" d="M277 -13 Q171 -13 114 58.5 Q57 130 57 267 Q57 404 114 475.5 Q171 547 278 547 Q384 547 441 475.5 Q498 404 498 267 Q498 130 441 58.5 Q384 -13 277 -13 Z M277 52 Q349 52 386 106.5 Q423 161 423 267 Q423 373 386 427.5 Q349 482 278 482 Q206 482 169 427.5 Q132 373 132 267 Q132 161 169 106.5 Q206 52 277 52 Z M136 699 L420 699 L420 641 L136 641 L136 699 Z " />
<glyph glyph-name="oslash" unicode="&#xf8;" horiz-adv-x="555" d="M528 534 L458 448 Q498 379 498 267 Q498 130 441 58.5 Q384 -13 278 -13 Q188 -13 132 41 L92 -10 L27 -10 L27 0 L97 86 Q57 155 57 266 Q57 404 114 475.5 Q171 547 278 547 Q369 547 423 493 L463 544 L528 544 L528 534 Z M278 484 Q205 484 167.5 429 Q130 374 130 267 Q130 194 145 146 L382 441 Q346 484 278 484 Z M277 50 Q350 50 387.5 105 Q425 160 425 267 Q425 340 410 388 L173 93 Q209 50 277 50 Z " />
<glyph glyph-name="otilde" unicode="&#xf5;" horiz-adv-x="555" d="M277 -13 Q171 -13 114 58.5 Q57 130 57 267 Q57 404 114 475.5 Q171 547 278 547 Q384 547 441 475.5 Q498 404 498 267 Q498 130 441 58.5 Q384 -13 277 -13 Z M277 52 Q349 52 386 106.5 Q423 161 423 267 Q423 373 386 427.5 Q349 482 278 482 Q206 482 169 427.5 Q132 373 132 267 Q132 161 169 106.5 Q206 52 277 52 Z M348 620 Q322 620 302 630.5 Q282 641 258 660 Q240 674 229 680.5 Q218 687 206 687 Q171 687 163 622 L115 622 Q117 680 141 713.5 Q165 747 208 747 Q234 747 254 736.5 Q274 726 298 707 Q316 693 327 686.5 Q338 680 350 680 Q385 680 393 745 L441 745 Q439 687 415 653.5 Q391 620 348 620 Z " />
<glyph glyph-name="oe" unicode="&#x153;" horiz-adv-x="881" d="M482 248 L482 244 Q487 152 527.5 104 Q568 56 644 56 Q714 56 777 98 L804 40 Q774 15 730.5 1.5 Q687 -12 640 -12 Q575 -12 526.5 16 Q478 44 449 98 Q423 44 377.5 15.5 Q332 -13 272 -13 Q169 -13 113 58.5 Q57 130 57 266 Q57 404 112 475.5 Q167 547 272 547 Q332 547 377.5 518.5 Q423 490 449 436 Q471 489 516 518 Q561 547 622 547 Q720 547 775 479 Q830 411 830 290 Q830 265 827 248 L482 248 Z M272 52 Q342 52 377.5 106.5 Q413 161 413 267 Q413 373 377.5 427.5 Q342 482 272 482 Q203 482 167.5 427 Q132 372 132 266 Q132 161 167.5 106.5 Q203 52 272 52 Z M620 482 Q559 482 524.5 438 Q490 394 483 309 L757 309 Q756 391 720 436.5 Q684 482 620 482 Z " />
<glyph glyph-name="p" unicode="p" horiz-adv-x="574" d="M316 547 Q411 547 464 472 Q517 397 517 263 Q517 133 460.5 60 Q404 -13 304 -13 Q263 -13 227.5 3 Q192 19 166 48 L166 -207 L94 -207 L94 493 L94 534 L161 534 L161 466 Q188 506 227.5 526.5 Q267 547 316 547 Z M304 53 Q372 53 407 106 Q442 159 442 263 Q442 369 405.5 423 Q369 477 298 477 Q259 477 227 461.5 Q195 446 166 412 L166 115 Q192 86 228 69.5 Q264 53 304 53 Z " />
<glyph glyph-name="thorn" unicode="&#xfe;" horiz-adv-x="574" d="M316 547 Q411 547 464 472 Q517 397 517 263 Q517 133 460.5 60 Q404 -13 304 -13 Q263 -13 227.5 3 Q192 19 166 48 L166 -207 L94 -207 L94 493 L94 770 L166 770 L166 473 Q220 547 316 547 Z M304 53 Q372 53 407 106 Q442 159 442 263 Q442 369 405.5 423 Q369 477 298 477 Q259 477 227 461.5 Q195 446 166 412 L166 115 Q192 86 228 69.5 Q264 53 304 53 Z " />
<glyph glyph-name="q" unicode="q" horiz-adv-x="574" d="M480 534 L480 41 L480 -207 L408 -207 L408 61 Q354 -13 258 -13 Q163 -13 110 62 Q57 137 57 271 Q57 401 113.5 474 Q170 547 270 547 Q313 547 350 529.5 Q387 512 413 480 L413 534 L480 534 Z M276 57 Q315 57 347 72.5 Q379 88 408 122 L408 419 Q382 448 346 464.5 Q310 481 270 481 Q202 481 167 428 Q132 375 132 271 Q132 165 168.5 111 Q205 57 276 57 Z " />
<glyph glyph-name="r" unicode="r" horiz-adv-x="398" d="M307 545 Q342 545 374 532 L357 461 Q319 472 287 472 Q248 472 218.5 455 Q189 438 166 403 L166 0 L94 0 L94 534 L161 534 L161 460 Q219 545 307 545 Z " />
<glyph glyph-name="racute" unicode="&#x155;" horiz-adv-x="398" d="M307 545 Q342 545 374 532 L357 461 Q319 472 287 472 Q248 472 218.5 455 Q189 438 166 403 L166 0 L94 0 L94 534 L161 534 L161 460 Q219 545 307 545 Z M181 625 L284 784 L369 784 L369 774 L237 615 L181 615 L181 625 Z " />
<glyph glyph-name="rcaron" unicode="&#x159;" horiz-adv-x="398" d="M307 545 Q342 545 374 532 L357 461 Q319 472 287 472 Q248 472 218.5 455 Q189 438 166 403 L166 0 L94 0 L94 534 L161 534 L161 460 Q219 545 307 545 Z M371 784 L371 774 L269 615 L193 615 L91 774 L91 784 L146 784 L232 671 L319 784 L371 784 Z " />
<glyph glyph-name="rcommaaccent" unicode="&#x157;" horiz-adv-x="398" d="M307 545 Q342 545 374 532 L357 461 Q319 472 287 472 Q248 472 218.5 455 Q189 438 166 403 L166 0 L94 0 L94 534 L161 534 L161 460 Q219 545 307 545 Z M49 -238 Q75 -209 85.5 -182.5 Q96 -156 96 -116 Q96 -101 94 -83 L166 -83 Q168 -101 168 -115 Q168 -160 147 -195.5 Q126 -231 78 -269 L49 -238 Z " />
<glyph glyph-name="uni1E5B" unicode="&#x1e5b;" horiz-adv-x="398" d="M307 545 Q342 545 374 532 L357 461 Q319 472 287 472 Q248 472 218.5 455 Q189 438 166 403 L166 0 L94 0 L94 534 L161 534 L161 460 Q219 545 307 545 Z M130 -204 Q105 -204 91.5 -190 Q78 -176 78 -151 Q78 -125 91.5 -111 Q105 -97 130 -97 Q155 -97 168.5 -111 Q182 -125 182 -150 Q182 -176 168.5 -190 Q155 -204 130 -204 Z " />
<glyph glyph-name="uni1E5D" unicode="&#x1e5d;" horiz-adv-x="398" d="M343 641 L119 641 L119 699 L343 699 L343 641 Z M307 545 Q342 545 374 532 L357 461 Q319 472 287 472 Q248 472 218.5 455 Q189 438 166 403 L166 0 L94 0 L94 534 L161 534 L161 460 Q219 545 307 545 Z M130 -97 Q155 -97 168.5 -111 Q182 -125 182 -150 Q182 -176 168.5 -190 Q155 -204 130 -204 Q105 -204 91.5 -190 Q78 -176 78 -151 Q78 -125 91.5 -111 Q105 -97 130 -97 Z " />
<glyph glyph-name="uni1E5F" unicode="&#x1e5f;" horiz-adv-x="398" d="M307 545 Q342 545 374 532 L357 461 Q319 472 287 472 Q248 472 218.5 455 Q189 438 166 403 L166 0 L94 0 L94 534 L161 534 L161 460 Q219 545 307 545 Z M18 -100 L242 -100 L242 -158 L18 -158 L18 -100 Z " />
<glyph glyph-name="s" unicode="s" horiz-adv-x="463" d="M220 -12 Q171 -12 124 0.5 Q77 13 42 35 L68 97 Q140 53 220 53 Q280 53 310.5 75.5 Q341 98 341 142 Q341 176 322 196 Q303 216 262 226 L191 243 Q118 260 83.5 296 Q49 332 49 391 Q49 464 97.5 505 Q146 546 233 546 Q277 546 320 535.5 Q363 525 397 507 L368 445 Q298 481 231 481 Q177 481 149 459.5 Q121 438 121 397 Q121 365 140 345.5 Q159 326 200 316 L271 299 Q344 282 378.5 245 Q413 208 413 147 Q413 72 362 30 Q311 -12 220 -12 Z " />
<glyph glyph-name="sacute" unicode="&#x15b;" horiz-adv-x="463" d="M220 -12 Q171 -12 124 0.5 Q77 13 42 35 L68 97 Q140 53 220 53 Q280 53 310.5 75.5 Q341 98 341 142 Q341 176 322 196 Q303 216 262 226 L191 243 Q118 260 83.5 296 Q49 332 49 391 Q49 464 97.5 505 Q146 546 233 546 Q277 546 320 535.5 Q363 525 397 507 L368 445 Q298 481 231 481 Q177 481 149 459.5 Q121 438 121 397 Q121 365 140 345.5 Q159 326 200 316 L271 299 Q344 282 378.5 245 Q413 208 413 147 Q413 72 362 30 Q311 -12 220 -12 Z M174 625 L277 784 L362 784 L362 774 L230 615 L174 615 L174 625 Z " />
<glyph glyph-name="scaron" unicode="&#x161;" horiz-adv-x="463" d="M220 -12 Q171 -12 124 0.5 Q77 13 42 35 L68 97 Q140 53 220 53 Q280 53 310.5 75.5 Q341 98 341 142 Q341 176 322 196 Q303 216 262 226 L191 243 Q118 260 83.5 296 Q49 332 49 391 Q49 464 97.5 505 Q146 546 233 546 Q277 546 320 535.5 Q363 525 397 507 L368 445 Q298 481 231 481 Q177 481 149 459.5 Q121 438 121 397 Q121 365 140 345.5 Q159 326 200 316 L271 299 Q344 282 378.5 245 Q413 208 413 147 Q413 72 362 30 Q311 -12 220 -12 Z M364 784 L364 774 L262 615 L186 615 L84 774 L84 784 L139 784 L225 671 L312 784 L364 784 Z " />
<glyph glyph-name="scedilla" unicode="&#x15f;" horiz-adv-x="463" d="M413 147 Q413 78 370 37 Q327 -4 249 -11 L215 -62 Q229 -60 235 -60 Q284 -60 311 -81 Q338 -102 338 -140 Q338 -181 307.5 -204 Q277 -227 223 -227 Q168 -227 125 -204 L140 -160 Q188 -179 223 -179 Q277 -179 277 -140 Q277 -101 227 -101 Q204 -101 183 -110 L162 -86 L194 -11 Q151 -8 111.5 4 Q72 16 42 35 L68 97 Q140 53 220 53 Q280 53 310.5 75.5 Q341 98 341 142 Q341 176 322 196 Q303 216 262 226 L191 243 Q118 260 83.5 296 Q49 332 49 391 Q49 464 97.5 505 Q146 546 233 546 Q277 546 320 535.5 Q363 525 397 507 L368 445 Q298 481 231 481 Q177 481 149 459.5 Q121 438 121 397 Q121 365 140 345.5 Q159 326 200 316 L271 299 Q344 282 378.5 245 Q413 208 413 147 Z " />
<glyph glyph-name="scircumflex" unicode="&#x15d;" horiz-adv-x="463" d="M220 -12 Q171 -12 124 0.5 Q77 13 42 35 L68 97 Q140 53 220 53 Q280 53 310.5 75.5 Q341 98 341 142 Q341 176 322 196 Q303 216 262 226 L191 243 Q118 260 83.5 296 Q49 332 49 391 Q49 464 97.5 505 Q146 546 233 546 Q277 546 320 535.5 Q363 525 397 507 L368 445 Q298 481 231 481 Q177 481 149 459.5 Q121 438 121 397 Q121 365 140 345.5 Q159 326 200 316 L271 299 Q344 282 378.5 245 Q413 208 413 147 Q413 72 362 30 Q311 -12 220 -12 Z M364 625 L364 615 L309 615 L222 728 L136 615 L84 615 L84 625 L186 784 L262 784 L364 625 Z " />
<glyph glyph-name="scommaaccent" unicode="&#x219;" horiz-adv-x="463" d="M220 -12 Q171 -12 124 0.5 Q77 13 42 35 L68 97 Q140 53 220 53 Q280 53 310.5 75.5 Q341 98 341 142 Q341 176 322 196 Q303 216 262 226 L191 243 Q118 260 83.5 296 Q49 332 49 391 Q49 464 97.5 505 Q146 546 233 546 Q277 546 320 535.5 Q363 525 397 507 L368 445 Q298 481 231 481 Q177 481 149 459.5 Q121 438 121 397 Q121 365 140 345.5 Q159 326 200 316 L271 299 Q344 282 378.5 245 Q413 208 413 147 Q413 72 362 30 Q311 -12 220 -12 Z M147 -238 Q173 -209 183.5 -182.5 Q194 -156 194 -116 Q194 -101 192 -83 L264 -83 Q266 -101 266 -115 Q266 -160 245 -195.5 Q224 -231 176 -269 L147 -238 Z " />
<glyph glyph-name="uni1E61" unicode="&#x1e61;" horiz-adv-x="463" d="M220 -12 Q171 -12 124 0.5 Q77 13 42 35 L68 97 Q140 53 220 53 Q280 53 310.5 75.5 Q341 98 341 142 Q341 176 322 196 Q303 216 262 226 L191 243 Q118 260 83.5 296 Q49 332 49 391 Q49 464 97.5 505 Q146 546 233 546 Q277 546 320 535.5 Q363 525 397 507 L368 445 Q298 481 231 481 Q177 481 149 459.5 Q121 438 121 397 Q121 365 140 345.5 Q159 326 200 316 L271 299 Q344 282 378.5 245 Q413 208 413 147 Q413 72 362 30 Q311 -12 220 -12 Z M224 630 Q199 630 185.5 644 Q172 658 172 683 Q172 709 185.5 723 Q199 737 224 737 Q249 737 262.5 723 Q276 709 276 684 Q276 658 262.5 644 Q249 630 224 630 Z " />
<glyph glyph-name="uni1E63" unicode="&#x1e63;" horiz-adv-x="463" d="M220 -12 Q171 -12 124 0.5 Q77 13 42 35 L68 97 Q140 53 220 53 Q280 53 310.5 75.5 Q341 98 341 142 Q341 176 322 196 Q303 216 262 226 L191 243 Q118 260 83.5 296 Q49 332 49 391 Q49 464 97.5 505 Q146 546 233 546 Q277 546 320 535.5 Q363 525 397 507 L368 445 Q298 481 231 481 Q177 481 149 459.5 Q121 438 121 397 Q121 365 140 345.5 Q159 326 200 316 L271 299 Q344 282 378.5 245 Q413 208 413 147 Q413 72 362 30 Q311 -12 220 -12 Z M228 -204 Q203 -204 189.5 -190 Q176 -176 176 -151 Q176 -125 189.5 -111 Q203 -97 228 -97 Q253 -97 266.5 -111 Q280 -125 280 -150 Q280 -176 266.5 -190 Q253 -204 228 -204 Z " />
<glyph glyph-name="germandbls" unicode="&#xdf;" horiz-adv-x="596" d="M351 416 Q445 399 497 340.5 Q549 282 549 190 Q549 97 495 45 Q441 -7 345 -7 Q285 -7 233 8 L252 73 Q296 58 345 58 Q410 58 443.5 91 Q477 124 477 189 Q477 270 423.5 315 Q370 360 266 366 L266 428 Q337 459 370.5 501.5 Q404 544 404 602 Q404 655 376.5 682.5 Q349 710 295 710 Q231 710 198.5 672.5 Q166 635 166 562 L166 0 L94 0 L94 562 Q94 663 147 719 Q200 775 294 775 Q379 775 426.5 729.5 Q474 684 474 603 Q474 538 443 490.5 Q412 443 351 416 Z " />
<glyph glyph-name="uni0259" unicode="&#x259;" horiz-adv-x="538" d="M246 546 Q358 546 420.5 472 Q483 398 483 267 Q483 135 425 61 Q367 -13 264 -13 Q163 -13 107 55 Q51 123 51 244 Q51 268 54 286 L410 286 Q406 381 363.5 429.5 Q321 478 242 478 Q167 478 104 436 L76 494 Q107 519 151.5 532.5 Q196 546 246 546 Z M266 52 Q330 52 365.5 95.5 Q401 139 408 225 L124 225 Q125 143 162.5 97.5 Q200 52 266 52 Z " />
<glyph glyph-name="t" unicode="t" horiz-adv-x="382" d="M276 -7 Q196 -7 155 37.5 Q114 82 114 170 L114 473 L21 473 L21 534 L114 534 L114 694 L186 694 L186 534 L347 534 L347 473 L186 473 L186 180 Q186 117 210.5 87.5 Q235 58 287 58 Q314 58 342 67 L354 5 Q320 -7 276 -7 Z " />
<glyph glyph-name="tcaron" unicode="&#x165;" horiz-adv-x="382" d="M269 770 L341 770 L341 760 L317 585 L269 585 L269 770 Z M276 -7 Q196 -7 155 37.5 Q114 82 114 170 L114 473 L21 473 L21 534 L114 534 L114 694 L186 694 L186 534 L347 534 L347 473 L186 473 L186 180 Q186 117 210.5 87.5 Q235 58 287 58 Q314 58 342 67 L354 5 Q320 -7 276 -7 Z " />
<glyph glyph-name="uni0163" unicode="&#x163;" horiz-adv-x="382" d="M230 -60 Q279 -60 306 -81 Q333 -102 333 -140 Q333 -181 302.5 -204 Q272 -227 218 -227 Q163 -227 120 -204 L135 -160 Q183 -179 218 -179 Q272 -179 272 -140 Q272 -101 222 -101 Q199 -101 178 -110 L157 -86 L198 8 Q114 45 114 170 L114 473 L21 473 L21 534 L114 534 L114 694 L186 694 L186 534 L347 534 L347 473 L186 473 L186 180 Q186 117 210.5 87.5 Q235 58 287 58 Q314 58 342 67 L354 5 Q320 -7 276 -7 Q265 -7 247 -5 L210 -62 Q224 -60 230 -60 Z " />
<glyph glyph-name="uni021B" unicode="&#x21b;" horiz-adv-x="382" d="M276 -7 Q196 -7 155 37.5 Q114 82 114 170 L114 473 L21 473 L21 534 L114 534 L114 694 L186 694 L186 534 L347 534 L347 473 L186 473 L186 180 Q186 117 210.5 87.5 Q235 58 287 58 Q314 58 342 67 L354 5 Q320 -7 276 -7 Z M142 -238 Q168 -209 178.5 -182.5 Q189 -156 189 -116 Q189 -101 187 -83 L259 -83 Q261 -101 261 -115 Q261 -160 240 -195.5 Q219 -231 171 -269 L142 -238 Z " />
<glyph glyph-name="uni1E97" unicode="&#x1e97;" horiz-adv-x="382" d="M80 750 Q57 750 44 763.5 Q31 777 31 801 Q31 825 44 839 Q57 853 80 853 Q104 853 117 839.5 Q130 826 130 802 Q130 777 117 763.5 Q104 750 80 750 Z M265 750 Q242 750 229 763.5 Q216 777 216 801 Q216 825 229 839 Q242 853 265 853 Q289 853 302 839.5 Q315 826 315 802 Q315 777 302 763.5 Q289 750 265 750 Z M276 -7 Q196 -7 155 37.5 Q114 82 114 170 L114 473 L21 473 L21 534 L114 534 L114 694 L186 694 L186 534 L347 534 L347 473 L186 473 L186 180 Q186 117 210.5 87.5 Q235 58 287 58 Q314 58 342 67 L354 5 Q320 -7 276 -7 Z " />
<glyph glyph-name="uni1E6D" unicode="&#x1e6d;" horiz-adv-x="382" d="M276 -7 Q196 -7 155 37.5 Q114 82 114 170 L114 473 L21 473 L21 534 L114 534 L114 694 L186 694 L186 534 L347 534 L347 473 L186 473 L186 180 Q186 117 210.5 87.5 Q235 58 287 58 Q314 58 342 67 L354 5 Q320 -7 276 -7 Z M223 -204 Q198 -204 184.5 -190 Q171 -176 171 -151 Q171 -125 184.5 -111 Q198 -97 223 -97 Q248 -97 261.5 -111 Q275 -125 275 -150 Q275 -176 261.5 -190 Q248 -204 223 -204 Z " />
<glyph glyph-name="uni1E6F" unicode="&#x1e6f;" horiz-adv-x="382" d="M276 -7 Q196 -7 155 37.5 Q114 82 114 170 L114 473 L21 473 L21 534 L114 534 L114 694 L186 694 L186 534 L347 534 L347 473 L186 473 L186 180 Q186 117 210.5 87.5 Q235 58 287 58 Q314 58 342 67 L354 5 Q320 -7 276 -7 Z M111 -100 L335 -100 L335 -158 L111 -158 L111 -100 Z " />
<glyph glyph-name="u" unicode="u" horiz-adv-x="572" d="M478 534 L478 0 L411 0 L411 64 Q352 -13 250 -13 Q173 -13 130 32 Q87 77 87 156 L87 534 L159 534 L159 161 Q159 110 187 83.5 Q215 57 269 57 Q311 57 344 72 Q377 87 406 120 L406 534 L478 534 Z " />
<glyph glyph-name="uacute" unicode="&#xfa;" horiz-adv-x="572" d="M478 534 L478 0 L411 0 L411 64 Q352 -13 250 -13 Q173 -13 130 32 Q87 77 87 156 L87 534 L159 534 L159 161 Q159 110 187 83.5 Q215 57 269 57 Q311 57 344 72 Q377 87 406 120 L406 534 L478 534 Z M233 625 L336 784 L421 784 L421 774 L289 615 L233 615 L233 625 Z " />
<glyph glyph-name="ubreve" unicode="&#x16d;" horiz-adv-x="572" d="M478 534 L478 0 L411 0 L411 64 Q352 -13 250 -13 Q173 -13 130 32 Q87 77 87 156 L87 534 L159 534 L159 161 Q159 110 187 83.5 Q215 57 269 57 Q311 57 344 72 Q377 87 406 120 L406 534 L478 534 Z M283 615 Q220 615 183 653.5 Q146 692 143 760 L194 760 Q206 677 284 677 Q363 677 375 760 L423 760 Q420 692 383 653.5 Q346 615 283 615 Z " />
<glyph glyph-name="uni01D4" unicode="&#x1d4;" horiz-adv-x="572" d="M478 534 L478 0 L411 0 L411 64 Q352 -13 250 -13 Q173 -13 130 32 Q87 77 87 156 L87 534 L159 534 L159 161 Q159 110 187 83.5 Q215 57 269 57 Q311 57 344 72 Q377 87 406 120 L406 534 L478 534 Z M423 784 L423 774 L321 615 L245 615 L143 774 L143 784 L198 784 L284 671 L371 784 L423 784 Z " />
<glyph glyph-name="ucircumflex" unicode="&#xfb;" horiz-adv-x="572" d="M478 534 L478 0 L411 0 L411 64 Q352 -13 250 -13 Q173 -13 130 32 Q87 77 87 156 L87 534 L159 534 L159 161 Q159 110 187 83.5 Q215 57 269 57 Q311 57 344 72 Q377 87 406 120 L406 534 L478 534 Z M423 625 L423 615 L368 615 L281 728 L195 615 L143 615 L143 625 L245 784 L321 784 L423 625 Z " />
<glyph glyph-name="udieresis" unicode="&#xfc;" horiz-adv-x="572" d="M190 630 Q167 630 154 643.5 Q141 657 141 681 Q141 705 154 719 Q167 733 190 733 Q214 733 227 719.5 Q240 706 240 682 Q240 657 227 643.5 Q214 630 190 630 Z M375 630 Q352 630 339 643.5 Q326 657 326 681 Q326 705 339 719 Q352 733 375 733 Q399 733 412 719.5 Q425 706 425 682 Q425 657 412 643.5 Q399 630 375 630 Z M478 534 L478 0 L411 0 L411 64 Q352 -13 250 -13 Q173 -13 130 32 Q87 77 87 156 L87 534 L159 534 L159 161 Q159 110 187 83.5 Q215 57 269 57 Q311 57 344 72 Q377 87 406 120 L406 534 L478 534 Z " />
<glyph glyph-name="uni01D8" unicode="&#x1d8;" horiz-adv-x="572" d="M306 732 L258 732 L258 742 L339 869 L408 869 L408 859 L306 732 Z M192 609 Q170 609 157 622 Q144 635 144 658 Q144 682 156.5 695 Q169 708 192 708 Q215 708 227.5 695 Q240 682 240 659 Q240 636 227 622.5 Q214 609 192 609 Z M326 658 Q326 682 338.5 695 Q351 708 374 708 Q397 708 409.5 695 Q422 682 422 659 Q422 636 409 622.5 Q396 609 374 609 Q352 609 339 622 Q326 635 326 658 Z M478 534 L478 0 L411 0 L411 64 Q352 -13 250 -13 Q173 -13 130 32 Q87 77 87 156 L87 534 L159 534 L159 161 Q159 110 187 83.5 Q215 57 269 57 Q311 57 344 72 Q377 87 406 120 L406 534 L478 534 Z " />
<glyph glyph-name="uni01DA" unicode="&#x1da;" horiz-adv-x="572" d="M245 727 L141 866 L141 876 L196 876 L285 779 L373 876 L425 876 L425 866 L321 727 L245 727 Z M144 658 Q144 682 156.5 695 Q169 708 192 708 Q215 708 227.5 695 Q240 682 240 659 Q240 636 227 622.5 Q214 609 192 609 Q170 609 157 622 Q144 635 144 658 Z M326 658 Q326 682 338.5 695 Q351 708 374 708 Q397 708 409.5 695 Q422 682 422 659 Q422 636 409 622.5 Q396 609 374 609 Q352 609 339 622 Q326 635 326 658 Z M478 534 L478 0 L411 0 L411 64 Q352 -13 250 -13 Q173 -13 130 32 Q87 77 87 156 L87 534 L159 534 L159 161 Q159 110 187 83.5 Q215 57 269 57 Q311 57 344 72 Q377 87 406 120 L406 534 L478 534 Z " />
<glyph glyph-name="uni01DC" unicode="&#x1dc;" horiz-adv-x="572" d="M263 732 L167 859 L167 869 L236 869 L311 742 L311 732 L263 732 Z M192 609 Q170 609 157 622 Q144 635 144 658 Q144 682 156.5 695 Q169 708 192 708 Q215 708 227.5 695 Q240 682 240 659 Q240 636 227 622.5 Q214 609 192 609 Z M374 609 Q352 609 339 622 Q326 635 326 658 Q326 682 338.5 695 Q351 708 374 708 Q397 708 409.5 695 Q422 682 422 659 Q422 636 409 622.5 Q396 609 374 609 Z M478 534 L478 0 L411 0 L411 64 Q352 -13 250 -13 Q173 -13 130 32 Q87 77 87 156 L87 534 L159 534 L159 161 Q159 110 187 83.5 Q215 57 269 57 Q311 57 344 72 Q377 87 406 120 L406 534 L478 534 Z " />
<glyph glyph-name="uni01D6" unicode="&#x1d6;" horiz-adv-x="572" d="M425 759 L141 759 L141 813 L425 813 L425 759 Z M144 658 Q144 682 156.5 695 Q169 708 192 708 Q215 708 227.5 695 Q240 682 240 659 Q240 636 227 622.5 Q214 609 192 609 Q170 609 157 622 Q144 635 144 658 Z M326 658 Q326 682 338.5 695 Q351 708 374 708 Q397 708 409.5 695 Q422 682 422 659 Q422 636 409 622.5 Q396 609 374 609 Q352 609 339 622 Q326 635 326 658 Z M478 534 L478 0 L411 0 L411 64 Q352 -13 250 -13 Q173 -13 130 32 Q87 77 87 156 L87 534 L159 534 L159 161 Q159 110 187 83.5 Q215 57 269 57 Q311 57 344 72 Q377 87 406 120 L406 534 L478 534 Z " />
<glyph glyph-name="uni1EE5" unicode="&#x1ee5;" horiz-adv-x="572" d="M478 534 L478 0 L411 0 L411 64 Q352 -13 250 -13 Q173 -13 130 32 Q87 77 87 156 L87 534 L159 534 L159 161 Q159 110 187 83.5 Q215 57 269 57 Q311 57 344 72 Q377 87 406 120 L406 534 L478 534 Z M285 -204 Q260 -204 246.5 -190 Q233 -176 233 -151 Q233 -125 246.5 -111 Q260 -97 285 -97 Q310 -97 323.5 -111 Q337 -125 337 -150 Q337 -176 323.5 -190 Q310 -204 285 -204 Z " />
<glyph glyph-name="ugrave" unicode="&#xf9;" horiz-adv-x="572" d="M478 534 L478 0 L411 0 L411 64 Q352 -13 250 -13 Q173 -13 130 32 Q87 77 87 156 L87 534 L159 534 L159 161 Q159 110 187 83.5 Q215 57 269 57 Q311 57 344 72 Q377 87 406 120 L406 534 L478 534 Z M157 774 L157 784 L242 784 L337 625 L337 615 L281 615 L157 774 Z " />
<glyph glyph-name="uni1EE7" unicode="&#x1ee7;" horiz-adv-x="572" d="M478 534 L478 0 L411 0 L411 64 Q352 -13 250 -13 Q173 -13 130 32 Q87 77 87 156 L87 534 L159 534 L159 161 Q159 110 187 83.5 Q215 57 269 57 Q311 57 344 72 Q377 87 406 120 L406 534 L478 534 Z M253 615 Q251 627 251 638 Q251 661 260 672.5 Q269 684 287 695 Q299 701 305 707.5 Q311 714 311 725 Q311 748 281 748 Q250 748 220 728 L200 771 Q218 783 242.5 790.5 Q267 798 291 798 Q330 798 352 779.5 Q374 761 374 729 Q374 707 365 695.5 Q356 684 339 673 Q325 664 318 656.5 Q311 649 311 635 Q311 627 313 615 L253 615 Z " />
<glyph glyph-name="uhorn" unicode="&#x1b0;" horiz-adv-x="572" d="M593 614 Q593 557 565.5 526.5 Q538 496 478 489 L478 0 L411 0 L411 64 Q352 -13 250 -13 Q173 -13 130 32 Q87 77 87 156 L87 534 L159 534 L159 161 Q159 110 187 83.5 Q215 57 269 57 Q311 57 344 72 Q377 87 406 120 L406 534 L427 534 Q483 534 505.5 551.5 Q528 569 528 612 Q528 637 523 673 L588 673 Q593 643 593 614 Z " />
<glyph glyph-name="uni1EE9" unicode="&#x1ee9;" horiz-adv-x="572" d="M593 614 Q593 557 565.5 526.5 Q538 496 478 489 L478 0 L411 0 L411 64 Q352 -13 250 -13 Q173 -13 130 32 Q87 77 87 156 L87 534 L159 534 L159 161 Q159 110 187 83.5 Q215 57 269 57 Q311 57 344 72 Q377 87 406 120 L406 534 L427 534 Q483 534 505.5 551.5 Q528 569 528 612 Q528 637 523 673 L588 673 Q593 643 593 614 Z M233 625 L336 784 L421 784 L421 774 L289 615 L233 615 L233 625 Z " />
<glyph glyph-name="uni1EF1" unicode="&#x1ef1;" horiz-adv-x="572" d="M593 614 Q593 557 565.5 526.5 Q538 496 478 489 L478 0 L411 0 L411 64 Q352 -13 250 -13 Q173 -13 130 32 Q87 77 87 156 L87 534 L159 534 L159 161 Q159 110 187 83.5 Q215 57 269 57 Q311 57 344 72 Q377 87 406 120 L406 534 L427 534 Q483 534 505.5 551.5 Q528 569 528 612 Q528 637 523 673 L588 673 Q593 643 593 614 Z M285 -204 Q260 -204 246.5 -190 Q233 -176 233 -151 Q233 -125 246.5 -111 Q260 -97 285 -97 Q310 -97 323.5 -111 Q337 -125 337 -150 Q337 -176 323.5 -190 Q310 -204 285 -204 Z " />
<glyph glyph-name="uni1EEB" unicode="&#x1eeb;" horiz-adv-x="572" d="M593 614 Q593 557 565.5 526.5 Q538 496 478 489 L478 0 L411 0 L411 64 Q352 -13 250 -13 Q173 -13 130 32 Q87 77 87 156 L87 534 L159 534 L159 161 Q159 110 187 83.5 Q215 57 269 57 Q311 57 344 72 Q377 87 406 120 L406 534 L427 534 Q483 534 505.5 551.5 Q528 569 528 612 Q528 637 523 673 L588 673 Q593 643 593 614 Z M157 774 L157 784 L242 784 L337 625 L337 615 L281 615 L157 774 Z " />
<glyph glyph-name="uni1EED" unicode="&#x1eed;" horiz-adv-x="572" d="M593 614 Q593 557 565.5 526.5 Q538 496 478 489 L478 0 L411 0 L411 64 Q352 -13 250 -13 Q173 -13 130 32 Q87 77 87 156 L87 534 L159 534 L159 161 Q159 110 187 83.5 Q215 57 269 57 Q311 57 344 72 Q377 87 406 120 L406 534 L427 534 Q483 534 505.5 551.5 Q528 569 528 612 Q528 637 523 673 L588 673 Q593 643 593 614 Z M253 615 Q251 627 251 638 Q251 661 260 672.5 Q269 684 287 695 Q299 701 305 707.5 Q311 714 311 725 Q311 748 281 748 Q250 748 220 728 L200 771 Q218 783 242.5 790.5 Q267 798 291 798 Q330 798 352 779.5 Q374 761 374 729 Q374 707 365 695.5 Q356 684 339 673 Q325 664 318 656.5 Q311 649 311 635 Q311 627 313 615 L253 615 Z " />
<glyph glyph-name="uni1EEF" unicode="&#x1eef;" horiz-adv-x="572" d="M593 614 Q593 557 565.5 526.5 Q538 496 478 489 L478 0 L411 0 L411 64 Q352 -13 250 -13 Q173 -13 130 32 Q87 77 87 156 L87 534 L159 534 L159 161 Q159 110 187 83.5 Q215 57 269 57 Q311 57 344 72 Q377 87 406 120 L406 534 L427 534 Q483 534 505.5 551.5 Q528 569 528 612 Q528 637 523 673 L588 673 Q593 643 593 614 Z M353 620 Q327 620 307 630.5 Q287 641 263 660 Q245 674 234 680.5 Q223 687 211 687 Q176 687 168 622 L120 622 Q122 680 146 713.5 Q170 747 213 747 Q239 747 259 736.5 Q279 726 303 707 Q321 693 332 686.5 Q343 680 355 680 Q390 680 398 745 L446 745 Q444 687 420 653.5 Q396 620 353 620 Z " />
<glyph glyph-name="uhungarumlaut" unicode="&#x171;" horiz-adv-x="572" d="M478 534 L478 0 L411 0 L411 64 Q352 -13 250 -13 Q173 -13 130 32 Q87 77 87 156 L87 534 L159 534 L159 161 Q159 110 187 83.5 Q215 57 269 57 Q311 57 344 72 Q377 87 406 120 L406 534 L478 534 Z M176 625 L238 784 L315 784 L315 774 L224 615 L176 615 L176 625 Z M317 625 L379 784 L456 784 L456 774 L365 615 L317 615 L317 625 Z " />
<glyph glyph-name="umacron" unicode="&#x16b;" horiz-adv-x="572" d="M478 534 L478 0 L411 0 L411 64 Q352 -13 250 -13 Q173 -13 130 32 Q87 77 87 156 L87 534 L159 534 L159 161 Q159 110 187 83.5 Q215 57 269 57 Q311 57 344 72 Q377 87 406 120 L406 534 L478 534 Z M141 699 L425 699 L425 641 L141 641 L141 699 Z " />
<glyph glyph-name="uogonek" unicode="&#x173;" horiz-adv-x="572" d="M524 -188 Q504 -202 478 -209.5 Q452 -217 424 -217 Q377 -217 350 -193.5 Q323 -170 323 -128 Q323 -89 347 -54.5 Q371 -20 413 3 L413 67 Q378 26 338.5 6.5 Q299 -13 250 -13 Q173 -13 130 32 Q87 77 87 156 L87 534 L159 534 L159 161 Q159 110 187 83.5 Q215 57 269 57 Q311 57 344 72 Q377 87 406 120 L406 534 L478 534 L478 0 Q434 -25 411 -54 Q388 -83 388 -115 Q388 -159 436 -159 Q468 -159 503 -141 L524 -188 Z " />
<glyph glyph-name="uring" unicode="&#x16f;" horiz-adv-x="572" d="M478 534 L478 0 L411 0 L411 64 Q352 -13 250 -13 Q173 -13 130 32 Q87 77 87 156 L87 534 L159 534 L159 161 Q159 110 187 83.5 Q215 57 269 57 Q311 57 344 72 Q377 87 406 120 L406 534 L478 534 Z M283 604 Q229 604 198.5 632 Q168 660 168 710 Q168 760 198.5 788 Q229 816 283 816 Q337 816 367.5 788 Q398 760 398 710 Q398 660 367.5 632 Q337 604 283 604 Z M283 648 Q344 648 344 710 Q344 772 283 772 Q222 772 222 710 Q222 648 283 648 Z " />
<glyph glyph-name="utilde" unicode="&#x169;" horiz-adv-x="572" d="M478 534 L478 0 L411 0 L411 64 Q352 -13 250 -13 Q173 -13 130 32 Q87 77 87 156 L87 534 L159 534 L159 161 Q159 110 187 83.5 Q215 57 269 57 Q311 57 344 72 Q377 87 406 120 L406 534 L478 534 Z M353 620 Q327 620 307 630.5 Q287 641 263 660 Q245 674 234 680.5 Q223 687 211 687 Q176 687 168 622 L120 622 Q122 680 146 713.5 Q170 747 213 747 Q239 747 259 736.5 Q279 726 303 707 Q321 693 332 686.5 Q343 680 355 680 Q390 680 398 745 L446 745 Q444 687 420 653.5 Q396 620 353 620 Z " />
<glyph glyph-name="v" unicode="v" horiz-adv-x="519" d="M487 534 L300 0 L220 0 L32 534 L111 534 L261 80 L409 534 L487 534 Z " />
<glyph glyph-name="w" unicode="w" horiz-adv-x="779" d="M745 534 L586 0 L506 0 L389 428 L272 0 L192 0 L34 534 L112 534 L233 80 L352 534 L428 534 L548 80 L668 534 L745 534 Z " />
<glyph glyph-name="wacute" unicode="&#x1e83;" horiz-adv-x="779" d="M745 534 L586 0 L506 0 L389 428 L272 0 L192 0 L34 534 L112 534 L233 80 L352 534 L428 534 L548 80 L668 534 L745 534 Z M341 625 L444 784 L529 784 L529 774 L397 615 L341 615 L341 625 Z " />
<glyph glyph-name="wcircumflex" unicode="&#x175;" horiz-adv-x="779" d="M745 534 L586 0 L506 0 L389 428 L272 0 L192 0 L34 534 L112 534 L233 80 L352 534 L428 534 L548 80 L668 534 L745 534 Z M531 625 L531 615 L476 615 L389 728 L303 615 L251 615 L251 625 L353 784 L429 784 L531 625 Z " />
<glyph glyph-name="wdieresis" unicode="&#x1e85;" horiz-adv-x="779" d="M298 630 Q275 630 262 643.5 Q249 657 249 681 Q249 705 262 719 Q275 733 298 733 Q322 733 335 719.5 Q348 706 348 682 Q348 657 335 643.5 Q322 630 298 630 Z M483 630 Q460 630 447 643.5 Q434 657 434 681 Q434 705 447 719 Q460 733 483 733 Q507 733 520 719.5 Q533 706 533 682 Q533 657 520 643.5 Q507 630 483 630 Z M745 534 L586 0 L506 0 L389 428 L272 0 L192 0 L34 534 L112 534 L233 80 L352 534 L428 534 L548 80 L668 534 L745 534 Z " />
<glyph glyph-name="wgrave" unicode="&#x1e81;" horiz-adv-x="779" d="M745 534 L586 0 L506 0 L389 428 L272 0 L192 0 L34 534 L112 534 L233 80 L352 534 L428 534 L548 80 L668 534 L745 534 Z M265 774 L265 784 L350 784 L445 625 L445 615 L389 615 L265 774 Z " />
<glyph glyph-name="x" unicode="x" horiz-adv-x="506" d="M383 0 L251 213 L121 0 L36 0 L212 270 L43 534 L130 534 L254 331 L383 534 L468 534 L294 274 L470 0 L383 0 Z " />
<glyph glyph-name="y" unicode="y" horiz-adv-x="515" d="M483 534 L293 -8 Q267 -80 208.5 -133.5 Q150 -187 61 -219 L35 -155 Q107 -130 152 -93.5 Q197 -57 222 -5 L32 534 L111 534 L259 87 L405 534 L483 534 Z " />
<glyph glyph-name="yacute" unicode="&#xfd;" horiz-adv-x="515" d="M483 534 L293 -8 Q267 -80 208.5 -133.5 Q150 -187 61 -219 L35 -155 Q107 -130 152 -93.5 Q197 -57 222 -5 L32 534 L111 534 L259 87 L405 534 L483 534 Z M209 625 L312 784 L397 784 L397 774 L265 615 L209 615 L209 625 Z " />
<glyph glyph-name="ycircumflex" unicode="&#x177;" horiz-adv-x="515" d="M483 534 L293 -8 Q267 -80 208.5 -133.5 Q150 -187 61 -219 L35 -155 Q107 -130 152 -93.5 Q197 -57 222 -5 L32 534 L111 534 L259 87 L405 534 L483 534 Z M399 625 L399 615 L344 615 L257 728 L171 615 L119 615 L119 625 L221 784 L297 784 L399 625 Z " />
<glyph glyph-name="ydieresis" unicode="&#xff;" horiz-adv-x="515" d="M166 630 Q143 630 130 643.5 Q117 657 117 681 Q117 705 130 719 Q143 733 166 733 Q190 733 203 719.5 Q216 706 216 682 Q216 657 203 643.5 Q190 630 166 630 Z M351 630 Q328 630 315 643.5 Q302 657 302 681 Q302 705 315 719 Q328 733 351 733 Q375 733 388 719.5 Q401 706 401 682 Q401 657 388 643.5 Q375 630 351 630 Z M483 534 L293 -8 Q267 -80 208.5 -133.5 Q150 -187 61 -219 L35 -155 Q107 -130 152 -93.5 Q197 -57 222 -5 L32 534 L111 534 L259 87 L405 534 L483 534 Z " />
<glyph glyph-name="uni1E8F" unicode="&#x1e8f;" horiz-adv-x="515" d="M483 534 L293 -8 Q267 -80 208.5 -133.5 Q150 -187 61 -219 L35 -155 Q107 -130 152 -93.5 Q197 -57 222 -5 L32 534 L111 534 L259 87 L405 534 L483 534 Z M259 630 Q234 630 220.5 644 Q207 658 207 683 Q207 709 220.5 723 Q234 737 259 737 Q284 737 297.5 723 Q311 709 311 684 Q311 658 297.5 644 Q284 630 259 630 Z " />
<glyph glyph-name="uni1EF5" unicode="&#x1ef5;" horiz-adv-x="515" d="M483 534 L293 -8 Q267 -80 208.5 -133.5 Q150 -187 61 -219 L35 -155 Q107 -130 152 -93.5 Q197 -57 222 -5 L32 534 L111 534 L259 87 L405 534 L483 534 Z M363 -204 Q338 -204 324.5 -190 Q311 -176 311 -151 Q311 -125 324.5 -111 Q338 -97 363 -97 Q388 -97 401.5 -111 Q415 -125 415 -150 Q415 -176 401.5 -190 Q388 -204 363 -204 Z " />
<glyph glyph-name="ygrave" unicode="&#x1ef3;" horiz-adv-x="515" d="M483 534 L293 -8 Q267 -80 208.5 -133.5 Q150 -187 61 -219 L35 -155 Q107 -130 152 -93.5 Q197 -57 222 -5 L32 534 L111 534 L259 87 L405 534 L483 534 Z M133 774 L133 784 L218 784 L313 625 L313 615 L257 615 L133 774 Z " />
<glyph glyph-name="uni1EF7" unicode="&#x1ef7;" horiz-adv-x="515" d="M483 534 L293 -8 Q267 -80 208.5 -133.5 Q150 -187 61 -219 L35 -155 Q107 -130 152 -93.5 Q197 -57 222 -5 L32 534 L111 534 L259 87 L405 534 L483 534 Z M229 615 Q227 627 227 638 Q227 661 236 672.5 Q245 684 263 695 Q275 701 281 707.5 Q287 714 287 725 Q287 748 257 748 Q226 748 196 728 L176 771 Q194 783 218.5 790.5 Q243 798 267 798 Q306 798 328 779.5 Q350 761 350 729 Q350 707 341 695.5 Q332 684 315 673 Q301 664 294 656.5 Q287 649 287 635 Q287 627 289 615 L229 615 Z " />
<glyph glyph-name="uni1EF9" unicode="&#x1ef9;" horiz-adv-x="515" d="M483 534 L293 -8 Q267 -80 208.5 -133.5 Q150 -187 61 -219 L35 -155 Q107 -130 152 -93.5 Q197 -57 222 -5 L32 534 L111 534 L259 87 L405 534 L483 534 Z M329 620 Q303 620 283 630.5 Q263 641 239 660 Q221 674 210 680.5 Q199 687 187 687 Q152 687 144 622 L96 622 Q98 680 122 713.5 Q146 747 189 747 Q215 747 235 736.5 Q255 726 279 707 Q297 693 308 686.5 Q319 680 331 680 Q366 680 374 745 L422 745 Q420 687 396 653.5 Q372 620 329 620 Z " />
<glyph glyph-name="z" unicode="z" horiz-adv-x="463" d="M418 61 L418 0 L44 0 L44 61 L331 473 L52 473 L52 534 L414 534 L414 473 L127 61 L418 61 Z " />
<glyph glyph-name="zacute" unicode="&#x17a;" horiz-adv-x="463" d="M418 61 L418 0 L44 0 L44 61 L331 473 L52 473 L52 534 L414 534 L414 473 L127 61 L418 61 Z M179 625 L282 784 L367 784 L367 774 L235 615 L179 615 L179 625 Z " />
<glyph glyph-name="zcaron" unicode="&#x17e;" horiz-adv-x="463" d="M418 61 L418 0 L44 0 L44 61 L331 473 L52 473 L52 534 L414 534 L414 473 L127 61 L418 61 Z M369 784 L369 774 L267 615 L191 615 L89 774 L89 784 L144 784 L230 671 L317 784 L369 784 Z " />
<glyph glyph-name="zdotaccent" unicode="&#x17c;" horiz-adv-x="463" d="M418 61 L418 0 L44 0 L44 61 L331 473 L52 473 L52 534 L414 534 L414 473 L127 61 L418 61 Z M229 630 Q204 630 190.5 644 Q177 658 177 683 Q177 709 190.5 723 Q204 737 229 737 Q254 737 267.5 723 Q281 709 281 684 Q281 658 267.5 644 Q254 630 229 630 Z " />
<glyph glyph-name="uni1E93" unicode="&#x1e93;" horiz-adv-x="463" d="M418 61 L418 0 L44 0 L44 61 L331 473 L52 473 L52 534 L414 534 L414 473 L127 61 L418 61 Z M231 -204 Q206 -204 192.5 -190 Q179 -176 179 -151 Q179 -125 192.5 -111 Q206 -97 231 -97 Q256 -97 269.5 -111 Q283 -125 283 -150 Q283 -176 269.5 -190 Q256 -204 231 -204 Z " />
<glyph glyph-name="fi" unicode="&#xfb01;" horiz-adv-x="625" d="M114 473 L21 473 L21 534 L114 534 L114 602 Q114 684 161.5 729.5 Q209 775 294 775 Q325 775 345 770 L345 706 Q315 710 294 710 Q241 710 213.5 682.5 Q186 655 186 602 L186 534 L326 534 L326 473 L186 473 L186 0 L114 0 L114 473 Z M457 534 L529 534 L529 0 L457 0 L457 534 Z M493 630 Q468 630 454.5 644 Q441 658 441 683 Q441 709 454.5 723 Q468 737 493 737 Q518 737 531.5 723 Q545 709 545 684 Q545 658 531.5 644 Q518 630 493 630 Z " />
<glyph glyph-name="fl" unicode="&#xfb02;" horiz-adv-x="665" d="M114 473 L21 473 L21 534 L114 534 L114 602 Q114 684 161.5 729.5 Q209 775 294 775 Q325 775 345 770 L345 706 Q315 710 294 710 Q241 710 213.5 682.5 Q186 655 186 602 L186 534 L326 534 L326 473 L186 473 L186 0 L114 0 L114 473 Z M565 -6 Q453 -6 453 109 L453 770 L525 770 L525 112 Q525 84 538 71.5 Q551 59 580 59 Q597 59 620 63 L627 2 Q597 -6 565 -6 Z " />
<glyph glyph-name="ordfeminine" unicode="&#xaa;" horiz-adv-x="518" d="M246 293 Q165 293 120 327 Q75 361 75 422 Q75 498 137 531.5 Q199 565 342 565 L342 592 Q342 629 316.5 648 Q291 667 242 667 Q192 667 135 642 L116 698 Q176 730 249 730 Q325 730 367.5 695.5 Q410 661 410 600 L410 332 Q374 313 331 303 Q288 293 246 293 Z M342 509 Q236 509 189.5 489 Q143 469 143 424 Q143 390 169 372.5 Q195 355 246 355 Q303 355 342 371 L342 509 Z M411 187 L411 127 L96 127 L96 187 L411 187 Z " />
<glyph glyph-name="ordmasculine" unicode="&#xba;" horiz-adv-x="524" d="M262 292 Q173 292 125 348 Q77 404 77 512 Q77 619 125.5 675 Q174 731 263 731 Q351 731 399 675 Q447 619 447 512 Q447 404 399 348 Q351 292 262 292 Z M262 353 Q319 353 348 393.5 Q377 434 377 512 Q377 590 348 630 Q319 670 263 670 Q206 670 176.5 630 Q147 590 147 512 Q147 434 176 393.5 Q205 353 262 353 Z M105 187 L420 187 L420 127 L105 127 L105 187 Z " />
<glyph glyph-name="uni207F" unicode="&#x207f;" horiz-adv-x="523" d="M296 734 Q356 734 390 701 Q424 668 424 608 L424 334 L355 334 L355 600 Q355 634 334.5 651.5 Q314 669 274 669 Q245 669 221 660 Q197 651 173 632 L173 334 L104 334 L104 724 L167 724 L167 677 Q220 734 296 734 Z " />
<glyph glyph-name="pi" unicode="&#x3c0;" horiz-adv-x="628" d="M472 473 L472 116 Q472 86 486.5 72 Q501 58 531 58 Q552 58 568 62 L575 1 Q546 -7 515 -7 Q458 -7 429 23.5 Q400 54 400 113 L400 473 L228 473 Q227 305 210.5 199 Q194 93 155 0 L79 0 Q123 102 139.5 203 Q156 304 157 473 L17 473 L17 534 L611 534 L611 473 L472 473 Z " />
<glyph glyph-name="uni0621" unicode="&#x621;" horiz-adv-x="472" d="M412 70 L412 0 L48 0 L65 70 L155 70 Q116 124 116 181 Q116 255 164.5 300.5 Q213 346 289 346 Q334 346 393 327 L393 251 Q343 271 287 271 Q239 271 207.5 246 Q176 221 176 181 Q176 153 191 123.5 Q206 94 235 70 L412 70 Z " />
<glyph glyph-name="uni0627" unicode="&#x627;" horiz-adv-x="225" d="M145 770 L145 0 L80 0 L80 770 L145 770 Z " />
<glyph glyph-name="uniFE8E" unicode="&#xfe8e;" horiz-adv-x="264" d="M154 192 Q154 127 178.5 98.5 Q203 70 259 70 L264 70 Q284 70 284 35 Q284 0 264 0 L259 0 Q168 0 129 44.5 Q90 89 90 192 L90 771 L155 771 L154 192 Z " />
<glyph glyph-name="uni0623" unicode="&#x623;" horiz-adv-x="225" d="M80 642 L145 642 L145 0 L80 0 L80 642 Z M206 746 L206 696 L19 696 L28 746 L66 746 Q47 770 47 799 Q47 835 75 860 Q103 885 144 885 Q169 885 196 876 L196 826 Q165 835 139 835 Q90 835 90 798 Q90 784 101 769.5 Q112 755 131 746 L206 746 Z " />
<glyph glyph-name="uniFE84" unicode="&#xfe84;" horiz-adv-x="264" d="M259 0 Q168 0 129 48 Q90 96 90 207 L90 642 L155 642 L154 217 Q154 137 178 103.5 Q202 70 259 70 L264 70 Q284 70 284 35 Q284 0 264 0 L259 0 Z M216 746 L216 696 L29 696 L38 746 L76 746 Q57 770 57 799 Q57 835 85 860 Q113 885 154 885 Q179 885 206 876 L206 826 Q175 835 149 835 Q100 835 100 798 Q100 784 111 769.5 Q122 755 141 746 L216 746 Z " />
<glyph glyph-name="uni0625" unicode="&#x625;" horiz-adv-x="225" d="M145 770 L145 0 L80 0 L80 770 L145 770 Z M206 -177 L206 -227 L19 -227 L28 -177 L66 -177 Q47 -153 47 -124 Q47 -88 75 -63 Q103 -38 144 -38 Q169 -38 196 -47 L196 -97 Q165 -88 139 -88 Q90 -88 90 -125 Q90 -139 101 -153.5 Q112 -168 131 -177 L206 -177 Z " />
<glyph glyph-name="uniFE88" unicode="&#xfe88;" horiz-adv-x="264" d="M154 192 Q154 127 178.5 98.5 Q203 70 259 70 L264 70 Q284 70 284 35 Q284 0 264 0 L259 0 Q168 0 129 44.5 Q90 89 90 192 L90 771 L155 771 L154 192 Z M236 -177 L236 -227 L49 -227 L58 -177 L96 -177 Q77 -153 77 -124 Q77 -88 105 -63 Q133 -38 174 -38 Q199 -38 226 -47 L226 -97 Q195 -88 169 -88 Q120 -88 120 -125 Q120 -139 131 -153.5 Q142 -168 161 -177 L236 -177 Z " />
<glyph glyph-name="uni0622" unicode="&#x622;" horiz-adv-x="225" d="M80 642 L145 642 L145 0 L80 0 L80 642 Z M245 731 Q232 723 222 720 Q212 717 195 717 Q167 717 142.5 721 Q118 725 114 726 Q68 734 44 734 Q11 734 11 701 L-34 701 Q-34 739 -12.5 761.5 Q9 784 44 784 Q77 784 122 775 Q172 767 195 767 Q221 767 245 778 L245 731 Z " />
<glyph glyph-name="uniFE82" unicode="&#xfe82;" horiz-adv-x="264" d="M259 0 Q168 0 129 48 Q90 96 90 207 L90 642 L155 642 L154 217 Q154 137 178 103.5 Q202 70 259 70 L264 70 Q284 70 284 35 Q284 0 264 0 L259 0 Z M255 731 Q242 723 232 720 Q222 717 205 717 Q177 717 152.5 721 Q128 725 124 726 Q78 734 54 734 Q21 734 21 701 L-24 701 Q-24 739 -2.5 761.5 Q19 784 54 784 Q87 784 132 775 Q182 767 205 767 Q231 767 255 778 L255 731 Z " />
<glyph glyph-name="uni0671" unicode="&#x671;" horiz-adv-x="225" d="M80 642 L145 642 L145 0 L80 0 L80 642 Z M153 877 Q189 877 212.5 853 Q236 829 236 793 Q236 751 211.5 725 Q187 699 145 699 Q118 699 80 708 Q52 714 40 714 Q7 714 7 681 L-38 681 Q-38 715 -19 737 Q0 759 32 762 Q83 877 153 877 Z M141 747 Q165 747 178.5 757.5 Q192 768 192 785 Q192 804 178.5 815.5 Q165 827 146 827 Q125 827 105.5 809 Q86 791 71 758 Q79 756 99.5 751.5 Q120 747 141 747 Z " />
<glyph glyph-name="uniFB51" unicode="&#xfb51;" horiz-adv-x="264" d="M259 0 Q168 0 129 48 Q90 96 90 207 L90 642 L155 642 L154 217 Q154 137 178 103.5 Q202 70 259 70 L264 70 Q284 70 284 35 Q284 0 264 0 L259 0 Z M163 877 Q199 877 222.5 853 Q246 829 246 793 Q246 751 221.5 725 Q197 699 155 699 Q128 699 90 708 Q62 714 50 714 Q17 714 17 681 L-28 681 Q-28 715 -9 737 Q10 759 42 762 Q93 877 163 877 Z M151 747 Q175 747 188.5 757.5 Q202 768 202 785 Q202 804 188.5 815.5 Q175 827 156 827 Q135 827 115.5 809 Q96 791 81 758 Q89 756 109.5 751.5 Q130 747 151 747 Z " />
<glyph glyph-name="uni066E" unicode="&#x66e;" horiz-adv-x="842" d="M407 -12 Q60 -12 60 196 Q60 249 76 303 L136 303 Q122 252 122 211 Q122 58 407 58 Q551 58 636.5 82.5 Q722 107 722 148 Q722 181 714.5 232 Q707 283 694 338 L759 338 Q770 287 776 231 Q782 175 782 132 Q782 89 735.5 56.5 Q689 24 604 6 Q519 -12 407 -12 Z " />
<glyph glyph-name="uni0628" unicode="&#x628;" horiz-adv-x="842" d="M407 -12 Q60 -12 60 196 Q60 249 76 303 L136 303 Q122 252 122 211 Q122 58 407 58 Q551 58 636.5 82.5 Q722 107 722 148 Q722 181 714.5 232 Q707 283 694 338 L759 338 Q770 287 776 231 Q782 175 782 132 Q782 89 735.5 56.5 Q689 24 604 6 Q519 -12 407 -12 Z M421 -132 Q444 -132 457 -146 Q470 -160 470 -185 Q470 -210 457 -223.5 Q444 -237 421 -237 Q398 -237 385 -223.5 Q372 -210 372 -185 Q372 -160 385 -146 Q398 -132 421 -132 Z " />
<glyph glyph-name="uniFE90" unicode="&#xfe90;" horiz-adv-x="861" d="M860 70 Q870 70 875.5 60.5 Q881 51 881 35 Q881 19 875.5 9.5 Q870 0 860 0 Q730 0 698 107 Q631 50 539 19 Q447 -12 344 -12 Q207 -12 133.5 41 Q60 94 60 196 Q60 249 76 303 L136 303 Q122 252 122 211 Q122 136 179.5 97 Q237 58 344 58 Q477 58 587.5 111.5 Q698 165 753 255 L794 223 Q776 190 752 160 Q767 70 860 70 Z M421 -132 Q444 -132 457 -146 Q470 -160 470 -185 Q470 -210 457 -223.5 Q444 -237 421 -237 Q398 -237 385 -223.5 Q372 -210 372 -185 Q372 -160 385 -146 Q398 -132 421 -132 Z " />
<glyph glyph-name="uniFE92" unicode="&#xfe92;" horiz-adv-x="320" d="M319 70 Q329 70 334.5 60.5 Q340 51 340 35 Q340 19 334.5 9.5 Q329 0 319 0 Q205 0 162 72 Q141 38 98.5 19 Q56 0 1 0 Q-9 0 -14.5 9.5 Q-20 19 -20 35 Q-20 51 -14.5 60.5 Q-9 70 1 70 Q54 70 91 88 Q128 106 141 135 L139 153 L129 268 L191 268 L200 163 Q208 70 319 70 Z M159 -132 Q182 -132 195 -146 Q208 -160 208 -185 Q208 -210 195 -223.5 Q182 -237 159 -237 Q136 -237 123 -223.5 Q110 -210 110 -185 Q110 -160 123 -146 Q136 -132 159 -132 Z " />
<glyph glyph-name="uniFE91" unicode="&#xfe91;" horiz-adv-x="262" d="M0 0 Q-20 0 -20 35 Q-20 70 0 70 L30 70 Q85 70 113.5 88 Q142 106 142 141 Q142 173 134.5 226.5 Q127 280 114 338 L179 338 Q189 285 195.5 227 Q202 169 202 125 Q202 68 155 34 Q108 0 30 0 L0 0 Z M104 -132 Q127 -132 140 -146 Q153 -160 153 -185 Q153 -210 140 -223.5 Q127 -237 104 -237 Q81 -237 68 -223.5 Q55 -210 55 -185 Q55 -160 68 -146 Q81 -132 104 -132 Z " />
<glyph glyph-name="uni067E" unicode="&#x67e;" horiz-adv-x="842" d="M407 -12 Q60 -12 60 196 Q60 249 76 303 L136 303 Q122 252 122 211 Q122 58 407 58 Q551 58 636.5 82.5 Q722 107 722 148 Q722 181 714.5 232 Q707 283 694 338 L759 338 Q770 287 776 231 Q782 175 782 132 Q782 89 735.5 56.5 Q689 24 604 6 Q519 -12 407 -12 Z M358 -239 Q335 -239 322 -225 Q309 -211 309 -186 Q309 -161 322 -147.5 Q335 -134 358 -134 Q381 -134 394 -147.5 Q407 -161 407 -186 Q407 -211 394 -225 Q381 -239 358 -239 Z M484 -239 Q461 -239 448 -225 Q435 -211 435 -186 Q435 -161 448 -147.5 Q461 -134 484 -134 Q507 -134 520 -147.5 Q533 -161 533 -186 Q533 -211 520 -225 Q507 -239 484 -239 Z M421 -363 Q398 -363 385 -349 Q372 -335 372 -310 Q372 -285 385 -271.5 Q398 -258 421 -258 Q444 -258 457 -271.5 Q470 -285 470 -310 Q470 -335 457 -349 Q444 -363 421 -363 Z " />
<glyph glyph-name="uniFB57" unicode="&#xfb57;" horiz-adv-x="861" d="M860 70 Q870 70 875.5 60.5 Q881 51 881 35 Q881 19 875.5 9.5 Q870 0 860 0 Q730 0 698 107 Q631 50 539 19 Q447 -12 344 -12 Q207 -12 133.5 41 Q60 94 60 196 Q60 249 76 303 L136 303 Q122 252 122 211 Q122 136 179.5 97 Q237 58 344 58 Q477 58 587.5 111.5 Q698 165 753 255 L794 223 Q776 190 752 160 Q767 70 860 70 Z M358 -239 Q335 -239 322 -225 Q309 -211 309 -186 Q309 -161 322 -147.5 Q335 -134 358 -134 Q381 -134 394 -147.5 Q407 -161 407 -186 Q407 -211 394 -225 Q381 -239 358 -239 Z M484 -239 Q461 -239 448 -225 Q435 -211 435 -186 Q435 -161 448 -147.5 Q461 -134 484 -134 Q507 -134 520 -147.5 Q533 -161 533 -186 Q533 -211 520 -225 Q507 -239 484 -239 Z M421 -363 Q398 -363 385 -349 Q372 -335 372 -310 Q372 -285 385 -271.5 Q398 -258 421 -258 Q444 -258 457 -271.5 Q470 -285 470 -310 Q470 -335 457 -349 Q444 -363 421 -363 Z " />
<glyph glyph-name="uniFB59" unicode="&#xfb59;" horiz-adv-x="320" d="M319 70 Q329 70 334.5 60.5 Q340 51 340 35 Q340 19 334.5 9.5 Q329 0 319 0 Q205 0 162 72 Q141 38 98.5 19 Q56 0 1 0 Q-9 0 -14.5 9.5 Q-20 19 -20 35 Q-20 51 -14.5 60.5 Q-9 70 1 70 Q54 70 91 88 Q128 106 141 135 L139 153 L129 268 L191 268 L200 163 Q208 70 319 70 Z M96 -239 Q73 -239 60 -225 Q47 -211 47 -186 Q47 -161 60 -147.5 Q73 -134 96 -134 Q119 -134 132 -147.5 Q145 -161 145 -186 Q145 -211 132 -225 Q119 -239 96 -239 Z M222 -239 Q199 -239 186 -225 Q173 -211 173 -186 Q173 -161 186 -147.5 Q199 -134 222 -134 Q245 -134 258 -147.5 Q271 -161 271 -186 Q271 -211 258 -225 Q245 -239 222 -239 Z M159 -363 Q136 -363 123 -349 Q110 -335 110 -310 Q110 -285 123 -271.5 Q136 -258 159 -258 Q182 -258 195 -271.5 Q208 -285 208 -310 Q208 -335 195 -349 Q182 -363 159 -363 Z " />
<glyph glyph-name="uniFB58" unicode="&#xfb58;" horiz-adv-x="262" d="M0 0 Q-20 0 -20 35 Q-20 70 0 70 L30 70 Q85 70 113.5 88 Q142 106 142 141 Q142 173 134.5 226.5 Q127 280 114 338 L179 338 Q189 285 195.5 227 Q202 169 202 125 Q202 68 155 34 Q108 0 30 0 L0 0 Z M41 -239 Q18 -239 5 -225 Q-8 -211 -8 -186 Q-8 -161 5 -147.5 Q18 -134 41 -134 Q64 -134 77 -147.5 Q90 -161 90 -186 Q90 -211 77 -225 Q64 -239 41 -239 Z M167 -239 Q144 -239 131 -225 Q118 -211 118 -186 Q118 -161 131 -147.5 Q144 -134 167 -134 Q190 -134 203 -147.5 Q216 -161 216 -186 Q216 -211 203 -225 Q190 -239 167 -239 Z M104 -363 Q81 -363 68 -349 Q55 -335 55 -310 Q55 -285 68 -271.5 Q81 -258 104 -258 Q127 -258 140 -271.5 Q153 -285 153 -310 Q153 -335 140 -349 Q127 -363 104 -363 Z " />
<glyph glyph-name="uni062A" unicode="&#x62a;" horiz-adv-x="842" d="M407 -12 Q60 -12 60 196 Q60 249 76 303 L136 303 Q122 252 122 211 Q122 58 407 58 Q551 58 636.5 82.5 Q722 107 722 148 Q722 181 714.5 232 Q707 283 694 338 L759 338 Q770 287 776 231 Q782 175 782 132 Q782 89 735.5 56.5 Q689 24 604 6 Q519 -12 407 -12 Z M357 497 Q380 497 393 483 Q406 469 406 444 Q406 419 393 405.5 Q380 392 357 392 Q334 392 321 405.5 Q308 419 308 444 Q308 469 321 483 Q334 497 357 497 Z M485 497 Q508 497 521 483 Q534 469 534 444 Q534 419 521 405.5 Q508 392 485 392 Q462 392 449 405.5 Q436 419 436 444 Q436 469 449 483 Q462 497 485 497 Z " />
<glyph glyph-name="uniFE96" unicode="&#xfe96;" horiz-adv-x="861" d="M860 70 Q870 70 875.5 60.5 Q881 51 881 35 Q881 19 875.5 9.5 Q870 0 860 0 Q730 0 698 107 Q631 50 539 19 Q447 -12 344 -12 Q207 -12 133.5 41 Q60 94 60 196 Q60 249 76 303 L136 303 Q122 252 122 211 Q122 136 179.5 97 Q237 58 344 58 Q477 58 587.5 111.5 Q698 165 753 255 L794 223 Q776 190 752 160 Q767 70 860 70 Z M357 497 Q380 497 393 483 Q406 469 406 444 Q406 419 393 405.5 Q380 392 357 392 Q334 392 321 405.5 Q308 419 308 444 Q308 469 321 483 Q334 497 357 497 Z M485 497 Q508 497 521 483 Q534 469 534 444 Q534 419 521 405.5 Q508 392 485 392 Q462 392 449 405.5 Q436 419 436 444 Q436 469 449 483 Q462 497 485 497 Z " />
<glyph glyph-name="uniFE98" unicode="&#xfe98;" horiz-adv-x="320" d="M319 70 Q329 70 334.5 60.5 Q340 51 340 35 Q340 19 334.5 9.5 Q329 0 319 0 Q205 0 162 72 Q141 38 98.5 19 Q56 0 1 0 Q-9 0 -14.5 9.5 Q-20 19 -20 35 Q-20 51 -14.5 60.5 Q-9 70 1 70 Q54 70 91 88 Q128 106 141 135 L139 153 L129 268 L191 268 L200 163 Q208 70 319 70 Z M90 462 Q113 462 126 448 Q139 434 139 409 Q139 384 126 370.5 Q113 357 90 357 Q67 357 54 370.5 Q41 384 41 409 Q41 434 54 448 Q67 462 90 462 Z M218 462 Q241 462 254 448 Q267 434 267 409 Q267 384 254 370.5 Q241 357 218 357 Q195 357 182 370.5 Q169 384 169 409 Q169 434 182 448 Q195 462 218 462 Z " />
<glyph glyph-name="uniFE97" unicode="&#xfe97;" horiz-adv-x="262" d="M0 0 Q-20 0 -20 35 Q-20 70 0 70 L30 70 Q85 70 113.5 88 Q142 106 142 141 Q142 173 134.5 226.5 Q127 280 114 338 L179 338 Q189 285 195.5 227 Q202 169 202 125 Q202 68 155 34 Q108 0 30 0 L0 0 Z M73 532 Q96 532 109 518 Q122 504 122 479 Q122 454 109 440.5 Q96 427 73 427 Q50 427 37 440.5 Q24 454 24 479 Q24 504 37 518 Q50 532 73 532 Z M201 532 Q224 532 237 518 Q250 504 250 479 Q250 454 237 440.5 Q224 427 201 427 Q178 427 165 440.5 Q152 454 152 479 Q152 504 165 518 Q178 532 201 532 Z " />
<glyph glyph-name="uni062B" unicode="&#x62b;" horiz-adv-x="842" d="M407 -12 Q60 -12 60 196 Q60 249 76 303 L136 303 Q122 252 122 211 Q122 58 407 58 Q551 58 636.5 82.5 Q722 107 722 148 Q722 181 714.5 232 Q707 283 694 338 L759 338 Q770 287 776 231 Q782 175 782 132 Q782 89 735.5 56.5 Q689 24 604 6 Q519 -12 407 -12 Z M421 516 Q398 516 385 529.5 Q372 543 372 568 Q372 593 385 607 Q398 621 421 621 Q444 621 457 607 Q470 593 470 568 Q470 543 457 529.5 Q444 516 421 516 Z M357 392 Q334 392 321 405.5 Q308 419 308 444 Q308 469 321 483 Q334 497 357 497 Q380 497 393 483 Q406 469 406 444 Q406 419 393 405.5 Q380 392 357 392 Z M485 392 Q462 392 449 405.5 Q436 419 436 444 Q436 469 449 483 Q462 497 485 497 Q508 497 521 483 Q534 469 534 444 Q534 419 521 405.5 Q508 392 485 392 Z " />
<glyph glyph-name="uniFE9A" unicode="&#xfe9a;" horiz-adv-x="861" d="M860 70 Q870 70 875.5 60.5 Q881 51 881 35 Q881 19 875.5 9.5 Q870 0 860 0 Q730 0 698 107 Q631 50 539 19 Q447 -12 344 -12 Q207 -12 133.5 41 Q60 94 60 196 Q60 249 76 303 L136 303 Q122 252 122 211 Q122 136 179.5 97 Q237 58 344 58 Q477 58 587.5 111.5 Q698 165 753 255 L794 223 Q776 190 752 160 Q767 70 860 70 Z M421 516 Q398 516 385 529.5 Q372 543 372 568 Q372 593 385 607 Q398 621 421 621 Q444 621 457 607 Q470 593 470 568 Q470 543 457 529.5 Q444 516 421 516 Z M357 392 Q334 392 321 405.5 Q308 419 308 444 Q308 469 321 483 Q334 497 357 497 Q380 497 393 483 Q406 469 406 444 Q406 419 393 405.5 Q380 392 357 392 Z M485 392 Q462 392 449 405.5 Q436 419 436 444 Q436 469 449 483 Q462 497 485 497 Q508 497 521 483 Q534 469 534 444 Q534 419 521 405.5 Q508 392 485 392 Z " />
<glyph glyph-name="uniFE9C" unicode="&#xfe9c;" horiz-adv-x="320" d="M319 70 Q329 70 334.5 60.5 Q340 51 340 35 Q340 19 334.5 9.5 Q329 0 319 0 Q205 0 162 72 Q141 38 98.5 19 Q56 0 1 0 Q-9 0 -14.5 9.5 Q-20 19 -20 35 Q-20 51 -14.5 60.5 Q-9 70 1 70 Q54 70 91 88 Q128 106 141 135 L139 153 L129 268 L191 268 L200 163 Q208 70 319 70 Z M154 481 Q131 481 118 494.5 Q105 508 105 533 Q105 558 118 572 Q131 586 154 586 Q177 586 190 572 Q203 558 203 533 Q203 508 190 494.5 Q177 481 154 481 Z M90 357 Q67 357 54 370.5 Q41 384 41 409 Q41 434 54 448 Q67 462 90 462 Q113 462 126 448 Q139 434 139 409 Q139 384 126 370.5 Q113 357 90 357 Z M218 357 Q195 357 182 370.5 Q169 384 169 409 Q169 434 182 448 Q195 462 218 462 Q241 462 254 448 Q267 434 267 409 Q267 384 254 370.5 Q241 357 218 357 Z " />
<glyph glyph-name="uniFE9B" unicode="&#xfe9b;" horiz-adv-x="262" d="M0 0 Q-20 0 -20 35 Q-20 70 0 70 L30 70 Q85 70 113.5 88 Q142 106 142 141 Q142 173 134.5 226.5 Q127 280 114 338 L179 338 Q189 285 195.5 227 Q202 169 202 125 Q202 68 155 34 Q108 0 30 0 L0 0 Z M137 551 Q114 551 101 564.5 Q88 578 88 603 Q88 628 101 642 Q114 656 137 656 Q160 656 173 642 Q186 628 186 603 Q186 578 173 564.5 Q160 551 137 551 Z M73 427 Q50 427 37 440.5 Q24 454 24 479 Q24 504 37 518 Q50 532 73 532 Q96 532 109 518 Q122 504 122 479 Q122 454 109 440.5 Q96 427 73 427 Z M201 427 Q178 427 165 440.5 Q152 454 152 479 Q152 504 165 518 Q178 532 201 532 Q224 532 237 518 Q250 504 250 479 Q250 454 237 440.5 Q224 427 201 427 Z " />
<glyph glyph-name="uni0679" unicode="&#x679;" horiz-adv-x="842" d="M407 -12 Q60 -12 60 196 Q60 249 76 303 L136 303 Q122 252 122 211 Q122 58 407 58 Q551 58 636.5 82.5 Q722 107 722 148 Q722 181 714.5 232 Q707 283 694 338 L759 338 Q770 287 776 231 Q782 175 782 132 Q782 89 735.5 56.5 Q689 24 604 6 Q519 -12 407 -12 Z M461 567 Q496 567 520 540.5 Q544 514 544 477 Q544 433 513.5 410 Q483 387 433 387 L278 387 L287 437 L322 437 L322 661 L367 661 L367 500 Q384 532 409 549.5 Q434 567 461 567 Z M433 437 Q463 437 481.5 445 Q500 453 500 469 Q500 489 484.5 503 Q469 517 451 517 Q426 517 403.5 495 Q381 473 368 437 L433 437 Z " />
<glyph glyph-name="uniFB67" unicode="&#xfb67;" horiz-adv-x="861" d="M860 70 Q870 70 875.5 60.5 Q881 51 881 35 Q881 19 875.5 9.5 Q870 0 860 0 Q730 0 698 107 Q631 50 539 19 Q447 -12 344 -12 Q207 -12 133.5 41 Q60 94 60 196 Q60 249 76 303 L136 303 Q122 252 122 211 Q122 136 179.5 97 Q237 58 344 58 Q477 58 587.5 111.5 Q698 165 753 255 L794 223 Q776 190 752 160 Q767 70 860 70 Z M461 567 Q496 567 520 540.5 Q544 514 544 477 Q544 433 513.5 410 Q483 387 433 387 L278 387 L287 437 L322 437 L322 661 L367 661 L367 500 Q384 532 409 549.5 Q434 567 461 567 Z M433 437 Q463 437 481.5 445 Q500 453 500 469 Q500 489 484.5 503 Q469 517 451 517 Q426 517 403.5 495 Q381 473 368 437 L433 437 Z " />
<glyph glyph-name="uniFB69" unicode="&#xfb69;" horiz-adv-x="320" d="M319 70 Q329 70 334.5 60.5 Q340 51 340 35 Q340 19 334.5 9.5 Q329 0 319 0 Q205 0 162 72 Q141 38 98.5 19 Q56 0 1 0 Q-9 0 -14.5 9.5 Q-20 19 -20 35 Q-20 51 -14.5 60.5 Q-9 70 1 70 Q54 70 91 88 Q128 106 141 135 L139 153 L129 268 L191 268 L200 163 Q208 70 319 70 Z M194 532 Q229 532 253 505.5 Q277 479 277 442 Q277 398 246.5 375 Q216 352 166 352 L11 352 L20 402 L55 402 L55 626 L100 626 L100 465 Q117 497 142 514.5 Q167 532 194 532 Z M166 402 Q196 402 214.5 410 Q233 418 233 434 Q233 454 217.5 468 Q202 482 184 482 Q159 482 136.5 460 Q114 438 101 402 L166 402 Z " />
<glyph glyph-name="uniFB68" unicode="&#xfb68;" horiz-adv-x="262" d="M0 0 Q-20 0 -20 35 Q-20 70 0 70 L30 70 Q85 70 113.5 88 Q142 106 142 141 Q142 173 134.5 226.5 Q127 280 114 338 L179 338 Q189 285 195.5 227 Q202 169 202 125 Q202 68 155 34 Q108 0 30 0 L0 0 Z M177 602 Q212 602 236 575.5 Q260 549 260 512 Q260 468 229.5 445 Q199 422 149 422 L-6 422 L3 472 L38 472 L38 696 L83 696 L83 535 Q100 567 125 584.5 Q150 602 177 602 Z M149 472 Q179 472 197.5 480 Q216 488 216 504 Q216 524 200.5 538 Q185 552 167 552 Q142 552 119.5 530 Q97 508 84 472 L149 472 Z " />
<glyph glyph-name="uni062C" unicode="&#x62c;" horiz-adv-x="600" d="M459 175 Q354 175 266.5 141 Q179 107 128 48 Q77 -11 77 -81 Q77 -132 107 -171 Q137 -210 191.5 -231 Q246 -252 318 -252 Q382 -252 446 -238.5 Q510 -225 553 -203 L553 -275 Q505 -296 441 -309 Q377 -322 318 -322 Q228 -322 159.5 -292 Q91 -262 54 -207.5 Q17 -153 17 -81 Q17 -3 67 63.5 Q117 130 203.5 174 Q290 218 398 229 Q360 248 315 275 Q259 308 224 323 Q189 338 151 338 Q130 338 111.5 334.5 Q93 331 65 322 L65 390 Q111 408 151 408 Q202 408 248.5 387 Q295 366 361 325 Q428 284 471.5 264.5 Q515 245 562 245 L562 175 L459 175 Z M309 2 Q332 2 345 -12 Q358 -26 358 -51 Q358 -76 345 -89.5 Q332 -103 309 -103 Q286 -103 273 -89.5 Q260 -76 260 -51 Q260 -26 273 -12 Q286 2 309 2 Z " />
<glyph glyph-name="uniFE9E" unicode="&#xfe9e;" horiz-adv-x="600" d="M599 70 Q609 70 614.5 60.5 Q620 51 620 35 Q620 19 614.5 9.5 Q609 0 599 0 Q508 0 464.5 41 Q421 82 415 173 Q320 166 243 131 Q166 96 121.5 40 Q77 -16 77 -81 Q77 -132 107 -171 Q137 -210 191.5 -231 Q246 -252 318 -252 Q382 -252 446 -238.5 Q510 -225 553 -203 L553 -275 Q505 -296 441 -309 Q377 -322 318 -322 Q228 -322 159.5 -292 Q91 -262 54 -207.5 Q17 -153 17 -81 Q17 -3 67 63.5 Q117 130 203.5 174 Q290 218 398 229 Q360 248 315 275 Q259 308 224 323 Q189 338 151 338 Q130 338 111.5 334.5 Q93 331 65 322 L65 390 Q111 408 151 408 Q202 408 248.5 387 Q295 366 361 325 Q428 284 471.5 264.5 Q515 245 562 245 L562 175 L470 175 Q475 118 504 94 Q533 70 599 70 Z M299 -3 Q322 -3 335 -17 Q348 -31 348 -56 Q348 -81 335 -94.5 Q322 -108 299 -108 Q276 -108 263 -94.5 Q250 -81 250 -56 Q250 -31 263 -17 Q276 -3 299 -3 Z " />
<glyph glyph-name="uniFEA0" unicode="&#xfea0;" horiz-adv-x="600" d="M599 70 Q609 70 614.5 60.5 Q620 51 620 35 Q620 19 614.5 9.5 Q609 0 599 0 Q520 0 479 32.5 Q438 65 427 136 Q394 124 312 86 Q222 44 158 22 Q94 0 23 0 L0 0 Q-20 0 -20 35 Q-20 70 0 70 L23 70 Q81 70 141 89 Q201 108 288 144 Q337 165 371 178 Q405 191 434 196 Q377 216 314 250 Q258 278 223 290.5 Q188 303 151 303 Q130 303 111.5 299.5 Q93 296 65 287 L65 355 Q111 373 151 373 Q202 373 248.5 354.5 Q295 336 361 300 Q428 264 471.5 247 Q515 230 562 230 L562 160 L549 160 Q516 160 481 152 Q488 109 516.5 89.5 Q545 70 599 70 Z M290 -72 Q313 -72 326 -86 Q339 -100 339 -125 Q339 -150 326 -163.5 Q313 -177 290 -177 Q267 -177 254 -163.5 Q241 -150 241 -125 Q241 -100 254 -86 Q267 -72 290 -72 Z " />
<glyph glyph-name="uniFE9F" unicode="&#xfe9f;" horiz-adv-x="622" d="M151 373 Q202 373 248.5 354.5 Q295 336 361 300 Q428 264 471.5 247 Q515 230 562 230 L562 160 L549 160 Q496 160 443.5 141.5 Q391 123 311 86 Q221 43 157.5 21.5 Q94 0 23 0 L0 0 Q-20 0 -20 35 Q-20 70 0 70 L23 70 Q81 70 141 89 Q201 108 288 144 Q337 165 371 178 Q405 191 434 196 Q377 216 314 250 Q258 278 223 290.5 Q188 303 151 303 Q130 303 111.5 299.5 Q93 296 65 287 L65 355 Q111 373 151 373 Z M290 -72 Q313 -72 326 -86 Q339 -100 339 -125 Q339 -150 326 -163.5 Q313 -177 290 -177 Q267 -177 254 -163.5 Q241 -150 241 -125 Q241 -100 254 -86 Q267 -72 290 -72 Z " />
</font>
</svg>
