<?xml version="1.0" encoding="utf-8"?>
<!-- Generator: Adobe Illustrator 15.0.2, SVG Export Plug-In . SVG Version: 6.00 Build 0)  -->
<!DOCTYPE svg PUBLIC "-//W3C//DTD SVG 1.1//EN" "http://www.w3.org/Graphics/SVG/1.1/DTD/svg11.dtd">
<svg version="1.1" id="Capa_1" xmlns="http://www.w3.org/2000/svg" xmlns:xlink="http://www.w3.org/1999/xlink" x="0px" y="0px"
	 width="245.852px" height="192.852px" viewBox="0 0 245.852 192.852" enable-background="new 0 0 245.852 192.852"
	 xml:space="preserve">
<g>
	<g>
		<g>
			<path fill="#20A2FF" d="M38.577,6.157l29.48,29.485h160.942l-27.344,40.264h-94.409v7.558h89.283l-25.565,37.427H94.202
				l7.9,25.69h62.423v0.125c8.438,0.644,15.129,7.646,15.129,16.251c0,9.038-7.354,16.395-16.393,16.395
				c-9.031,0-16.385-7.354-16.385-16.395c0-3.251,0.984-6.273,2.623-8.823h-27.358c1.641,2.55,2.623,5.572,2.623,8.823
				c0,9.038-7.353,16.395-16.393,16.395c-9.034,0-16.383-7.354-16.383-16.395c0-4.053,1.53-7.728,3.982-10.593L61.255,39.537
				L35.438,13.721H5V6.157H38.577z M163.265,171.787c4.869,0,8.825-3.956,8.825-8.828c0-4.859-3.956-8.827-8.825-8.827
				c-4.866,0-8.82,3.968-8.82,8.827C154.445,167.831,158.399,171.787,163.265,171.787z M108.375,171.787
				c4.869,0,8.823-3.956,8.823-8.828c0-4.859-3.958-8.827-8.823-8.827c-4.868,0-8.824,3.968-8.824,8.827
				C99.552,167.831,103.508,171.787,108.375,171.787z"/>
		</g>
	</g>
</g>
</svg>
