<?xml version="1.0" encoding="utf-8"?>
<!-- Generator: Adobe Illustrator 16.0.3, SVG Export Plug-In . SVG Version: 6.00 Build 0)  -->
<!DOCTYPE svg PUBLIC "-//W3C//DTD SVG 1.1//EN" "http://www.w3.org/Graphics/SVG/1.1/DTD/svg11.dtd">
<svg version="1.1" id="pc_x5F_zoom_1_" xmlns="http://www.w3.org/2000/svg" xmlns:xlink="http://www.w3.org/1999/xlink" x="0px"
	 y="0px" viewBox="0 0 41 41" enable-background="new 0 0 41 41" xml:space="preserve">
<g id="pc_x5F_zoom_3_">
	<g>
		<path fill-rule="evenodd" clip-rule="evenodd" d="M39.508,37.172l-9.392-9.321c2.431-2.943,3.892-6.718,3.892-10.835
			C34.008,7.617,26.396,0,17.002,0C7.613,0,0,7.617,0,17.016s7.613,17.018,17.002,17.018c4.08,0,7.82-1.439,10.75-3.835l9.389,9.315
			c0.656,0.648,1.715,0.648,2.367,0C40.164,38.867,40.164,37.818,39.508,37.172z M3.098,17.014c0-7.688,6.229-13.921,13.908-13.921
			c7.684,0,13.91,6.233,13.91,13.921c0,7.689-6.227,13.922-13.91,13.922C9.326,30.936,3.098,24.703,3.098,17.014z"/>
	</g>
</g>
</svg>
