<?xml version="1.0" encoding="utf-8"?>
<!-- Generator: Adobe Illustrator 16.0.3, SVG Export Plug-In . SVG Version: 6.00 Build 0)  -->
<!DOCTYPE svg PUBLIC "-//W3C//DTD SVG 1.1//EN" "http://www.w3.org/Graphics/SVG/1.1/DTD/svg11.dtd">
<svg version="1.1" id="Icon" xmlns="http://www.w3.org/2000/svg" xmlns:xlink="http://www.w3.org/1999/xlink" x="0px" y="0px"
	 viewBox="0 0 36 40" enable-background="new 0 0 36 40" xml:space="preserve">
<g>
	<path d="M32.5,3.5v33h-29v-33H32.5 M34,2H2v36h32V2L34,2z"/>
</g>
<g>
	<path d="M29.5,7.486v3.02h-23v-3.02H29.5 M31,5.986H5v6.02h26V5.986L31,5.986z"/>
</g>
<g id="Rectangle_89_copy_10">
	<g>
		<path d="M7,19.005h4v-4.02H7V19.005z M25,14.986v4.02h4v-4.02H25z M16,19.005h4v-4.02h-4V19.005z"/>
	</g>
</g>
<g id="Rectangle_89_copy_11">
	<g>
		<path d="M7,26.006h4v-4.02H7V26.006z M25,21.986v4.02h4v-4.02H25z M16,26.006h4v-4.02h-4V26.006z"/>
	</g>
</g>
<g id="Rectangle_89_copy_12">
	<g>
		<path d="M7,33.006h4v-4.02H7V33.006z M25,28.986v4.02h4v-4.02H25z M16,33.006h4v-4.02h-4V33.006z"/>
	</g>
</g>
</svg>
