<?xml version="1.0" encoding="utf-8"?>
<!-- Generator: Adobe Illustrator 21.0.2, SVG Export Plug-In . SVG Version: 6.00 Build 0)  -->
<svg version="1.1" id="레이어_1" xmlns="http://www.w3.org/2000/svg" xmlns:xlink="http://www.w3.org/1999/xlink" x="0px"
	 y="0px" viewBox="0 0 18 20" style="enable-background:new 0 0 18 20;" xml:space="preserve">
<path d="M1,18.5c-0.1,0-0.2,0-0.2-0.1c-0.2-0.1-0.3-0.3-0.3-0.4V3.6c0-1.2,0.9-2.1,2.1-2.1h12.8c1.2,0,2.1,0.9,2.1,2.1v9.6
	c0,1.2-0.9,2.1-2.1,2.1h-10l-4.1,3.1C1.2,18.5,1.1,18.5,1,18.5z M2.6,2.5C2,2.5,1.5,3,1.5,3.6V17l3.4-2.6c0.1-0.1,0.2-0.1,0.3-0.1
	h10.2c0.6,0,1.1-0.5,1.1-1.1V3.6c0-0.6-0.5-1.1-1.1-1.1H2.6z"/>
<path d="M13.8,12.1c-0.1,0-0.2,0-0.3-0.1l-2.4-1.9v1.5c0,0.3-0.2,0.5-0.5,0.5H4.2c-0.3,0-0.5-0.2-0.5-0.5V5.2c0-0.3,0.2-0.5,0.5-0.5
	h6.4c0.3,0,0.5,0.2,0.5,0.5v1.5l2.4-1.9c0.2-0.1,0.4-0.1,0.5-0.1c0.2,0.1,0.3,0.3,0.3,0.5v6.4c0,0.2-0.1,0.4-0.3,0.5
	C13.9,12.1,13.9,12.1,13.8,12.1z M4.7,11.1h5.4V9c0-0.2,0.1-0.4,0.3-0.5c0.2-0.1,0.4-0.1,0.5,0.1l2.4,1.9V6.2l-2.4,1.9
	c-0.2,0.1-0.4,0.1-0.5,0.1c-0.2-0.1-0.3-0.3-0.3-0.5V5.7H4.7V11.1z"/>
</svg>
