<?xml version="1.0" encoding="utf-8"?>
<!-- Generator: Adobe Illustrator 16.0.3, SVG Export Plug-In . SVG Version: 6.00 Build 0)  -->
<!DOCTYPE svg PUBLIC "-//W3C//DTD SVG 1.1//EN" "http://www.w3.org/Graphics/SVG/1.1/DTD/svg11.dtd">
<svg version="1.1" id="레이어_1" xmlns="http://www.w3.org/2000/svg" xmlns:xlink="http://www.w3.org/1999/xlink" x="0px"
	 y="0px" viewBox="0 0 97 97" enable-background="new 0 0 96 96" xml:space="preserve">
<g>
	<g>
		<polyline fill="none" stroke="#fff" stroke-width="1.5" stroke-miterlimit="10" points="31.636,44.984 48,61.348 
			64.363,44.984"/>
		<line fill="none" stroke="#fff" stroke-width="1.5" stroke-miterlimit="10" x1="48" y1="21.97" x2="48" y2="61.348"/>
	</g>
	<line fill="none" stroke="#fff" stroke-width="1.5" stroke-miterlimit="10" x1="26.671" y1="74.03" x2="69.328" y2="74.03"/>
</g>
<g>
	<path fill="#fff" d="M81,1.5c7.444,0,13.5,6.056,13.5,13.5v66c0,7.444-6.056,13.5-13.5,13.5H15C7.556,94.5,1.5,88.444,1.5,81V15
		C1.5,7.556,7.556,1.5,15,1.5H81 M81,0H15C6.715,0,0,6.716,0,15v66c0,8.284,6.716,15,15,15h66c8.284,0,15-6.716,15-15V15
		C96,6.716,89.284,0,81,0L81,0z"/>
</g>
</svg>
