<?xml version="1.0" encoding="utf-8"?>
<!-- Generator: Adobe Illustrator 16.0.3, SVG Export Plug-In . SVG Version: 6.00 Build 0)  -->
<!DOCTYPE svg PUBLIC "-//W3C//DTD SVG 1.1//EN" "http://www.w3.org/Graphics/SVG/1.1/DTD/svg11.dtd">
<svg version="1.1" id="레이어_1" xmlns="http://www.w3.org/2000/svg" xmlns:xlink="http://www.w3.org/1999/xlink" x="0px"
	 y="0px" viewBox="0 0 97 97" enable-background="new 0 0 96 96" xml:space="preserve">
<g>
	<g>
		<path fill="none" stroke="#fff" stroke-width="1.5" stroke-miterlimit="10" d="M60.347,1.833c1.681,0,3.049,1.368,3.049,3.05v48.383c0,1.682-1.368,3.05-3.049,3.05H38.4h-1.5v1.5v7.481l-13.703-8.746
			l-0.369-0.235H22.39H4.748c-1.681,0-3.048-1.368-3.048-3.05V4.884c0-1.682,1.367-3.05,3.048-3.05H60.347 M60.347"/>
	</g>
	<line fill="none" stroke="#fff" stroke-width="1.5" stroke-miterlimit="10" x1="14.768" y1="27.192" x2="47.327" y2="27.192"/>
	<line fill="none" stroke="#fff" stroke-width="1.5" stroke-miterlimit="10" x1="14.768" y1="15.889" x2="47.327" y2="15.889"/>
	<line fill="none" stroke="#fff" stroke-width="1.5" stroke-miterlimit="10" x1="14.768" y1="38.495" x2="38.23" y2="38.495"/>
</g>
<g>
	<path fill="none" stroke="#fff" stroke-width="1.5" stroke-miterlimit="10" d="M38.037,72.949v8.346
		c0,2.504,2.044,4.548,4.548,4.548h18.914V94c0,0.893,0.988,1.434,1.74,0.954l14.271-9.111h12.906c2.502,0,4.547-2.044,4.547-4.548
		v-42.28c0-2.5-2.045-4.548-4.547-4.548H70.437"/>
	<line fill="none" stroke="#fff" stroke-width="1.5" stroke-miterlimit="10" x1="70.437" y1="50.133" x2="83.747" y2="50.133"/>
	<line fill="none" stroke="#fff" stroke-width="1.5" stroke-miterlimit="10" x1="68.923" y1="61.541" x2="83.747" y2="61.541"/>
	<line fill="none" stroke="#fff" stroke-width="1.5" stroke-miterlimit="10" x1="49.857" y1="72.949" x2="83.747" y2="72.949"/>
</g>
</svg>
