<?xml version="1.0" encoding="utf-8"?>
<!-- Generator: Adobe Illustrator 16.0.3, SVG Export Plug-In . SVG Version: 6.00 Build 0)  -->
<!DOCTYPE svg PUBLIC "-//W3C//DTD SVG 1.1//EN" "http://www.w3.org/Graphics/SVG/1.1/DTD/svg11.dtd">
<svg version="1.1" id="Icon" xmlns="http://www.w3.org/2000/svg" xmlns:xlink="http://www.w3.org/1999/xlink" x="0px" y="0px"
	 viewBox="0 0 36 40" enable-background="new 0 0 36 40" xml:space="preserve">
<g>
	<path d="M34.5,29.786v1.505c0,1.223-1.021,2.217-2.277,2.217H3.778c-1.256,0-2.278-0.994-2.278-2.217v-1.505H34.5 M36,28.294H0
		v2.997C0,33.339,1.691,35,3.778,35h28.445C34.309,35,36,33.339,36,31.291V28.294L36,28.294z"/>
	<path d="M33.75,29.289h-1.5V7.479c0-0.544-0.452-0.987-1.008-0.987H4.757c-0.556,0-1.007,0.443-1.007,0.987v21.81h-1.5V7.479
		C2.25,6.112,3.375,5,4.757,5h26.485c1.383,0,2.508,1.112,2.508,2.479V29.289z"/>
	<path d="M27.5,10.555v13.924h-19V10.555H27.5 M29,9.063H7v16.909h22V9.063L29,9.063z"/>
	<g id="Rectangle_90">
		<g>
			<rect x="15.985" y="29.276" width="4.03" height="2.015"/>
		</g>
	</g>
</g>
</svg>
