<?xml version="1.0" encoding="utf-8"?>
<!-- Generator: Adobe Illustrator 16.0.0, SVG Export Plug-In . SVG Version: 6.00 Build 0)  -->
<!DOCTYPE svg PUBLIC "-//W3C//DTD SVG 1.1//EN" "http://www.w3.org/Graphics/SVG/1.1/DTD/svg11.dtd">
<svg version="1.1" id="레이어_1" xmlns="http://www.w3.org/2000/svg" xmlns:xlink="http://www.w3.org/1999/xlink" x="0px"
	 y="0px" width="40px" height="20px" viewBox="0 0 40 20" enable-background="new 0 0 40 20" xml:space="preserve">
<polygon id="BG" display="none" fill="#17A14E" points="32.121,20 0,20 0,0 32.121,0 40,10 "/>
<g id="A" display="none">
	<path display="inline" fill="#FFFFFF" d="M10.351,12.715H6.486L5.748,15.1h-1.79L7.495,4.816h1.86L12.893,15.1h-1.804
		L10.351,12.715z M9.882,11.223L8.404,6.478l-1.463,4.745H9.882z"/>
</g>
<g id="_x2B__x2B__x2B_" display="none">
	<rect x="13.012" y="7.253" display="inline" fill="#FFFFFF" width="5.454" height="1.212"/>
	<rect x="15.133" y="5.132" display="inline" fill="#FFFFFF" width="1.212" height="5.454"/>
</g>
<g id="_x2B__x2B__x2B__1_" display="none">
	<rect x="19.826" y="7.253" display="inline" fill="#FFFFFF" width="5.455" height="1.212"/>
	<rect x="21.947" y="5.132" display="inline" fill="#FFFFFF" width="1.212" height="5.454"/>
</g>
<g id="_x2B__x2B__x2B__2_" display="none">
	<rect x="26.642" y="7.253" display="inline" fill="#FFFFFF" width="5.454" height="1.212"/>
	<rect x="28.763" y="5.132" display="inline" fill="#FFFFFF" width="1.212" height="5.454"/>
</g>
<polygon id="BG_1_" display="none" fill="#17A14E" points="32.121,20 0,20 0,0 32.121,0 40,10 "/>
<g id="A_1_" display="none">
	<path display="inline" fill="#FFFFFF" d="M10.351,12.715H6.487l-0.739,2.386h-1.79L7.495,4.817h1.861l3.537,10.284h-1.804
		L10.351,12.715z M9.882,11.223L8.404,6.479l-1.463,4.744H9.882z"/>
</g>
<g id="B" display="none">
	<path display="inline" fill="#FFFFFF" d="M12.254,12.062c0,0.966-0.289,1.714-0.867,2.244S10,15.101,8.958,15.101H5.791H4.867
		V4.817h1.69h1.918c1.013,0,1.799,0.253,2.358,0.76c0.559,0.507,0.838,1.219,0.838,2.138c0,0.995-0.445,1.648-1.335,1.96
		C11.615,10.044,12.254,10.84,12.254,12.062z M6.558,6.337v2.77h1.918c0.975,0,1.463-0.455,1.463-1.363
		c0-0.938-0.516-1.406-1.548-1.406H6.558z M10.507,12.09c0-1.014-0.516-1.52-1.548-1.52H6.558v3.011h2.486
		C10.019,13.581,10.507,13.084,10.507,12.09z"/>
</g>
<g id="C">
	<path fill="#FFFFFF" d="M5.514,13.929c-0.819-0.895-1.229-2.146-1.229-3.757c0-1.127,0.187-2.107,0.561-2.94
		C5.22,6.398,5.755,5.757,6.451,5.307c0.696-0.449,1.513-0.674,2.45-0.674c0.512,0,1.011,0.069,1.499,0.206
		c0.488,0.138,0.921,0.329,1.3,0.576l-0.583,1.321c-0.748-0.369-1.496-0.554-2.244-0.554c-0.899,0-1.596,0.336-2.088,1.008
		c-0.493,0.672-0.739,1.624-0.739,2.855c0,1.212,0.253,2.126,0.76,2.741c0.507,0.616,1.257,0.924,2.251,0.924
		c0.853,0,1.567-0.166,2.145-0.497l0.583,1.292c-0.303,0.237-0.703,0.424-1.2,0.562c-0.498,0.138-1.035,0.206-1.612,0.206
		C7.486,15.271,6.333,14.824,5.514,13.929z"/>
</g>
<g id="D" display="none">
	<path display="inline" fill="#FFFFFF" d="M11.558,6.109c0.795,0.862,1.193,2.14,1.193,3.835c0,1.705-0.4,2.99-1.2,3.856
		c-0.8,0.867-1.963,1.3-3.487,1.3H4.867V4.817h3.21C9.602,4.817,10.762,5.248,11.558,6.109z M10.251,12.665
		c0.492-0.611,0.739-1.518,0.739-2.72c0-2.405-0.985-3.608-2.955-3.608H6.572v7.244h1.478C9.024,13.581,9.758,13.275,10.251,12.665z
		"/>
</g>
<g id="E" display="none">
	<path display="inline" fill="#FFFFFF" d="M11.373,13.581v1.52H4.867V4.817h6.321v1.52H6.572v2.741h3.409v1.534H6.572v2.969H11.373z
		"/>
</g>
<g id="F" display="none">
	<path display="inline" fill="#FFFFFF" d="M6.572,6.337v2.997h3.665v1.534H6.572v4.232H4.867V4.817h6.222v1.52H6.572z"/>
</g>
<g id="G" display="none">
	<path display="inline" fill="#FFFFFF" d="M12.254,9.348v5.156c-0.379,0.247-0.836,0.438-1.371,0.576
		c-0.535,0.137-1.101,0.205-1.697,0.205c-1.515,0-2.687-0.466-3.516-1.398s-1.243-2.242-1.243-3.928S4.841,6.964,5.67,6.031
		s2-1.399,3.516-1.399c0.578,0,1.122,0.066,1.634,0.199c0.511,0.133,0.947,0.322,1.307,0.568l-0.511,1.363
		c-0.853-0.397-1.671-0.597-2.458-0.597c-1.979,0-2.969,1.265-2.969,3.793c0,2.538,0.999,3.807,2.997,3.807
		c0.464,0,0.918-0.062,1.364-0.185v-2.713H8.802v-1.52H12.254z"/>
</g>
</svg>
