<?xml version="1.0" encoding="utf-8"?>
<!-- Generator: Adobe Illustrator 16.0.0, SVG Export Plug-In . SVG Version: 6.00 Build 0)  -->
<!DOCTYPE svg PUBLIC "-//W3C//DTD SVG 1.1//EN" "http://www.w3.org/Graphics/SVG/1.1/DTD/svg11.dtd">
<svg version="1.1" id="레이어_1" xmlns="http://www.w3.org/2000/svg" xmlns:xlink="http://www.w3.org/1999/xlink" x="0px"
	 y="0px" viewBox="0 0 41 41" enable-background="new 0 0 41 41" xml:space="preserve">
<g>
	<path fill="#1428a0" d="M20,0C8.954,0,0,8.954,0,20c0,11.047,8.954,20,20,20c11.047,0,20-8.953,20-20C40,8.954,31.047,0,20,0z
		 M9.93,32.911C9.707,33.153,9.471,33,9.313,33H9.25c-0.75,0-1.084-0.835-1.119-1.213C7.574,25.591,9.889,21.611,10.91,20.1
		c0.484-0.726,0.977-1.371,1.432-1.885c-0.078-0.27-0.121-0.561-0.121-0.844c0-1.568,1.273-2.846,2.838-2.846
		s2.836,1.268,2.836,2.826c0,1.563-1.271,2.836-2.836,2.836c-0.424,0-0.84-0.097-1.225-0.281c-0.258,0.332-0.533,0.755-0.801,1.167
		l-0.281,0.429c-1.908,2.855-2.727,6.309-2.367,10.182C10.414,32.059,10.248,32.566,9.93,32.911z M14.729,24.712
		c-0.557,0-1.107-0.061-1.639-0.18c-0.473-0.112-0.762-0.571-0.664-1.046c0.117-0.478,0.6-0.773,1.053-0.665
		c0.4,0.092,0.822,0.139,1.25,0.139c3.063,0,5.555-2.489,5.555-5.549s-2.492-5.549-5.555-5.549s-5.553,2.489-5.553,5.549
		c0,0.894,0.205,1.745,0.609,2.53c0.107,0.204,0.129,0.441,0.059,0.665c-0.072,0.227-0.232,0.408-0.447,0.515
		c-0.393,0.209-0.955,0.043-1.172-0.377c-0.525-1.016-0.803-2.167-0.803-3.333c0-4.029,3.277-7.307,7.307-7.307
		c4.031,0,7.31,3.277,7.31,7.307C22.038,21.438,18.76,24.712,14.729,24.712z M28.339,17h-0.1c-0.637,0-1.273-0.117-1.841-0.387
		c-2.105-1.002-3.004-3.517-2.003-5.621c0.694-1.466,2.195-2.406,3.822-2.406c0.63,0,1.239,0.141,1.812,0.413
		c1.019,0.481,1.788,1.336,2.166,2.402c0.379,1.066,0.319,2.214-0.167,3.23c-0.167,0.328-0.326,0.586-0.505,0.813
		c-0.187,0.238-0.576,0.286-0.816,0.097c-0.252-0.201-0.292-0.567-0.093-0.818c0.137-0.171,0.262-0.375,0.361-0.59
		c0.354-0.743,0.396-1.577,0.119-2.351c-0.274-0.769-0.832-1.382-1.568-1.728c-0.417-0.199-0.859-0.3-1.316-0.3
		c-1.178,0-2.262,0.688-2.763,1.752c-0.354,0.734-0.399,1.562-0.129,2.329c0.272,0.775,0.833,1.397,1.577,1.752
		c0.414,0.194,0.847,0.293,1.284,0.293l0.116-0.002c0.001,0,0.001,0,0.001,0c0.334,0,0.598,0.23,0.604,0.543
		C28.913,16.741,28.667,17,28.339,17z M34.523,19.405c-0.1,0.201-0.302,0.326-0.525,0.326c-0.067,0-0.134-0.012-0.198-0.034
		c-2.904-1.072-4.452-2.888-5.24-4.222c-0.226-0.386-0.424-0.79-0.589-1.204c-0.148-0.02-0.299-0.063-0.456-0.132
		c-0.387-0.184-0.672-0.499-0.811-0.89c-0.138-0.389-0.114-0.809,0.064-1.182c0.354-0.747,1.313-1.091,2.065-0.731
		c0.766,0.366,1.096,1.292,0.735,2.063c-0.109,0.225-0.271,0.421-0.467,0.567c0.145,0.339,0.303,0.647,0.48,0.938
		c1.007,1.695,2.56,2.938,4.614,3.698c0.299,0.115,0.451,0.438,0.35,0.737L34.523,19.405z"/>
</g>
</svg>
