<?xml version="1.0" encoding="utf-8"?>
<!-- Generator: Adobe Illustrator 16.0.0, SVG Export Plug-In . SVG Version: 6.00 Build 0)  -->
<!DOCTYPE svg PUBLIC "-//W3C//DTD SVG 1.1//EN" "http://www.w3.org/Graphics/SVG/1.1/DTD/svg11.dtd">
<svg version="1.1" id="레이어_1" xmlns="http://www.w3.org/2000/svg" xmlns:xlink="http://www.w3.org/1999/xlink" x="0px"
	 y="0px" width="40px" height="40px" viewBox="0 0 40 40" enable-background="new 0 0 40 40" xml:space="preserve">
<path fill="#1428a0" d="M20,0C8.954,0,0,8.954,0,20c0,11.047,8.954,20,20,20c11.047,0,20-8.953,20-20C40,8.954,31.047,0,20,0z
	 M8.083,19.917c0-5.9,3.917-10.795,9.917-11.74v7.535c0,5.312-2.931,9.876-7.1,11.893C9.143,25.532,8.083,22.851,8.083,19.917z
	 M19.996,31.823c-2.072,0-4.02-0.53-5.716-1.461c2.76-1.744,4.976-4.369,5.718-7.438c0.741,3.069,2.957,5.693,5.715,7.438
	C24.015,31.293,22.069,31.823,19.996,31.823z M29.092,27.605C24.908,25.581,22,20.992,22,15.655V8.179
	c6,0.945,9.917,5.84,9.917,11.739C31.917,22.849,30.848,25.53,29.092,27.605z"/>
</svg>
