<?xml version="1.0" encoding="utf-8"?>
<!-- Generator: Adobe Illustrator 16.0.0, SVG Export Plug-In . SVG Version: 6.00 Build 0)  -->
<!DOCTYPE svg PUBLIC "-//W3C//DTD SVG 1.1//EN" "http://www.w3.org/Graphics/SVG/1.1/DTD/svg11.dtd">
<svg version="1.1" id="레이어_1" xmlns="http://www.w3.org/2000/svg" xmlns:xlink="http://www.w3.org/1999/xlink" x="0px"
	 y="0px" width="16px" height="16px" viewBox="0 0 16 16" enable-background="new 0 0 16 16" xml:space="preserve">
<g>
	<path fill="#1428A0" d="M7.562,11.245c-0.762-0.557-1.524-1.115-2.286-1.674c-0.026-0.02-0.053-0.01-0.067,0.012
		c-0.003,0.002-0.007,0.006-0.01,0.01c-1.075,1.471-2.151,2.941-3.227,4.414c-0.051,0.07-0.103,0.141-0.155,0.211
		c-0.007,0.01-0.011,0.025-0.011,0.043c0,0,0.391,1.219,0.537,1.678c0.008,0.023,0.029,0.041,0.054,0.041h0.11h1.294h0.353
		c0.019-0.008,0.034-0.016,0.043-0.029c0.04-0.055,0.08-0.109,0.12-0.162c0.605-0.828,1.209-1.656,1.814-2.482
		c0.483-0.662,0.968-1.322,1.451-1.984C7.601,11.296,7.584,11.263,7.562,11.245"/>
	<path fill="#1428A0" d="M14.193,1.714c-0.179-0.558-0.358-1.115-0.536-1.672C13.649,0.018,13.629,0,13.603,0h-1.75
		c-0.022,0-0.037,0.011-0.047,0.025c-0.001,0.001-0.001,0.001-0.002,0.003c-0.816,1.117-1.635,2.233-2.452,3.352
		C9.334,3.403,9.347,3.443,9.372,3.456c0.897,0.465,1.553,1.281,1.806,2.261c0.013,0.052,0.074,0.051,0.103,0.014
		c0.495-0.678,0.991-1.355,1.487-2.032C12.985,3.4,14.19,1.751,14.19,1.751C14.195,1.738,14.195,1.726,14.193,1.714"/>
	<path fill="#1428A0" d="M8.542,2.878c-1.942,0-3.522,1.58-3.522,3.523h0.836c0-1.482,1.205-2.687,2.686-2.687
		c1.481,0,2.687,1.204,2.687,2.687c0,0.71-0.889,2.074-1.374,2.806c-0.08,0.125-0.157,0.238-0.222,0.338
		c-0.18,0.281-0.196,0.676-0.215,1.094c-0.02,0.473-0.042,1.006-0.299,1.193c-0.185,0.135-0.544,0.135-1.04-0.002l-0.223,0.807
		c0.322,0.088,0.609,0.133,0.865,0.133c0.357,0,0.651-0.086,0.89-0.26c0.583-0.426,0.616-1.207,0.642-1.836
		c0.011-0.234,0.025-0.586,0.084-0.674c0.063-0.1,0.136-0.209,0.216-0.33c0.606-0.92,1.512-2.307,1.512-3.27
		C12.064,4.458,10.484,2.878,8.542,2.878"/>
	<path fill="#1428A0" d="M6.81,6.402c0-0.956,0.777-1.733,1.733-1.733c0.954,0,1.731,0.777,1.731,1.733
		c0,0.252-0.056,0.492-0.152,0.708l0.582,0.274c0.137-0.299,0.214-0.632,0.214-0.982c0-1.311-1.066-2.377-2.376-2.377
		c-1.31,0-2.376,1.066-2.376,2.377H6.81z"/>
</g>
</svg>
