<?xml version="1.0" encoding="utf-8"?>
<!-- Generator: Adobe Illustrator 16.0.0, SVG Export Plug-In . SVG Version: 6.00 Build 0)  -->
<!DOCTYPE svg PUBLIC "-//W3C//DTD SVG 1.1//EN" "http://www.w3.org/Graphics/SVG/1.1/DTD/svg11.dtd">
<svg version="1.1" id="Layer_1" xmlns="http://www.w3.org/2000/svg" xmlns:xlink="http://www.w3.org/1999/xlink" x="0px" y="0px"
	 width="14.36px" height="10.77px" viewBox="0 0 14.36 10.77" enable-background="new 0 0 14.36 10.77" xml:space="preserve">
<g>
	<path fill="#fff" d="M14.36,1.055c0,0.585-0.471,1.058-1.055,1.058H1.056c-0.583,0-1.055-0.473-1.055-1.058l0,0C0.001,0.472,0.473,0,1.056,0
		h12.25C13.89,0,14.36,0.472,14.36,1.055L14.36,1.055z"/>
	<path fill="#fff" d="M14.36,5.49c0,0.583-0.471,1.054-1.055,1.054H1.056c-0.583,0-1.055-0.471-1.055-1.054l0,0c0-0.585,0.472-1.056,1.055-1.056
		h12.25C13.89,4.435,14.36,4.905,14.36,5.49L14.36,5.49z"/>
	<path fill="#fff" d="M14.36,9.714c0,0.584-0.471,1.057-1.055,1.057H1.056c-0.583,0-1.055-0.473-1.055-1.057l0,0
		c0-0.583,0.472-1.057,1.055-1.057h12.25C13.89,8.657,14.36,9.131,14.36,9.714L14.36,9.714z"/>
</g>
</svg>
