<?xml version="1.0" encoding="utf-8"?>
<!-- Generator: Adobe Illustrator 16.0.0, SVG Export Plug-In . SVG Version: 6.00 Build 0)  -->
<!DOCTYPE svg PUBLIC "-//W3C//DTD SVG 1.1//EN" "http://www.w3.org/Graphics/SVG/1.1/DTD/svg11.dtd">
<svg version="1.1" id="Layer_1" xmlns="http://www.w3.org/2000/svg" xmlns:xlink="http://www.w3.org/1999/xlink" x="0px" y="0px"
	 width="13.52px" height="13.85px" viewBox="0 0 13.52 13.85" enable-background="new 0 0 13.52 13.85" xml:space="preserve">
<path fill="#fff" d="M13.279,11.451l-2.965-2.849c0.555-0.868,0.881-1.897,0.881-3.005C11.195,2.506,8.688,0,5.598,0C2.507,0,0,2.506,0,5.598
	c0,3.092,2.507,5.598,5.598,5.598c0.884,0,1.717-0.211,2.46-0.576l3.133,3.006c0.314,0.305,0.816,0.293,1.121-0.022l0.99-1.028
	C13.605,12.257,13.596,11.754,13.279,11.451z M2.159,5.598c0-1.898,1.539-3.439,3.439-3.439c1.898,0,3.439,1.541,3.439,3.439
	S7.497,9.035,5.598,9.035C3.698,9.035,2.159,7.496,2.159,5.598z"/>
</svg>
